<svg width="50" height="51" viewBox="0 0 50 51" fill="none" xmlns="http://www.w3.org/2000/svg">
<g clip-path="url(#clip0)">
<path d="M13.5732 9.23047H24.5129C26.0795 5.71934 28.8344 2.88018 28.8574 2.83398C29.2969 2.42383 29.4141 1.80859 29.1797 1.25195C28.9454 0.695313 28.4181 0.34375 27.8322 0.34375C25.1954 0.34375 23.7599 1.28125 22.6173 2.04297C21.5919 2.74609 20.8009 3.27344 19.0431 3.27344C17.2853 3.27344 16.4943 2.74609 15.4689 2.04297C14.3263 1.28125 12.8908 0.34375 10.254 0.34375C9.6681 0.34375 9.14076 0.695313 8.90638 1.25195C8.67201 1.80859 8.78919 2.42383 9.22865 2.83398C9.25179 2.88018 12.0066 5.71934 13.5732 9.23047Z" fill="white"/>
<path d="M29.3945 45.9492V48.8789C29.3945 49.6879 30.0504 50.3438 30.8594 50.3438H48.5352C49.3441 50.3438 50 49.6879 50 48.8789V45.9492C50 45.1402 49.3441 44.4844 48.5352 44.4844H30.8594C30.0504 44.4844 29.3945 45.1402 29.3945 45.9492Z" fill="white"/>
<path d="M50 40.0898V37.1602C50 36.3512 49.3441 35.6953 48.5352 35.6953H30.8594C30.0504 35.6953 29.3945 36.3512 29.3945 37.1602V40.0898C29.3945 40.8988 30.0504 41.5547 30.8594 41.5547H48.5352C49.3441 41.5547 50 40.8988 50 40.0898Z" fill="white"/>
<path d="M29.209 24.0352C26.3379 21.2227 23.9941 18.8398 23.5254 15.0898H24.9023C25.7227 15.0898 26.3672 14.4453 26.3672 13.625C26.3672 12.8047 25.7227 12.1602 24.9023 12.1602H13.1836C12.3633 12.1602 11.7188 12.8047 11.7188 13.625C11.7188 14.4453 12.3633 15.0898 13.1836 15.0898H14.5605C14.0918 18.8398 11.748 21.2227 8.87695 24.0352C4.7168 28.1074 0 32.7363 0 43.3125C0.0585938 47.1797 3.36914 50.3437 7.32422 50.3437H26.6367C26.4727 49.8838 26.3672 49.3945 26.3672 48.8789V37.1602C26.3672 34.7373 28.3389 32.7656 30.7617 32.7656H36.0088C34.2363 28.9668 31.6074 26.3887 29.209 24.0352ZM19.043 32.7656C21.4662 32.7656 23.4375 34.7369 23.4375 37.1602C23.4375 39.0674 22.2092 40.6781 20.5078 41.2849V43.0195C20.5078 43.8292 19.8526 44.4844 19.043 44.4844C18.2333 44.4844 17.5781 43.8292 17.5781 43.0195V41.2849C15.8768 40.6782 14.6484 39.0674 14.6484 37.1602C14.6484 36.3505 15.3036 35.6953 16.1133 35.6953C16.923 35.6953 17.5781 36.3505 17.5781 37.1602C17.5781 37.9684 18.2348 38.625 19.043 38.625C19.8512 38.625 20.5078 37.9684 20.5078 37.1602C20.5078 36.352 19.8512 35.6953 19.043 35.6953C16.6197 35.6953 14.6484 33.724 14.6484 31.3008C14.6484 29.3936 15.8768 27.7828 17.5781 27.1761V25.4414C17.5781 24.6317 18.2333 23.9766 19.043 23.9766C19.8526 23.9766 20.5078 24.6317 20.5078 25.4414V27.1761C22.2092 27.7827 23.4375 29.3936 23.4375 31.3008C23.4375 32.1104 22.7823 32.7656 21.9727 32.7656C21.163 32.7656 20.5078 32.1104 20.5078 31.3008C20.5078 30.4926 19.8512 29.8359 19.043 29.8359C18.2348 29.8359 17.5781 30.4926 17.5781 31.3008C17.5781 32.109 18.2348 32.7656 19.043 32.7656Z" fill="white"/>
</g>
<defs>
<clipPath id="clip0">
<rect width="50" height="50" fill="white" transform="translate(0 0.34375)"/>
</clipPath>
</defs>
</svg>
