<svg xmlns="http://www.w3.org/2000/svg" width="70" height="70" fill="none" viewBox="0 0 70 70">
    <path fill="#FFC000" d="M20.508 17.363H34.18c.652 0 1.261-.312 1.652-.834 2.987-3.988 4.501-8.399 4.501-13.111V2.051C40.332.918 39.414 0 38.282 0c-3.799 0-8.753 2.46-10.938 3.657C25.158 2.46 20.204 0 16.406 0c-1.132 0-2.05.918-2.05 2.05v1.368c0 4.712 1.514 9.123 4.5 13.111.391.522 1 .834 1.652.834zM28.931 47.506v5.806c1.048-.566 1.67-1.61 1.837-2.6.119-.706.167-2.403-1.837-3.206zM24.483 40.103c-.144.763.04 1.474.47 1.811.169.132.358.261.56.388v-3.86c-.597.417-.922 1.085-1.03 1.661z"/>
    <path fill="#FFC000" d="M38.555 51.725V41.55c0-2.841 2.044-5.235 4.86-5.69 1.457-.235 2.724-1.144 3.421-2.44-2.938-4.063-6.396-7.847-9.826-11.34-.385-.394-.913-.615-1.463-.615H19.14c-.55 0-1.078.221-1.464.614C8.936 30.985 0 41.775 0 54.277v.147C.02 63.013 7.122 70 15.834 70h23.02c2.436 0 4.745-.547 6.81-1.521-4.445-4.293-7.11-10.287-7.11-16.754zm-4.417-.446c-.26 1.552-1.041 2.992-2.197 4.054-.865.795-1.887 1.339-3.01 1.614v1.295c0 .944-.765 1.71-1.709 1.71-.944 0-1.709-.766-1.709-1.71v-1.136c-1.431-.118-2.61-.496-4.285-1.592-.79-.517-1.012-1.576-.495-2.366s1.576-1.011 2.366-.494c.969.634 1.587.904 2.414 1.014V46.16c-1.133-.517-1.977-1.014-2.669-1.557-1.444-1.133-2.104-3.1-1.72-5.133.418-2.218 1.96-3.982 4.027-4.604.122-.037.243-.07.362-.102v-1.131c0-.944.765-1.71 1.71-1.71.943 0 1.708.766 1.708 1.71v.942c1.715.286 2.925 1.127 3.51 1.797.62.712.545 1.791-.166 2.411-.709.617-1.781.547-2.403-.155-.04-.042-.347-.34-.94-.544v5.784c.322.12.645.236.962.348 3.115 1.1 4.78 3.874 4.244 7.063z"/>
    <path fill="#FFC000" d="M68.586 39.909c-2.784-.45-5.222-2.213-6.506-4.789-.174-.35-.537-.566-.929-.566h-9.646c-.392 0-.755.216-.929.566-1.283 2.576-3.721 4.339-6.506 4.789-.811.131-1.414.82-1.414 1.641v10.175c0 8.244 5.262 15.538 13.022 18.168.421.142.88.142 1.3 0C64.738 67.263 70 59.969 70 51.725V41.55c0-.821-.603-1.51-1.414-1.641zM63.58 49.91l-7.734 7.734c-.4.4-.925.6-1.45.6-.525 0-1.05-.2-1.45-.6l-3.867-3.867c-.801-.8-.801-2.1 0-2.9.8-.801 2.1-.801 2.9 0l2.417 2.417 6.284-6.284c.8-.801 2.1-.801 2.9 0 .8.8.8 2.1 0 2.9z"/>
</svg>
