<svg xmlns="http://www.w3.org/2000/svg" width="70" height="70" fill="none" viewBox="0 0 70 70">
    <g clip-path="url(#clip0)">
        <path fill="#FFC000" d="M2.05 65.212h4.102c1.132 0 2.05-.918 2.05-2.05V40.603H2.051C.918 40.604 0 41.523 0 42.655v20.506c0 1.132.918 2.05 2.05 2.05zM53.59 3.693c-9.061 0-16.406 7.345-16.406 16.405 0 9.06 7.345 16.405 16.405 16.405 9.06 0 16.405-7.345 16.405-16.405 0-9.06-7.344-16.405-16.405-16.405zm3.436 23.786c-.444.222-.91.396-1.386.529v.567c0 1.132-.919 2.05-2.051 2.05-1.133 0-2.05-.918-2.05-2.05v-.503c-.854-.215-1.65-.576-2.325-1.082-.906-.68-1.09-1.965-.41-2.87.68-.907 1.965-1.09 2.871-.41.82.614 2.398.66 3.517.1.45-.224.692-.495.692-.636 0-.245 0-.283-.273-.428-.535-.286-1.481-.461-2.396-.631-1.222-.227-2.485-.461-3.579-1.045-1.598-.853-2.443-2.253-2.443-4.047 0-1.797 1.077-3.366 2.956-4.305.445-.223.912-.4 1.39-.532v-.563c0-1.133.917-2.05 2.05-2.05 1.133 0 2.05.917 2.05 2.05v.502c.854.215 1.65.576 2.325 1.082.906.68 1.09 1.965.41 2.871-.68.906-1.965 1.09-2.871.41-.822-.616-2.4-.662-3.52-.102-.452.226-.689.491-.689.637 0 .245 0 .283.273.428.535.286 1.481.462 2.396.631 1.221.227 2.485.461 3.58 1.045 1.597.854 2.442 2.253 2.442 4.047 0 1.795-1.078 3.364-2.96 4.305zM37.02 66.306h.452c6.89-.082 13.493-2.037 19.317-5.564l11.442-7.998c1.928-1.353 2.297-3.896 1.025-5.7-1.312-1.887-3.855-2.338-5.7-1.026l-10.992 7.71c-3.527 2.051-7.833 2.502-11.73 1.19L28.19 50.735c-1.066-.328-1.64-1.518-1.271-2.584.328-1.025 1.394-1.6 2.46-1.312.041 0 14.205 4.593 14.205 4.593 2.385.715 4.503-.635 5.167-2.625.697-2.174-.492-4.47-2.625-5.167l-19.29-6.316c-4.218-1.536-9.904-1.219-14.531 1.369v22.956l16.09 3.645c2.948.649 5.84 1.012 8.627 1.012z"/>
    </g>
    <defs>
        <clipPath id="clip0">
            <path fill="#fff" d="M0 0H70V70H0z"/>
        </clipPath>
    </defs>
</svg>
