<svg width="65" height="65" viewBox="0 0 65 65" fill="none" xmlns="http://www.w3.org/2000/svg">
<path d="M33.3488 35.4741C33.2285 35.4481 33.1052 35.4434 32.9833 35.4616C31.7625 35.3195 30.8416 34.2866 30.8395 33.058C30.8395 32.4692 30.3621 31.9918 29.7733 31.9918C29.1845 31.9918 28.7071 32.4692 28.7071 33.058C28.7103 35.1097 30.0826 36.9068 32.0608 37.4498V38.516C32.0608 39.1048 32.5382 39.5822 33.127 39.5822C33.7158 39.5822 34.1932 39.1048 34.1932 38.516V37.5144C36.4766 37.0365 38.0285 34.9098 37.7885 32.5895C37.548 30.2692 35.5931 28.5059 33.2603 28.5054C31.9234 28.5054 30.8395 27.4215 30.8395 26.0846C30.8395 24.7477 31.9234 23.6638 33.2603 23.6638C34.5972 23.6638 35.6811 24.7477 35.6811 26.0846C35.6811 26.6734 36.1585 27.1508 36.7473 27.1508C37.3361 27.1508 37.8135 26.6734 37.8135 26.0846C37.8103 23.9304 36.3011 22.0723 34.1932 21.6277V20.6573C34.1932 20.0685 33.7158 19.5912 33.127 19.5912C32.5382 19.5912 32.0608 20.0685 32.0608 20.6573V21.6928C29.8608 22.2936 28.4448 24.4296 28.7477 26.6901C29.0507 28.9505 30.9796 30.6378 33.2603 30.6372C34.5795 30.6372 35.6556 31.6935 35.6795 33.0122C35.704 34.3309 34.667 35.4262 33.3488 35.4741Z" fill="#042463"/>
<path d="M17.7988 29.6533C17.7988 38.1922 24.7207 45.1141 33.2596 45.1141C41.7985 45.1141 48.7203 38.1922 48.7203 29.6533C48.7203 21.1145 41.7985 14.1926 33.2596 14.1926C24.7249 14.2019 17.8087 21.1186 17.7988 29.6533ZM33.2596 16.3249C40.6209 16.3249 46.588 22.2921 46.588 29.6533C46.588 37.0146 40.6209 42.9817 33.2596 42.9817C25.8983 42.9817 19.9312 37.0146 19.9312 29.6533C19.9395 22.2957 25.902 16.3333 33.2596 16.3249Z" fill="#042463"/>
<path d="M53.9769 47.7426L45.6249 51.6887C44.4718 49.5439 42.2598 48.1788 39.8254 48.1101L32.1154 47.8982C30.8946 47.8634 29.6967 47.5541 28.6112 46.9934L27.8267 46.5868C23.8097 44.493 19.0218 44.4982 15.009 46.6004L15.0579 44.8231C15.0741 44.2343 14.6102 43.7439 14.0214 43.7277L5.56687 43.495C4.97808 43.4789 4.48819 43.9427 4.47205 44.5315L3.96135 63.0846C3.94521 63.6734 4.40906 64.1638 4.99786 64.18L13.4524 64.4127H13.4815C14.0594 64.4127 14.5321 63.953 14.5477 63.3757L14.5722 62.488L16.7686 61.312C17.6307 60.8481 18.6386 60.7378 19.5804 61.0043L32.6964 64.6855C32.7193 64.6923 32.7422 64.6975 32.7656 64.7027C33.7136 64.901 34.6798 65.0004 35.6482 64.9999C37.6993 65.001 39.7265 64.559 41.5908 63.7031C41.6366 63.6823 41.6809 63.6578 41.723 63.6302L60.74 51.3295C61.2137 51.0229 61.3668 50.4008 61.0893 49.9093C59.6775 47.4042 56.5461 46.4499 53.9769 47.7426ZM6.12235 62.0778L6.57423 45.656L12.8969 45.8299L12.445 62.2522L6.12235 62.0778ZM40.6303 61.7988C38.3141 62.8441 35.7273 63.1325 33.2378 62.6239L20.1572 58.9521C18.6849 58.5362 17.1091 58.7085 15.7623 59.4326L14.6399 60.0339L14.9403 49.1154C18.497 46.7498 23.0585 46.5067 26.8464 48.4803L27.6309 48.8869C29.0022 49.5949 30.5145 49.9853 32.0571 50.0301L39.7677 50.242C41.9333 50.3044 43.7726 51.8465 44.212 53.9684L32.7271 53.6514C32.1383 53.6352 31.6484 54.0996 31.6317 54.6879C31.6156 55.2767 32.08 55.7671 32.6682 55.7832L45.3428 56.132H45.3724C45.9498 56.1315 46.422 55.6718 46.4376 55.095C46.4506 54.6317 46.4162 54.1678 46.3345 53.7118L54.901 49.6641C54.9093 49.6605 54.9176 49.6563 54.9259 49.6521C56.141 49.0373 57.6102 49.2429 58.6097 50.1681L40.6303 61.7988Z" fill="#042463"/>
<path d="M34.3267 11.195V1.06619C34.3267 0.47739 33.8493 0 33.2605 0C32.6717 0 32.1943 0.47739 32.1943 1.06619V11.195C32.1943 11.7838 32.6717 12.2612 33.2605 12.2612C33.8493 12.2612 34.3267 11.7838 34.3267 11.195Z" fill="#042463"/>
<path d="M42.3228 11.195V6.39712C42.3228 5.80832 41.8454 5.33093 41.2566 5.33093C40.6678 5.33093 40.1904 5.80832 40.1904 6.39712V11.195C40.1904 11.7838 40.6678 12.2612 41.2566 12.2612C41.8454 12.2612 42.3228 11.7838 42.3228 11.195Z" fill="#042463"/>
<path d="M26.3296 11.195V6.39712C26.3296 5.80832 25.8523 5.33093 25.2635 5.33093C24.6747 5.33093 24.1973 5.80832 24.1973 6.39712V11.195C24.1973 11.7838 24.6747 12.2612 25.2635 12.2612C25.8523 12.2612 26.3296 11.7838 26.3296 11.195Z" fill="#042463"/>
</svg>
