<svg width="67" height="56" viewBox="0 0 67 56" fill="none" xmlns="http://www.w3.org/2000/svg">
<path d="M19.0061 11.6216C17.9574 12.6019 16.8436 13.6411 15.7692 14.6238C14.7802 15.5282 13.8805 16.3443 13.0614 17.0872C12.3921 17.6944 11.7768 18.2527 11.2105 18.7702C10.9073 19.0472 10.5257 19.1839 10.1449 19.1839C9.71678 19.1839 9.29003 19.011 8.97826 18.6699C8.38948 18.0259 8.43442 17.0267 9.0785 16.4379C9.64744 15.9177 10.2659 15.3569 10.9384 14.7467C11.7547 14.0062 12.6512 13.1929 13.6367 12.292C14.6995 11.32 15.8059 10.2875 16.8485 9.31302C17.4859 8.71687 18.4856 8.75093 19.0816 9.38851C19.6772 10.0259 19.6435 11.0256 19.0061 11.6216ZM17.9272 16.0238H17.9232C17.0505 16.0238 16.3452 16.731 16.3452 17.6037C16.3452 18.4763 17.0546 19.1836 17.9272 19.1836C18.7998 19.1836 19.5071 18.4763 19.5071 17.6037C19.5071 16.731 18.7998 16.0238 17.9272 16.0238ZM10.1484 12.0477C11.0211 12.0477 11.7283 11.3404 11.7283 10.4678C11.7283 9.59512 11.0211 8.88785 10.1484 8.88785H10.1444C9.27177 8.88785 8.56643 9.59512 8.56643 10.4678C8.56643 11.3404 9.27581 12.0477 10.1484 12.0477ZM11.0279 37.3386H2.98321C2.11058 37.3386 1.40331 38.0459 1.40331 38.9185C1.40331 39.7912 2.11058 40.4984 2.98321 40.4984H11.0279C11.9006 40.4984 12.6078 39.7912 12.6078 38.9185C12.6078 38.0459 11.9006 37.3386 11.0279 37.3386ZM11.0279 43.013H7.43048C6.55784 43.013 5.85057 43.7202 5.85057 44.5929C5.85057 45.4655 6.55784 46.1728 7.43048 46.1728H11.0279C11.9006 46.1728 12.6078 45.4655 12.6078 44.5929C12.6078 43.7202 11.9006 43.013 11.0279 43.013ZM24.785 35.2028C24.785 36.0754 25.4923 36.7827 26.365 36.7827H28.1416C29.0143 36.7827 29.7216 36.0754 29.7216 35.2028C29.7216 34.3301 29.0143 33.6229 28.1416 33.6229H26.365C25.4923 33.6229 24.785 34.3301 24.785 35.2028ZM56.3681 46.6703C55.4954 46.6703 54.7882 47.3775 54.7882 48.2502C54.7882 49.1228 55.4954 49.8301 56.3681 49.8301H56.3721C57.2448 49.8301 57.9499 49.1228 57.9499 48.2502C57.9499 47.3775 57.2405 46.6703 56.3681 46.6703ZM14.0359 28.0716C6.29645 28.0716 0 21.7752 0 14.0359C0 6.29646 6.29645 0 14.0359 0C21.7753 0 28.0718 6.29646 28.0718 14.0359C28.0716 21.7752 21.7752 28.0716 14.0359 28.0716ZM24.9118 14.0359C24.9118 8.03874 20.0329 3.15981 14.0357 3.15981C8.03857 3.15981 3.15981 8.03874 3.15981 14.0359C3.15981 20.0329 8.03874 24.9118 14.0359 24.9118C20.033 24.9118 24.9118 20.0329 24.9118 14.0359ZM66.9931 42.1249L66.9886 43.175C66.9856 43.8115 66.9822 44.5353 66.9822 45.4151C66.9822 47.3045 65.6234 48.9404 63.7076 49.5625C63.0858 53.0482 60.0321 55.7029 56.3702 55.7029C52.2607 55.7029 48.9172 52.3597 48.9172 48.2502C48.9172 44.1407 52.2607 40.7972 56.3702 40.7972C59.7315 40.7972 62.5805 43.0342 63.5065 46.0975C63.7045 45.8966 63.8224 45.6598 63.8224 45.4149C63.8224 44.5293 63.8259 43.801 63.8288 43.1602L63.8333 42.1105C63.8391 40.8248 63.847 39.0641 63.8288 38.2423C63.8158 37.6655 63.8003 37.1924 63.7598 36.783H39.4541C38.8873 36.783 37.5593 36.783 33.496 32.7673C32.2578 31.5437 29.7969 28.9399 29.3443 27.8432C29.0115 27.0366 29.3956 26.113 30.2022 25.7802C30.9967 25.4523 31.9041 25.8201 32.2496 26.6014C32.4643 26.9862 33.7491 28.5624 35.6111 30.415C37.9562 32.7478 39.2024 33.5033 39.5419 33.6232H61.984C61.4759 33.1361 60.8241 32.5585 59.9869 31.8169C59.5519 31.4315 59.0745 31.0083 58.5498 30.5375C58.1665 30.1939 57.7847 29.829 57.4154 29.4761C56.8787 28.9636 56.324 28.4336 55.7467 27.9498C55.2362 27.5221 54.7527 27.1151 54.293 26.728C48.4299 21.7915 46.8539 20.4647 41.9098 20.4647H32.4706C31.598 20.4647 30.8907 19.7574 30.8907 18.8848C30.8907 18.0122 31.598 17.3049 32.4706 17.3049H41.9098C48.007 17.3049 50.4429 19.3558 56.3281 24.3107C56.7859 24.6962 57.2674 25.1016 57.776 25.5276C58.4323 26.0778 59.025 26.6439 59.5981 27.1916C59.9661 27.543 60.3135 27.875 60.66 28.1855C61.1794 28.6516 61.652 29.0705 62.0826 29.4519C65.8691 32.8069 66.8869 33.7087 66.9879 38.1718C67.007 39.0362 66.9993 40.7488 66.9931 42.1249ZM60.6633 48.2356C60.6553 45.8752 58.7325 43.957 56.37 43.957C54.0028 43.957 52.0769 45.8829 52.0769 48.2502C52.0769 50.6172 54.0028 52.5431 56.37 52.5431C58.7369 52.5431 60.6626 50.6179 60.6633 48.2514C60.6633 48.2463 60.6633 48.2409 60.6633 48.2356ZM27.4658 46.6703C26.5932 46.6703 25.8859 47.3775 25.8859 48.2502C25.8859 49.1228 26.5932 49.8301 27.4658 49.8301H27.4698C28.3425 49.8301 29.0476 49.1228 29.0476 48.2502C29.0476 47.3775 28.3384 46.6703 27.4658 46.6703ZM45.4543 48.2498C45.4543 49.1225 44.747 49.8297 43.8744 49.8297H34.7525C34.0261 53.1832 31.0359 55.7029 27.4683 55.7029C23.8094 55.7029 20.7579 53.0527 20.1324 49.5712C18.8658 49.17 17.8215 48.325 17.2608 47.1976C16.9803 46.6348 16.8379 46.0348 16.8379 45.4151V32.4597C16.8379 31.5871 17.5452 30.8798 18.4179 30.8798C19.2905 30.8798 19.9978 31.5871 19.9978 32.4597V45.4151C19.9978 45.5415 20.0287 45.6676 20.0894 45.7896C20.1433 45.8977 20.2235 46.0076 20.3278 46.1113C21.2494 43.041 24.1017 40.7974 27.4681 40.7974C31.0355 40.7974 34.0254 43.317 34.7522 46.6701H43.8742C44.7468 46.6699 45.4543 47.3774 45.4543 48.2498ZM31.761 48.2502C31.761 45.8829 29.8353 43.957 27.4681 43.957C25.1114 43.957 23.192 45.8659 23.1749 48.2186C23.1751 48.2358 23.1751 48.2528 23.1749 48.2702C23.1857 50.6283 25.1074 52.5431 27.4681 52.5431C29.8353 52.5431 31.761 50.6174 31.761 48.2502Z" fill="#042463"/>
</svg>
