<svg width="62" height="62" viewBox="0 0 62 62" fill="none" xmlns="http://www.w3.org/2000/svg">
<g clip-path="url(#clip0)">
<rect width="62" height="62" fill="white"/>
<path d="M34.2332 43.2215C32.1026 44.1301 29.7119 44.1133 27.5993 43.1868C27.3147 43.0619 27.4479 42.6327 27.7521 42.6961C29.8463 43.1326 32.008 43.1397 34.0855 42.7294C34.3909 42.6691 34.5196 43.0994 34.2332 43.2215ZM41.2583 44.1991C40.3886 44.1991 39.5596 43.9449 38.8551 43.4718C38.4795 43.2196 37.9825 43.2569 37.6327 43.5437C33.6886 46.7765 28.2066 46.7444 24.3146 43.5745C23.9677 43.2919 23.4777 43.254 23.1034 43.4992C22.41 43.9533 21.5961 44.1991 20.7412 44.1991C14.8482 44.1991 10.0771 48.9701 10.0771 54.8631V60.9669C10.0771 61.5375 10.5398 62.0001 11.1104 62.0001H50.8892C51.4598 62.0001 51.9224 61.5375 51.9224 60.9669V54.8631C51.9224 48.9699 47.1513 44.1991 41.2583 44.1991ZM41.4611 58.7713H38.3615C37.7909 58.7713 37.3282 58.3087 37.3282 57.7381C37.3282 57.1675 37.7909 56.7049 38.3615 56.7049H41.4611C42.0317 56.7049 42.4943 57.1675 42.4943 57.7381C42.4943 58.3087 42.0317 58.7713 41.4611 58.7713ZM50.1492 10.4361C48.1657 7.21595 45.1287 5.02294 41.6497 4.15672C42.2302 3.67033 42.11 2.75503 41.4366 2.43125C37.8965 0.72773 33.8683 -0.12984 30.088 0.0161016C19.7289 0.417636 13.734 8.16948 13.9517 18.2162C13.9517 24.0088 13.95 23.6252 13.9557 23.7574C13.9883 24.4973 15.104 24.4552 15.0978 23.7146C15.079 21.4512 14.9273 19.7779 16.0154 17.5265C17.8668 13.6937 22.2026 11.4165 26.686 12.4909C32.2819 13.8342 33.43 16.4312 38.36 16.2299C38.7501 16.195 40.5104 15.9031 42.9269 15.2276C44.7653 14.7137 46.6645 15.9719 46.8492 17.9424C46.8894 18.5443 46.8873 17.5967 46.8856 23.9322C46.8854 24.6538 47.9535 24.7141 48.0264 23.9963C48.0564 23.7017 48.0479 24.2248 48.0479 16.5245C48.0479 14.7292 48.7414 13.0361 50.0007 11.7587C50.3507 11.4028 50.3935 10.8307 50.1492 10.4361ZM44.7907 18.1206C44.7243 17.4576 44.0903 17.0484 43.4823 17.2179C40.7559 17.9799 38.8303 18.2769 38.4751 18.2924C32.9018 18.5453 31.4532 15.7612 26.2044 14.5005C21.5034 13.3733 17.1188 16.9463 17.1482 21.6775C17.158 23.2746 17.1805 24.8953 17.1805 27.1458C17.1805 34.7658 23.3798 40.9651 30.9998 40.9651C38.6198 40.9651 44.8191 34.7658 44.8191 27.1458C44.8191 18.051 44.831 18.5633 44.7907 18.1206Z" fill="#042463"/>
</g>
<defs>
<clipPath id="clip0">
<rect width="62" height="62" fill="white"/>
</clipPath>
</defs>
</svg>
