<svg width="32" height="20" viewBox="0 0 32 20" fill="none" xmlns="http://www.w3.org/2000/svg">
<path d="M23.7958 7.95468C23.7158 8.34727 23.9922 8.69542 24.5231 8.8732H24.5668V7.25098C24.3867 7.28349 24.2191 7.3666 24.0828 7.49094C23.9466 7.61527 23.8472 7.77589 23.7958 7.95468V7.95468Z" fill="#042463"/>
<path d="M26.0431 10.9619V12.4434C26.5667 12.2582 26.8504 11.9101 26.8504 11.7026C26.8504 11.4286 26.734 11.2508 26.0431 10.9619Z" fill="#042463"/>
<path d="M31.2727 0H0.727273C0.534388 0 0.349403 0.0780423 0.213013 0.216958C0.0766231 0.355874 0 0.544284 0 0.740741V19.2593C0 19.4557 0.0766231 19.6441 0.213013 19.783C0.349403 19.922 0.534388 20 0.727273 20H31.2727C31.4656 20 31.6506 19.922 31.787 19.783C31.9234 19.6441 32 19.4557 32 19.2593V0.740741C32 0.544284 31.9234 0.355874 31.787 0.216958C31.6506 0.0780423 31.4656 0 31.2727 0ZM14.5455 11.8519H3.63636C3.44348 11.8519 3.25849 11.7738 3.1221 11.6349C2.98571 11.496 2.90909 11.3076 2.90909 11.1111C2.90909 10.9147 2.98571 10.7262 3.1221 10.5873C3.25849 10.4484 3.44348 10.3704 3.63636 10.3704H14.5455C14.7383 10.3704 14.9233 10.4484 15.0597 10.5873C15.1961 10.7262 15.2727 10.9147 15.2727 11.1111C15.2727 11.3076 15.1961 11.496 15.0597 11.6349C14.9233 11.7738 14.7383 11.8519 14.5455 11.8519ZM14.5455 8.88889H3.63636C3.44348 8.88889 3.25849 8.81085 3.1221 8.67193C2.98571 8.53302 2.90909 8.34461 2.90909 8.14815C2.90909 7.95169 2.98571 7.76328 3.1221 7.62437C3.25849 7.48545 3.44348 7.40741 3.63636 7.40741H14.5455C14.7383 7.40741 14.9233 7.48545 15.0597 7.62437C15.1961 7.76328 15.2727 7.95169 15.2727 8.14815C15.2727 8.34461 15.1961 8.53302 15.0597 8.67193C14.9233 8.81085 14.7383 8.88889 14.5455 8.88889ZM14.5455 5.92593H3.63636C3.44348 5.92593 3.25849 5.84789 3.1221 5.70897C2.98571 5.57005 2.90909 5.38164 2.90909 5.18519C2.90909 4.98873 2.98571 4.80032 3.1221 4.6614C3.25849 4.52249 3.44348 4.44444 3.63636 4.44444H14.5455C14.7383 4.44444 14.9233 4.52249 15.0597 4.6614C15.1961 4.80032 15.2727 4.98873 15.2727 5.18519C15.2727 5.38164 15.1961 5.57005 15.0597 5.70897C14.9233 5.84789 14.7383 5.92593 14.5455 5.92593ZM19.6364 16.2963C19.6364 16.4928 19.5597 16.6812 19.4234 16.8201C19.287 16.959 19.102 17.037 18.9091 17.037C18.7162 17.037 18.5312 16.959 18.3948 16.8201C18.2584 16.6812 18.1818 16.4928 18.1818 16.2963V14.0741C18.1818 13.8776 18.2584 13.6892 18.3948 13.5503C18.5312 13.4114 18.7162 13.3333 18.9091 13.3333C19.102 13.3333 19.287 13.4114 19.4234 13.5503C19.5597 13.6892 19.6364 13.8776 19.6364 14.0741V16.2963ZM19.6364 11.1111C19.6364 11.3076 19.5597 11.496 19.4234 11.6349C19.287 11.7738 19.102 11.8519 18.9091 11.8519C18.7162 11.8519 18.5312 11.7738 18.3948 11.6349C18.2584 11.496 18.1818 11.3076 18.1818 11.1111V8.88889C18.1818 8.69243 18.2584 8.50402 18.3948 8.36511C18.5312 8.22619 18.7162 8.14815 18.9091 8.14815C19.102 8.14815 19.287 8.22619 19.4234 8.36511C19.5597 8.50402 19.6364 8.69243 19.6364 8.88889V11.1111ZM19.6364 5.92593C19.6364 6.12238 19.5597 6.31079 19.4234 6.44971C19.287 6.58863 19.102 6.66667 18.9091 6.66667C18.7162 6.66667 18.5312 6.58863 18.3948 6.44971C18.2584 6.31079 18.1818 6.12238 18.1818 5.92593V3.7037C18.1818 3.50725 18.2584 3.31884 18.3948 3.17992C18.5312 3.04101 18.7162 2.96296 18.9091 2.96296C19.102 2.96296 19.287 3.04101 19.4234 3.17992C19.5597 3.31884 19.6364 3.50725 19.6364 3.7037V5.92593Z" fill="#042463"/>
<path d="M29.9063 8.82738H29.1026V5.6709H27.8348V8.82738H25.585L23.4389 5.6709H22.2539V8.82738H21.4543V9.67136H22.2539V10.6504H21.4543V11.4944H22.2539V14.3132H23.5342V11.4944H26.0076L27.9259 14.3132H29.1026V11.4944H29.9063V10.6504H29.1026V9.67136H29.9063V8.82738ZM24.7688 9.67136L25.4317 10.6504H23.5342V9.67136H24.7688ZM27.8348 9.67136V10.6504H26.828L26.1609 9.67136H27.8348ZM23.5342 8.82738V7.97496H23.6129L24.1929 8.82738H23.5342ZM27.3997 11.4944H27.8348V12.0176H27.756L27.3997 11.4944Z" fill="white"/>
</svg>
