<svg width="50" height="43" viewBox="0 0 50 43" fill="none" xmlns="http://www.w3.org/2000/svg">
<path opacity="0.5" d="M4 26L3.5 41.5H46L46.5 26H44.5V24.5L43.5 22.5L42 21.5L40.5 21L38.5 21.5L37 23L36.5 26L35.5 25.5V6L35 5L33 4L31 4.5L30.5 5.5V21H27.5V20.5L27 19L25.5 18H24.5L23.5 18.5L23 19.5L22.5 21H22H19.5V6.5L19 5L18.5 4H16.5L15.5 4.5L15 5.5L14.5 26L13.5 25.5L13 24L12 22L10.5 21H8.5L6.5 22L5.5 25.5L4 26Z" fill="#53D687"/>
<path fill-rule="evenodd" clip-rule="evenodd" d="M16.4062 1.6042V3.2083L15.8852 3.44697C15.2169 3.75283 14.6894 4.28369 14.3694 4.97207C14.1523 5.43926 14.1106 5.68242 14.0789 6.66504L14.0419 7.8125H13.271H12.5V8.59375V9.375H13.2812H14.0625V10.1562V10.9375H13.2812H12.5V11.7188V12.5H13.2812H14.0625V13.2812V14.0625H13.2812H12.5V14.8438V15.625H13.2812H14.0625L14.0544 20.0439C14.0471 24.028 14.0329 24.4078 13.9106 23.9036C13.5194 22.2897 12.1675 20.8929 10.6201 20.5036L10.1562 20.387V19.5685V18.75H9.375H8.59375V19.5641V20.3781L8.03223 20.5344C6.38936 20.9917 5.03018 22.5618 4.75859 24.3164L4.65283 25H3.88887H3.125V32.7637V40.5273H1.5625H0V41.3574V42.1875H25H50V41.4062V40.625H48.4375H46.875V32.8125V25H46.1128H45.3506L45.2305 24.2852C44.9256 22.4706 43.554 20.9272 41.8701 20.5036L41.4062 20.387V19.5685V18.75H40.625H39.8438V19.5641V20.3781L39.2822 20.5344C37.7632 20.9572 36.3469 22.4874 36.0432 24.034C35.9902 24.3031 35.9549 22.8167 35.9482 20.0439L35.9375 15.625H36.7188H37.5V14.8438V14.0625H36.7188H35.9375V13.2812V12.5H36.7188H37.5V11.7188V10.9375H36.7188H35.9375V10.1562V9.375H36.7188H37.5V8.59375V7.8125H36.729H35.9581L35.9211 6.66504C35.8894 5.68242 35.8477 5.43926 35.6306 4.97207C35.3106 4.28369 34.7831 3.75283 34.1148 3.44697L33.5938 3.2083V1.6042V0H32.8125H32.0312V1.6042V3.2083L31.5102 3.44697C30.8419 3.75283 30.3144 4.28369 29.9944 4.97207C29.7773 5.43926 29.7356 5.68242 29.7039 6.66504L29.6669 7.8125H28.896H28.125V8.59375V9.375H28.9062H29.6875V10.1562V10.9375H28.9062H28.125V11.7188V12.5H28.9062H29.6875V13.2812V14.0625H28.9062H28.125V14.8438V15.625H28.9062H29.6875V17.9688V20.3125H28.9174H28.1472L28.0849 19.8968C27.9309 18.87 27.2332 17.9355 26.3023 17.5095L25.7812 17.2708V16.4479V15.625H25H24.2188V16.4479V17.2708L23.6977 17.5095C22.7668 17.9355 22.0691 18.87 21.9151 19.8968L21.8528 20.3125H21.0826H20.3125V17.9688V15.625H21.0938H21.875V14.8438V14.0625H21.0938H20.3125V13.2812V12.5H21.0938H21.875V11.7188V10.9375H21.0938H20.3125V10.1562V9.375H21.0938H21.875V8.59375V7.8125H21.104H20.3331L20.2961 6.66504C20.2644 5.68242 20.2227 5.43926 20.0056 4.97207C19.6856 4.28369 19.1581 3.75283 18.4898 3.44697L17.9688 3.2083V1.6042V0H17.1875H16.4062V1.6042ZM18.0433 4.94844C18.6125 5.37344 18.6987 5.59766 18.7342 6.74512L18.7673 7.8125H17.1961H15.625V6.89111C15.625 5.63555 15.8432 5.14844 16.5527 4.81992C16.9419 4.63975 17.7196 4.70684 18.0433 4.94844ZM33.6683 4.94844C34.2375 5.37344 34.3237 5.59766 34.3592 6.74512L34.3923 7.8125H32.8211H31.25V6.89111C31.25 5.63555 31.4682 5.14844 32.1777 4.81992C32.5669 4.63975 33.3446 4.70684 33.6683 4.94844ZM18.75 10.1562V10.9375H17.1875H15.625V10.1562V9.375H17.1875H18.75V10.1562ZM34.375 10.1562V10.9375H32.8125H31.25V10.1562V9.375H32.8125H34.375V10.1562ZM18.75 13.2812V14.0625H17.1875H15.625V13.2812V12.5H17.1875H18.75V13.2812ZM34.375 13.2812V14.0625H32.8125H31.25V13.2812V12.5H32.8125H34.375V13.2812ZM18.75 17.9688V20.3125H17.1875H15.625V17.9688V15.625H17.1875H18.75V17.9688ZM34.375 17.9688V20.3125H32.8125H31.25V17.9688V15.625H32.8125H34.375V17.9688ZM25.8558 19.0109C26.2175 19.2811 26.4526 19.627 26.5247 19.9951L26.5869 20.3125H25.0122C23.2999 20.3125 23.3273 20.3229 23.5417 19.7573C23.6792 19.3944 24.0035 19.0499 24.3652 18.8824C24.7544 18.7022 25.5321 18.7693 25.8558 19.0109ZM10.7011 22.1717C11.625 22.6189 12.3301 23.5667 12.4636 24.5408L12.5266 25H9.38828H6.25V24.7714C6.25 23.6835 7.275 22.3884 8.43711 22.0076C9.03369 21.8122 10.1213 21.891 10.7011 22.1717ZM18.75 23.4375V25H17.1875H15.625V23.4375V21.875H17.1875H18.75V23.4375ZM29.6875 31.25V40.625H28.9062H28.125V34.7742C28.125 28.5366 28.1021 28.1721 27.6319 26.9043C27.2086 25.7629 26.4289 24.6346 25.5374 23.8729L25 23.4138L24.4626 23.8729C23.5711 24.6346 22.7914 25.7629 22.3681 26.9043C21.8979 28.1721 21.875 28.5366 21.875 34.7742V40.625H21.0938H20.3125V31.25V21.875H25H29.6875V31.25ZM34.375 23.4375V25H32.8125H31.25V23.4375V21.875H32.8125H34.375V23.4375ZM41.9511 22.1717C42.875 22.6189 43.5801 23.5667 43.7136 24.5408L43.7766 25H40.6383H37.5V24.7714C37.5 23.6835 38.525 22.3884 39.6871 22.0076C40.2837 21.8122 41.3713 21.891 41.9511 22.1717ZM25.5588 26.2551C25.7855 26.5905 26.0932 27.2253 26.2424 27.6658L26.5137 28.4668L26.5416 34.5459L26.5695 40.625H25.0035H23.4375V34.8093C23.4375 28.4467 23.4525 28.2465 24.0226 27.002C24.3536 26.2793 24.873 25.5608 25.0297 25.6092C25.0939 25.629 25.332 25.9196 25.5588 26.2551ZM14.0625 33.5938V40.625H13.2852H12.5078L12.4795 36.4014L12.4512 32.1777L12.1852 31.7252C12.0388 31.4763 11.7025 31.0779 11.4379 30.8399C10.8969 30.3535 9.75684 29.7526 9.375 29.7526C8.97441 29.7526 7.83047 30.369 7.25498 30.895C6.25791 31.8062 6.30303 31.5542 6.27051 36.4014L6.24219 40.625H5.46484H4.6875V33.5938V26.5625H9.375H14.0625V33.5938ZM18.75 33.5938V40.625H17.1875H15.625V33.5938V26.5625H17.1875H18.75V33.5938ZM34.375 33.5938V40.625H32.8125H31.25V33.5938V26.5625H32.8125H34.375V33.5938ZM45.3125 33.5938V40.625H44.5352H43.7578L43.7295 36.4014L43.7012 32.1777L43.4352 31.7252C43.2888 31.4763 42.9525 31.0779 42.6879 30.8399C42.1469 30.3535 41.0068 29.7526 40.625 29.7526C40.2244 29.7526 39.0805 30.369 38.505 30.895C37.5079 31.8062 37.553 31.5542 37.5205 36.4014L37.4922 40.625H36.7148H35.9375V33.5938V26.5625H40.625H45.3125V33.5938ZM6.48975 28.3647C6.16777 28.6867 6.17246 29.1306 6.50127 29.4594C6.70957 29.6677 6.81299 29.701 7.10488 29.6535C7.54912 29.5814 7.70645 29.4241 7.77852 28.9799C7.89521 28.2608 7.01416 27.8402 6.48975 28.3647ZM11.1772 28.3647C10.8869 28.655 10.8642 29.087 11.1224 29.4059C11.354 29.6919 12.0157 29.7254 12.2768 29.4643C12.5379 29.2032 12.5044 28.5415 12.2184 28.3099C11.8995 28.0517 11.4675 28.0744 11.1772 28.3647ZM37.7397 28.3647C37.4178 28.6867 37.4225 29.1306 37.7513 29.4594C37.9596 29.6677 38.063 29.701 38.3549 29.6535C38.7991 29.5814 38.9564 29.4241 39.0285 28.9799C39.1452 28.2608 38.2642 27.8402 37.7397 28.3647ZM42.4272 28.3647C42.1369 28.655 42.1142 29.087 42.3724 29.4059C42.604 29.6919 43.2657 29.7254 43.5268 29.4643C43.7879 29.2032 43.7544 28.5415 43.4684 28.3099C43.1495 28.0517 42.7175 28.0744 42.4272 28.3647ZM9.69727 31.5086C10.2033 31.7692 10.646 32.1414 10.7968 32.433C10.9125 32.6568 10.9375 33.4081 10.9375 36.665V40.625H9.375H7.8125V36.665C7.8125 32.3106 7.80352 32.3813 8.41709 31.9156C8.69336 31.7061 9.26221 31.3641 9.35547 31.3516C9.37148 31.3494 9.52529 31.4201 9.69727 31.5086ZM40.9473 31.5086C41.4533 31.7692 41.896 32.1414 42.0468 32.433C42.1625 32.6568 42.1875 33.4081 42.1875 36.665V40.625H40.625H39.0625V36.665C39.0625 32.3106 39.0535 32.3813 39.6671 31.9156C39.9434 31.7061 40.5122 31.3641 40.6055 31.3516C40.6215 31.3494 40.7753 31.4201 40.9473 31.5086Z" fill="#0B5959"/>
</svg>
