<svg width="24" height="24" viewBox="0 0 24 24" fill="none" xmlns="http://www.w3.org/2000/svg">
<g clip-path="url(#clip0_1894_196)">
<path d="M16.9993 9.00098H6.99998C6.724 9.00098 6.5 9.22498 6.5 9.50096V17.5004C6.5 18.7084 7.35996 19.7173 8.49988 19.9503V22.5001C8.49988 23.3271 9.17282 24 9.99978 24C10.8267 24 11.4997 23.3271 11.4997 22.5001V20.0003H12.4996V22.5001C12.4996 23.3271 13.1725 24 13.9995 24C14.8265 24 15.4994 23.3271 15.4994 22.5001V19.9503C16.6393 19.7183 17.4993 18.7084 17.4993 17.5004V9.50096C17.4993 9.22399 17.2753 9.00098 16.9993 9.00098Z" fill="#0B2239"/>
<path d="M14.6164 2.66446L15.4594 0.697573C15.5683 0.443575 15.4504 0.150625 15.1964 0.0416013C14.9454 -0.0684071 14.6484 0.0496164 14.5404 0.304599L13.6975 2.27247C13.1625 2.09848 12.5925 2.0015 12.0006 2.0015C11.4086 2.0015 10.8386 2.09848 10.3037 2.27247L9.45879 0.304599C9.35079 0.0496164 9.05381 -0.0693914 8.80282 0.0416013C8.54882 0.150578 8.43182 0.444559 8.54085 0.697573L9.38379 2.66446C7.66692 3.59641 6.5 5.41528 6.5 7.50112C6.5 7.7771 6.724 8.00111 6.99998 8.00111H16.9993C17.2753 8.00111 17.4993 7.7771 17.4993 7.50112C17.4992 5.41528 16.3323 3.59641 14.6164 2.66446ZM9.99974 6.00122C9.72375 6.00122 9.49975 5.77722 9.49975 5.50124C9.49975 5.22526 9.72375 5.00126 9.99974 5.00126C10.2757 5.00126 10.4997 5.22526 10.4997 5.50124C10.4997 5.77722 10.2757 6.00122 9.99974 6.00122ZM13.9995 6.00122C13.7235 6.00122 13.4995 5.77722 13.4995 5.50124C13.4995 5.22526 13.7235 5.00126 13.9995 5.00126C14.2755 5.00126 14.4995 5.22526 14.4995 5.50124C14.4995 5.77722 14.2755 6.00122 13.9995 6.00122Z" fill="#0B2239"/>
<path d="M19.9999 9.00098C19.1729 9.00098 18.5 9.67392 18.5 10.5009V15.5006C18.5 16.3275 19.1729 17.0005 19.9999 17.0005C20.8269 17.0005 21.4998 16.3275 21.4998 15.5006V10.5009C21.4998 9.67396 20.8269 9.00098 19.9999 9.00098Z" fill="#0B2239"/>
<path d="M3.9999 9.00098C3.17294 9.00098 2.5 9.67392 2.5 10.5009V15.5006C2.5 16.3275 3.17294 17.0005 3.9999 17.0005C4.82686 17.0005 5.4998 16.3275 5.4998 15.5006V10.5009C5.4998 9.67396 4.82686 9.00098 3.9999 9.00098Z" fill="#0B2239"/>
</g>
<defs>
<clipPath id="clip0_1894_196">
<rect width="24" height="24" fill="white"/>
</clipPath>
</defs>
</svg>
