<svg width="50" height="50" viewBox="0 0 50 50" fill="none" xmlns="http://www.w3.org/2000/svg">
<path d="M25.9766 12.2324H48.291C48.8304 12.2324 49.2676 12.6696 49.2676 13.209V49.2667H25V13.209C25 12.6696 25.4372 12.2324 25.9766 12.2324Z" fill="url(#paint0_linear_1773_55912)"/>
<path d="M1.70898 20.0938H24.0234C24.5628 20.0938 25 20.531 25 21.0703V49.268H0.732422V21.0703C0.732422 20.531 1.16963 20.0938 1.70898 20.0938Z" fill="url(#paint1_linear_1773_55912)"/>
<path d="M12.8662 0.732422H37.1338C37.6731 0.732422 38.1104 1.16963 38.1104 1.70898V49.2676H11.8896V1.70898C11.8896 1.16963 12.3269 0.732422 12.8662 0.732422Z" fill="url(#paint2_linear_1773_55912)"/>
<path d="M27.4414 28.1797H32.9265C33.4658 28.1797 33.903 28.6169 33.903 29.1562V32.1206C33.903 32.66 33.4658 33.0972 32.9265 33.0972H27.4414C26.9021 33.0972 26.4648 32.66 26.4648 32.1206V29.1562C26.4648 28.6169 26.9021 28.1797 27.4414 28.1797Z" fill="white"/>
<path d="M17.0737 28.1797H22.5588C23.0981 28.1797 23.5354 28.6169 23.5354 29.1562V32.1206C23.5354 32.66 23.0981 33.0972 22.5588 33.0972H17.0737C16.5344 33.0972 16.0972 32.66 16.0972 32.1206V29.1562C16.0972 28.6169 16.5344 28.1797 17.0737 28.1797Z" fill="white"/>
<path d="M29.3945 32.1206V29.1562C29.3945 28.6169 29.8317 28.1797 30.3711 28.1797H27.4414C26.9021 28.1797 26.4648 28.6169 26.4648 29.1562V32.1206C26.4648 32.66 26.9021 33.0972 27.4414 33.0972H30.3711C29.8317 33.0972 29.3945 32.66 29.3945 32.1206Z" fill="white"/>
<path d="M19.0269 32.1206V29.1562C19.0269 28.6169 19.4641 28.1797 20.0034 28.1797H17.0737C16.5344 28.1797 16.0972 28.6169 16.0972 29.1562V32.1206C16.0972 32.66 16.5344 33.0972 17.0737 33.0972H20.0034C19.4642 33.0972 19.0269 32.66 19.0269 32.1206Z" fill="white"/>
<path d="M28.9062 36.793H21.0938C20.5544 36.793 20.1172 37.2302 20.1172 37.7695V49.268H29.8828V37.7695C29.8828 37.2302 29.4456 36.793 28.9062 36.793Z" fill="white"/>
<path d="M20.1172 37.7695V49.268H24.0234V36.793H21.0938C20.5544 36.793 20.1172 37.2302 20.1172 37.7695Z" fill="white"/>
<path d="M16.7725 0.732422H12.8662C12.3269 0.732422 11.8896 1.16963 11.8896 1.70898V49.2676H15.7959V1.70898C15.7959 1.16963 16.2331 0.732422 16.7725 0.732422Z" fill="white" fill-opacity="0.2"/>
<path d="M17.0737 4.63867H22.5588C23.0981 4.63867 23.5354 5.07588 23.5354 5.61523V8.57959C23.5354 9.11895 23.0981 9.55615 22.5588 9.55615H17.0737C16.5344 9.55615 16.0972 9.11895 16.0972 8.57959V5.61523C16.0972 5.07588 16.5344 4.63867 17.0737 4.63867Z" fill="white"/>
<path d="M19.0269 8.57959V5.61523C19.0269 5.07588 19.4641 4.63867 20.0034 4.63867H17.0737C16.5344 4.63867 16.0972 5.07588 16.0972 5.61523V8.57959C16.0972 9.11895 16.5344 9.55615 17.0737 9.55615H20.0034C19.4642 9.55615 19.0269 9.11895 19.0269 8.57959Z" fill="white"/>
<path d="M27.4414 4.63867H32.9265C33.4658 4.63867 33.903 5.07588 33.903 5.61523V8.57959C33.903 9.11895 33.4658 9.55615 32.9265 9.55615H27.4414C26.9021 9.55615 26.4648 9.11895 26.4648 8.57959V5.61523C26.4648 5.07588 26.9021 4.63867 27.4414 4.63867Z" fill="white"/>
<path d="M29.3945 8.57959V5.61523C29.3945 5.07588 29.8317 4.63867 30.3711 4.63867H27.4414C26.9021 4.63867 26.4648 5.07588 26.4648 5.61523V8.57959C26.4648 9.11895 26.9021 9.55615 27.4414 9.55615H30.3711C29.8317 9.55615 29.3945 9.11895 29.3945 8.57959Z" fill="white"/>
<path d="M27.4414 12.4863H32.9265C33.4658 12.4863 33.903 12.9235 33.903 13.4629V16.4272C33.903 16.9666 33.4658 17.4038 32.9265 17.4038H27.4414C26.9021 17.4038 26.4648 16.9666 26.4648 16.4272V13.4629C26.4648 12.9235 26.9021 12.4863 27.4414 12.4863Z" fill="white"/>
<path d="M29.3945 16.4272V13.4629C29.3945 12.9235 29.8317 12.4863 30.3711 12.4863H27.4414C26.9021 12.4863 26.4648 12.9235 26.4648 13.4629V16.4272C26.4648 16.9666 26.9021 17.4038 27.4414 17.4038H30.3711C29.8317 17.4038 29.3945 16.9666 29.3945 16.4272Z" fill="white"/>
<path d="M27.4414 20.332H32.9265C33.4658 20.332 33.903 20.7692 33.903 21.3086V24.2729C33.903 24.8123 33.4658 25.2495 32.9265 25.2495H27.4414C26.9021 25.2495 26.4648 24.8123 26.4648 24.2729V21.3086C26.4648 20.7692 26.9021 20.332 27.4414 20.332Z" fill="white"/>
<path d="M29.3945 24.2729V21.3086C29.3945 20.7692 29.8317 20.332 30.3711 20.332H27.4414C26.9021 20.332 26.4648 20.7692 26.4648 21.3086V24.2729C26.4648 24.8123 26.9021 25.2495 27.4414 25.2495H30.3711C29.8317 25.2495 29.3945 24.8123 29.3945 24.2729Z" fill="white"/>
<path d="M41.4346 38.1094H45.9431C46.4824 38.1094 46.9196 38.5466 46.9196 39.0859V42.0503C46.9196 42.5896 46.4824 43.0269 45.9431 43.0269H41.4346C40.8952 43.0269 40.458 42.5896 40.458 42.0503V39.0859C40.458 38.5466 40.8952 38.1094 41.4346 38.1094Z" fill="white"/>
<path d="M41.4346 14.5684H45.9431C46.4824 14.5684 46.9196 15.0056 46.9196 15.5449V18.5093C46.9196 19.0486 46.4824 19.4858 45.9431 19.4858H41.4346C40.8952 19.4858 40.458 19.0486 40.458 18.5093V15.5449C40.458 15.0057 40.8952 14.5684 41.4346 14.5684Z" fill="white"/>
<path d="M41.4346 22.416H45.9431C46.4824 22.416 46.9196 22.8532 46.9196 23.3926V26.3569C46.9196 26.8963 46.4824 27.3335 45.9431 27.3335H41.4346C40.8952 27.3335 40.458 26.8963 40.458 26.3569V23.3926C40.458 22.8533 40.8952 22.416 41.4346 22.416Z" fill="white"/>
<path d="M41.4346 30.2637H45.9431C46.4824 30.2637 46.9196 30.7009 46.9196 31.2402V34.2046C46.9196 34.7439 46.4824 35.1812 45.9431 35.1812H41.4346C40.8952 35.1812 40.458 34.7439 40.458 34.2046V31.2402C40.458 30.701 40.8952 30.2637 41.4346 30.2637Z" fill="white"/>
<path d="M4.05664 22.4141H8.56514C9.10449 22.4141 9.5417 22.8513 9.5417 23.3906V26.355C9.5417 26.8943 9.10449 27.3315 8.56514 27.3315H4.05664C3.51729 27.3315 3.08008 26.8943 3.08008 26.355V23.3906C3.08008 22.8514 3.51729 22.4141 4.05664 22.4141Z" fill="white"/>
<path d="M4.05664 30.2617H8.56514C9.10449 30.2617 9.5417 30.6989 9.5417 31.2383V34.2026C9.5417 34.742 9.10449 35.1792 8.56514 35.1792H4.05664C3.51729 35.1792 3.08008 34.742 3.08008 34.2026V31.2383C3.08008 30.699 3.51729 30.2617 4.05664 30.2617Z" fill="white"/>
<path d="M4.05664 38.1094H8.56514C9.10449 38.1094 9.5417 38.5466 9.5417 39.0859V42.0503C9.5417 42.5896 9.10449 43.0269 8.56514 43.0269H4.05664C3.51729 43.0269 3.08008 42.5896 3.08008 42.0503V39.0859C3.08008 38.5466 3.51729 38.1094 4.05664 38.1094Z" fill="white"/>
<path d="M17.0737 12.4863H22.5588C23.0981 12.4863 23.5354 12.9235 23.5354 13.4629V16.4272C23.5354 16.9666 23.0981 17.4038 22.5588 17.4038H17.0737C16.5344 17.4038 16.0972 16.9666 16.0972 16.4272V13.4629C16.0972 12.9235 16.5344 12.4863 17.0737 12.4863Z" fill="white"/>
<path d="M19.0269 16.4272V13.4629C19.0269 12.9235 19.4641 12.4863 20.0034 12.4863H17.0737C16.5344 12.4863 16.0972 12.9235 16.0972 13.4629V16.4272C16.0972 16.9666 16.5344 17.4038 17.0737 17.4038H20.0034C19.4642 17.4038 19.0269 16.9666 19.0269 16.4272Z" fill="white"/>
<path d="M17.0737 20.332H22.5588C23.0981 20.332 23.5354 20.7692 23.5354 21.3086V24.2729C23.5354 24.8123 23.0981 25.2495 22.5588 25.2495H17.0737C16.5344 25.2495 16.0972 24.8123 16.0972 24.2729V21.3086C16.0972 20.7692 16.5344 20.332 17.0737 20.332Z" fill="white"/>
<path d="M19.0269 24.2729V21.3086C19.0269 20.7692 19.4641 20.332 20.0034 20.332H17.0737C16.5344 20.332 16.0972 20.7692 16.0972 21.3086V24.2729C16.0972 24.8123 16.5344 25.2495 17.0737 25.2495H20.0034C19.4642 25.2495 19.0269 24.8123 19.0269 24.2729Z" fill="white"/>
<path d="M48.291 11.5009H38.8428V1.70898C38.8428 0.766699 38.0761 0 37.1338 0H12.8662C11.9239 0 11.1572 0.766699 11.1572 1.70898V8.73018C11.1572 9.13467 11.4851 9.4626 11.8896 9.4626C12.2942 9.4626 12.6221 9.13467 12.6221 8.73018V1.70898C12.6221 1.57441 12.7315 1.46484 12.8662 1.46484H37.1338C37.2685 1.46484 37.3779 1.57441 37.3779 1.70898V39.2009C37.3779 39.6054 37.7058 39.9333 38.1104 39.9333C38.5149 39.9333 38.8428 39.6054 38.8428 39.2009V12.9657H48.291C48.4257 12.9657 48.5352 13.0753 48.5352 13.2099V48.5352H38.8428V41.9353C38.8428 41.5308 38.5149 41.2028 38.1104 41.2028C37.7058 41.2028 37.3779 41.5308 37.3779 41.9353V48.5352H30.6152V37.7691C30.6152 36.8269 29.8485 36.0602 28.9062 36.0602H21.0938C20.1515 36.0602 19.3848 36.8269 19.3848 37.7691V48.5352H12.6221V8.46455C12.6221 8.06006 12.2942 7.73213 11.8896 7.73213C11.4851 7.73213 11.1572 8.06006 11.1572 8.46455V19.3609H1.70898C0.766699 19.3609 0 20.1276 0 21.0699V49.2676C0 49.6721 0.327832 50 0.732422 50H11.8896H38.1104H49.2676C49.6722 50 50 49.6721 50 49.2676V13.2099C50 12.2676 49.2333 11.5009 48.291 11.5009ZM1.46484 21.0699C1.46484 20.9354 1.57432 20.8258 1.70898 20.8258H11.1572V48.5352H1.46484V21.0699ZM20.8496 37.7691C20.8496 37.6346 20.9591 37.525 21.0938 37.525H28.9062C29.0409 37.525 29.1504 37.6346 29.1504 37.7691V48.5352H20.8496V37.7691Z" fill="#CB281A"/>
<path d="M17.0737 10.2886H22.5588C23.5011 10.2886 24.2678 9.52188 24.2678 8.57959V5.61523C24.2678 4.67295 23.5011 3.90625 22.5588 3.90625H17.0737C16.1314 3.90625 15.3647 4.67295 15.3647 5.61523V8.57959C15.3647 9.52188 16.1314 10.2886 17.0737 10.2886ZM16.8296 5.61523C16.8296 5.48066 16.9391 5.37109 17.0737 5.37109H22.5588C22.6935 5.37109 22.8029 5.48066 22.8029 5.61523V8.57959C22.8029 8.71416 22.6935 8.82373 22.5588 8.82373H17.0737C16.9391 8.82373 16.8296 8.71416 16.8296 8.57959V5.61523Z" fill="#CB281A"/>
<path d="M27.4414 10.2886H32.9265C33.8687 10.2886 34.6354 9.52188 34.6354 8.57959V5.61523C34.6354 4.67295 33.8687 3.90625 32.9265 3.90625H27.4414C26.4991 3.90625 25.7324 4.67295 25.7324 5.61523V8.57959C25.7324 9.52188 26.4991 10.2886 27.4414 10.2886ZM27.1973 5.61523C27.1973 5.48066 27.3067 5.37109 27.4414 5.37109H32.9265C33.0611 5.37109 33.1706 5.48066 33.1706 5.61523V8.57959C33.1706 8.71416 33.0611 8.82373 32.9265 8.82373H27.4414C27.3067 8.82373 27.1973 8.71416 27.1973 8.57959V5.61523Z" fill="#CB281A"/>
<path d="M25.7324 16.4272C25.7324 17.3695 26.4991 18.1362 27.4414 18.1362H32.9265C33.8687 18.1362 34.6354 17.3695 34.6354 16.4272V13.4629C34.6354 12.5206 33.8687 11.7539 32.9265 11.7539H27.4414C26.4991 11.7539 25.7324 12.5206 25.7324 13.4629V16.4272ZM27.1973 13.4629C27.1973 13.3283 27.3067 13.2187 27.4414 13.2187H32.9265C33.0611 13.2187 33.1706 13.3283 33.1706 13.4629V16.4272C33.1706 16.5618 33.0611 16.6714 32.9265 16.6714H27.4414C27.3067 16.6714 27.1973 16.5618 27.1973 16.4272V13.4629Z" fill="#CB281A"/>
<path d="M25.7324 24.2749C25.7324 25.2172 26.4991 25.9839 27.4414 25.9839H32.9265C33.8687 25.9839 34.6354 25.2172 34.6354 24.2749V21.3105C34.6354 20.3683 33.8687 19.6016 32.9265 19.6016H27.4414C26.4991 19.6016 25.7324 20.3683 25.7324 21.3105V24.2749ZM27.1973 21.3105C27.1973 21.176 27.3067 21.0664 27.4414 21.0664H32.9265C33.0611 21.0664 33.1706 21.176 33.1706 21.3105V24.2749C33.1706 24.4095 33.0611 24.519 32.9265 24.519H27.4414C27.3067 24.519 27.1973 24.4095 27.1973 24.2749V21.3105Z" fill="#CB281A"/>
<path d="M15.3647 16.4272C15.3647 17.3695 16.1314 18.1362 17.0737 18.1362H22.5588C23.5011 18.1362 24.2678 17.3695 24.2678 16.4272V13.4629C24.2678 12.5206 23.5011 11.7539 22.5588 11.7539H17.0737C16.1314 11.7539 15.3647 12.5206 15.3647 13.4629V16.4272ZM16.8296 13.4629C16.8296 13.3283 16.9391 13.2187 17.0737 13.2187H22.5588C22.6935 13.2187 22.8029 13.3283 22.8029 13.4629V16.4272C22.8029 16.5618 22.6935 16.6714 22.5588 16.6714H17.0737C16.9391 16.6714 16.8296 16.5618 16.8296 16.4272V13.4629Z" fill="#CB281A"/>
<path d="M15.3647 24.2749C15.3647 25.2172 16.1314 25.9839 17.0737 25.9839H22.5588C23.5011 25.9839 24.2678 25.2172 24.2678 24.2749V21.3105C24.2678 20.3683 23.5011 19.6016 22.5588 19.6016H17.0737C16.1314 19.6016 15.3647 20.3683 15.3647 21.3105V24.2749ZM16.8296 21.3105C16.8296 21.176 16.9391 21.0664 17.0737 21.0664H22.5588C22.6935 21.0664 22.8029 21.176 22.8029 21.3105V24.2749C22.8029 24.4095 22.6935 24.519 22.5588 24.519H17.0737C16.9391 24.519 16.8296 24.4095 16.8296 24.2749V21.3105Z" fill="#CB281A"/>
<path d="M25.7324 32.1206C25.7324 33.0629 26.4991 33.8296 27.4414 33.8296H32.9265C33.8687 33.8296 34.6354 33.0629 34.6354 32.1206V29.1562C34.6354 28.214 33.8687 27.4473 32.9265 27.4473H27.4414C26.4991 27.4473 25.7324 28.214 25.7324 29.1562V32.1206ZM27.1973 29.1562C27.1973 29.0217 27.3067 28.9121 27.4414 28.9121H32.9265C33.0611 28.9121 33.1706 29.0217 33.1706 29.1562V32.1206C33.1706 32.2552 33.0611 32.3647 32.9265 32.3647H27.4414C27.3067 32.3647 27.1973 32.2552 27.1973 32.1206V29.1562Z" fill="#CB281A"/>
<path d="M15.3647 32.1206C15.3647 33.0629 16.1314 33.8296 17.0737 33.8296H22.5588C23.5011 33.8296 24.2678 33.0629 24.2678 32.1206V29.1562C24.2678 28.214 23.5011 27.4473 22.5588 27.4473H17.0737C16.1314 27.4473 15.3647 28.214 15.3647 29.1562V32.1206ZM16.8296 29.1562C16.8296 29.0217 16.9391 28.9121 17.0737 28.9121H22.5588C22.6935 28.9121 22.8029 29.0217 22.8029 29.1562V32.1206C22.8029 32.2552 22.6935 32.3647 22.5588 32.3647H17.0737C16.9391 32.3647 16.8296 32.2552 16.8296 32.1206V29.1562Z" fill="#CB281A"/>
<path d="M39.7256 42.0503C39.7256 42.9926 40.4923 43.7593 41.4346 43.7593H45.943C46.8853 43.7593 47.652 42.9926 47.652 42.0503V39.0859C47.652 38.1437 46.8853 37.377 45.943 37.377H41.4346C40.4923 37.377 39.7256 38.1437 39.7256 39.0859V42.0503ZM41.1904 39.0858C41.1904 38.9513 41.2999 38.8417 41.4346 38.8417H45.943C46.0776 38.8417 46.1871 38.9513 46.1871 39.0858V42.0502C46.1871 42.1848 46.0776 42.2943 45.943 42.2943H41.4346C41.2999 42.2943 41.1904 42.1848 41.1904 42.0502V39.0858Z" fill="#CB281A"/>
<path d="M41.4346 20.2183H45.943C46.8853 20.2183 47.652 19.4516 47.652 18.5093V15.5449C47.652 14.6026 46.8853 13.8359 45.943 13.8359H41.4346C40.4923 13.8359 39.7256 14.6026 39.7256 15.5449V18.5093C39.7256 19.4517 40.4923 20.2183 41.4346 20.2183ZM41.1904 15.5449C41.1904 15.4104 41.2999 15.3008 41.4346 15.3008H45.943C46.0776 15.3008 46.1871 15.4104 46.1871 15.5449V18.5093C46.1871 18.6438 46.0776 18.7534 45.943 18.7534H41.4346C41.2999 18.7534 41.1904 18.6438 41.1904 18.5093V15.5449Z" fill="#CB281A"/>
<path d="M39.7256 26.355C39.7256 27.2973 40.4923 28.064 41.4346 28.064H45.943C46.8853 28.064 47.652 27.2973 47.652 26.355V23.3906C47.652 22.4483 46.8853 21.6816 45.943 21.6816H41.4346C40.4923 21.6816 39.7256 22.4483 39.7256 23.3906V26.355ZM41.1904 23.3906C41.1904 23.2561 41.2999 23.1465 41.4346 23.1465H45.943C46.0776 23.1465 46.1871 23.2561 46.1871 23.3906V26.355C46.1871 26.4896 46.0776 26.5991 45.943 26.5991H41.4346C41.2999 26.5991 41.1904 26.4896 41.1904 26.355V23.3906Z" fill="#CB281A"/>
<path d="M39.7256 34.2026C39.7256 35.1449 40.4923 35.9116 41.4346 35.9116H45.943C46.8853 35.9116 47.652 35.1449 47.652 34.2026V31.2383C47.652 30.296 46.8853 29.5293 45.943 29.5293H41.4346C40.4923 29.5293 39.7256 30.296 39.7256 31.2383V34.2026ZM41.1904 31.2383C41.1904 31.1037 41.2999 30.9941 41.4346 30.9941H45.943C46.0776 30.9941 46.1871 31.1037 46.1871 31.2383V34.2026C46.1871 34.3372 46.0776 34.4468 45.943 34.4468H41.4346C41.2999 34.4468 41.1904 34.3372 41.1904 34.2026V31.2383Z" fill="#CB281A"/>
<path d="M8.56504 21.6816H4.05664C3.11436 21.6816 2.34766 22.4483 2.34766 23.3906V26.355C2.34766 27.2973 3.11436 28.064 4.05664 28.064H8.56504C9.50732 28.064 10.274 27.2973 10.274 26.355V23.3906C10.274 22.4483 9.50732 21.6816 8.56504 21.6816ZM8.80918 26.355C8.80918 26.4896 8.69971 26.5991 8.56504 26.5991H4.05664C3.92197 26.5991 3.8125 26.4896 3.8125 26.355V23.3906C3.8125 23.2561 3.92197 23.1465 4.05664 23.1465H8.56504C8.69971 23.1465 8.80918 23.2561 8.80918 23.3906V26.355Z" fill="#CB281A"/>
<path d="M8.56504 29.5293H4.05664C3.11436 29.5293 2.34766 30.296 2.34766 31.2383V34.2026C2.34766 35.1449 3.11436 35.9116 4.05664 35.9116H8.56504C9.50732 35.9116 10.274 35.1449 10.274 34.2026V31.2383C10.274 30.296 9.50732 29.5293 8.56504 29.5293ZM8.80918 34.2026C8.80918 34.3372 8.69971 34.4468 8.56504 34.4468H4.05664C3.92197 34.4468 3.8125 34.3372 3.8125 34.2026V31.2383C3.8125 31.1037 3.92197 30.9941 4.05664 30.9941H8.56504C8.69971 30.9941 8.80918 31.1037 8.80918 31.2383V34.2026Z" fill="#CB281A"/>
<path d="M8.56504 37.377H4.05664C3.11436 37.377 2.34766 38.1437 2.34766 39.0859V42.0503C2.34766 42.9926 3.11436 43.7593 4.05664 43.7593H8.56504C9.50732 43.7593 10.274 42.9926 10.274 42.0503V39.0859C10.274 38.1437 9.50732 37.377 8.56504 37.377ZM8.80918 42.0504C8.80918 42.185 8.69971 42.2945 8.56504 42.2945H4.05664C3.92197 42.2945 3.8125 42.185 3.8125 42.0504V39.086C3.8125 38.9515 3.92197 38.8419 4.05664 38.8419H8.56504C8.69971 38.8419 8.80918 38.9515 8.80918 39.086V42.0504Z" fill="#CB281A"/>
<defs>
<linearGradient id="paint0_linear_1773_55912" x1="25" y1="30.7496" x2="49.2676" y2="30.7496" gradientUnits="userSpaceOnUse">
<stop stop-color="#EB3349"/>
<stop offset="1" stop-color="#F45C43"/>
</linearGradient>
<linearGradient id="paint1_linear_1773_55912" x1="0.732422" y1="34.6809" x2="25" y2="34.6809" gradientUnits="userSpaceOnUse">
<stop stop-color="#EB3349"/>
<stop offset="1" stop-color="#F45C43"/>
</linearGradient>
<linearGradient id="paint2_linear_1773_55912" x1="11.8896" y1="25" x2="38.1104" y2="25" gradientUnits="userSpaceOnUse">
<stop stop-color="#EB3349"/>
<stop offset="1" stop-color="#F45C43"/>
</linearGradient>
</defs>
</svg>
