<svg width="29" height="29" viewBox="0 0 29 29" fill="none" xmlns="http://www.w3.org/2000/svg">
<rect width="28.25" height="28.25" rx="14.125" fill="black" fill-opacity="0.5"/>
<path d="M14.125 2.125C11.7516 2.125 9.43155 2.82879 7.45816 4.14736C5.48477 5.46594 3.9467 7.34008 3.03845 9.5328C2.1302 11.7255 1.89256 14.1383 2.35558 16.4661C2.8186 18.7939 3.96149 20.932 5.63972 22.6103C7.31795 24.2885 9.45615 25.4314 11.7839 25.8944C14.1117 26.3574 16.5245 26.1198 18.7172 25.2115C20.9099 24.3033 22.7841 22.7652 24.1026 20.7918C25.4212 18.8185 26.125 16.4984 26.125 14.125C26.1212 10.9436 24.8558 7.89349 22.6061 5.64386C20.3565 3.39424 17.3064 2.12875 14.125 2.125V2.125ZM18.7526 17.2112C18.8568 17.3118 18.9399 17.4322 18.9971 17.5653C19.0543 17.6984 19.0844 17.8415 19.0856 17.9864C19.0869 18.1312 19.0593 18.2749 19.0044 18.4089C18.9496 18.543 18.8686 18.6648 18.7662 18.7672C18.6637 18.8697 18.5419 18.9507 18.4079 19.0055C18.2738 19.0604 18.1301 19.088 17.9853 19.0867C17.8404 19.0855 17.6973 19.0554 17.5642 18.9982C17.4311 18.941 17.3107 18.8579 17.2101 18.7537L14.125 15.6675L11.0399 18.7537C10.8342 18.9524 10.5586 19.0624 10.2726 19.0599C9.98653 19.0574 9.71292 18.9427 9.51066 18.7404C9.30839 18.5382 9.19366 18.2646 9.19118 17.9785C9.18869 17.6925 9.29865 17.4169 9.49737 17.2112L12.5825 14.125L9.49737 11.0388C9.39317 10.9382 9.31007 10.8178 9.25289 10.6847C9.19572 10.5516 9.16563 10.4085 9.16437 10.2636C9.16311 10.1188 9.19071 9.97512 9.24556 9.84105C9.30041 9.70698 9.38142 9.58518 9.48384 9.48275C9.58627 9.38032 9.70808 9.29932 9.84214 9.24447C9.97621 9.18961 10.1199 9.16201 10.2647 9.16327C10.4096 9.16453 10.5527 9.19462 10.6858 9.2518C10.8189 9.30897 10.9393 9.39208 11.0399 9.49627L14.125 12.5825L17.2101 9.49627C17.3107 9.39208 17.4311 9.30897 17.5642 9.2518C17.6973 9.19462 17.8404 9.16453 17.9853 9.16327C18.1301 9.16201 18.2738 9.18961 18.4079 9.24447C18.5419 9.29932 18.6637 9.38032 18.7662 9.48275C18.8686 9.58518 18.9496 9.70698 19.0044 9.84105C19.0593 9.97512 19.0869 10.1188 19.0856 10.2636C19.0844 10.4085 19.0543 10.5516 18.9971 10.6847C18.9399 10.8178 18.8568 10.9382 18.7526 11.0388L15.6675 14.125L18.7526 17.2112Z" fill="white"/>
</svg>
