<svg width="30" height="30" viewBox="0 0 30 30" fill="none" xmlns="http://www.w3.org/2000/svg">
<g clip-path="url(#clip0_3791_54542)">
<path d="M9.82973 12.6877C9.30326 12.6877 8.87646 13.1162 8.87646 13.6446C8.92674 14.914 10.7329 14.9136 10.783 13.6446C10.783 13.1161 10.3562 12.6877 9.82973 12.6877V12.6877Z" fill="#67788A"/>
<path d="M20.0299 12.6877C19.5035 12.6877 19.0767 13.1162 19.0767 13.6446C19.1269 14.914 20.9331 14.9136 20.9832 13.6446C20.9832 13.1161 20.5564 12.6877 20.0299 12.6877Z" fill="#67788A"/>
<path d="M26.8222 9.53284H26.0971V8.30123C27.9489 6.96287 29.1563 4.78558 29.1563 2.33139V1.46867C29.1563 0.65887 28.4975 0 27.6876 0H10.2492C6.00207 0 2.54677 3.4553 2.54677 7.70242C2.54677 8.52254 3.04533 9.22828 3.75517 9.53284H3.22931C-0.530967 9.68893 -0.528155 15.0457 3.22931 15.2004H3.95281V15.5717C3.95281 19.7469 6.25988 23.391 9.66157 25.2893V29.1211C9.66157 29.6064 10.0551 29.9999 10.5404 29.9999H19.3234C19.8088 29.9999 20.2023 29.6064 20.2023 29.1211V25.3908C23.7056 23.523 26.097 19.8226 26.097 15.5717V15.2004H26.8221C30.5825 15.0443 30.5795 9.68759 26.8222 9.53284V9.53284ZM10.2492 1.75777H27.3985V2.33139C27.3985 5.42148 24.8845 7.9355 21.7943 7.9355H4.92596C4.86421 7.92865 4.79923 7.92865 4.73747 7.9355H4.53767C4.40918 7.9355 4.30453 7.83091 4.30453 7.70236C4.30453 4.42454 6.9713 1.75777 10.2492 1.75777V1.75777ZM3.22937 13.4427C1.80153 13.3834 1.8027 11.3494 3.22937 11.2907H3.95286V13.4427H3.22937ZM18.4445 28.2422H11.4193V26.0776C13.5974 26.8566 16.2484 26.8811 18.4445 26.1399V28.2422ZM15.0249 24.9252C9.88902 24.9252 5.71057 20.7293 5.71057 15.5717V14.3476C5.71204 14.3303 5.71204 14.3129 5.71057 14.2955V10.4377C5.71204 10.4204 5.71204 10.403 5.71057 10.3856V9.69321H21.7943C22.6884 9.69321 23.5458 9.53279 24.3393 9.23953V15.5717C24.3393 20.7293 20.1609 24.9252 15.0249 24.9252V24.9252ZM26.8222 13.4427H26.0971V11.2907H26.8222C28.25 11.3499 28.2489 13.3839 26.8222 13.4427Z" fill="#67788A"/>
<path d="M17.9178 17.9384H12.1338C11.6484 17.9384 11.2549 18.3319 11.2549 18.8172V19.0349C11.4626 24.0387 18.5908 24.0349 18.7966 19.0349V18.8172C18.7966 18.3319 18.4031 17.9384 17.9178 17.9384ZM15.0258 21.0481C14.1473 21.0481 13.3984 20.4824 13.1242 19.6962H16.9274C16.6532 20.4824 15.9044 21.0481 15.0258 21.0481Z" fill="#67788A"/>
</g>
<defs>
<clipPath id="clip0_3791_54542">
<rect width="30" height="30" fill="white"/>
</clipPath>
</defs>
</svg>
