<svg width="100" height="100" viewBox="0 0 100 100" fill="none" xmlns="http://www.w3.org/2000/svg">
<path d="M50 100C77.6142 100 100 77.6142 100 50C100 22.3858 77.6142 0 50 0C22.3858 0 0 22.3858 0 50C0 77.6142 22.3858 100 50 100Z" fill="#FF5043"/>
<path fill-rule="evenodd" clip-rule="evenodd" d="M57.3981 64.7735C57.3981 65.1788 57.5573 65.5676 57.8408 65.8543C58.1243 66.1409 58.5088 66.3019 58.9098 66.3019C59.3107 66.3019 59.6952 66.1409 59.9787 65.8543C60.2622 65.5676 60.4214 65.1788 60.4214 64.7735V43.1402C60.4214 42.7349 60.2622 42.3461 59.9787 42.0594C59.6952 41.7728 59.3107 41.6118 58.9098 41.6118C58.5088 41.6118 58.1243 41.7728 57.8408 42.0594C57.5573 42.3461 57.3981 42.7349 57.3981 43.1402V64.7735ZM48.4883 64.7735C48.4883 65.1788 48.6476 65.5676 48.9311 65.8543C49.2146 66.1409 49.5991 66.3019 50 66.3019C50.4009 66.3019 50.7854 66.1409 51.0689 65.8543C51.3524 65.5676 51.5117 65.1788 51.5117 64.7735V43.1402C51.5117 42.7349 51.3524 42.3461 51.0689 42.0594C50.7854 41.7728 50.4009 41.6118 50 41.6118C49.5991 41.6118 49.2146 41.7728 48.9311 42.0594C48.6476 42.3461 48.4883 42.7349 48.4883 43.1402V64.7735ZM39.5785 64.7735C39.5785 65.1788 39.7378 65.5676 40.0213 65.8543C40.3048 66.1409 40.6893 66.3019 41.0902 66.3019C41.4912 66.3019 41.8757 66.1409 42.1592 65.8543C42.4427 65.5676 42.6019 65.1788 42.6019 64.7735V43.1402C42.6019 42.7349 42.4427 42.3461 42.1592 42.0594C41.8757 41.7728 41.4912 41.6118 41.0902 41.6118C40.6893 41.6118 40.3048 41.7728 40.0213 42.0594C39.7378 42.3461 39.5785 42.7349 39.5785 43.1402V64.7735ZM58.8857 28.0001C59.1848 27.9977 59.4814 28.0553 59.7584 28.1694C60.0354 28.2836 60.2873 28.452 60.4996 28.665C60.712 28.8781 60.8805 29.1315 60.9955 29.4107C61.1105 29.6899 61.1697 29.9893 61.1697 30.2918C61.1697 30.5942 61.1105 30.8937 60.9955 31.1729C60.8805 31.4521 60.712 31.7055 60.4996 31.9185C60.2873 32.1316 60.0354 32.3 59.7584 32.4141C59.4814 32.5283 59.1848 32.5858 58.8857 32.5835H41.1143C40.8152 32.5858 40.5186 32.5283 40.2416 32.4141C39.9646 32.3 39.7127 32.1316 39.5004 31.9185C39.288 31.7055 39.1195 31.4521 39.0045 31.1729C38.8895 30.8937 38.8303 30.5942 38.8303 30.2918C38.8303 29.9893 38.8895 29.6899 39.0045 29.4107C39.1195 29.1315 39.288 28.8781 39.5004 28.665C39.7127 28.452 39.9646 28.2836 40.2416 28.1694C40.5186 28.0553 40.8152 27.9977 41.1143 28.0001H58.8857ZM64.8562 70.7504C64.8343 71.0891 64.6858 71.4067 64.4408 71.6388C64.1958 71.8708 63.8727 72 63.537 72H36.463C36.1274 71.9999 35.8043 71.8708 35.5593 71.6388C35.3143 71.4068 35.1657 71.0892 35.1438 70.7505L33.0025 37.336C32.9914 37.1537 33.0173 36.971 33.0786 36.7992C33.1398 36.6273 33.2351 36.47 33.3586 36.3367C33.4822 36.2034 33.6313 36.0969 33.7969 36.024C33.9625 35.951 34.1411 35.913 34.3218 35.9122H65.6784C65.859 35.9129 66.0376 35.951 66.2032 36.024C66.3688 36.097 66.5179 36.2034 66.6414 36.3367C66.7649 36.47 66.8602 36.6274 66.9215 36.7992C66.9827 36.9711 67.0086 37.1537 66.9975 37.336C66.2838 48.4746 65.5701 59.6127 64.8562 70.7504Z" fill="white"/>
</svg>
