<svg width="30" height="30" viewBox="0 0 30 30" fill="none" xmlns="http://www.w3.org/2000/svg">
<path d="M15 30C10.9934 30 7.22648 28.4398 4.39336 25.6066C1.56023 22.7735 0 19.0066 0 15C0 10.9934 1.56029 7.22654 4.39336 4.39336C7.22643 1.56018 10.9934 0 15 0C19.0066 0 22.7735 1.56023 25.6066 4.39336C28.4398 7.22648 30 10.9934 30 15C30 19.0066 28.4397 22.7735 25.6066 25.6066C22.7736 28.4398 19.0066 30 15 30ZM15 1.875C7.76285 1.875 1.875 7.76285 1.875 15C1.875 22.2371 7.76285 28.125 15 28.125C22.2371 28.125 28.125 22.2371 28.125 15C28.125 7.76285 22.2371 1.875 15 1.875Z" fill="#53D687"/>
<path d="M15 14.0625C13.7077 14.0625 12.6562 13.0111 12.6562 11.7188C12.6562 10.4264 13.7077 9.375 15 9.375C16.2923 9.375 17.3438 10.4264 17.3438 11.7188C17.3438 12.2365 17.7635 12.6562 18.2812 12.6562C18.799 12.6562 19.2188 12.2365 19.2188 11.7188C19.2188 9.71479 17.8138 8.03391 15.9375 7.60629V6.5625C15.9375 6.04477 15.5178 5.625 15 5.625C14.4822 5.625 14.0625 6.04477 14.0625 6.5625V7.60629C12.1862 8.03391 10.7812 9.71479 10.7812 11.7188C10.7812 14.045 12.6738 15.9375 15 15.9375C16.2923 15.9375 17.3438 16.9889 17.3438 18.2812C17.3438 19.5736 16.2923 20.625 15 20.625C13.7077 20.625 12.6562 19.5736 12.6562 18.2812C12.6562 17.7635 12.2365 17.3438 11.7188 17.3438C11.201 17.3438 10.7812 17.7635 10.7812 18.2812C10.7812 20.2852 12.1862 21.9661 14.0625 22.3937V23.4375C14.0625 23.9552 14.4822 24.375 15 24.375C15.5178 24.375 15.9375 23.9552 15.9375 23.4375V22.3937C17.8138 21.9661 19.2188 20.2852 19.2188 18.2812C19.2188 15.955 17.3262 14.0625 15 14.0625Z" fill="#53D687"/>
</svg>
