<svg width="30" height="30" viewBox="0 0 30 30" fill="none" xmlns="http://www.w3.org/2000/svg">
<g clip-path="url(#clip0_3791_54562)">
<path d="M14.9998 8.24508C17.7069 6.61576 19.607 4.86281 19.5723 2.98664C19.5722 1.3398 18.2325 0 16.5856 0C16.0192 0 15.4705 0.16125 14.9998 0.456387C14.5291 0.16125 13.9804 0 13.414 0C11.7671 0 10.4273 1.3398 10.4273 2.98664C10.4149 4.74557 12.0164 6.45533 14.9998 8.24508ZM13.414 1.75781C14.1309 1.73631 14.5919 2.49146 14.9998 2.9332C15.3681 2.52018 15.9411 1.69236 16.5856 1.75781C17.2632 1.75781 17.8145 2.30906 17.8145 2.98664C17.8145 3.59643 17.3118 4.63102 14.9998 6.16295C12.6878 4.63102 12.1851 3.59643 12.1851 2.98664C12.1851 2.30906 12.7364 1.75781 13.414 1.75781V1.75781Z" fill="#67788A"/>
<path d="M25.2634 17.4443C26.532 16.4768 27.3523 14.9499 27.3523 13.2349C27.3523 10.317 24.9785 7.94318 22.0606 7.94318C19.1428 7.94318 16.7689 10.317 16.7689 13.2349C16.7689 14.9499 17.5891 16.4766 18.8577 17.4442C18.5474 17.5816 18.2474 17.7379 17.9594 17.9124C17.1764 17.2022 16.1379 16.7689 15.0001 16.7689C14.4028 16.7689 13.8332 16.8888 13.3132 17.105C12.6765 16.5184 11.9439 16.0345 11.142 15.6795C12.4108 14.7119 13.2312 13.185 13.2312 11.4698C13.2312 8.55191 10.8574 6.1781 7.93951 6.1781C5.02166 6.1781 2.64779 8.55197 2.64779 11.4698C2.64779 13.1849 3.46811 14.7116 4.73672 15.6793C1.94959 16.9128 0 19.7044 0 22.9431V30H30V24.7083C30 21.4695 28.0504 18.678 25.2634 17.4443V17.4443ZM18.5266 13.2349C18.5266 11.2862 20.112 9.70099 22.0605 9.70099C24.0091 9.70099 25.5945 11.2863 25.5945 13.2349C25.5945 15.1835 24.0091 16.7688 22.0605 16.7688C20.112 16.7688 18.5266 15.1835 18.5266 13.2349ZM17.6514 21.178C17.6514 22.64 16.462 23.8294 15 23.8294C13.538 23.8294 12.3486 22.64 12.3486 21.178C12.3486 19.7161 13.538 18.5267 15 18.5267C16.462 18.5267 17.6514 19.716 17.6514 21.178ZM4.40549 11.4698C4.40549 9.52111 5.9908 7.93585 7.93945 7.93585C9.88811 7.93585 11.4734 9.52117 11.4734 11.4698C11.4734 13.4184 9.88805 15.0037 7.93945 15.0037C5.99086 15.0037 4.40549 13.4184 4.40549 11.4698V11.4698ZM9.78164 28.2422H1.75781V22.9431C1.75781 19.5345 4.53088 16.7615 7.93945 16.7615C9.40635 16.7615 10.7553 17.2754 11.8164 18.1323C11.0582 18.9245 10.5908 19.9974 10.5908 21.178C10.5908 22.5636 11.2338 23.8012 12.2364 24.6101C10.9591 25.3956 10.0392 26.7079 9.78164 28.2422ZM11.5767 28.2422C11.9684 26.7174 13.3546 25.5872 15 25.5872C16.6454 25.5872 18.0316 26.7174 18.4233 28.2422H11.5767ZM28.2422 28.2422H20.2184C19.9608 26.7079 19.0409 25.3956 17.7636 24.6101C18.7662 23.8012 19.4092 22.5636 19.4092 21.178C19.4092 20.521 19.2637 19.8977 19.0049 19.337C19.9068 18.8219 20.9497 18.5266 22.0605 18.5266C25.4691 18.5266 28.2422 21.2997 28.2422 24.7083V28.2422Z" fill="#67788A"/>
</g>
<defs>
<clipPath id="clip0_3791_54562">
<rect width="30" height="30" fill="white"/>
</clipPath>
</defs>
</svg>
