<svg width="155" height="143" viewBox="0 0 155 143" fill="none" xmlns="http://www.w3.org/2000/svg">
<path d="M135.924 144.812C134.676 144.812 133.664 143.801 133.664 142.553V132.559C133.664 131.311 134.676 130.3 135.924 130.3C137.172 130.3 138.183 131.311 138.183 132.559V142.553C138.183 143.801 137.172 144.812 135.924 144.812Z" fill="#91FDBC"/>
<path d="M19.0321 146.481C17.7842 146.481 16.7725 145.469 16.7725 144.221V130.893C16.7725 129.645 17.7842 128.633 19.0321 128.633C20.28 128.633 21.2917 129.645 21.2917 130.893V144.221C21.2917 145.469 20.28 146.481 19.0321 146.481Z" fill="#91FDBC"/>
<path d="M22.1878 133.611H15.8778C11.3185 133.611 7.7492 129.686 8.18094 125.147L11.336 91.9788C11.7135 88.0103 15.0463 84.9794 19.0328 84.9794C23.0191 84.9794 26.3522 88.0103 26.7297 91.9788L29.8847 125.147C30.3161 129.686 26.7468 133.611 22.1878 133.611Z" fill="#129445"/>
<path d="M29.8845 125.147L26.7298 91.9788C26.3522 88.0103 23.0195 84.9794 19.0329 84.9794C17.3527 84.9794 15.7893 85.5196 14.5137 86.44C16.2644 87.703 17.4729 89.6833 17.6913 91.9788L20.8463 125.148C21.2338 129.222 18.3966 132.799 14.514 133.489C14.9566 133.568 15.4118 133.611 15.8782 133.611H22.1879C26.7469 133.611 30.3162 129.686 29.8845 125.147Z" fill="#32EA7B"/>
<path d="M139.078 133.611H132.768C128.209 133.611 124.64 129.686 125.072 125.148L128.227 91.9788C128.604 88.0103 131.937 84.9794 135.923 84.9794C139.91 84.9794 143.243 88.0103 143.62 91.9788L146.775 125.148C147.207 129.686 143.637 133.611 139.078 133.611Z" fill="#129445"/>
<path d="M146.775 125.147L143.62 91.9788C143.243 88.0103 139.91 84.9794 135.924 84.9794C134.243 84.9794 132.68 85.5196 131.404 86.44C133.155 87.703 134.363 89.6833 134.582 91.9788L137.737 125.148C138.124 129.222 135.287 132.799 131.405 133.489C131.847 133.568 132.302 133.611 132.769 133.611H139.079C143.638 133.611 147.207 129.686 146.775 125.147Z" fill="#32EA7B"/>
<path d="M27.208 3.32629H127.758V144.836H27.208V3.32629Z" fill="#91FDBC"/>
<path d="M27.208 127.025H127.758V144.838H27.208V127.025Z" fill="#37CA71"/>
<path d="M118.719 127.025H127.757V144.838H118.719V127.025Z" fill="#37CA71"/>
<path d="M132.539 11.5953H22.4272C21.2236 11.5953 20.248 10.6198 20.248 9.41617V2.49451C20.248 1.29089 21.2239 0.315338 22.4272 0.315338H132.539C133.743 0.315338 134.718 1.29119 134.718 2.49451V9.41586C134.718 10.6195 133.742 11.5953 132.539 11.5953Z" fill="#129445"/>
<path d="M132.538 0.313477H123.5C124.704 0.313477 125.679 1.28933 125.679 2.49265V9.4143C125.679 10.6179 124.703 11.5935 123.5 11.5935H132.538C133.742 11.5935 134.718 10.6179 134.718 9.4143V2.49295C134.718 1.28933 133.742 0.313477 132.538 0.313477Z" fill="#129445"/>
<path d="M89.1971 136.891H65.7686V102.895C65.7686 100.882 67.4003 99.2507 69.4132 99.2507H85.5528C87.5657 99.2507 89.1974 100.882 89.1974 102.895V136.891H89.1971Z" fill="#5BE993"/>
<path d="M98.8958 143.632H56.0703V139.484C56.0703 137.386 57.7711 135.685 59.8692 135.685H95.0969C97.195 135.685 98.8958 137.386 98.8958 139.484V143.632Z" fill="#129445"/>
<path d="M50.9248 47.4926H42.168C40.6622 47.4926 39.4414 46.2718 39.4414 44.766V26.6813C39.4414 25.1755 40.6622 23.9547 42.168 23.9547H50.9248C52.4306 23.9547 53.6514 25.1755 53.6514 26.6813V44.7663C53.6511 46.2721 52.4306 47.4926 50.9248 47.4926Z" fill="#32EA7B"/>
<path d="M39.4414 36.0945V44.7816C39.4414 46.2793 40.6553 47.4932 42.1529 47.4932H50.9395C52.4372 47.4932 53.6511 46.2793 53.6511 44.7816V36.0945H39.4414Z" fill="#129445"/>
<path d="M81.8623 47.4926H73.1055C71.5997 47.4926 70.3789 46.2718 70.3789 44.766V26.6813C70.3789 25.1755 71.5997 23.9547 73.1055 23.9547H81.8623C83.3681 23.9547 84.5889 25.1755 84.5889 26.6813V44.7663C84.5886 46.2721 83.3681 47.4926 81.8623 47.4926Z" fill="#32EA7B"/>
<path d="M70.3789 36.0945V44.7816C70.3789 46.2793 71.5928 47.4932 73.0904 47.4932H81.877C83.3747 47.4932 84.5886 46.2793 84.5886 44.7816V36.0945H70.3789Z" fill="#129445"/>
<path d="M112.799 47.4926H104.042C102.536 47.4926 101.315 46.2718 101.315 44.766V26.6813C101.315 25.1755 102.536 23.9547 104.042 23.9547H112.799C114.305 23.9547 115.525 25.1755 115.525 26.6813V44.7663C115.525 46.2721 114.305 47.4926 112.799 47.4926Z" fill="#32EA7B"/>
<path d="M101.315 36.0945V44.7816C101.315 46.2793 102.529 47.4932 104.027 47.4932H112.814C114.311 47.4932 115.525 46.2793 115.525 44.7816V36.0945H101.315Z" fill="#129445"/>
<path d="M50.9248 84.368H42.168C40.6622 84.368 39.4414 83.1472 39.4414 81.6414V63.5563C39.4414 62.0505 40.6622 60.8297 42.168 60.8297H50.9248C52.4306 60.8297 53.6514 62.0505 53.6514 63.5563V81.6414C53.6511 83.1472 52.4306 84.368 50.9248 84.368Z" fill="#32EA7B"/>
<path d="M39.4414 72.9695V81.6567C39.4414 83.1544 40.6553 84.3682 42.1529 84.3682H50.9395C52.4372 84.3682 53.6511 83.1544 53.6511 81.6567V72.9695H39.4414Z" fill="#129445"/>
<path d="M81.8623 84.368H73.1055C71.5997 84.368 70.3789 83.1472 70.3789 81.6414V63.5563C70.3789 62.0505 71.5997 60.8297 73.1055 60.8297H81.8623C83.3681 60.8297 84.5889 62.0505 84.5889 63.5563V81.6414C84.5886 83.1472 83.3681 84.368 81.8623 84.368Z" fill="#32EA7B"/>
<path d="M70.3789 72.9695V81.6567C70.3789 83.1544 71.5928 84.3682 73.0904 84.3682H81.877C83.3747 84.3682 84.5886 83.1544 84.5886 81.6567V72.9695H70.3789Z" fill="#129445"/>
<path d="M112.799 84.368H104.042C102.536 84.368 101.315 83.1472 101.315 81.6414V63.5563C101.315 62.0505 102.536 60.8297 104.042 60.8297H112.799C114.305 60.8297 115.525 62.0505 115.525 63.5563V81.6414C115.525 83.1472 114.305 84.368 112.799 84.368Z" fill="#32EA7B"/>
<path d="M101.315 72.9695V81.6567C101.315 83.1544 102.529 84.3682 104.027 84.3682H112.814C114.311 84.3682 115.525 83.1544 115.525 81.6567V72.9695H101.315Z" fill="#129445"/>
<path d="M50.9248 120.842H42.168C40.6622 120.842 39.4414 119.621 39.4414 118.115V100.03C39.4414 98.5245 40.6622 97.3037 42.168 97.3037H50.9248C52.4306 97.3037 53.6514 98.5245 53.6514 100.03V118.115C53.6511 119.621 52.4306 120.842 50.9248 120.842Z" fill="#32EA7B"/>
<path d="M39.4414 109.443V118.131C39.4414 119.628 40.6553 120.842 42.1529 120.842H50.9395C52.4372 120.842 53.6511 119.628 53.6511 118.131V109.443H39.4414Z" fill="#129445"/>
<path d="M112.799 120.842H104.042C102.536 120.842 101.315 119.621 101.315 118.115V100.03C101.315 98.5245 102.536 97.3037 104.042 97.3037H112.799C114.305 97.3037 115.525 98.5245 115.525 100.03V118.115C115.525 119.621 114.305 120.842 112.799 120.842Z" fill="#32EA7B"/>
<path d="M101.315 109.443V118.131C101.315 119.628 102.529 120.842 104.027 120.842H112.814C114.311 120.842 115.525 119.628 115.525 118.131V109.443H101.315Z" fill="#129445"/>
<path d="M89.9695 106.052C91.901 106.052 93.283 104.207 92.766 102.346C90.9222 95.7056 84.8363 90.8318 77.6088 90.8318C70.3813 90.8318 64.2955 95.7056 62.4519 102.346C61.9352 104.207 63.3172 106.052 65.2484 106.052H89.9695Z" fill="#129445"/>
<path d="M152.351 147.098H2.61411C1.3662 147.098 0.354492 146.086 0.354492 144.838C0.354492 143.591 1.3662 142.579 2.61411 142.579H152.351C153.599 142.579 154.611 143.591 154.611 144.838C154.611 146.086 153.599 147.098 152.351 147.098Z" fill="#B6C4CF"/>
</svg>
