<svg width="34" height="34" viewBox="0 0 34 34" fill="none" xmlns="http://www.w3.org/2000/svg">
<g clip-path="url(#clip0_1957_47999)">
<path d="M31.1673 17.3546V31.5213C31.1673 32.8813 30.0482 34.0004 28.6882 34.0004H18.0632V18.4171H15.9382V34.0004H5.31315C3.95315 34.0004 2.83398 32.8813 2.83398 31.5213V17.3546C2.83398 16.7738 3.31565 16.2921 3.89648 16.2921H30.1048C30.6857 16.2921 31.1673 16.7738 31.1673 17.3546Z" fill="#0B5959"/>
<path d="M34 12.3963V15.9379C34 17.2979 32.8808 18.4171 31.5208 18.4171H2.47917C1.11917 18.4171 0 17.2979 0 15.9379V12.3963C0 11.0363 1.11917 9.91711 2.47917 9.91711H31.5208C32.8808 9.91711 34 11.0363 34 12.3963Z" fill="#53D687"/>
<path d="M16.9996 11.3956C16.6908 11.3956 16.3961 11.261 16.1964 11.0273C15.9938 10.7935 15.9045 10.4833 15.9485 10.1773C16.4726 6.63562 19.2394 -0.0623779 25.9657 -0.0623779C29.8049 -0.0623779 31.1663 2.01162 31.1663 3.78812C31.1663 6.94587 26.7704 11.3956 16.9996 11.3956ZM25.9657 2.06262C20.8912 2.06262 18.9645 6.88637 18.3256 9.23946C22.3291 9.05245 24.8536 8.03954 26.3071 7.17679C28.323 5.97971 29.0413 4.64095 29.0413 3.78671C29.0413 2.51454 27.4532 2.06262 25.9657 2.06262Z" fill="#FBC72B"/>
<path d="M17.0016 11.3956C7.22946 11.3956 2.83496 6.94587 2.83496 3.78812C2.83496 2.01162 4.19779 -0.0623779 8.03696 -0.0623779C14.7619 -0.0623779 17.5286 6.63562 18.0528 10.1773C18.0967 10.4833 18.0075 10.7935 17.8049 11.0273C17.6051 11.261 17.3105 11.3956 17.0016 11.3956ZM8.03696 2.06262C6.54946 2.06262 4.95996 2.51596 4.95996 3.78812C4.95996 5.59721 8.12338 8.89237 15.6756 9.24087C15.0367 6.88637 13.11 2.06262 8.03696 2.06262Z" fill="#FFC107"/>
<path d="M18.0625 18.4171V34.0004H15.9375V18.4171H18.0625Z" fill="#3FBC71"/>
<path d="M18.0625 10.7525V18.4167H15.9375V10.7525C15.9375 10.4281 16.0508 10.1306 16.235 9.91667C16.4333 9.70417 16.7025 9.5625 17 9.5625C17.2975 9.5625 17.5667 9.70417 17.765 9.91667C17.9492 10.1292 18.0625 10.4267 18.0625 10.7525Z" fill="#3FBC71"/>
<path d="M15.9382 18.4171H2.83398V31.5213C2.83398 32.8813 3.95315 34.0004 5.31315 34.0004H15.9382V18.4171Z" fill="#0B5959"/>
<path d="M8.45183 9.91711H2.47917C1.11917 9.91711 0 11.0363 0 12.3963V15.9379C0 17.2979 1.11917 18.4171 2.47917 18.4171H2.83333H15.9375H17H15.9375V11.3777C12.8888 11.2729 10.404 10.7204 8.45183 9.91711Z" fill="#53D687"/>
<path d="M8.03696 2.06262C6.54946 2.06262 4.95996 2.51596 4.95996 3.78812C4.95996 5.59721 8.12338 8.89237 15.6756 9.24087C15.0367 6.88637 13.11 2.06262 8.03696 2.06262Z" fill="#D5FFE5"/>
<path d="M15.6742 9.23946C8.12338 8.89237 4.95854 5.59721 4.95854 3.78671C4.95854 2.51454 6.54804 2.06121 8.03554 2.06121C13.11 2.06262 15.0367 6.88637 15.6742 9.23946ZM8.03696 -0.0623779C4.19779 -0.0623779 2.83496 2.01162 2.83496 3.78812C2.83496 5.80262 4.62279 8.34129 8.45204 9.91662C10.4056 10.7199 12.889 11.2724 15.9377 11.3772V10.7525C15.9377 10.428 16.051 10.1305 16.2352 9.91662C16.4335 9.70412 16.7027 9.56246 17.0002 9.56246V6.56621C15.6062 3.33196 12.8239 -0.0623779 8.03696 -0.0623779Z" fill="#FBC72B"/>
<path d="M17 18.4171H15.9375V34.0004H17V18.4171Z" fill="#2E9F5B"/>
<path d="M17 9.5625C16.7025 9.5625 16.4333 9.70417 16.235 9.91667C16.0508 10.1292 15.9375 10.4267 15.9375 10.7525V11.3773V18.4167H17V9.5625Z" fill="#2E9F5B"/>
</g>
<defs>
<clipPath id="clip0_1957_47999">
<rect width="34" height="34" fill="white"/>
</clipPath>
</defs>
</svg>
