<svg width="50" height="50" viewBox="0 0 50 50" fill="none" xmlns="http://www.w3.org/2000/svg">
<path opacity="0.5" d="M41.9339 12.8467V9.91121C41.9333 9.56842 41.8004 9.23908 41.5629 8.99186L41.3291 8.75799L40.8936 8.30637C40.7422 8.1537 40.536 8.06783 40.321 8.06783C40.106 8.06783 39.8998 8.1537 39.7484 8.30637L39.3129 8.75799L39.0791 8.99186C38.8416 9.23908 38.7087 9.56842 38.7081 9.91121V9.62089C37.9263 8.63748 36.7386 8.0644 35.4823 8.0644C34.226 8.0644 33.0383 8.63748 32.2565 9.62089V5.0725C32.2491 4.71072 32.0768 4.37215 31.7887 4.15315L30.9823 3.46766C30.5642 3.14489 29.981 3.14489 29.5629 3.46766L28.7565 4.15315C28.444 4.35851 28.2467 4.69926 28.2242 5.0725V4.78218C27.4424 3.79877 26.2547 3.22569 24.9984 3.22569C23.7421 3.22569 22.5544 3.79877 21.7726 4.78218V5.0725C21.7652 4.71072 21.5929 4.37215 21.3049 4.15315L20.4984 3.46766C20.0804 3.14489 19.4971 3.14489 19.0791 3.46766L18.2726 4.15315C17.9601 4.35851 17.7629 4.69926 17.7404 5.0725V9.62089C16.9586 8.63748 15.7709 8.0644 14.5146 8.0644C13.2582 8.0644 12.0705 8.63748 11.2887 9.62089V9.91121C11.2881 9.56842 11.1552 9.23908 10.9178 8.99186L10.6839 8.75799L10.2484 8.30637C10.097 8.1537 9.89087 8.06783 9.67584 8.06783C9.46081 8.06783 9.25469 8.1537 9.10326 8.30637L8.66778 8.75799L8.43391 8.99186C8.19645 9.23908 8.06356 9.56842 8.06294 9.91121V12.8467C7.28114 11.8633 6.09344 11.2902 4.83713 11.2902C3.58082 11.2902 2.39313 11.8633 1.61133 12.8467V39.4596C2.39313 38.4762 3.58082 37.9031 4.83713 37.9031C6.09344 37.9031 7.28114 38.4762 8.06294 39.4596C7.28114 38.4762 6.09344 37.9031 4.83713 37.9031C3.58082 37.9031 2.39313 38.4762 1.61133 39.4596V47.5806C1.61133 48.026 1.97239 48.387 2.41778 48.387H47.5791C48.0245 48.387 48.3855 48.026 48.3855 47.5806V39.4596C47.6037 38.4762 46.416 37.9031 45.1597 37.9031C43.9034 37.9031 42.7157 38.4762 41.9339 39.4596C42.7157 38.4762 43.9034 37.9031 45.1597 37.9031C46.416 37.9031 47.6037 38.4762 48.3855 39.4596V12.8467C47.6037 11.8633 46.416 11.2902 45.1597 11.2902C43.9034 11.2902 42.7157 11.8633 41.9339 12.8467Z" fill="#53D687"/>
<path d="M42.7411 11.1292C42.7411 9.08083 42.8782 9.17761 41.4669 7.74212C41.1641 7.43678 40.7518 7.26503 40.3218 7.26503C39.8917 7.26503 39.4795 7.43678 39.1766 7.74212L38.5798 8.35503C37.0091 7.08416 34.8203 6.90496 33.0637 7.90341C33.0637 3.96793 33.3298 4.37116 31.4508 2.8389C30.7348 2.29856 29.7474 2.29856 29.0314 2.8389L28.1605 3.56471C27.4874 3.00003 26.6734 2.62925 25.8056 2.49212V1.61309C25.8056 1.1677 25.4446 0.806641 24.9992 0.806641C24.5538 0.806641 24.1927 1.1677 24.1927 1.61309V2.49212C23.3306 2.63204 22.5225 3.00267 21.854 3.56471L20.9669 2.8389C20.251 2.29856 19.2635 2.29856 18.5476 2.8389C16.6363 4.38729 16.9347 4.03245 16.9347 7.90341C15.1791 6.90031 12.9875 7.07974 11.4185 8.35503L10.8218 7.74212C10.5189 7.43678 10.1067 7.26503 9.6766 7.26503C9.24654 7.26503 8.83429 7.43678 8.53144 7.74212C7.25725 9.0647 7.25725 8.87116 7.25725 11.1292C5.15225 9.92908 2.48626 10.4465 0.983052 12.347C0.708858 12.6857 0.805633 9.95986 0.805633 48.3873C0.805633 48.8327 1.16669 49.1937 1.61208 49.1937H48.3863C48.8317 49.1937 49.1927 48.8327 49.1927 48.3873C49.1927 10.1857 49.2895 12.6857 49.0153 12.347C47.5121 10.4465 44.8461 9.92908 42.7411 11.1292ZM18.5476 8.0647H20.9669V12.9034H18.5476V8.0647ZM47.5798 28.8712C46.0827 28.0068 44.2382 28.0068 42.7411 28.8712V22.0163C43.369 21.3493 44.2444 20.9711 45.1605 20.9711C46.0765 20.9711 46.9519 21.3493 47.5798 22.0163V28.8712ZM41.1282 21.7179C41.1282 21.7986 41.3056 21.7744 39.5153 21.7744V20.1615H41.1282V21.7179ZM39.5153 23.3873H41.1282V28.226H39.5153V23.3873ZM41.1282 18.5486H39.5153V12.097H41.1282V18.5486ZM37.9024 27.2583C36.4053 26.3939 34.5608 26.3939 33.0637 27.2583V19.597C33.6916 18.9299 34.567 18.5517 35.4831 18.5517C36.3991 18.5517 37.2745 18.9299 37.9024 19.597V27.2583ZM20.9669 16.1292H18.5476V14.5163H20.9669V16.1292ZM20.9669 17.7421V21.7744H18.5476V17.7421H20.9669ZM18.5476 23.3873H20.9669V30.6453H18.5476V23.3873ZM22.5798 22.8228C23.2077 22.1557 24.0831 21.7775 24.9992 21.7775C25.9152 21.7775 26.7907 22.1557 27.4185 22.8228V29.6776C25.9214 28.8133 24.0769 28.8133 22.5798 29.6776V22.8228ZM31.4508 21.7744H29.0314V17.7421H31.4508V21.7744ZM31.4508 16.1292H29.0314V14.5163H31.4508V16.1292ZM29.0314 23.3873H31.4508V30.6453H29.0314V23.3873ZM31.4508 12.9034H29.0314V8.0647H31.4508V12.9034ZM27.4185 20.8066C25.9214 19.9423 24.0769 19.9423 22.5798 20.8066V13.9518C23.2077 13.2848 24.0831 12.9066 24.9992 12.9066C25.9152 12.9066 26.7907 13.2848 27.4185 13.9518V20.8066ZM16.9347 27.2583C15.4376 26.3939 13.5931 26.3939 12.096 27.2583V19.597C12.7238 18.9299 13.5993 18.5517 14.5153 18.5517C15.4314 18.5517 16.3068 18.9299 16.9347 19.597V27.2583ZM10.4831 21.7744C8.64434 21.7744 8.87015 21.7744 8.87015 21.7179V20.1615H10.4831V21.7744ZM8.87015 23.3873H10.4831V28.226H8.87015V23.3873ZM10.4831 18.5486H8.87015V12.097H10.4831V18.5486ZM7.25725 28.855C5.74715 28.0406 3.92863 28.0406 2.41854 28.855V22.0486C3.0309 21.3542 3.91208 20.9564 4.83789 20.9564C5.7637 20.9564 6.64488 21.3542 7.25725 22.0486V28.855ZM2.41854 30.9195C3.0309 30.2252 3.91208 29.8274 4.83789 29.8274C5.7637 29.8274 6.64488 30.2252 7.25725 30.9195V37.7421C5.76014 36.8778 3.91564 36.8778 2.41854 37.7421V30.9195ZM8.87015 29.8389H10.4831V37.9034H8.87015V29.8389ZM12.096 29.2744C12.7238 28.6073 13.5993 28.2291 14.5153 28.2291C15.4314 28.2291 16.3068 28.6073 16.9347 29.2744V36.9357C15.4376 36.0713 13.5931 36.0713 12.096 36.9357V29.2744ZM18.5476 32.2583H20.9669V39.5163H18.5476V32.2583ZM22.5798 31.6937C23.2077 31.0267 24.0831 30.6485 24.9992 30.6485C25.9152 30.6485 26.7907 31.0267 27.4185 31.6937V38.5002C25.9035 37.7057 24.0949 37.7057 22.5798 38.5002V31.6937ZM29.0314 32.2583H31.4508V39.5163H29.0314V32.2583ZM33.0637 29.2744C33.6916 28.6073 34.567 28.2291 35.4831 28.2291C36.3991 28.2291 37.2745 28.6073 37.9024 29.2744V36.9357C36.4053 36.0713 34.5608 36.0713 33.0637 36.9357V29.2744ZM39.5153 29.8389H41.1282V37.9034H39.5153V29.8389ZM42.7411 30.8873C43.369 30.2202 44.2444 29.842 45.1605 29.842C46.0765 29.842 46.9519 30.2202 47.5798 30.8873V37.7421C46.0827 36.8778 44.2382 36.8778 42.7411 37.7421V30.8873ZM47.5798 13.1453V20.0002C46.0827 19.1358 44.2382 19.1358 42.7411 20.0002V13.1453C43.369 12.4783 44.2444 12.1001 45.1605 12.1001C46.0765 12.1001 46.9519 12.4783 47.5798 13.1453ZM40.3218 8.87116C41.2572 9.82277 41.1282 9.54051 41.1282 10.4841H39.5153C39.5153 9.54051 39.4024 9.82277 40.3218 8.87116ZM37.9024 9.91954V17.5808C36.4053 16.7165 34.5608 16.7165 33.0637 17.5808V9.91954C33.6916 9.25251 34.567 8.8743 35.4831 8.8743C36.3991 8.8743 37.2745 9.25251 37.9024 9.91954ZM30.0395 4.0889C30.1643 4.01687 30.318 4.01687 30.4427 4.0889C31.2976 4.79051 31.4508 4.8389 31.4508 5.07277V6.4518H29.0314V5.07277C29.0314 4.8389 29.1766 4.8389 30.0395 4.0889ZM27.4185 11.9357C25.9214 11.0713 24.0769 11.0713 22.5798 11.9357V5.08083C23.2077 4.4138 24.0831 4.03559 24.9992 4.03559C25.9152 4.03559 26.7907 4.4138 27.4185 5.08083V11.9357ZM18.7169 4.77438L19.5234 4.0889C19.6481 4.01687 19.8018 4.01687 19.9266 4.0889C20.8137 4.79051 20.9669 4.8389 20.9669 5.07277V6.4518H18.5476C18.5476 4.94374 18.4992 4.95987 18.7169 4.77438ZM16.9347 9.91954V17.5808C15.4376 16.7165 13.5931 16.7165 12.096 17.5808V9.91954C12.7238 9.25251 13.5993 8.8743 14.5153 8.8743C15.4314 8.8743 16.3068 9.25251 16.9347 9.91954ZM9.6766 8.87116C10.6121 9.82277 10.4831 9.54051 10.4831 10.4841H8.87015C8.87015 9.54051 8.75725 9.82277 9.6766 8.87116ZM2.41854 13.1453C3.04641 12.4783 3.92183 12.1001 4.83789 12.1001C5.75395 12.1001 6.62937 12.4783 7.25725 13.1453V19.9841C5.75334 19.1455 3.92244 19.1455 2.41854 19.9841V13.1453ZM2.41854 39.7583C3.04641 39.0912 3.92183 38.713 4.83789 38.713C5.75395 38.713 6.62937 39.0912 7.25725 39.7583V47.5808H2.41854V39.7583ZM8.87015 39.5163H10.4831V47.5808H8.87015V39.5163ZM12.096 38.9518C12.7238 38.2848 13.5993 37.9066 14.5153 37.9066C15.4314 37.9066 16.3068 38.2848 16.9347 38.9518V47.5808H12.096V38.9518ZM18.5476 41.1292H20.9669V47.5808H18.5476V41.1292ZM22.5798 40.4679C23.9442 39.2016 26.0542 39.2016 27.4185 40.4679V47.5808H22.5798V40.4679ZM29.0314 41.1292H31.4508V47.5808H29.0314V41.1292ZM33.0637 38.9518C33.6916 38.2848 34.567 37.9066 35.4831 37.9066C36.3991 37.9066 37.2745 38.2848 37.9024 38.9518V47.5808H33.0637V38.9518ZM39.5153 39.5163H41.1282V47.5808H39.5153V39.5163ZM47.5798 47.5808H42.7411V39.7583C43.369 39.0912 44.2444 38.713 45.1605 38.713C46.0765 38.713 46.9519 39.0912 47.5798 39.7583V47.5808Z" fill="#0B5959"/>
<path d="M24.1934 7.2586V8.8715C24.1934 9.31689 24.5544 9.67795 24.9998 9.67795C25.4452 9.67795 25.8063 9.31689 25.8063 8.8715V7.2586C25.8063 6.81321 25.4452 6.45215 24.9998 6.45215C24.5544 6.45215 24.1934 6.81321 24.1934 7.2586Z" fill="#0B5959"/>
<path d="M25.8063 26.6127V24.9998C25.8063 24.5544 25.4452 24.1934 24.9998 24.1934C24.5544 24.1934 24.1934 24.5544 24.1934 24.9998V26.6127C24.1934 27.0581 24.5544 27.4192 24.9998 27.4192C25.4452 27.4192 25.8063 27.0581 25.8063 26.6127Z" fill="#0B5959"/>
<path d="M24.9998 41.9355C24.5544 41.9355 24.1934 42.2966 24.1934 42.742V44.3549C24.1934 44.8003 24.5544 45.1614 24.9998 45.1614C25.4452 45.1614 25.8063 44.8003 25.8063 44.3549V42.742C25.8063 42.2966 25.4452 41.9355 24.9998 41.9355Z" fill="#0B5959"/>
<path d="M44.3535 24.1941V25.807C44.3535 26.2524 44.7146 26.6135 45.16 26.6135C45.6054 26.6135 45.9664 26.2524 45.9664 25.807V24.1941C45.9664 23.7488 45.6054 23.3877 45.16 23.3877C44.7146 23.3877 44.3535 23.7488 44.3535 24.1941Z" fill="#0B5959"/>
<path d="M44.3535 42.742V44.3549C44.3535 44.8003 44.7146 45.1614 45.16 45.1614C45.6054 45.1614 45.9664 44.8003 45.9664 44.3549V42.742C45.9664 42.2966 45.6054 41.9355 45.16 41.9355C44.7146 41.9355 44.3535 42.2966 44.3535 42.742Z" fill="#0B5959"/>
<path d="M35.4822 15.3223C35.9276 15.3223 36.2887 14.9612 36.2887 14.5158V12.0965C36.2887 11.6511 35.9276 11.29 35.4822 11.29C35.0368 11.29 34.6758 11.6511 34.6758 12.0965V14.5158C34.6758 14.9612 35.0368 15.3223 35.4822 15.3223Z" fill="#0B5959"/>
<path d="M36.2887 33.8713V31.452C36.2887 31.0066 35.9276 30.6455 35.4822 30.6455C35.0368 30.6455 34.6758 31.0066 34.6758 31.452V33.8713C34.6758 34.3167 35.0368 34.6778 35.4822 34.6778C35.9276 34.6778 36.2887 34.3167 36.2887 33.8713Z" fill="#0B5959"/>
<path d="M4.8377 23.3877C4.39231 23.3877 4.03125 23.7488 4.03125 24.1941V25.807C4.03125 26.2524 4.39231 26.6135 4.8377 26.6135C5.28309 26.6135 5.64415 26.2524 5.64415 25.807V24.1941C5.64415 23.7488 5.28309 23.3877 4.8377 23.3877Z" fill="#0B5959"/>
<path d="M4.8377 41.9355C4.39231 41.9355 4.03125 42.2966 4.03125 42.742V44.3549C4.03125 44.8003 4.39231 45.1614 4.8377 45.1614C5.28309 45.1614 5.64415 44.8003 5.64415 44.3549V42.742C5.64415 42.2966 5.28309 41.9355 4.8377 41.9355Z" fill="#0B5959"/>
<path d="M14.5154 15.3223C14.9608 15.3223 15.3219 14.9612 15.3219 14.5158V12.0965C15.3219 11.6511 14.9608 11.29 14.5154 11.29C14.07 11.29 13.709 11.6511 13.709 12.0965V14.5158C13.709 14.9612 14.07 15.3223 14.5154 15.3223Z" fill="#0B5959"/>
<path d="M15.3219 33.8713V31.452C15.3219 31.0066 14.9608 30.6455 14.5154 30.6455C14.07 30.6455 13.709 31.0066 13.709 31.452V33.8713C13.709 34.3167 14.07 34.6778 14.5154 34.6778C14.9608 34.6778 15.3219 34.3167 15.3219 33.8713Z" fill="#0B5959"/>
</svg>
