<svg width="145" height="139" viewBox="0 0 145 139" fill="none" xmlns="http://www.w3.org/2000/svg">
<path d="M122.469 138.012H9.42188V34.8653L65.9459 9.41797L122.469 34.8653V138.012Z" fill="#91FDBC"/>
<path d="M70.21 11.3375L65.9459 9.41748L9.42188 34.8649V138.011H17.9502V34.8649L70.21 11.3375Z" fill="#37CA71"/>
<path d="M61.6812 11.3375L65.9453 9.41748L122.469 34.8649V138.011H113.94V34.8649L61.6812 11.3375Z" fill="#0BC554"/>
<path d="M135.568 79.252C134.797 79.252 134.172 78.6272 134.172 77.8562V71.0711C134.172 69.0885 132.697 67.3732 130.74 67.0815C129.977 66.9678 129.452 66.2577 129.565 65.4953C129.679 64.7328 130.387 64.2069 131.151 64.3206C134.464 64.8147 136.963 67.7166 136.963 71.0711V77.8562C136.964 78.6272 136.339 79.252 135.568 79.252Z" fill="#E5FFF0"/>
<path d="M108.708 79.2522C107.937 79.2522 107.312 78.6273 107.312 77.8564V71.0712C107.312 67.7225 109.706 64.8916 113.004 64.3396C113.762 64.2128 114.484 64.7256 114.611 65.4858C114.738 66.2459 114.225 66.9651 113.465 67.0925C111.517 67.4183 110.103 69.0915 110.103 71.0712V77.8564C110.103 78.6273 109.478 79.2522 108.708 79.2522Z" fill="#E5FFF0"/>
<path d="M136.682 131.498H107.594C103.189 131.498 99.6172 127.927 99.6172 123.521V85.8318C99.6172 81.4266 103.188 77.855 107.594 77.855H136.682C141.087 77.855 144.659 81.4261 144.659 85.8318V123.521C144.659 127.927 141.087 131.498 136.682 131.498Z" fill="#32EA7B"/>
<path d="M136.682 77.8555H128.153C132.558 77.8555 136.13 81.4266 136.13 85.8323V123.522C136.13 127.928 132.559 131.499 128.153 131.499H136.682C141.087 131.499 144.658 127.928 144.658 123.522V85.8323C144.658 81.4271 141.087 77.8555 136.682 77.8555Z" fill="#37CA71"/>
<path d="M108.708 138.011C107.412 138.011 106.362 136.961 106.362 135.666V133.844C106.362 132.548 107.412 131.498 108.708 131.498C110.003 131.498 111.054 132.548 111.054 133.844V135.666C111.054 136.961 110.003 138.011 108.708 138.011Z" fill="#1B6137"/>
<path d="M135.568 138.011C134.272 138.011 133.222 136.961 133.222 135.666V133.844C133.222 132.548 134.272 131.498 135.568 131.498C136.864 131.498 137.914 132.548 137.914 133.844V135.666C137.914 136.961 136.864 138.011 135.568 138.011Z" fill="#1B6137"/>
<path d="M128.637 68.0664H115.638C114.412 68.0664 113.418 67.0726 113.418 65.8468V65.4374C113.418 64.2116 114.412 63.2178 115.638 63.2178H128.637C129.863 63.2178 130.857 64.2116 130.857 65.4374V65.8468C130.857 67.0726 129.863 68.0664 128.637 68.0664Z" fill="#129445"/>
<path d="M99.6172 90.3706H144.658V96.8197H99.6172V90.3706Z" fill="#1DB85A"/>
<path d="M136.13 90.3701H144.658V96.8192H136.13V90.3701Z" fill="#1EA452"/>
<path d="M128.196 98.5097H116.08C113.5 98.5097 111.407 96.418 111.407 93.8373V93.354C111.407 90.7739 113.499 88.6816 116.08 88.6816H128.196C130.776 88.6816 132.868 90.7734 132.868 93.354V93.8373C132.868 96.418 130.776 98.5097 128.196 98.5097Z" fill="#129445"/>
<path d="M111.407 124.027C110.276 124.027 109.359 123.11 109.359 121.979V105.046C109.359 103.915 110.276 102.999 111.407 102.999C112.538 102.999 113.455 103.915 113.455 105.046V121.979C113.455 123.11 112.538 124.027 111.407 124.027Z" fill="#1DB85A"/>
<path d="M122.138 124.027C121.007 124.027 120.09 123.11 120.09 121.979V105.046C120.09 103.915 121.007 102.999 122.138 102.999C123.269 102.999 124.186 103.915 124.186 105.046V121.979C124.186 123.11 123.269 124.027 122.138 124.027Z" fill="#1DB85A"/>
<path d="M132.869 124.027C131.738 124.027 130.821 123.11 130.821 121.979V105.046C130.821 103.915 131.737 102.999 132.869 102.999C134 102.999 134.916 103.915 134.916 105.046V121.979C134.916 123.11 134 124.027 132.869 124.027Z" fill="#1DB85A"/>
<path d="M123.767 93.5957H120.409C119.042 93.5957 117.933 92.487 117.933 91.1196V88.6816H126.243V91.1196C126.243 92.487 125.134 93.5957 123.767 93.5957Z" fill="#60FF9E"/>
<path d="M122.465 43.3956C121.294 43.3956 120.105 43.1534 118.969 42.6417L65.946 18.7709L12.9238 42.6417C8.62889 44.5748 3.57956 42.661 1.64647 38.3662C-0.287184 34.0713 1.62714 29.022 5.922 27.0889L62.4454 1.64093C64.6719 0.63857 67.2207 0.63857 69.4472 1.64093L125.971 27.0883C130.266 29.022 132.18 34.0713 130.247 38.3656C128.825 41.5245 125.718 43.395 122.465 43.3956Z" fill="#32EA7B"/>
<path d="M10.1738 38.3665C8.24016 34.0716 10.1545 29.0223 14.4493 27.0892L42.3296 14.5375L70.2098 1.9858L69.4468 1.6424C67.2203 0.640035 64.6715 0.640035 62.445 1.6424L5.92103 27.0886C1.62616 29.0223 -0.28816 34.0716 1.64549 38.3665C3.57858 42.6613 8.62791 44.5751 12.9228 42.642L13.7421 42.273C12.2217 41.4105 10.9465 40.083 10.1738 38.3665Z" fill="#129445"/>
<path d="M121.717 38.3656C123.651 34.0707 121.736 29.0214 117.442 27.0883L61.6812 1.98434L62.4442 1.64093C64.6706 0.63857 67.2194 0.63857 69.4459 1.64093L125.97 27.0883C130.265 29.022 132.179 34.0713 130.245 38.3656C128.312 42.6604 123.263 44.5742 118.968 42.6411L118.149 42.2721C119.67 41.4096 120.944 40.0821 121.717 38.3656Z" fill="#37CA71"/>
<path d="M65.9463 85.4668C54.4024 85.4668 45.0439 94.8252 45.0439 106.369V138.01H86.8492V106.369C86.8486 94.8252 77.4902 85.4668 65.9463 85.4668Z" fill="#129445"/>
<path d="M65.9462 71.9774C74.5066 71.9774 81.4462 65.0379 81.4462 56.4775C81.4462 47.9171 74.5066 40.9775 65.9462 40.9775C57.3858 40.9775 50.4463 47.9171 50.4463 56.4775C50.4463 65.0379 57.3858 71.9774 65.9462 71.9774Z" fill="#32EA7B"/>
<path d="M65.946 72.8305C74.9627 72.8305 82.2988 65.4945 82.2988 56.4778C82.2988 47.4611 74.9633 40.125 65.946 40.125C56.9288 40.125 49.5933 47.4611 49.5933 56.4778C49.5933 65.4945 56.9288 72.8305 65.946 72.8305ZM51.3257 57.3306H65.0932V71.0982C57.6946 70.6712 51.7526 64.7292 51.3257 57.3306ZM66.7989 71.0982V57.3306H80.5664C80.1389 64.7292 74.1969 70.6712 66.7989 71.0982ZM80.5658 55.6249H66.7983V41.8574C74.1969 42.2844 80.1389 48.2263 80.5658 55.6249ZM65.0932 41.8574V55.6249H51.3257C51.7526 48.2263 57.6946 42.2844 65.0932 41.8574Z" fill="#15CF5E"/>
</svg>
