<svg width="165" height="146" viewBox="0 0 165 146" fill="none" xmlns="http://www.w3.org/2000/svg">
<path d="M118.36 35.6902H162.664C163.45 35.6902 164.086 35.0527 164.086 34.268V28.7473C164.086 27.9626 163.45 27.3251 162.664 27.3251H118.36V35.6902Z" fill="#32EA7B"/>
<path d="M118.36 147.207H154.207C154.993 147.207 155.629 146.571 155.629 145.784V35.6896H118.36V147.207Z" fill="#129445"/>
<path d="M145.945 66.9372H132.966C132.18 66.9372 131.544 66.3011 131.544 65.515V46.2877C131.544 45.503 132.18 44.8655 132.966 44.8655H145.945C146.731 44.8655 147.367 45.503 147.367 46.2877V65.515C147.367 66.2997 146.73 66.9372 145.945 66.9372Z" fill="#32EA7B"/>
<path d="M145.945 100.392H132.966C132.18 100.392 131.544 99.7556 131.544 98.9695V79.7421C131.544 78.9574 132.18 78.3199 132.966 78.3199H145.945C146.731 78.3199 147.367 78.9574 147.367 79.7421V98.9695C147.367 99.7542 146.73 100.392 145.945 100.392Z" fill="#32EA7B"/>
<path d="M145.945 133.847H132.966C132.18 133.847 131.544 133.211 131.544 132.424V113.198C131.544 112.412 132.18 111.776 132.966 111.776H145.945C146.731 111.776 147.367 112.412 147.367 113.198V132.424C147.367 133.211 146.73 133.847 145.945 133.847Z" fill="#32EA7B"/>
<path d="M46.26 35.6902H1.95539C1.17069 35.6902 0.533203 35.0527 0.533203 34.268V28.7473C0.533203 27.9626 1.17069 27.3251 1.95539 27.3251H46.26V35.6902Z" fill="#32EA7B"/>
<path d="M46.2608 147.207H10.4144C9.62829 147.207 8.99219 146.571 8.99219 145.784V35.6896H46.2608V147.207Z" fill="#129445"/>
<path d="M40.9072 3.62708H123.282V147.205H40.9072V3.62708Z" fill="#91FDBC"/>
<path d="M31.4365 12.0814V4.97041C31.4365 4.18432 32.0726 3.54822 32.8587 3.54822H129.568C130.354 3.54822 130.99 4.18432 130.99 4.97041V12.0814C130.99 12.8675 130.354 13.5036 129.568 13.5036H32.8587C32.0726 13.5036 31.4365 12.8675 31.4365 12.0814Z" fill="#129445"/>
<path d="M115.203 47.6473H102.224C101.438 47.6473 100.802 47.0112 100.802 46.2251V26.9978C100.802 26.213 101.438 25.5756 102.224 25.5756H115.203C115.989 25.5756 116.625 26.213 116.625 26.9978V46.2251C116.625 47.0098 115.988 47.6473 115.203 47.6473Z" fill="#129445"/>
<path d="M88.5837 47.6473H75.6048C74.8201 47.6473 74.1826 47.0112 74.1826 46.2251V26.9978C74.1826 26.213 74.8201 25.5756 75.6048 25.5756H88.5837C89.3698 25.5756 90.0059 26.213 90.0059 26.9978V46.2251C90.0059 47.0098 89.3698 47.6473 88.5837 47.6473Z" fill="#129445"/>
<path d="M115.301 79.3946H102.323C101.536 79.3946 100.9 78.7571 100.9 77.9724V58.7451C100.9 57.959 101.536 57.3229 102.323 57.3229H115.301C116.086 57.3229 116.724 57.959 116.724 58.7451V77.9724C116.724 78.7571 116.086 79.3946 115.301 79.3946Z" fill="#129445"/>
<path d="M88.6847 79.3946H75.7044C74.9183 79.3946 74.2822 78.7571 74.2822 77.9724V58.7451C74.2822 57.959 74.9183 57.3229 75.7044 57.3229H88.6833C89.4694 57.3229 90.1055 57.959 90.1055 58.7451V77.9724C90.1069 78.7571 89.4694 79.3946 88.6847 79.3946Z" fill="#129445"/>
<path d="M115.243 111.769H102.264C101.478 111.769 100.842 111.133 100.842 110.346V91.1191C100.842 90.3344 101.478 89.6969 102.264 89.6969H115.243C116.028 89.6969 116.665 90.3344 116.665 91.1191V110.346C116.665 111.131 116.028 111.769 115.243 111.769Z" fill="#129445"/>
<path d="M88.6257 111.769H75.6468C74.8607 111.769 74.2246 111.133 74.2246 110.346V91.1191C74.2246 90.3344 74.8607 89.6969 75.6468 89.6969H88.6257C89.4104 89.6969 90.0479 90.3344 90.0479 91.1191V110.346C90.0479 111.131 89.4104 111.769 88.6257 111.769Z" fill="#129445"/>
<path d="M62.2003 47.6473H49.22C48.4339 47.6473 47.7979 47.0112 47.7979 46.2251V26.9978C47.7979 26.213 48.4339 25.5756 49.22 25.5756H62.1989C62.985 25.5756 63.6211 26.213 63.6211 26.9978V46.2251C63.6225 47.0098 62.985 47.6473 62.2003 47.6473Z" fill="#129445"/>
<path d="M62.2966 79.3946H49.3177C48.5316 79.3946 47.8955 78.7571 47.8955 77.9724V58.7451C47.8955 57.959 48.5316 57.3229 49.3177 57.3229H62.2966C63.0827 57.3229 63.7188 57.959 63.7188 58.7451V77.9724C63.7188 78.7571 63.0827 79.3946 62.2966 79.3946Z" fill="#129445"/>
<path d="M62.2404 111.769H49.2601C48.474 111.769 47.8379 111.133 47.8379 110.346V91.1191C47.8379 90.3344 48.474 89.6969 49.2601 89.6969H62.239C63.0251 89.6969 63.6612 90.3344 63.6612 91.1191V110.346C63.6626 111.131 63.0251 111.769 62.2404 111.769Z" fill="#129445"/>
<path d="M81.5723 108.956L66.8865 122.477C66.7185 122.632 66.624 122.848 66.624 123.075V147.206H97.6484V123.075C97.6484 122.848 97.5525 122.632 97.3845 122.477L82.7001 108.956C82.3834 108.664 81.889 108.664 81.5723 108.956Z" fill="#129445"/>
<path d="M88.7099 146.597H75.9102V126.686C75.9102 125.9 76.5476 125.264 77.3323 125.264H87.2877C88.0738 125.264 88.7099 125.9 88.7099 126.686V146.597Z" fill="#E6FFF0"/>
<path d="M97.6482 127.712V123.38L82.1361 110.297L66.6239 123.38V127.712H64.1906C62.9087 127.712 61.8643 126.709 61.8643 125.475V120.329L80.6027 104.519C81.0264 104.163 81.5708 103.965 82.1361 103.965C82.7013 103.965 83.2457 104.163 83.6694 104.519L102.406 120.329V125.475C102.406 126.709 101.363 127.713 100.082 127.713H97.6482V127.712Z" fill="#5BE993"/>
<path d="M31.4396 66.9372H18.4593C17.6746 66.9372 17.0371 66.3011 17.0371 65.515V46.2877C17.0371 45.503 17.6746 44.8655 18.4593 44.8655H31.4396C32.2243 44.8655 32.8618 45.503 32.8618 46.2877V65.515C32.8618 66.2997 32.2243 66.9372 31.4396 66.9372Z" fill="#32EA7B"/>
<path d="M31.4396 100.392H18.4593C17.6746 100.392 17.0371 99.7556 17.0371 98.9695V79.7421C17.0371 78.9574 17.6746 78.3199 18.4593 78.3199H31.4396C32.2243 78.3199 32.8618 78.9574 32.8618 79.7421V98.9695C32.8618 99.7542 32.2243 100.392 31.4396 100.392Z" fill="#32EA7B"/>
<path d="M31.4396 133.847H18.4593C17.6746 133.847 17.0371 133.211 17.0371 132.424V113.198C17.0371 112.412 17.6746 111.776 18.4593 111.776H31.4396C32.2243 111.776 32.8618 112.412 32.8618 113.198V132.424C32.8618 133.211 32.2243 133.847 31.4396 133.847Z" fill="#32EA7B"/>
</svg>
