<svg width="50" height="50" viewBox="0 0 50 50" fill="none" xmlns="http://www.w3.org/2000/svg">
<g clip-path="url(#clip0_3209_48279)">
<path d="M45.8867 13.0676V30.9648C45.8867 30.9648 42.999 34.0619 42.999 36.5C42.999 39.5 45.8867 43 45.8867 43V48.8619H39.9209V11.5762L45.8867 13.0676Z" fill="#53D687"/>
<path d="M4.12695 13.0676V30.9648C4.12695 30.9648 7.02381 34.0643 7.00195 36.5C6.98 38.9465 4.00195 42 4.00195 42L4.12695 48.8619H10.0926V11.5762L4.12695 13.0676Z" fill="#53D687"/>
<path d="M40.6667 2.62816V10.0853C40.6667 10.9056 40.0551 11.5767 39.302 11.5767H10.7114C9.95822 11.5767 9.34668 10.9056 9.34668 10.0853V2.62816C9.34668 1.80787 9.95822 1.13672 10.7114 1.13672H39.302C40.0551 1.13672 40.6667 1.80826 40.6667 2.62816Z" fill="white"/>
<path d="M10 12H39.8287V49.2858H10V12Z" fill="#53D687"/>
<path d="M22.7691 44.3877C22.5713 44.3877 22.3817 44.3091 22.2418 44.1693C22.102 44.0294 22.0234 43.8398 22.0234 43.642V42.8963C22.0234 42.6985 22.102 42.5089 22.2418 42.369C22.3817 42.2292 22.5713 42.1506 22.7691 42.1506C22.9669 42.1506 23.1565 42.2292 23.2964 42.369C23.4362 42.5089 23.5148 42.6985 23.5148 42.8963V43.642C23.5148 43.8398 23.4362 44.0294 23.2964 44.1693C23.1565 44.3091 22.9669 44.3877 22.7691 44.3877Z" fill="#F4D848" fill-opacity="0.5"/>
<path d="M27.2439 44.3883C27.0461 44.3882 26.8564 44.3096 26.7166 44.1698C26.5767 44.0299 26.4981 43.8403 26.4981 43.6425V42.8968C26.497 42.7982 26.5154 42.7003 26.5524 42.6088C26.5894 42.5174 26.6441 42.4342 26.7135 42.364C26.7829 42.2939 26.8654 42.2382 26.9565 42.2002C27.0475 42.1621 27.1452 42.1426 27.2438 42.1426C27.3425 42.1426 27.4401 42.1621 27.5312 42.2002C27.6222 42.2382 27.7048 42.2939 27.7741 42.364C27.8435 42.4342 27.8982 42.5174 27.9352 42.6088C27.9722 42.7003 27.9907 42.7982 27.9895 42.8968V43.6425C27.9895 43.8403 27.911 44.0299 27.7711 44.1698C27.6313 44.3096 27.4416 44.3882 27.2439 44.3883Z" fill="#F4D848" fill-opacity="0.5"/>
<path d="M33.2467 38.4211H16.8037C16.6074 38.4189 16.4199 38.3394 16.2819 38.1997C16.1438 38.0601 16.0664 37.8717 16.0664 37.6754C16.0664 37.4791 16.1438 37.2907 16.2819 37.1511C16.4199 37.0115 16.6074 36.9319 16.8037 36.9297H33.2467C33.443 36.9319 33.6305 37.0115 33.7685 37.1511C33.9066 37.2907 33.984 37.4791 33.984 37.6754C33.984 37.8717 33.9066 38.0601 33.7685 38.1997C33.6305 38.3394 33.443 38.4189 33.2467 38.4211Z" fill="#F4D848" fill-opacity="0.5"/>
<path d="M15.3127 3.3737C15.1149 3.37373 14.9252 3.45231 14.7854 3.59216C14.6455 3.73201 14.5669 3.92169 14.5669 4.11947V5.6113H13.0755V4.11947C13.0766 4.02083 13.0581 3.92295 13.0212 3.83149C12.9842 3.74003 12.9294 3.65682 12.8601 3.58667C12.7907 3.51652 12.7081 3.46083 12.6171 3.42282C12.5261 3.38481 12.4284 3.36523 12.3298 3.36523C12.2311 3.36523 12.1334 3.38481 12.0424 3.42282C11.9514 3.46083 11.8688 3.51652 11.7994 3.58667C11.7301 3.65682 11.6753 3.74003 11.6383 3.83149C11.6014 3.92295 11.5829 4.02083 11.584 4.11947V8.59486C11.5863 8.79117 11.6658 8.97868 11.8054 9.11671C11.945 9.25474 12.1334 9.33216 12.3298 9.33216C12.5261 9.33216 12.7145 9.25474 12.8541 9.11671C12.9937 8.97868 13.0732 8.79117 13.0755 8.59486V7.10264H14.5669V8.59486C14.5691 8.79117 14.6487 8.97868 14.7883 9.11671C14.9279 9.25474 15.1163 9.33216 15.3126 9.33216C15.509 9.33216 15.6974 9.25474 15.837 9.11671C15.9766 8.97868 16.0561 8.79117 16.0584 8.59486V4.11947C16.0584 3.9217 15.9798 3.73202 15.84 3.59217C15.7001 3.45231 15.5105 3.37373 15.3127 3.3737Z" fill="#F4D848" fill-opacity="0.5"/>
<path d="M19.5935 3.37305C19.0517 3.37373 18.5323 3.58925 18.1492 3.97234C17.7661 4.35543 17.5505 4.87482 17.5498 5.4166V7.29584C17.5498 7.83774 17.7651 8.35746 18.1483 8.74064C18.5315 9.12383 19.0512 9.3391 19.5931 9.3391C20.135 9.3391 20.6547 9.12383 21.0379 8.74064C21.4211 8.35746 21.6363 7.83774 21.6363 7.29584V5.4166C21.6357 4.87494 21.4203 4.35564 21.0373 3.97256C20.6544 3.58948 20.1351 3.37389 19.5935 3.37305ZM20.1452 7.29612C20.1462 7.3692 20.1326 7.44173 20.1053 7.50952C20.078 7.57732 20.0375 7.63901 19.9862 7.69102C19.9348 7.74304 19.8737 7.78434 19.8063 7.81253C19.7388 7.84072 19.6665 7.85523 19.5934 7.85523C19.5203 7.85523 19.448 7.84072 19.3806 7.81253C19.3131 7.78434 19.252 7.74304 19.2006 7.69102C19.1493 7.63901 19.1088 7.57732 19.0815 7.50952C19.0542 7.44173 19.0407 7.3692 19.0416 7.29612V5.4166C19.0435 5.27153 19.1025 5.13304 19.2058 5.03112C19.3091 4.92921 19.4483 4.87206 19.5934 4.87206C19.7385 4.87206 19.8778 4.92921 19.981 5.03112C20.0843 5.13304 20.1433 5.27153 20.1452 5.4166V7.29612Z" fill="#F4D848" fill-opacity="0.5"/>
<path d="M20.1446 5.41759V7.29682C20.1456 7.36989 20.132 7.44243 20.1047 7.51022C20.0774 7.57801 20.0369 7.63971 19.9856 7.69172C19.9343 7.74374 19.8731 7.78504 19.8057 7.81323C19.7383 7.84142 19.6659 7.85593 19.5928 7.85593C19.5198 7.85593 19.4474 7.84142 19.38 7.81323C19.3126 7.78504 19.2514 7.74374 19.2001 7.69172C19.1487 7.63971 19.1083 7.57801 19.081 7.51022C19.0537 7.44243 19.0401 7.36989 19.0411 7.29682V5.41759C19.043 5.27251 19.102 5.13402 19.2052 5.03211C19.3085 4.93019 19.4478 4.87305 19.5928 4.87305C19.7379 4.87305 19.8772 4.93019 19.9805 5.03211C20.0837 5.13402 20.1427 5.27251 20.1446 5.41759Z" fill="white"/>
<path d="M26.4985 3.37334H23.5156C23.3193 3.37557 23.1318 3.45512 22.9938 3.59472C22.8557 3.73433 22.7783 3.92274 22.7783 4.11906C22.7783 4.31538 22.8557 4.50379 22.9938 4.6434C23.1318 4.783 23.3193 4.86255 23.5156 4.86478H24.2614V8.59488C24.2636 8.79119 24.3432 8.9787 24.4828 9.11673C24.6224 9.25476 24.8108 9.33218 25.0071 9.33218C25.2034 9.33218 25.3918 9.25476 25.5314 9.11673C25.6711 8.9787 25.7506 8.79119 25.7528 8.59488V4.86478H26.4985C26.5971 4.8659 26.695 4.84744 26.7865 4.81047C26.8779 4.77349 26.9612 4.71874 27.0313 4.64938C27.1015 4.58003 27.1572 4.49744 27.1952 4.40641C27.2332 4.31538 27.2527 4.21771 27.2527 4.11906C27.2527 4.02041 27.2332 3.92274 27.1952 3.83171C27.1572 3.74068 27.1015 3.65809 27.0313 3.58874C26.9612 3.51938 26.8779 3.46463 26.7865 3.42765C26.695 3.39068 26.5971 3.37222 26.4985 3.37334Z" fill="#F4D848" fill-opacity="0.5"/>
<path d="M31.7184 4.86478C31.8171 4.8659 31.915 4.84744 32.0064 4.81047C32.0979 4.77349 32.1811 4.71874 32.2512 4.64938C32.3214 4.58003 32.3771 4.49744 32.4151 4.40641C32.4531 4.31538 32.4727 4.21771 32.4727 4.11906C32.4727 4.02041 32.4531 3.92274 32.4151 3.83171C32.3771 3.74068 32.3214 3.65809 32.2512 3.58874C32.1811 3.51938 32.0979 3.46463 32.0064 3.42765C31.915 3.39068 31.8171 3.37222 31.7184 3.37334H29.481C29.2833 3.37336 29.0936 3.45195 28.9537 3.5918C28.8139 3.73166 28.7354 3.92133 28.7354 4.11911V8.59488C28.7354 8.79264 28.8139 8.98231 28.9538 9.12215C29.0936 9.26199 29.2833 9.34055 29.481 9.34055H31.7181C31.8168 9.34167 31.9147 9.32321 32.0061 9.28624C32.0976 9.24926 32.1808 9.19451 32.2509 9.12515C32.3211 9.0558 32.3768 8.97321 32.4148 8.88218C32.4528 8.79115 32.4724 8.69348 32.4724 8.59483C32.4724 8.49618 32.4528 8.39851 32.4148 8.30748C32.3768 8.21645 32.3211 8.13386 32.2509 8.06451C32.1808 7.99515 32.0976 7.9404 32.0061 7.90342C31.9147 7.86645 31.8168 7.84799 31.7181 7.84911H30.227V7.10267H30.96C31.0586 7.10379 31.1565 7.08532 31.248 7.04835C31.3394 7.01138 31.4226 6.95663 31.4928 6.88727C31.5629 6.81791 31.6186 6.73532 31.6566 6.64429C31.6946 6.55326 31.7142 6.45559 31.7142 6.35695C31.7142 6.2583 31.6946 6.16063 31.6566 6.0696C31.6186 5.97856 31.5629 5.89598 31.4928 5.82662C31.4226 5.75726 31.3394 5.70251 31.248 5.66554C31.1565 5.62857 31.0586 5.6101 30.96 5.61122H30.227V4.86478H31.7184Z" fill="#F4D848" fill-opacity="0.5"/>
<path d="M37.6837 7.84947H35.4466V4.11947C35.4477 4.02083 35.4292 3.92295 35.3923 3.83149C35.3553 3.74003 35.3005 3.65682 35.2312 3.58667C35.1618 3.51652 35.0792 3.46083 34.9882 3.42282C34.8972 3.38481 34.7995 3.36523 34.7008 3.36523C34.6022 3.36523 34.5045 3.38481 34.4135 3.42282C34.3225 3.46083 34.2399 3.51652 34.1705 3.58667C34.1012 3.65682 34.0464 3.74003 34.0094 3.83149C33.9725 3.92295 33.954 4.02083 33.9551 4.11947V8.59524C33.9551 8.79301 34.0337 8.98267 34.1735 9.12251C34.3134 9.26235 34.503 9.34091 34.7008 9.34091H37.6837C37.88 9.33868 38.0675 9.25914 38.2055 9.11953C38.3436 8.97992 38.421 8.79152 38.421 8.59519C38.421 8.39887 38.3436 8.21046 38.2055 8.07086C38.0675 7.93125 37.88 7.8517 37.6837 7.84947Z" fill="#F4D848" fill-opacity="0.5"/>
<path d="M4.16434 42.8897C5.79434 42.8137 7.10992 37.8364 7.10992 35.6678C7.10992 33.4825 5.77444 31.7109 4.12703 31.7109C2.47963 31.7109 1.14453 33.4825 1.14453 35.6678C1.14453 37.8531 2.47992 42.8967 4.12742 42.8967C4.14001 42.8967 4.15213 42.8903 4.16472 42.8897H4.16434Z" fill="white"/>
<path d="M46.0203 43.1788C47.6503 43.1028 48.9659 38.1255 48.9659 35.9568C48.9659 33.7715 47.6304 32 45.983 32C44.3356 32 43 33.7715 43 35.9568C43 38.1421 44.3354 43.1858 45.9829 43.1858C45.9954 43.1858 46.0077 43.1793 46.0203 43.1788Z" fill="white"/>
<path d="M4.12653 49.6041C4.0288 49.6045 3.93194 49.5857 3.84152 49.5485C3.7511 49.5114 3.66889 49.4568 3.59962 49.3879C3.53034 49.319 3.47536 49.237 3.43782 49.1468C3.40028 49.0565 3.38092 48.9598 3.38086 48.862V39.1678C3.38086 38.97 3.45942 38.7804 3.59926 38.6405C3.7391 38.5007 3.92877 38.4221 4.12653 38.4221C4.3243 38.4221 4.51396 38.5007 4.6538 38.6405C4.79364 38.7804 4.87221 38.97 4.87221 39.1678V48.8548C4.87236 49.053 4.79396 49.2431 4.65419 49.3835C4.51443 49.524 4.32468 49.6033 4.12653 49.6041Z" fill="#F4D848" fill-opacity="0.5"/>
<path d="M45.8864 49.6046C45.7887 49.6051 45.6918 49.5862 45.6014 49.5491C45.511 49.5119 45.4288 49.4574 45.3595 49.3884C45.2902 49.3195 45.2352 49.2375 45.1977 49.1473C45.1601 49.057 45.1407 48.9603 45.1407 48.8625V39.1683C45.1396 39.0697 45.158 38.9718 45.195 38.8803C45.232 38.7889 45.2867 38.7056 45.3561 38.6355C45.4254 38.5653 45.508 38.5097 45.599 38.4716C45.6901 38.4336 45.7877 38.4141 45.8864 38.4141C45.985 38.4141 46.0827 38.4336 46.1737 38.4716C46.2648 38.5097 46.3474 38.5653 46.4167 38.6355C46.4861 38.7056 46.5408 38.7889 46.5778 38.8803C46.6148 38.9718 46.6332 39.0697 46.6321 39.1683V48.8553C46.6323 49.0535 46.5539 49.2436 46.4141 49.3841C46.2743 49.5245 46.0846 49.6038 45.8864 49.6046Z" fill="#F4D848" fill-opacity="0.5"/>
<path d="M48.869 49.5984L1.14355 49.5911C0.94724 49.5888 0.759727 49.5093 0.621695 49.3697C0.483664 49.2301 0.40625 49.0417 0.40625 48.8453C0.40625 48.649 0.483664 48.4606 0.621695 48.321C0.759727 48.1814 0.94724 48.1018 1.14355 48.0996L48.8694 48.1069C49.0657 48.1091 49.2532 48.1887 49.3913 48.3283C49.5293 48.4679 49.6067 48.6563 49.6067 48.8526C49.6067 49.049 49.5293 49.2374 49.3913 49.377C49.2532 49.5166 49.0657 49.5961 48.8694 49.5984H48.869Z" fill="#F4D848" fill-opacity="0.5"/>
<path d="M12.7458 19.9658H16.4739C16.6717 19.9657 16.8614 19.8872 17.0013 19.7473C17.1411 19.6075 17.2197 19.4178 17.2197 19.22V14.7458C17.2197 14.548 17.1411 14.3583 17.0013 14.2185C16.8614 14.0786 16.6717 14 16.4739 14H12.7458C12.548 14 12.3583 14.0786 12.2185 14.2185C12.0786 14.3583 12 14.548 12 14.7458V19.22C12 19.4178 12.0786 19.6075 12.2185 19.7473C12.3583 19.8872 12.548 19.9657 12.7458 19.9658ZM13.4914 15.4914H15.7283V18.474H13.4914V15.4914Z" fill="white"/>
<path d="M19.7457 19.9658H23.4742C23.672 19.9657 23.8617 19.8872 24.0015 19.7473C24.1414 19.6075 24.22 19.4178 24.22 19.22V14.7458C24.22 14.548 24.1414 14.3583 24.0015 14.2185C23.8617 14.0786 23.672 14 23.4742 14H19.7457C19.5479 14 19.3582 14.0786 19.2184 14.2185C19.0786 14.3583 19 14.548 19 14.7458V19.22C19 19.4178 19.0786 19.6074 19.2184 19.7473C19.3582 19.8872 19.5479 19.9657 19.7457 19.9658ZM20.4913 15.4914H22.7286V18.474H20.4913V15.4914Z" fill="white"/>
<path d="M26.484 19.7802H30.2125C30.4103 19.7802 30.6 19.7016 30.7398 19.5618C30.8797 19.4219 30.9583 19.2322 30.9583 19.0345V14.5602C30.9583 14.3624 30.8797 14.1728 30.7398 14.0329C30.6 13.8931 30.4103 13.8145 30.2125 13.8145H26.484C26.2862 13.8145 26.0965 13.8931 25.9567 14.0329C25.8168 14.1728 25.7383 14.3624 25.7383 14.5602V19.0345C25.7383 19.2322 25.8168 19.4219 25.9567 19.5618C26.0965 19.7016 26.2862 19.7802 26.484 19.7802ZM27.2297 15.3059H29.4668V18.2885H27.2297V15.3059Z" fill="white"/>
<path d="M33.1949 19.7805H36.923C37.1207 19.7804 37.3104 19.7019 37.4502 19.562C37.5901 19.4221 37.6686 19.2325 37.6686 19.0347V14.5605C37.6686 14.3627 37.5901 14.173 37.4502 14.0332C37.3104 13.8933 37.1207 13.8147 36.923 13.8147H33.1949C32.9971 13.8147 32.8075 13.8933 32.6676 14.0332C32.5278 14.173 32.4492 14.3627 32.4492 14.5605V19.0347C32.4492 19.2325 32.5278 19.4221 32.6676 19.562C32.8075 19.7019 32.9971 19.7804 33.1949 19.7805ZM33.9407 15.3061H36.1774V18.2887H33.9407V15.3061Z" fill="white"/>
<path d="M13.0622 27.2368H16.7903C16.9881 27.2368 17.1778 27.1582 17.3177 27.0184C17.4575 26.8785 17.5361 26.6889 17.5361 26.4911V22.0172C17.5361 21.8194 17.4575 21.6297 17.3177 21.4899C17.1778 21.35 16.9881 21.2715 16.7903 21.2715H13.0622C12.8644 21.2715 12.6747 21.35 12.5349 21.4899C12.395 21.6297 12.3164 21.8194 12.3164 22.0172V26.4911C12.3164 26.6889 12.395 26.8785 12.5349 27.0184C12.6747 27.1582 12.8644 27.2368 13.0622 27.2368ZM13.8078 22.7629H16.0447V25.7454H13.8078V22.7629Z" fill="white"/>
<path d="M19.773 27.2368H23.5016C23.6993 27.2368 23.889 27.1582 24.0289 27.0184C24.1687 26.8785 24.2473 26.6889 24.2473 26.4911V22.0172C24.2473 21.8194 24.1687 21.6297 24.0289 21.4899C23.889 21.35 23.6993 21.2715 23.5016 21.2715H19.773C19.5753 21.2715 19.3856 21.35 19.2457 21.4899C19.1059 21.6297 19.0273 21.8194 19.0273 22.0172V26.4911C19.0273 26.6889 19.1059 26.8785 19.2457 27.0184C19.3856 27.1582 19.5753 27.2368 19.773 27.2368ZM20.5187 22.7629H22.7559V25.7454H20.5187V22.7629Z" fill="white"/>
<path d="M26.7457 26.9653H30.4742C30.672 26.9653 30.8617 26.8867 31.0015 26.7469C31.1414 26.6071 31.22 26.4174 31.22 26.2196V21.7457C31.22 21.5479 31.1414 21.3582 31.0015 21.2184C30.8617 21.0786 30.672 21 30.4742 21H26.7457C26.5479 21 26.3582 21.0786 26.2184 21.2184C26.0786 21.3582 26 21.5479 26 21.7457V26.2196C26 26.4174 26.0786 26.607 26.2184 26.7469C26.3582 26.8867 26.5479 26.9653 26.7457 26.9653ZM27.4914 22.4914H29.7286V25.4739H27.4914V22.4914Z" fill="white"/>
<path d="M32.7457 26.9653H36.4738C36.6715 26.9653 36.8612 26.8867 37.001 26.7469C37.1408 26.607 37.2194 26.4174 37.2194 26.2196V21.7457C37.2194 21.5479 37.1408 21.3583 37.001 21.2184C36.8612 21.0786 36.6715 21 36.4738 21H32.7457C32.5479 21 32.3582 21.0786 32.2184 21.2184C32.0786 21.3582 32 21.5479 32 21.7457V26.2196C32 26.4174 32.0786 26.607 32.2184 26.7469C32.3582 26.8867 32.5479 26.9653 32.7457 26.9653ZM33.4914 22.4914H35.7282V25.4739H33.4914V22.4914Z" fill="white"/>
<path d="M17.2197 34.2197V29.7458C17.2197 29.548 17.1411 29.3583 17.0013 29.2185C16.8614 29.0786 16.6717 29 16.4739 29H12.7458C12.548 29 12.3583 29.0786 12.2185 29.2185C12.0786 29.3583 12 29.548 12 29.7458V34.2197C12 34.4175 12.0786 34.6072 12.2185 34.747C12.3583 34.8868 12.548 34.9654 12.7458 34.9654H16.4739C16.6717 34.9654 16.8614 34.8868 17.0012 34.747C17.1411 34.6072 17.2197 34.4175 17.2197 34.2197ZM15.7283 33.4736H13.4914V30.4914H15.7283V33.4736Z" fill="white"/>
<path d="M19.7457 34.9654H23.4742C23.672 34.9654 23.8617 34.8868 24.0015 34.747C24.1414 34.6072 24.22 34.4175 24.22 34.2197V29.7458C24.22 29.548 24.1414 29.3583 24.0015 29.2185C23.8617 29.0786 23.672 29 23.4742 29H19.7457C19.5479 29 19.3582 29.0786 19.2184 29.2185C19.0786 29.3583 19 29.548 19 29.7458V34.2197C19 34.4175 19.0786 34.6071 19.2184 34.747C19.3582 34.8868 19.5479 34.9654 19.7457 34.9654ZM20.4913 30.4914H22.7286V33.4736H20.4913V30.4914Z" fill="white"/>
<path d="M26.484 34.6939H30.2125C30.4103 34.6939 30.6 34.6153 30.7398 34.4755C30.8797 34.3357 30.9583 34.146 30.9583 33.9482V29.4743C30.9583 29.2765 30.8797 29.0868 30.7398 28.947C30.6 28.8071 30.4103 28.7285 30.2125 28.7285H26.484C26.2862 28.7285 26.0965 28.8071 25.9567 28.947C25.8168 29.0868 25.7383 29.2765 25.7383 29.4743V33.9482C25.7383 34.146 25.8168 34.3357 25.9567 34.4755C26.0965 34.6153 26.2862 34.6939 26.484 34.6939ZM27.2297 30.22H29.4668V33.2021H27.2297V30.22Z" fill="white"/>
<path d="M32.7457 34.9654H36.4738C36.6715 34.9654 36.8612 34.8868 37.001 34.747C37.1408 34.6071 37.2194 34.4175 37.2194 34.2197V29.7458C37.2194 29.548 37.1409 29.3583 37.001 29.2185C36.8612 29.0786 36.6715 29 36.4738 29H32.7457C32.5479 29 32.3582 29.0786 32.2184 29.2185C32.0786 29.3583 32 29.548 32 29.7458V34.2197C32 34.4175 32.0786 34.6071 32.2184 34.747C32.3582 34.8868 32.5479 34.9654 32.7457 34.9654ZM33.4914 30.4914H35.7282V33.4736H33.4914V30.4914Z" fill="white"/>
<path d="M22.7555 44.3889C22.9533 44.3889 23.143 44.3103 23.2828 44.1704C23.4227 44.0306 23.5012 43.8409 23.5012 43.6431V42.8975C23.499 42.7011 23.4194 42.5136 23.2798 42.3756C23.1402 42.2376 22.9518 42.1602 22.7555 42.1602C22.5592 42.1602 22.3708 42.2376 22.2312 42.3756C22.0915 42.5136 22.012 42.7011 22.0098 42.8975V43.6431C22.0098 43.8409 22.0884 44.0306 22.2282 44.1704C22.3681 44.3103 22.5578 44.3889 22.7555 44.3889Z" fill="#53D687"/>
<path d="M27.2301 44.3889C27.4279 44.3889 27.6176 44.3103 27.7574 44.1704C27.8973 44.0306 27.9758 43.8409 27.9758 43.6431V42.8975C27.9736 42.7011 27.894 42.5136 27.7544 42.3756C27.6148 42.2376 27.4264 42.1602 27.2301 42.1602C27.0338 42.1602 26.8454 42.2376 26.7058 42.3756C26.5662 42.5136 26.4866 42.7011 26.4844 42.8975V43.6431C26.4844 43.8409 26.563 44.0306 26.7028 44.1704C26.8427 44.3103 27.0324 44.3889 27.2301 44.3889Z" fill="#53D687"/>
<path d="M12.316 9.34127C12.5138 9.34124 12.7034 9.26266 12.8433 9.12281C12.9831 8.98296 13.0617 8.79328 13.0618 8.5955V7.10377H14.5528V8.59579C14.5517 8.69443 14.5702 8.79231 14.6071 8.88377C14.6441 8.97523 14.6989 9.05844 14.7682 9.12859C14.8376 9.19874 14.9202 9.25443 15.0112 9.29244C15.1022 9.33045 15.1999 9.35002 15.2985 9.35002C15.3972 9.35002 15.4948 9.33045 15.5859 9.29244C15.6769 9.25443 15.7595 9.19874 15.8289 9.12859C15.8982 9.05844 15.953 8.97523 15.9899 8.88377C16.0269 8.79231 16.0454 8.69443 16.0443 8.59579V4.12011C16.042 3.9238 15.9625 3.73629 15.8229 3.59826C15.6833 3.46023 15.4949 3.38281 15.2985 3.38281C15.1022 3.38281 14.9138 3.46023 14.7742 3.59826C14.6346 3.73629 14.555 3.9238 14.5528 4.12011V5.61233H13.0618V4.12011C13.0595 3.9238 12.98 3.73629 12.8404 3.59826C12.7008 3.46023 12.5124 3.38281 12.316 3.38281C12.1197 3.38281 11.9313 3.46023 11.7917 3.59826C11.6521 3.73629 11.5725 3.9238 11.5703 4.12011V8.59579C11.5704 8.79351 11.649 8.98311 11.7888 9.1229C11.9286 9.2627 12.1183 9.34124 12.316 9.34127Z" fill="#53D687"/>
<path d="M19.5774 9.34053C20.1187 9.33997 20.6376 9.12474 21.0203 8.74206C21.403 8.35938 21.6183 7.84051 21.619 7.29928V5.41678C21.6208 5.14752 21.5694 4.88056 21.4676 4.63126C21.3659 4.38197 21.2158 4.15527 21.026 3.96421C20.8363 3.77316 20.6106 3.62154 20.362 3.51807C20.1134 3.4146 19.8468 3.36133 19.5776 3.36133C19.3083 3.36133 19.0417 3.4146 18.7931 3.51807C18.5445 3.62154 18.3189 3.77316 18.1291 3.96421C17.9394 4.15527 17.7893 4.38197 17.6875 4.63126C17.5858 4.88056 17.5343 5.14752 17.5362 5.41678V7.29928C17.5368 7.84046 17.7521 8.35929 18.1348 8.74196C18.5174 9.12463 19.0363 9.33989 19.5774 9.34053ZM19.0276 5.41678C19.0276 5.27091 19.0856 5.13102 19.1887 5.02787C19.2919 4.92473 19.4318 4.86678 19.5776 4.86678C19.7235 4.86678 19.8634 4.92473 19.9665 5.02787C20.0697 5.13102 20.1276 5.27091 20.1276 5.41678V7.29928C20.1276 7.44515 20.0697 7.58504 19.9665 7.68819C19.8634 7.79133 19.7235 7.84928 19.5776 7.84928C19.4318 7.84928 19.2919 7.79133 19.1887 7.68819C19.0856 7.58504 19.0276 7.44515 19.0276 7.29928V5.41678Z" fill="#53D687"/>
<path d="M23.501 4.86649H24.2464V8.59639C24.2452 8.69504 24.2637 8.79292 24.3007 8.88438C24.3376 8.97584 24.3924 9.05905 24.4618 9.1292C24.5311 9.19935 24.6137 9.25504 24.7047 9.29305C24.7958 9.33106 24.8934 9.35063 24.9921 9.35063C25.0907 9.35063 25.1884 9.33106 25.2794 9.29305C25.3705 9.25504 25.453 9.19935 25.5224 9.1292C25.5918 9.05905 25.6465 8.97584 25.6835 8.88438C25.7205 8.79292 25.7389 8.69504 25.7378 8.59639V4.86649H26.4835C26.5821 4.86761 26.68 4.84915 26.7715 4.81218C26.8629 4.7752 26.9461 4.72045 27.0163 4.65109C27.0864 4.58174 27.1421 4.49915 27.1801 4.40812C27.2181 4.31709 27.2377 4.21942 27.2377 4.12077C27.2377 4.02212 27.2181 3.92445 27.1801 3.83342C27.1421 3.74239 27.0864 3.6598 27.0163 3.59045C26.9461 3.52109 26.8629 3.46634 26.7715 3.42936C26.68 3.39239 26.5821 3.37393 26.4835 3.37505H23.501C23.3047 3.37728 23.1171 3.45683 22.9791 3.59643C22.8411 3.73604 22.7637 3.92445 22.7637 4.12077C22.7637 4.31709 22.8411 4.5055 22.9791 4.64511C23.1171 4.78471 23.3047 4.86426 23.501 4.86649Z" fill="#53D687"/>
<path d="M29.4665 9.34226H31.7036C31.8022 9.34338 31.9001 9.32492 31.9916 9.28794C32.083 9.25097 32.1662 9.19622 32.2364 9.12686C32.3065 9.0575 32.3622 8.97492 32.4002 8.88389C32.4383 8.79286 32.4578 8.69519 32.4578 8.59654C32.4578 8.49789 32.4383 8.40022 32.4002 8.30919C32.3622 8.21816 32.3065 8.13557 32.2364 8.06621C32.1662 7.99686 32.083 7.94211 31.9916 7.90513C31.9001 7.86816 31.8022 7.8497 31.7036 7.85082H30.2121V7.10438H30.9451C31.0438 7.1055 31.1417 7.08703 31.2331 7.05006C31.3246 7.01309 31.4078 6.95834 31.4779 6.88898C31.5481 6.81962 31.6038 6.73703 31.6418 6.646C31.6798 6.55497 31.6994 6.4573 31.6994 6.35865C31.6994 6.26001 31.6798 6.16234 31.6418 6.07131C31.6038 5.98027 31.5481 5.89769 31.4779 5.82833C31.4078 5.75897 31.3246 5.70422 31.2331 5.66725C31.1417 5.63027 31.0438 5.61181 30.9451 5.61293H30.2121V4.86649H31.7036C31.8022 4.86761 31.9001 4.84915 31.9916 4.81218C32.083 4.7752 32.1662 4.72045 32.2364 4.65109C32.3065 4.58174 32.3622 4.49915 32.4002 4.40812C32.4383 4.31709 32.4578 4.21942 32.4578 4.12077C32.4578 4.02212 32.4383 3.92445 32.4002 3.83342C32.3622 3.74239 32.3065 3.6598 32.2364 3.59045C32.1662 3.52109 32.083 3.46634 31.9916 3.42936C31.9001 3.39239 31.8022 3.37393 31.7036 3.37505H29.4665C29.2687 3.37505 29.079 3.45361 28.9392 3.59345C28.7993 3.73328 28.7207 3.92295 28.7207 4.12072V8.59639C28.7207 8.79419 28.7993 8.98389 28.9391 9.12377C29.079 9.26364 29.2687 9.34223 29.4665 9.34226Z" fill="#53D687"/>
<path d="M34.6861 9.34165H37.669C37.8653 9.33942 38.0528 9.25987 38.1908 9.12027C38.3289 8.98066 38.4063 8.79225 38.4063 8.59593C38.4063 8.39961 38.3289 8.2112 38.1908 8.07159C38.0528 7.93199 37.8653 7.85244 37.669 7.85021H35.4319V4.12011C35.4296 3.9238 35.3501 3.73629 35.2105 3.59826C35.0709 3.46023 34.8825 3.38281 34.6862 3.38281C34.4898 3.38281 34.3014 3.46023 34.1618 3.59826C34.0222 3.73629 33.9427 3.9238 33.9404 4.12011V8.59579C33.9404 8.69372 33.9597 8.7907 33.9972 8.88119C34.0346 8.97167 34.0895 9.05389 34.1588 9.12315C34.228 9.19241 34.3102 9.24736 34.4007 9.28485C34.4912 9.32234 34.5882 9.34164 34.6861 9.34165Z" fill="#53D687"/>
<path d="M49.6002 35.6681C49.6002 33.0752 47.9271 30.9661 45.8716 30.9661C43.8161 30.9661 42.1434 33.0755 42.1434 35.6681C42.1434 37.5084 43.1807 42.4616 45.1634 43.4548V48.1122H40.652V12.5332L45.1274 13.652L45.1634 28.7305C45.1639 28.9279 45.2427 29.1171 45.3825 29.2566C45.5222 29.396 45.7116 29.4744 45.9091 29.4744H45.9109C46.1087 29.4739 46.2982 29.3949 46.4377 29.2547C46.5772 29.1145 46.6553 28.9246 46.6549 28.7268L46.6174 13.0676C46.617 12.9016 46.5612 12.7405 46.4589 12.6097C46.3566 12.479 46.2136 12.3861 46.0526 12.3458L41.1487 11.1197C41.3108 10.7993 41.3962 10.4456 41.3981 10.0865V2.62969C41.3981 1.39604 40.4529 0.392578 39.2906 0.392578H10.6945C9.53255 0.392578 8.58727 1.39604 8.58727 2.62969V10.0868C8.58922 10.4458 8.67461 10.7994 8.83669 11.1197L3.93198 12.3458C3.77067 12.3863 3.6275 12.4794 3.52519 12.6105C3.42288 12.7416 3.36729 12.9031 3.36727 13.0694V28.7286C3.36615 28.8273 3.38461 28.9252 3.42158 29.0166C3.45855 29.1081 3.51331 29.1913 3.58266 29.2614C3.65202 29.3316 3.73461 29.3873 3.82564 29.4253C3.91667 29.4633 4.01434 29.4829 4.11299 29.4829C4.21164 29.4829 4.3093 29.4633 4.40033 29.4253C4.49137 29.3873 4.57395 29.3316 4.64331 29.2614C4.71267 29.1913 4.76742 29.1081 4.80439 29.0166C4.84137 28.9252 4.85983 28.8273 4.85871 28.7286V13.6517L9.33303 12.5333V48.1122H4.89621V43.4092C6.83025 42.3291 7.84159 37.4623 7.84159 35.6681C7.84159 33.0752 6.16852 30.9661 4.11294 30.9661C2.05736 30.9661 0.384766 33.0752 0.384766 35.6681C0.384766 37.5084 1.42207 42.4616 3.40477 43.4548V48.1165H1.13044C0.934128 48.1188 0.746614 48.1983 0.608583 48.3379C0.470551 48.4775 0.393137 48.6659 0.393137 48.8622C0.393137 49.0586 0.470551 49.247 0.608583 49.3866C0.746614 49.5262 0.934128 49.6057 1.13044 49.608H48.8545C49.0508 49.6057 49.2383 49.5262 49.3763 49.3866C49.5144 49.247 49.5918 49.0586 49.5918 48.8622C49.5918 48.6659 49.5144 48.4775 49.3763 48.3379C49.2383 48.1983 49.0508 48.1188 48.8545 48.1165H46.6549V43.4092C48.5888 42.3291 49.6002 37.4623 49.6002 35.6681ZM43.6349 35.6681C43.6349 33.9277 44.6591 32.4573 45.8716 32.4573C47.0841 32.4573 48.1087 33.9276 48.1087 35.6681C48.1087 37.4984 47.3621 39.9921 46.6549 41.2854V39.1684C46.656 39.0697 46.6375 38.9718 46.6005 38.8804C46.5636 38.7889 46.5088 38.7057 46.4395 38.6355C46.3701 38.5654 46.2875 38.5097 46.1965 38.4717C46.1055 38.4337 46.0078 38.4141 45.9091 38.4141C45.8105 38.4141 45.7128 38.4337 45.6218 38.4717C45.5308 38.5097 45.4482 38.5654 45.3788 38.6355C45.3095 38.7057 45.2547 38.7889 45.2177 38.8804C45.1808 38.9718 45.1623 39.0697 45.1634 39.1684V41.4233C44.4393 40.1657 43.6348 37.5387 43.6348 35.6681H43.6349ZM10.8244 12.3236H39.1609V48.1121H31.7037V38.4226H33.2326C33.3312 38.4237 33.4291 38.4052 33.5205 38.3683C33.612 38.3313 33.6952 38.2765 33.7654 38.2072C33.8355 38.1378 33.8912 38.0552 33.9292 37.9642C33.9672 37.8732 33.9868 37.7755 33.9868 37.6769C33.9868 37.5782 33.9672 37.4805 33.9292 37.3895C33.8912 37.2985 33.8355 37.2159 33.7654 37.1465C33.6952 37.0772 33.612 37.0224 33.5205 36.9855C33.4291 36.9485 33.3312 36.93 33.2326 36.9311H16.7902C16.5939 36.9334 16.4064 37.0129 16.2684 37.1525C16.1304 37.2921 16.0529 37.4805 16.0529 37.6769C16.0529 37.8732 16.1304 38.0616 16.2684 38.2012C16.4064 38.3408 16.5939 38.4204 16.7902 38.4226H18.2817V48.1122H10.8244V12.3236ZM30.2123 48.1121H25.738V38.4226H30.2123V48.1121ZM24.2466 48.1121H19.7727V38.4226H24.2466V48.1121ZM10.0787 2.62969C10.0787 2.22585 10.3605 1.88402 10.6941 1.88402H39.2902C39.6242 1.88402 39.9063 2.22556 39.9063 2.62969V10.0868C39.9063 10.4907 39.6242 10.8325 39.2902 10.8325H10.6945C10.3605 10.8325 10.0791 10.4909 10.0791 10.0868L10.0787 2.62969ZM1.87621 35.6682C1.87621 33.9278 2.90044 32.4574 4.11294 32.4574C5.32544 32.4574 6.35015 33.9276 6.35015 35.6681C6.35015 37.4984 5.60342 39.9921 4.89621 41.2854V39.1684C4.89733 39.0697 4.87887 38.9718 4.84189 38.8804C4.80492 38.7889 4.75017 38.7057 4.68081 38.6355C4.61145 38.5654 4.52887 38.5097 4.43783 38.4717C4.3468 38.4337 4.24914 38.4141 4.15049 38.4141C4.05184 38.4141 3.95417 38.4337 3.86314 38.4717C3.77211 38.5097 3.68952 38.5654 3.62016 38.6355C3.55081 38.7057 3.49605 38.7889 3.45908 38.8804C3.42211 38.9718 3.40365 39.0697 3.40477 39.1684V41.4233C2.68063 40.1657 1.87621 37.5387 1.87621 35.6681V35.6682Z" fill="#53D687"/>
</g>
<defs>
<clipPath id="clip0_3209_48279">
<rect width="50" height="50" fill="white"/>
</clipPath>
</defs>
</svg>
