<svg width="20" height="18" viewBox="0 0 20 18" fill="none" xmlns="http://www.w3.org/2000/svg">
<path d="M1.75016 0.75H18.2502C18.4933 0.75 18.7264 0.846577 18.8983 1.01849C19.0703 1.19039 19.1668 1.42355 19.1668 1.66667V16.3333C19.1668 16.5764 19.0703 16.8096 18.8983 16.9815C18.7264 17.1534 18.4933 17.25 18.2502 17.25H1.75016C1.50705 17.25 1.27389 17.1534 1.10198 16.9815C0.930073 16.8096 0.833496 16.5764 0.833496 16.3333V1.66667C0.833496 1.42355 0.930073 1.19039 1.10198 1.01849C1.27389 0.846577 1.50705 0.75 1.75016 0.75ZM17.3335 4.63483L10.0662 11.1432L2.66683 4.61467V15.4167H17.3335V4.63483ZM3.13525 2.58333L10.0561 8.69017L16.877 2.58333H3.13525Z" fill="url(#paint0_linear_1938_16791)"/>
<defs>
<linearGradient id="paint0_linear_1938_16791" x1="0.833496" y1="9" x2="19.1668" y2="9" gradientUnits="userSpaceOnUse">
<stop stop-color="#EB3349"/>
<stop offset="1" stop-color="#F45C43"/>
</linearGradient>
</defs>
</svg>
