<svg width="91" height="34" viewBox="0 0 91 34" fill="none" xmlns="http://www.w3.org/2000/svg">
<path d="M16 4.00098H78C85.1797 4.00098 91 9.82128 91 17.001V17.001C91 24.1807 85.1797 30.001 78 30.001H16V4.00098Z" fill="#0B5959"/>
<path d="M35.6206 13.5886L36.322 13.7948C36.9485 13.9791 37.4403 14.466 37.6306 15.0906L39.8427 21.075H41.0922L49.184 8.15576H48.9031L40.462 18.8041L39.006 13.5886H35.6206Z" fill="white"/>
<path d="M45.6511 21.075H50.3886L50.6059 19.8364H47.2484L47.5744 18.0001H50.4212L50.6385 16.7722H47.7917L48.1285 14.8273H51.3773L51.5946 13.5886H46.9659L45.6511 21.075Z" fill="white"/>
<path d="M55.742 14.8273C56.4483 14.8273 56.633 15.4684 56.5461 16.0116C56.4591 16.5658 56.0028 17.1743 55.2856 17.1743H53.7862L54.1991 14.8273H55.742ZM55.6768 18.3586C57.0241 18.163 57.8173 17.0765 57.9912 16.0116C58.1976 14.7947 57.6761 13.5886 56.0245 13.5886H53.0256L51.7108 21.075H53.1016L53.5689 18.413H54.1447L55.4378 21.075H57.1111L55.6768 18.3586Z" fill="white"/>
<path d="M58.4072 21.075H59.7871L61.1019 13.5886H59.7219L58.4072 21.075Z" fill="white"/>
<path d="M61.4958 21.075H62.8866L63.4191 18.0109H65.9399L66.1681 16.7722H63.6472L63.9841 14.8273H67.1677L67.385 13.5886H62.8106L61.4958 21.075Z" fill="white"/>
<path d="M67.1417 21.075H68.5216L69.8364 13.5886H68.4565L67.1417 21.075Z" fill="white"/>
<path d="M70.2303 21.075H74.9678L75.1851 19.8364H71.8276L72.1536 18.0001H75.0004L75.2177 16.7722H72.3709L72.7077 14.8273H75.9565L76.1738 13.5886H71.5451L70.2303 21.075Z" fill="white"/>
<path d="M78.7783 14.8599H80.3103C81.6468 14.8599 82.0814 15.9899 81.8532 17.3481C81.6251 18.6955 80.745 19.8038 79.4193 19.8038H77.8873L78.7783 14.8599ZM79.2129 21.075C81.3426 21.075 82.8638 19.4778 83.244 17.3481C83.6243 15.2184 82.6682 13.5886 80.5276 13.5886H77.6048L76.29 21.075H79.2129Z" fill="white"/>
<circle cx="17" cy="17" r="15.8276" fill="white" stroke="#53D687" stroke-width="2.34483"/>
<path d="M13.6777 17.8223H15.9423C15.9423 20.5351 13.7391 22.7554 10.6991 22.7554C7.65908 22.7554 5.47119 20.5645 5.47119 17.8517V17.8223H7.74352C7.74352 19.4617 8.97948 20.8219 10.7221 20.8219C12.4724 20.8219 13.6777 19.4838 13.6777 17.8517V17.8223Z" fill="#0B2239"/>
<path d="M8.64165 15.7197H5.57861L10.914 10.5513L12.4417 12.0364L10.914 10.5586L9.37862 12.0364L10.914 13.5214L8.64165 15.7197Z" fill="#BC1C24"/>
<path d="M10.9138 10.5596L12.4415 12.0373L16.2415 15.7206H13.1784L10.9138 13.5224L9.37842 12.0373L10.9138 10.5596Z" fill="#CB281A"/>
<path d="M20.0024 15.7857H17.7378C17.7378 13.0728 19.941 10.8525 22.981 10.8525C26.021 10.8525 28.2089 13.0434 28.2089 15.7563V15.7857H25.9366C25.9366 14.1462 24.7006 12.7861 22.958 12.7861C21.2077 12.7861 20.0024 14.1241 20.0024 15.7563V15.7857Z" fill="#0B2239"/>
<path d="M25.0393 17.8887H28.1023L22.7669 23.0571L21.2393 21.572L22.7669 23.0497L24.3023 21.5646L22.7669 20.0869L25.0393 17.8887Z" fill="#0B2239"/>
<path d="M22.7671 23.0502L21.2395 21.5725L17.4395 17.8892H20.5025L22.7671 20.0874L24.3025 21.5651L22.7671 23.0502Z" fill="#53D687"/>
<path d="M10.6982 16.7263H9.96094V16.0132H10.6982V16.7263Z" fill="#0B2239"/>
<path d="M11.6665 16.7263H10.9292V16.0132H11.6665V16.7263Z" fill="#0B2239"/>
<path d="M10.6982 17.7341H9.96094V17.021H10.6982V17.7341Z" fill="#0B2239"/>
<path d="M11.6665 17.7341H10.9292V17.021H11.6665V17.7341Z" fill="#0B2239"/>
<path d="M22.9587 17.1541C23.6074 17.1541 24.1333 16.6439 24.1333 16.0145C24.1333 15.3852 23.6074 14.875 22.9587 14.875C22.31 14.875 21.7842 15.3852 21.7842 16.0145C21.7842 16.6439 22.31 17.1541 22.9587 17.1541Z" fill="#0B2239"/>
</svg>
