<svg width="30" height="30" viewBox="0 0 30 30" fill="none" xmlns="http://www.w3.org/2000/svg">
<g clip-path="url(#clip0_3791_54548)">
<path d="M10.2129 14.0977C9.72656 14.0977 9.33398 14.4902 9.33398 14.9766C9.38086 16.1426 11.0449 16.1426 11.0918 14.9766C11.0918 14.4961 10.6992 14.0977 10.2129 14.0977Z" fill="#67788A"/>
<path d="M19.6113 14.0977C19.125 14.0977 18.7324 14.4902 18.7324 14.9766C18.7793 16.1426 20.4434 16.1426 20.4902 14.9766C20.4902 14.4961 20.0977 14.0977 19.6113 14.0977Z" fill="#67788A"/>
<path d="M18.4045 19.3183C17.9651 19.1132 17.4436 19.3066 17.2385 19.746C16.8108 20.666 15.7619 21.0761 14.9123 21.0761C13.6116 21.0761 12.8264 20.2206 12.5686 19.7167C12.3459 19.2831 11.8186 19.1132 11.385 19.3359C10.9514 19.5585 10.7815 20.0859 11.0041 20.5195C12.5803 23.6074 17.3615 23.5898 18.8381 20.4902C19.0373 20.0449 18.844 19.5234 18.4045 19.3183V19.3183Z" fill="#67788A"/>
<path d="M29.1143 22.3418H28.4697V16.3242C28.9385 15.5215 28.9385 14.3789 28.4697 13.5762V12.1934C28.4756 5.47266 23.0029 0 16.2764 0H13.7217C7.00098 0 1.52832 5.47266 1.52832 12.1934V13.5762C1.05957 14.3789 1.05957 15.5215 1.52832 16.3242V22.3418H0.883789C0.397461 22.3418 0.00488281 22.7344 0.00488281 23.2207V25.541C0.00488281 28.002 2.00879 30 4.46387 30H24.8604C27.6904 30 29.999 27.6973 29.999 24.8613V23.2148C29.9932 22.7344 29.6006 22.3418 29.1143 22.3418V22.3418ZM25.2647 13.875H25.9971C27.4268 13.9336 27.4268 15.9668 25.9971 16.0254H25.2705L25.2647 13.875ZM13.7275 1.75781H16.2822C22.0361 1.75781 26.7178 6.43945 26.7178 12.1934V12.2051C26.4893 12.1465 26.249 12.1113 25.9971 12.1113H25.2647V11.8652C25.2647 11.625 25.165 11.3965 24.9893 11.2266C24.8135 11.0625 24.5791 10.9746 24.3389 10.9863C24.2803 10.9922 18.292 11.2734 15.7314 7.50586C15.3975 6.99609 14.6123 6.99609 14.2783 7.50586C11.7295 11.2559 5.71777 10.9863 5.65918 10.9863C5.17285 10.9512 4.72168 11.373 4.7334 11.8652V12.1113H4.00684C3.76074 12.1113 3.51465 12.1465 3.28613 12.2051V12.1934C3.28613 6.43945 7.96777 1.75781 13.7275 1.75781ZM17.9463 28.2422H12.0576V26.8477C12.626 26.959 13.2178 27.0176 13.8154 27.0176H16.1826C16.7861 27.0176 17.3721 26.959 17.9463 26.8477V28.2422ZM18.6494 24.832C17.9463 25.084 17.0205 25.2656 16.1826 25.2598H13.8154C9.91895 25.3008 6.4502 22.002 6.48535 17.9297C6.48535 16.998 6.48535 13.7051 6.48535 12.7441C8.31348 12.6855 12.415 12.2168 14.999 9.41016C17.583 12.2168 21.6729 12.6855 23.501 12.7441L23.5068 17.9238C23.5127 21.1055 21.4854 23.8184 18.6494 24.832V24.832ZM3.19238 15.6504C2.59473 14.9766 3.09277 13.8574 4.00684 13.8691H4.72754V16.0195H4.00684C3.68457 16.0254 3.3916 15.8789 3.19238 15.6504V15.6504ZM1.7627 25.541V24.0996H2.41309C2.89941 24.0996 3.29199 23.707 3.29199 23.2207V17.6953C3.52051 17.7539 3.76074 17.7891 4.0127 17.7891H4.7334V17.9355C4.7334 21.6973 7.03613 24.9375 10.2998 26.3145V28.248H4.46387C2.96973 28.2422 1.7627 27.0293 1.7627 25.541V25.541ZM28.2354 24.8613C28.2354 26.7246 26.7178 28.2422 24.8545 28.2422H19.6982V26.3086C22.9678 24.9316 25.2647 21.6914 25.2647 17.9297V17.7832C25.6865 17.7773 26.3076 17.8125 26.7119 17.6895V23.2148C26.7119 23.7012 27.1045 24.0938 27.5908 24.0938H28.2354V24.8613Z" fill="#67788A"/>
</g>
<defs>
<clipPath id="clip0_3791_54548">
<rect width="30" height="30" fill="white"/>
</clipPath>
</defs>
</svg>
