<svg width="90" height="90" viewBox="0 0 90 90" fill="none" xmlns="http://www.w3.org/2000/svg">
<path d="M82.8517 43.9645H78.6329C77.2539 43.969 75.9143 44.4246 74.8184 45.2617C73.7225 46.0988 72.9306 47.2715 72.5636 48.6007L51.0696 41.5866C49.4284 41.0551 47.6777 40.9568 45.9873 41.3014C44.297 41.6459 42.7244 42.4217 41.4222 43.5532L35.0215 49.1397H17.5786C17.3093 47.6881 16.5411 46.3763 15.4068 45.4312C14.2725 44.4861 12.8435 43.9673 11.3671 43.9645H7.14832C5.47055 43.9663 3.86203 44.6336 2.67568 45.82C1.48932 47.0063 0.822022 48.6149 0.82019 50.2926V78.4176C0.822025 80.0954 1.48933 81.7039 2.67568 82.8903C3.86204 84.0766 5.47056 84.7439 7.14832 84.7457H11.3671C12.6387 84.743 13.8799 84.357 14.9289 83.6383C15.9779 82.9195 16.7859 81.9013 17.2476 80.7164L37.0016 88.5724C38.7166 89.2662 40.5909 89.4687 42.4144 89.1571C44.238 88.8456 45.9387 88.0323 47.326 86.8084L51.2553 83.3537L72.7184 80.6071C73.1639 81.8182 73.9694 82.864 75.0267 83.6038C76.084 84.3437 77.3425 84.7422 78.6329 84.7457H82.8517C84.5294 84.7439 86.138 84.0766 87.3243 82.8903C88.5107 81.7039 89.178 80.0954 89.1798 78.4176V50.2926C89.178 48.6149 88.5107 47.0063 87.3243 45.82C86.138 44.6336 84.5294 43.9663 82.8517 43.9645ZM13.4764 78.4176C13.4758 78.9769 13.2534 79.5131 12.8579 79.9085C12.4625 80.304 11.9263 80.5264 11.3671 80.527H7.14832C6.58906 80.5264 6.05289 80.304 5.65744 79.9085C5.26198 79.5131 5.03955 78.9769 5.03894 78.4176V50.2926C5.03955 49.7334 5.26198 49.1972 5.65744 48.8017C6.05289 48.4063 6.58906 48.1839 7.14832 48.1832H11.3671C11.9263 48.1839 12.4625 48.4063 12.8579 48.8017C13.2534 49.1972 13.4758 49.7334 13.4764 50.2926V78.4176ZM45.6362 68.9165L55.4751 73.8948C54.7272 74.7362 53.9023 75.5058 53.011 76.1935C52.6828 75.9448 53.3102 76.3205 41.7106 70.4326C41.4633 70.3055 41.1932 70.2285 40.9159 70.2061C40.6387 70.1837 40.3598 70.2164 40.0952 70.3022C39.8307 70.3881 39.5857 70.5254 39.3744 70.7063C39.1631 70.8872 38.9897 71.1081 38.8641 71.3562C38.7385 71.6044 38.6633 71.875 38.6427 72.1524C38.6221 72.4297 38.6565 72.7084 38.744 72.9724C38.8316 73.2365 38.9704 73.4805 39.1527 73.6907C39.3349 73.9008 39.5569 74.0728 39.8059 74.1968L49.6281 79.1675L47.0785 81.4089C46.8037 81.224 46.1803 80.9411 35.8789 75.7122C35.6316 75.5853 35.3616 75.5085 35.0845 75.4863C34.8074 75.4641 34.5286 75.4969 34.2642 75.5828C33.9998 75.6687 33.755 75.806 33.5438 75.9868C33.3327 76.1677 33.1593 76.3885 33.0338 76.6365C32.9083 76.8846 32.833 77.155 32.8124 77.4322C32.7917 77.7095 32.8261 77.9881 32.9135 78.252C33.0009 78.5159 33.1396 78.7599 33.3216 78.9701C33.5036 79.1802 33.7254 79.3523 33.9742 79.4764L43.5516 84.3229C42.8 84.7502 41.9615 85.0021 41.0989 85.0598C40.2362 85.1174 39.3717 84.9794 38.5699 84.6558L17.6952 76.3538V53.3585H30.188L28.045 55.2289C27.3316 55.8507 26.773 56.6301 26.4133 57.5053C26.0537 58.3806 25.9029 59.3276 25.9729 60.2713C26.043 61.2149 26.3319 62.1293 26.8168 62.9419C27.3018 63.7544 27.9693 64.4428 28.7666 64.9525L30.5423 66.0896C31.6611 66.8007 32.9805 67.1293 34.3021 67.026C35.6237 66.9228 36.8761 66.3932 37.8708 65.5169L44.343 59.7828L54.0592 65.6028C54.8078 66.0435 55.442 66.6546 55.9101 67.3863C56.3783 68.1181 56.6673 68.95 56.7537 69.8144L47.5402 65.1523C47.0413 64.9018 46.4634 64.8593 45.9332 65.0342C45.403 65.2091 44.9637 65.587 44.7117 66.0852C44.4597 66.5834 44.4155 67.1612 44.5888 67.6919C44.7621 68.2226 45.1387 68.663 45.6362 68.9165H45.6362ZM72.3048 76.407L56.914 78.3784L57.6738 77.7104C58.8345 76.6962 59.7381 75.4212 60.3105 73.99C60.8829 72.5588 61.1076 71.0122 60.9664 69.4773C60.8251 67.9424 60.3218 66.4629 59.4978 65.1602C58.6738 63.8575 57.5527 62.7688 56.2263 61.9835C53.8793 60.5797 45.4382 55.5144 45.1083 55.3346C44.7295 55.1234 44.2942 55.0354 43.8631 55.0831C43.432 55.1307 43.0264 55.3115 42.7028 55.6004L35.0728 62.3598C34.7666 62.6296 34.381 62.7927 33.9741 62.8245C33.5672 62.8563 33.161 62.7552 32.8165 62.5362L31.0416 61.3991C30.7962 61.2424 30.5907 61.0306 30.4414 60.7807C30.2921 60.5307 30.2031 60.2493 30.1815 59.9589C30.1599 59.6686 30.2063 59.3772 30.317 59.1078C30.4277 58.8385 30.5996 58.5987 30.8191 58.4074L44.197 46.731C44.9483 46.079 45.8553 45.632 46.83 45.4332C47.8048 45.2345 48.8143 45.2908 49.7609 45.5967L72.3049 52.953L72.3048 76.407ZM84.9611 78.4176C84.9604 78.9769 84.738 79.5131 84.3426 79.9085C83.9471 80.304 83.4109 80.5264 82.8517 80.527H78.6329C78.0737 80.5264 77.5375 80.304 77.142 79.9085C76.7466 79.5131 76.5242 78.9769 76.5236 78.4176C76.5251 43.3154 76.5352 51.609 76.5236 50.2926C76.5242 49.7334 76.7466 49.1972 77.142 48.8017C77.5375 48.4063 78.0737 48.1839 78.6329 48.1832H82.8517C83.4109 48.1839 83.9471 48.4063 84.3426 48.8017C84.738 49.1972 84.9604 49.7334 84.9611 50.2926V78.4176Z" fill="#53D687"/>
<path d="M16.1246 29.7663L18.3801 30.601L19.2151 32.8564C19.2867 33.0484 19.4152 33.214 19.5835 33.3309C19.7518 33.4477 19.9518 33.5104 20.1567 33.5104C20.3617 33.5104 20.5617 33.4477 20.73 33.3309C20.8983 33.214 21.0268 33.0484 21.0984 32.8564L21.933 30.601L24.1884 29.7663C24.3805 29.6947 24.546 29.5662 24.6629 29.3979C24.7798 29.2296 24.8425 29.0296 24.8425 28.8247C24.8425 28.6198 24.7798 28.4198 24.6629 28.2515C24.546 28.0832 24.3805 27.9547 24.1884 27.8831L21.933 27.0481L21.0984 24.7926C21.0268 24.6006 20.8983 24.4351 20.73 24.3182C20.5617 24.2013 20.3617 24.1387 20.1567 24.1387C19.9518 24.1387 19.7518 24.2013 19.5835 24.3182C19.4152 24.4351 19.2867 24.6006 19.2151 24.7926L18.3801 27.0481L16.1246 27.8831C15.9326 27.9547 15.7671 28.0832 15.6502 28.2515C15.5333 28.4198 15.4707 28.6198 15.4707 28.8247C15.4707 29.0296 15.5333 29.2296 15.6502 29.3979C15.7671 29.5662 15.9326 29.6947 16.1246 29.7663Z" fill="#53D687"/>
<path d="M65.3434 12.657L67.5989 13.4917L68.4339 15.747C68.5055 15.9391 68.634 16.1046 68.8023 16.2215C68.9706 16.3384 69.1706 16.4011 69.3755 16.4011C69.5804 16.4011 69.7805 16.3384 69.9488 16.2215C70.1171 16.1046 70.2456 15.9391 70.3171 15.747L71.1518 13.4917L73.4072 12.657C73.5992 12.5854 73.7648 12.4569 73.8817 12.2886C73.9986 12.1203 74.0613 11.9203 74.0613 11.7154C74.0613 11.5104 73.9986 11.3104 73.8817 11.1421C73.7648 10.9738 73.5992 10.8453 73.4072 10.7738L71.1518 9.93871L70.3171 7.68326C70.2456 7.49125 70.117 7.32571 69.9487 7.20882C69.7804 7.09194 69.5804 7.0293 69.3755 7.0293C69.1706 7.0293 68.9706 7.09194 68.8023 7.20882C68.634 7.32571 68.5055 7.49125 68.4339 7.68326L67.5989 9.93871L65.3434 10.7738C65.1514 10.8453 64.9859 10.9739 64.869 11.1422C64.7521 11.3105 64.6895 11.5105 64.6895 11.7154C64.6895 11.9203 64.7521 12.1203 64.869 12.2886C64.9859 12.4569 65.1514 12.5854 65.3434 12.657Z" fill="#53D687"/>
<path d="M45 35.8555C48.4766 35.8555 51.8752 34.8245 54.7659 32.893C57.6566 30.9615 59.9096 28.2162 61.2401 25.0042C62.5705 21.7922 62.9186 18.2579 62.2404 14.848C61.5621 11.4382 59.888 8.30609 57.4296 5.84774C54.9713 3.3894 51.8391 1.71524 48.4293 1.03699C45.0195 0.35873 41.4851 0.706835 38.2731 2.03728C35.0612 3.36773 32.3158 5.62076 30.3843 8.51147C28.4528 11.4022 27.4219 14.8007 27.4219 18.2774C27.4271 22.9378 29.2807 27.4058 32.5761 30.7012C35.8715 33.9967 40.3396 35.8503 45 35.8555ZM36.6325 17.1828C36.8276 16.9862 37.0596 16.8299 37.3151 16.7229C37.5706 16.616 37.8446 16.5604 38.1216 16.5594C38.3986 16.5583 38.6731 16.6119 38.9294 16.717C39.1857 16.8221 39.4188 16.9766 39.6153 17.1718L42.4649 20.0001L50.3792 12.0859C50.5751 11.89 50.8076 11.7346 51.0635 11.6287C51.3194 11.5227 51.5937 11.4681 51.8706 11.4681C52.1476 11.4681 52.4219 11.5227 52.6778 11.6287C52.9337 11.7347 53.1662 11.89 53.362 12.0859C53.5579 12.2817 53.7132 12.5142 53.8192 12.7701C53.9252 13.026 53.9798 13.3003 53.9798 13.5773C53.9798 13.8542 53.9252 14.1285 53.8192 14.3844C53.7132 14.6403 53.5579 14.8728 53.362 15.0687L43.9618 24.4688C43.5673 24.8635 43.0323 25.0858 42.4743 25.0868C41.9162 25.0878 41.3805 24.8676 40.9845 24.4743L36.6435 20.1656C36.4469 19.9705 36.2906 19.7386 36.1836 19.483C36.0767 19.2275 36.0211 18.9535 36.0201 18.6765C36.0191 18.3995 36.0726 18.125 36.1777 17.8687C36.2828 17.6124 36.4373 17.3794 36.6325 17.1828Z" fill="#53D687"/>
</svg>
