<svg width="146" height="130" viewBox="0 0 146 130" fill="none" xmlns="http://www.w3.org/2000/svg">
<path d="M55.1354 9.89209C53.9224 9.89209 52.9391 10.8754 52.9391 12.0884V17.345H30.7257V12.0884C30.7257 10.8754 29.7423 9.89209 28.5293 9.89209C27.3163 9.89209 26.333 10.8754 26.333 12.0884V127.239C26.333 128.452 27.3163 129.435 28.5293 129.435C29.7423 129.435 30.7257 128.452 30.7257 127.239V122.905H52.9391V127.239C52.9391 128.452 53.9224 129.435 55.1354 129.435C56.3484 129.435 57.3317 128.452 57.3317 127.239V12.0884C57.332 10.8754 56.3484 9.89209 55.1354 9.89209ZM30.7257 64.4406H52.9391V73.7934H30.7257V64.4406ZM52.9391 21.7379V60.0477H30.7257V21.7379H52.9391ZM30.7257 118.512V78.186H52.9391V118.512H30.7257Z" fill="#91FDBC"/>
<path d="M121.079 29.2969C118.826 27.0432 118.826 23.3894 121.079 21.1359L127.559 14.6564C129.813 12.4026 133.467 12.4026 135.72 14.6564C137.974 16.9101 137.974 20.5639 135.72 22.8174L129.241 29.2969C126.987 31.5507 123.333 31.5507 121.079 29.2969Z" fill="#64FFA1"/>
<path d="M121.08 87.5179C118.826 85.2641 118.826 81.6103 121.08 79.3569L127.559 72.8773C129.813 70.6236 133.467 70.6236 135.721 72.8773C137.974 75.1311 137.974 78.7849 135.721 81.0384L129.241 87.5179C126.987 89.7716 123.333 89.7716 121.08 87.5179Z" fill="#64FFA1"/>
<path d="M136.753 30.1711H79.0952V46.299H136.753V30.1711Z" fill="#E5FFF0"/>
<path d="M136.753 39.0854H79.0952V46.299H136.753V39.0854Z" fill="#91FDBC"/>
<path d="M99.768 34.0201V46.2995H16.4448V34.0201C16.4448 30.0724 19.6446 26.8726 23.5924 26.8726H92.6204C96.5681 26.8726 99.768 30.0724 99.768 34.0201Z" fill="#32EA7B"/>
<path d="M99.7679 39.0854H16.4448V46.299H99.7679V39.0854Z" fill="#15C55A"/>
<path d="M141.151 44.833H4.39844V53.63H141.151V44.833Z" fill="#129445"/>
<path d="M15.2888 44.833H8.79736V53.63H15.2888V44.833Z" fill="#147D3D"/>
<path d="M136.753 44.833H130.261V53.63H136.753V44.833Z" fill="#147D3D"/>
<path d="M136.753 88.3308H79.0952V104.459H136.753V88.3308Z" fill="#E5FFF0"/>
<path d="M136.753 97.2417H79.0952V104.459H136.753V97.2417Z" fill="#91FDBC"/>
<path d="M99.768 92.1798V104.459H16.4448V92.1798C16.4448 88.2321 19.6446 85.0322 23.5924 85.0322H92.6204C96.5681 85.0322 99.768 88.2321 99.768 92.1798Z" fill="#32EA7B"/>
<path d="M99.768 97.2417V104.459H16.4448V97.2417" fill="#15C55A"/>
<path d="M141.151 102.992H4.39844V111.789H141.151V102.992Z" fill="#129445"/>
<path d="M136.753 102.992H130.261V111.789H136.753V102.992Z" fill="#147D3D"/>
<path d="M15.2888 102.992H8.79736V111.789H15.2888V102.992Z" fill="#147D3D"/>
<path d="M136.453 126.982V2.56779C136.453 1.25288 137.538 0.187256 138.876 0.187256H143.127C144.466 0.187256 145.55 1.25317 145.55 2.56779V126.982C145.55 128.297 144.465 129.363 143.127 129.363H138.876C137.538 129.363 136.453 128.297 136.453 126.982Z" fill="#129445"/>
<path d="M0 126.982V2.56779C0 1.25288 1.08475 0.187256 2.4226 0.187256H6.67428C8.01242 0.187256 9.09688 1.25317 9.09688 2.56779V126.982C9.09688 128.297 8.01213 129.363 6.67428 129.363H2.4226C1.08475 129.363 0 128.297 0 126.982Z" fill="#129445"/>
</svg>
