<svg width="40" height="40" viewBox="0 0 40 40" fill="none" xmlns="http://www.w3.org/2000/svg">
<circle cx="20" cy="20" r="19.5" fill="#EBF0F4" stroke="#EBF0F4"/>
<path d="M15 25H25V30H15V25ZM27 28V23H13V28H11C10.7348 28 10.4804 27.8946 10.2929 27.7071C10.1054 27.5196 10 27.2652 10 27V17C10 16.7348 10.1054 16.4804 10.2929 16.2929C10.4804 16.1054 10.7348 16 11 16H29C29.2652 16 29.5196 16.1054 29.7071 16.2929C29.8946 16.4804 30 16.7348 30 17V27C30 27.2652 29.8946 27.5196 29.7071 27.7071C29.5196 27.8946 29.2652 28 29 28H27ZM13 18V20H16V18H13ZM15 10H25C25.2652 10 25.5196 10.1054 25.7071 10.2929C25.8946 10.4804 26 10.7348 26 11V14H14V11C14 10.7348 14.1054 10.4804 14.2929 10.2929C14.4804 10.1054 14.7348 10 15 10Z" fill="#67788A"/>
</svg>
