<svg width="70" height="62" viewBox="0 0 70 62" fill="none" xmlns="http://www.w3.org/2000/svg">
<path d="M69.9017 34.9625C69.9016 34.9621 69.9016 34.962 69.9014 34.9616L56.6851 1.77665C56.4046 1.07156 55.6054 0.727339 54.9003 1.00783C54.8998 1.008 54.8993 1.00817 54.8988 1.00852L1.28205 22.3582C1.0634 22.4527 0.873768 22.6035 0.732405 22.7952C0.286504 23.0269 0.00480941 23.4855 0 23.9879V59.715C0 60.4738 0.615261 61.0891 1.37412 61.0891H59.0871C59.846 61.0891 60.4612 60.4738 60.4612 59.715V40.2025L69.1347 36.748C69.8396 36.4668 70.1829 35.6674 69.9017 34.9625ZM57.713 58.3409H2.74824V25.362H57.713V58.3409ZM22.9272 22.6207L45.9354 13.4525C47.9889 15.6109 50.8341 16.8377 53.8132 16.8494L56.108 22.6207H22.9272ZM60.4612 37.2509V23.9879C60.4612 23.229 59.846 22.6138 59.0871 22.6138H59.0651L56.1534 15.3007C56.1211 15.2397 56.0834 15.1817 56.0407 15.1276C55.8933 14.4658 55.2804 14.0142 54.6047 14.0695C51.8328 14.3222 49.1211 13.1545 47.4002 10.9668C46.972 10.4382 46.2193 10.3068 45.6372 10.659C45.572 10.6667 45.5072 10.6787 45.4435 10.6947L17.3537 21.88C17.0138 22.0133 16.7419 22.2776 16.5993 22.6138H8.06882L54.6404 4.07005L66.8412 34.706L60.4612 37.2509Z" fill="#53D687"/>
<path d="M6.47721 49.0643C9.14507 49.8529 11.2327 51.9379 12.0245 54.6047C12.1982 55.1868 12.7336 55.5857 13.3409 55.5859C13.4122 55.5814 13.483 55.5707 13.5526 55.5542C13.6142 55.5718 13.6773 55.5847 13.7408 55.5927H46.7196C46.7763 55.5853 46.8323 55.5738 46.8873 55.5584C47.5738 55.7253 48.2657 55.3043 48.4328 54.6178C48.4333 54.6152 48.434 54.6128 48.4345 54.6102C49.2243 51.9407 51.3123 49.8527 53.9819 49.0629C54.6292 48.865 55.0315 48.2199 54.9245 47.5514C54.9429 47.4847 54.9561 47.4167 54.9644 47.348V36.3551C54.9563 36.2862 54.9425 36.2182 54.9231 36.1517C55.0308 35.483 54.6284 34.8375 53.9805 34.6402C51.3109 33.8506 49.2235 31.7617 48.4359 29.0915C48.237 28.4396 47.5855 28.0363 46.9134 28.1488C46.8498 28.1311 46.7851 28.1183 46.7196 28.1104H13.7408C13.6716 28.1186 13.603 28.1323 13.5361 28.1516C12.8677 28.0451 12.2229 28.4472 12.0245 29.0942C11.2342 31.7633 9.14644 33.8506 6.47721 34.6402C5.82983 34.838 5.42756 35.4832 5.53457 36.1517C5.51671 36.2185 5.50382 36.2864 5.49609 36.3551V47.348C5.50399 47.4126 5.51688 47.4765 5.53457 47.539C5.42189 48.2118 5.82502 48.8642 6.47721 49.0643ZM8.24433 36.913C11.0036 35.8047 13.1905 33.6178 14.2987 30.8586H46.1604C47.2691 33.6178 49.4565 35.8047 52.2161 36.913V46.7901C49.4577 47.8995 47.2712 50.0861 46.1618 52.8445H14.2987C13.1893 50.0861 11.0027 47.8995 8.24433 46.7901V36.913Z" fill="#53D687"/>
<path d="M30.231 50.0959C34.7845 50.0959 38.4757 46.4046 38.4757 41.8512C38.4757 37.2977 34.7845 33.6064 30.231 33.6064C25.6776 33.6064 21.9863 37.2977 21.9863 41.8512C21.9908 46.4028 25.6794 50.0914 30.231 50.0959ZM30.231 36.3547C33.2666 36.3547 35.7275 38.8156 35.7275 41.8512C35.7275 44.8868 33.2666 47.3476 30.231 47.3476C27.1954 47.3476 24.7346 44.8868 24.7346 41.8512C24.7346 38.8156 27.1954 36.3547 30.231 36.3547Z" fill="#53D687"/>
</svg>
