<svg width="30" height="30" viewBox="0 0 30 30" fill="none" xmlns="http://www.w3.org/2000/svg">
<g clip-path="url(#clip0_3209_48477)">
<path d="M27.5713 7.72445C27.5559 6.91449 27.5412 6.14934 27.5412 5.4091C27.5412 4.82918 27.0712 4.35903 26.4912 4.35903C22.0003 4.35903 18.5811 3.06841 15.7311 0.297329C15.3234 -0.0991798 14.6746 -0.0990398 14.267 0.297329C11.4172 3.06841 7.9986 4.35903 3.50805 4.35903C2.92813 4.35903 2.45798 4.82918 2.45798 5.4091C2.45798 6.14948 2.44342 6.91491 2.42787 7.72501C2.28394 15.2626 2.08681 25.5857 14.6551 29.9421C14.7666 29.9808 14.8828 30.0001 14.999 30.0001C15.1152 30.0001 15.2315 29.9808 15.3428 29.9421C27.9121 25.5856 27.7153 15.2622 27.5713 7.72445ZM14.9991 27.8357C4.22015 23.92 4.38312 15.3423 4.52775 7.76506C4.53643 7.3103 4.54483 6.86955 4.55071 6.43748C8.75662 6.25995 12.1199 4.98543 14.9991 2.47729C17.8786 4.98543 21.2425 6.26009 25.4486 6.43748C25.4545 6.86941 25.4629 7.30988 25.4716 7.76436C25.6161 15.3419 25.7789 23.9199 14.9991 27.8357Z" fill="#53D687"/>
<path d="M18.6153 11.3523L13.5471 16.4202L11.3843 14.2575C10.9742 13.8476 10.3093 13.8476 9.89936 14.2575C9.48927 14.6677 9.48927 15.3325 9.89936 15.7426L12.8046 18.6478C13.0096 18.8528 13.2784 18.9553 13.5471 18.9553C13.8157 18.9553 14.0846 18.8528 14.2895 18.6478L20.1001 12.8374C20.5103 12.4273 20.5103 11.7624 20.1002 11.3524C19.6903 10.9423 19.0254 10.9422 18.6153 11.3523Z" fill="#53D687"/>
</g>
<defs>
<clipPath id="clip0_3209_48477">
<rect width="30" height="30" fill="white"/>
</clipPath>
</defs>
</svg>
