<svg width="40" height="40" viewBox="0 0 40 40" fill="none" xmlns="http://www.w3.org/2000/svg">
<path d="M20 39.5C30.7696 39.5 39.5 30.7696 39.5 20C39.5 9.23045 30.7696 0.5 20 0.5C9.23045 0.5 0.5 9.23045 0.5 20C0.5 30.7696 9.23045 39.5 20 39.5Z" fill="#EBF0F4" stroke="#EBF0F4"/>
<g clip-path="url(#clip0_200_1355)">
<path d="M21.0757 26.2706L15.9657 23.4836C15.4752 23.9705 14.8515 24.3013 14.1733 24.4342C13.4951 24.5672 12.7927 24.4964 12.1546 24.2307C11.5166 23.9651 10.9715 23.5164 10.5881 22.9414C10.2046 22.3664 10 21.6908 10 20.9996C10 20.3085 10.2046 19.6328 10.5881 19.0578C10.9715 18.4828 11.5166 18.0342 12.1546 17.7685C12.7927 17.5029 13.4951 17.432 14.1733 17.565C14.8515 17.6979 15.4752 18.0287 15.9657 18.5156L21.0757 15.7286C20.9005 14.9064 21.027 14.0485 21.4323 13.3119C21.8376 12.5753 22.4945 12.0092 23.2828 11.7171C24.0712 11.425 24.9383 11.4264 25.7257 11.7211C26.5131 12.0158 27.1681 12.5841 27.5709 13.3221C27.9737 14.06 28.0975 14.9183 27.9195 15.74C27.7415 16.5617 27.2737 17.2918 26.6016 17.7969C25.9295 18.302 25.0981 18.5483 24.2593 18.4908C23.4206 18.4333 22.6305 18.0758 22.0337 17.4836L16.9237 20.2706C17.0256 20.7513 17.0256 21.248 16.9237 21.7286L22.0337 24.5156C22.6305 23.9235 23.4206 23.566 24.2593 23.5084C25.0981 23.4509 25.9295 23.6972 26.6016 24.2023C27.2737 24.7074 27.7415 25.4376 27.9195 26.2593C28.0975 27.0809 27.9737 27.9392 27.5709 28.6772C27.1681 29.4151 26.5131 29.9834 25.7257 30.2781C24.9383 30.5728 24.0712 30.5743 23.2828 30.2822C22.4945 29.9901 21.8376 29.424 21.4323 28.6874C21.027 27.9508 20.9005 27.0929 21.0757 26.2706V26.2706Z" fill="#67788A"/>
</g>
<defs>
<clipPath id="clip0_200_1355">
<rect width="24" height="24" fill="white" transform="translate(7.5 9)"/>
</clipPath>
</defs>
</svg>
