<svg width="14" height="14" viewBox="0 0 14 14" fill="none" xmlns="http://www.w3.org/2000/svg">
<path d="M12.8334 6.41634V11.6663H11.6667V9.91634H2.33341V11.6663H1.16675V2.33301H2.33341V8.16634H7.00008V4.08301H10.5001C11.1189 4.08301 11.7124 4.32884 12.15 4.76643C12.5876 5.20401 12.8334 5.7975 12.8334 6.41634ZM11.6667 8.16634V6.41634C11.6667 6.10692 11.5438 5.81018 11.325 5.59138C11.1062 5.37259 10.8095 5.24967 10.5001 5.24967H8.16675V8.16634H11.6667ZM4.66675 6.41634C4.82146 6.41634 4.96983 6.35488 5.07923 6.24549C5.18862 6.13609 5.25008 5.98772 5.25008 5.83301C5.25008 5.6783 5.18862 5.52993 5.07923 5.42053C4.96983 5.31113 4.82146 5.24967 4.66675 5.24967C4.51204 5.24967 4.36367 5.31113 4.25427 5.42053C4.14487 5.52993 4.08341 5.6783 4.08341 5.83301C4.08341 5.98772 4.14487 6.13609 4.25427 6.24549C4.36367 6.35488 4.51204 6.41634 4.66675 6.41634ZM4.66675 7.58301C4.20262 7.58301 3.7575 7.39863 3.42931 7.07044C3.10112 6.74226 2.91675 6.29714 2.91675 5.83301C2.91675 5.36888 3.10112 4.92376 3.42931 4.59557C3.7575 4.26738 4.20262 4.08301 4.66675 4.08301C5.13088 4.08301 5.576 4.26738 5.90418 4.59557C6.23237 4.92376 6.41675 5.36888 6.41675 5.83301C6.41675 6.29714 6.23237 6.74226 5.90418 7.07044C5.576 7.39863 5.13088 7.58301 4.66675 7.58301Z" fill="#0B5959"/>
</svg>
