<svg width="48" height="46" viewBox="0 0 48 46" fill="none" xmlns="http://www.w3.org/2000/svg">
<path d="M24 0.0419922L32.8042 12.9232L47.7771 17.317L38.2458 29.6712L38.6937 45.267L24 40.0212L9.30623 45.267L9.75415 29.6712L0.2229 17.317L15.1958 12.9232L24 0.0419922ZM19.8333 24.0003H15.6667C15.6666 26.1744 16.5162 28.2624 18.0342 29.8188C19.5521 31.3752 21.6182 32.2768 23.7916 32.3312C25.965 32.3856 28.0736 31.5884 29.6674 30.1098C31.2613 28.6313 32.2142 26.5883 32.3229 24.417L32.3333 24.0003H28.1667C28.1715 25.0815 27.7558 26.1223 27.0075 26.9027C26.2592 27.6832 25.2368 28.1421 24.1564 28.1827C23.0759 28.2233 22.022 27.8422 21.2172 27.1201C20.4125 26.398 19.92 25.3914 19.8437 24.3128L19.8333 24.0003Z" fill="url(#paint0_linear_3837_57193)"/>
<defs>
<linearGradient id="paint0_linear_3837_57193" x1="0.2229" y1="22.6545" x2="47.7771" y2="22.6545" gradientUnits="userSpaceOnUse">
<stop stop-color="#EB3349"/>
<stop offset="1" stop-color="#F45C43"/>
</linearGradient>
</defs>
</svg>
