<svg width="22" height="22" viewBox="0 0 22 22" fill="none" xmlns="http://www.w3.org/2000/svg">
<path d="M12.1969 0.703613C8.88301 0.703613 5.95 2.35796 4.17465 4.88253C4.54207 5.12223 4.90022 5.45094 5.24661 5.87351C6.57107 3.89311 8.71258 2.50366 11.1903 2.20497L12.1968 3.90806L13.2032 2.20493C17.0119 2.66395 20.0394 5.69125 20.4986 9.49995L18.7952 10.5065L20.4986 11.5131C20.1917 14.0595 18.7333 16.2518 16.6644 17.5657C16.7962 17.8661 16.8704 18.1733 16.8836 18.49C16.8932 18.7214 16.8694 18.9401 16.8214 19.1477C19.901 17.493 22 14.2408 22 10.5067C22 5.10113 17.6025 0.703613 12.1969 0.703613ZM14.6986 16.8483C12.4387 15.0322 11.8068 15.9249 10.7814 16.9501C10.0655 17.6663 8.25399 16.1709 6.6898 14.6066C5.1255 13.0421 3.6304 11.2309 4.34619 10.5149C5.37164 9.48963 6.26415 8.85734 4.44746 6.5981C2.63138 4.33803 1.42073 6.07316 0.427459 7.0665C-0.719273 8.21284 0.367032 12.4848 4.58909 16.7075C8.81172 20.9296 13.0836 22.0152 14.2297 20.8693C15.2228 19.8759 16.9584 18.6654 14.6986 16.8483ZM7.81597 12.0408C7.81597 10.0321 10.1677 9.67422 10.1677 8.89034C10.1677 8.50998 9.86319 8.3503 9.58158 8.3503C9.06404 8.3503 8.77513 8.92845 8.77513 8.92845L7.78581 8.26647C7.78581 8.26647 8.28811 7.09458 9.70348 7.09458C10.5938 7.09458 11.5602 7.6045 11.5602 8.76111C11.5602 10.4581 9.36852 10.7855 9.33041 11.4856H11.644V12.6269H7.87698C7.83883 12.4139 7.81597 12.2238 7.81597 12.0408ZM12.2003 10.5039L14.3009 7.18574H15.9294V10.207H16.5761V11.3103H15.9294V12.627H14.6127V11.3103H12.2004V10.5039H12.2003ZM14.6126 10.207V8.98942C14.6126 8.69256 14.6584 8.38046 14.6584 8.38046H14.6431C14.6431 8.38046 14.5291 8.71542 14.3768 8.94373L13.5551 10.1918V10.2071L14.6126 10.207Z" fill="#67788A"/>
</svg>
