<svg width="70" height="70" viewBox="0 0 70 70" fill="none" xmlns="http://www.w3.org/2000/svg">
<path d="M66.9803 47.5889C68.4149 45.7591 69.1029 43.7976 69.015 41.7775C68.9272 39.5525 67.9318 37.8105 67.1121 36.7419C68.0636 34.3706 68.4295 30.6378 65.253 27.7394C62.9255 25.6169 58.9732 24.6654 53.4985 24.9289C49.6487 25.1046 46.4283 25.8218 46.2965 25.8511H46.2819C45.55 25.9829 44.7741 26.1439 43.9837 26.3195C43.9251 25.3827 44.0861 23.0552 45.8134 17.8147C47.8628 11.5788 47.7457 6.80678 45.4329 3.61564C43.0029 0.263488 39.1238 0 37.982 0C36.8841 0 35.8741 0.453785 35.1568 1.28816C33.532 3.1765 33.7223 6.66039 33.9272 8.2706C31.995 13.4525 26.5788 26.1585 21.9971 29.6863C21.9092 29.7449 21.836 29.8181 21.7628 29.8913C20.4161 31.3112 19.5086 32.8482 18.8937 34.1949C18.0301 33.7265 17.0493 33.463 15.9954 33.463H7.06606C3.69927 33.463 0.976562 36.2003 0.976562 39.5525V63.3396C0.976562 66.7064 3.71391 69.4291 7.06606 69.4291H15.9954C17.2982 69.4291 18.5132 69.0192 19.5086 68.3166L22.9485 68.7265C23.4755 68.7997 32.844 69.9854 42.4613 69.7951C44.2032 69.9268 45.8427 70 47.3651 70C49.9853 70 52.2689 69.7951 54.1719 69.3852C58.6512 68.4337 61.7106 66.5307 63.2622 63.7348C64.4479 61.5977 64.4479 59.4751 64.2576 58.1284C67.1706 55.4935 67.683 52.5805 67.5805 50.5312C67.5219 49.3455 67.2585 48.3354 66.9803 47.5889ZM7.06606 65.4768C5.88037 65.4768 4.92888 64.5107 4.92888 63.3396V39.5378C4.92888 38.3522 5.89501 37.4007 7.06606 37.4007H15.9954C17.1811 37.4007 18.1326 38.3668 18.1326 39.5378V63.325C18.1326 64.5107 17.1664 65.4622 15.9954 65.4622H7.06606V65.4768ZM63.2329 45.8762C62.6181 46.5203 62.501 47.501 62.9694 48.2622C62.9694 48.2769 63.5696 49.3015 63.6428 50.7068C63.7453 52.6244 62.8231 54.3225 60.8908 55.7716C60.2028 56.2986 59.9247 57.2062 60.2175 58.0259C60.2175 58.0406 60.8469 59.9728 59.8222 61.8026C58.8415 63.5592 56.6604 64.8181 53.3521 65.5207C50.7026 66.0916 47.1016 66.1941 42.6809 65.8427C42.6223 65.8427 42.5491 65.8427 42.4759 65.8427C33.0636 66.0477 23.5487 64.8181 23.4462 64.8034H23.4316L21.9531 64.6278C22.041 64.2179 22.0849 63.7788 22.0849 63.3396V39.5378C22.0849 38.9084 21.9824 38.2936 21.8068 37.7227C22.0702 36.7419 22.8022 34.5608 24.5295 32.7018C31.102 27.4906 37.5282 9.91008 37.8063 9.14889C37.9234 8.84149 37.9527 8.50481 37.8942 8.16813C37.6453 6.52865 37.7331 4.52321 38.0845 3.92304C38.8603 3.93768 40.9536 4.15726 42.2124 5.8992C43.7055 7.96319 43.647 11.652 42.0368 16.5412C39.5776 23.9921 39.3726 27.9151 41.3195 29.6424C42.2856 30.5061 43.5738 30.55 44.5107 30.2133C45.4036 30.0084 46.2526 29.8327 47.0577 29.701C47.1163 29.6863 47.1894 29.6717 47.248 29.657C51.7419 28.6763 59.793 28.0761 62.5889 30.6232C64.9603 32.7896 63.2769 35.6587 63.0866 35.9661C62.5449 36.7859 62.706 37.8545 63.4379 38.5132C63.4525 38.5278 64.9895 39.977 65.0627 41.9239C65.1213 43.2267 64.5065 44.5588 63.2329 45.8762Z" fill="#53D687"/>
</svg>
