<svg width="30" height="30" viewBox="0 0 30 30" fill="none" xmlns="http://www.w3.org/2000/svg">
<path d="M15 1.25C12.2805 1.25 9.62209 2.05642 7.36092 3.56729C5.09974 5.07816 3.33737 7.22562 2.29666 9.7381C1.25596 12.2506 0.983662 15.0153 1.51421 17.6825C2.04476 20.3497 3.35432 22.7997 5.27729 24.7227C7.20026 26.6457 9.65028 27.9552 12.3175 28.4858C14.9848 29.0163 17.7494 28.744 20.2619 27.7033C22.7744 26.6626 24.9218 24.9003 26.4327 22.6391C27.9436 20.3779 28.75 17.7195 28.75 15C28.7457 11.3546 27.2957 7.85973 24.718 5.28203C22.1403 2.70434 18.6454 1.2543 15 1.25ZM15 26.25C12.775 26.25 10.5999 25.5902 8.74984 24.354C6.89979 23.1179 5.45785 21.3609 4.60636 19.3052C3.75488 17.2495 3.53209 14.9875 3.96617 12.8052C4.40026 10.6229 5.47171 8.61839 7.04505 7.04505C8.6184 5.47171 10.623 4.40025 12.8052 3.96617C14.9875 3.53208 17.2495 3.75487 19.3052 4.60636C21.3609 5.45784 23.1179 6.89978 24.354 8.74984C25.5902 10.5999 26.25 12.775 26.25 15C26.2464 17.9826 25.0599 20.8419 22.9509 22.9509C20.8419 25.0599 17.9826 26.2464 15 26.25Z" fill="#53D687"/>
<path d="M16.25 14.4825V7.5C16.25 7.16848 16.1183 6.85054 15.8839 6.61612C15.6495 6.3817 15.3315 6.25 15 6.25C14.6685 6.25 14.3505 6.3817 14.1161 6.61612C13.8817 6.85054 13.75 7.16848 13.75 7.5V15C13.7501 15.3315 13.8818 15.6494 14.1163 15.8837L17.8663 19.6337C18.102 19.8614 18.4178 19.9874 18.7455 19.9846C19.0732 19.9817 19.3868 19.8503 19.6185 19.6185C19.8503 19.3868 19.9817 19.0732 19.9846 18.7455C19.9874 18.4178 19.8614 18.102 19.6337 17.8663L16.25 14.4825Z" fill="#53D687"/>
</svg>
