<svg width="28" height="28" viewBox="0 0 28 28" fill="none" xmlns="http://www.w3.org/2000/svg">
<path d="M14 0.25C11.2805 0.25 8.62209 1.05642 6.36092 2.56729C4.09974 4.07816 2.33737 6.22562 1.29666 8.7381C0.255958 11.2506 -0.0163382 14.0153 0.514209 16.6825C1.04476 19.3497 2.35432 21.7997 4.27729 23.7227C6.20026 25.6457 8.65028 26.9552 11.3175 27.4858C13.9848 28.0163 16.7494 27.744 19.2619 26.7033C21.7744 25.6626 23.9218 23.9003 25.4327 21.6391C26.9436 19.3779 27.75 16.7195 27.75 14C27.7457 10.3546 26.2957 6.85973 23.718 4.28203C21.1403 1.70434 17.6454 0.254301 14 0.25ZM14 25.25C11.775 25.25 9.59989 24.5902 7.74984 23.354C5.89979 22.1179 4.45785 20.3609 3.60636 18.3052C2.75488 16.2495 2.53209 13.9875 2.96617 11.8052C3.40026 9.62295 4.47171 7.61839 6.04505 6.04505C7.6184 4.47171 9.62295 3.40025 11.8052 2.96617C13.9875 2.53208 16.2495 2.75487 18.3052 3.60636C20.3609 4.45784 22.1179 5.89978 23.354 7.74984C24.5902 9.59989 25.25 11.775 25.25 14C25.2464 16.9826 24.0599 19.8419 21.9509 21.9509C19.8419 24.0599 16.9826 25.2464 14 25.25Z" fill="url(#paint0_linear_1773_58302)"/>
<path d="M15.25 13.4825V6.5C15.25 6.16848 15.1183 5.85054 14.8839 5.61612C14.6495 5.3817 14.3315 5.25 14 5.25C13.6685 5.25 13.3505 5.3817 13.1161 5.61612C12.8817 5.85054 12.75 6.16848 12.75 6.5V14C12.7501 14.3315 12.8818 14.6494 13.1163 14.8837L16.8663 18.6337C17.102 18.8614 17.4178 18.9874 17.7455 18.9846C18.0732 18.9817 18.3868 18.8503 18.6185 18.6185C18.8503 18.3868 18.9817 18.0732 18.9846 17.7455C18.9874 17.4178 18.8614 17.102 18.6337 16.8663L15.25 13.4825Z" fill="url(#paint1_linear_1773_58302)"/>
<defs>
<linearGradient id="paint0_linear_1773_58302" x1="0.25" y1="14" x2="27.75" y2="14" gradientUnits="userSpaceOnUse">
<stop stop-color="#EB3349"/>
<stop offset="1" stop-color="#F45C43"/>
</linearGradient>
<linearGradient id="paint1_linear_1773_58302" x1="12.75" y1="12.1173" x2="18.9846" y2="12.1173" gradientUnits="userSpaceOnUse">
<stop stop-color="#EB3349"/>
<stop offset="1" stop-color="#F45C43"/>
</linearGradient>
</defs>
</svg>
