<svg width="62" height="62" viewBox="0 0 62 62" fill="none" xmlns="http://www.w3.org/2000/svg">
<g clip-path="url(#clip0)">
<path d="M50.9865 46.6292L41.098 44.1563L40.5276 41.872C44.1834 41.3763 47.729 40.2662 51.0148 38.5887C51.3811 38.3691 51.6148 37.9826 51.6395 37.5563C51.6654 37.1297 51.4814 36.7172 51.1465 36.4515C51.1 36.4206 46.4874 32.6107 46.4874 19.4106C46.4874 8.27792 43.8831 2.63289 38.7439 2.63289H37.9695C36.1866 0.716969 33.6012 -0.240566 31.0004 0.0517519C26.1504 0.0517519 15.5133 4.92763 15.5133 19.4106C15.5133 32.6107 10.9007 36.4206 10.8672 36.4463C10.2965 36.8732 10.1798 37.682 10.6067 38.2529C10.7069 38.3868 10.8322 38.5001 10.9756 38.5862C14.2585 40.2794 17.8089 41.3936 21.4706 41.8797L20.9001 44.1589L11.0144 46.6317C4.55078 48.24 0.0168239 54.0487 0.0263823 60.7095C0.0263823 61.4222 0.604243 62.0001 1.31701 62.0001H60.6841C61.3969 62.0001 61.9747 61.4222 61.9747 60.7095C61.9852 54.0477 57.4512 48.2375 50.9865 46.6292Z" fill="#042463"/>
</g>
<defs>
<clipPath id="clip0">
<rect width="62" height="62" fill="white"/>
</clipPath>
</defs>
</svg>
