<svg width="62" height="62" viewBox="0 0 62 62" fill="none" xmlns="http://www.w3.org/2000/svg">
<g clip-path="url(#clip0)">
<path d="M37.0923 17.4922H45.7134V21.916C45.7134 24.4338 45.0628 26.802 43.9218 28.8629L46.9411 29.9506C49.0493 30.7101 51.0356 31.7069 52.8727 32.917V21.9126C52.8727 10.4416 44.0124 1.00217 32.7764 0.0758057V13.4915C32.9452 15.7257 34.8157 17.4922 37.0923 17.4922V17.4922Z" fill="#042463"/>
<path d="M42.0807 21.9161V21.125H37.0923C35.5028 21.125 34.0207 20.6566 32.7764 19.8508V32.5751C38.0232 31.8633 42.0807 27.355 42.0807 21.9161V21.9161Z" fill="#042463"/>
<path d="M54.8646 39.0495C52.3185 36.4756 49.2323 34.5008 45.7729 33.2545L41.7629 31.8098C39.4521 34.2468 36.2998 35.8782 32.7764 36.2331V44.7164H43.9637C48.3419 44.7165 52.3667 42.61 54.8646 39.0495V39.0495Z" fill="#042463"/>
<path d="M57.5087 42.2138C57.4325 42.1055 57.3551 41.9982 57.2774 41.8912C54.0758 45.9643 49.2202 48.3493 43.9637 48.3493H32.7764V62.0001H45.6115L48.8325 56.1459L52.0153 57.8972L49.7578 62.0001H61.9601V56.2913C61.9601 51.2261 60.4209 46.3581 57.5087 42.2138V42.2138Z" fill="#042463"/>
<path d="M29.1432 41.7165V36.1848C26.7518 35.9572 24.4886 35.2849 22.4365 34.2515L29.1432 41.7165Z" fill="#042463"/>
<path d="M11.3926 34.7946C4.60225 37.2047 0.0400391 43.6651 0.0400391 50.8704V62H12.2095V54.0342H15.8423V62H29.1435V47.4789L16.1465 33.1072L11.3926 34.7946Z" fill="#042463"/>
<path d="M15.457 0H29.1439V7.55952H15.457V0Z" fill="#042463"/>
<path d="M15.457 17.2571C15.457 25.1912 21.4483 31.7512 29.1439 32.6533V11.1924H15.457V17.2571Z" fill="#042463"/>
</g>
<defs>
<clipPath id="clip0">
<rect width="62" height="62" fill="white"/>
</clipPath>
</defs>
</svg>
