<svg width="208" height="40" viewBox="0 0 208 40" fill="none" xmlns="http://www.w3.org/2000/svg">
<path d="M98.2727 28.1664H94.8613V31.0351H98.0168V31.9084H94.8613V35.5811H93.8379V27.2872H98.2727V28.1664Z" fill="#0B5959"/>
<path d="M104.559 35.5811H99.9296V27.2872H104.364V28.1664H100.953V30.9252H104.109V31.7985H100.953V34.702H104.559V35.5811Z" fill="#0B5959"/>
<path d="M110.87 35.5811H106.241V27.2872H110.675V28.1664H107.264V30.9252H110.42V31.7985H107.264V34.702H110.87V35.5811Z" fill="#0B5959"/>
<path d="M117.084 35.5811H112.552V27.2872H113.575V34.702H117.084V35.5811Z" fill="#0B5959"/>
<path d="M118.016 35.2456V34.1005C118.154 34.2161 118.319 34.3202 118.509 34.4128C118.704 34.5053 118.907 34.5844 119.119 34.6499C119.334 34.7116 119.549 34.7598 119.764 34.7945C119.98 34.8292 120.179 34.8466 120.361 34.8466C120.991 34.8466 121.46 34.7367 121.769 34.5169C122.081 34.2933 122.238 33.9732 122.238 33.5568C122.238 33.3332 122.185 33.1384 122.079 32.9726C121.978 32.8068 121.836 32.6565 121.653 32.5215C121.47 32.3827 121.253 32.2516 121.001 32.1282C120.753 32.001 120.485 31.8679 120.197 31.7291C119.892 31.5826 119.608 31.4342 119.344 31.2838C119.08 31.1334 118.851 30.9676 118.656 30.7864C118.461 30.6052 118.306 30.4008 118.193 30.1733C118.083 29.942 118.028 29.6721 118.028 29.3636C118.028 28.9857 118.116 28.658 118.29 28.3804C118.465 28.0989 118.694 27.8675 118.979 27.6863C119.263 27.5051 119.586 27.3701 119.947 27.2815C120.313 27.1928 120.684 27.1484 121.062 27.1484C121.923 27.1484 122.55 27.2468 122.944 27.4434V28.5365C122.429 28.1972 121.767 28.0276 120.958 28.0276C120.735 28.0276 120.512 28.0507 120.288 28.097C120.065 28.1394 119.866 28.2107 119.691 28.311C119.517 28.4112 119.375 28.5404 119.265 28.6985C119.155 28.8566 119.1 29.0494 119.1 29.2768C119.1 29.4889 119.141 29.6721 119.222 29.8263C119.307 29.9805 119.431 30.1213 119.594 30.2485C119.756 30.3758 119.953 30.4991 120.185 30.6187C120.42 30.7382 120.69 30.8693 120.995 31.012C121.308 31.1585 121.604 31.3127 121.884 31.4747C122.165 31.6366 122.41 31.8159 122.621 32.0125C122.833 32.2092 122.999 32.427 123.121 32.6661C123.247 32.9052 123.31 33.1789 123.31 33.4874C123.31 33.8961 123.224 34.2431 123.054 34.5285C122.887 34.8099 122.66 35.0394 122.372 35.2167C122.087 35.3941 121.758 35.5213 121.385 35.5984C121.011 35.6794 120.617 35.7199 120.203 35.7199C120.065 35.7199 119.894 35.7083 119.691 35.6852C119.488 35.6659 119.281 35.6351 119.07 35.5927C118.859 35.5541 118.658 35.5059 118.467 35.4481C118.28 35.3864 118.13 35.3189 118.016 35.2456Z" fill="#0B5959"/>
<path d="M133.008 35.5811H128.476V27.2872H129.499V34.702H133.008V35.5811Z" fill="#0B5959"/>
<path d="M136.224 27.2872V28.1201H135.371V34.7482H136.224V35.5811H133.495V34.7482H134.348V28.1201H133.495V27.2872H136.224Z" fill="#0B5959"/>
<path d="M143.754 35.5811H142.328L138.953 31.787C138.827 31.6443 138.75 31.5479 138.722 31.4978H138.698V35.5811H137.674V27.2872H138.698V31.1855H138.722C138.779 31.1006 138.856 31.0062 138.953 30.9021L142.219 27.2872H143.492L139.745 31.2664L143.754 35.5811Z" fill="#0B5959"/>
<path d="M149.541 35.5811H144.911V27.2872H149.346V28.1664H145.935V30.9252H149.09V31.7985H145.935V34.702H149.541V35.5811Z" fill="#0B5959"/>
<path d="M161.408 35.5811H160.275L159.349 33.256H155.645L154.774 35.5811H153.635L156.985 27.2872H158.045L161.408 35.5811ZM159.014 32.3827L157.643 28.8488C157.598 28.7332 157.554 28.5481 157.509 28.2936H157.484C157.444 28.5288 157.397 28.7139 157.344 28.8488L155.986 32.3827H159.014Z" fill="#0B5959"/>
<path d="M172.692 35.5811H171.668V31.7985H167.148V35.5811H166.125V27.2872H167.148V30.9252H171.668V27.2872H172.692V35.5811Z" fill="#0B5959"/>
<path d="M178.503 35.7199C177.265 35.7199 176.272 35.3324 175.525 34.5574C174.781 33.7824 174.41 32.7741 174.41 31.5325C174.41 30.1984 174.789 29.1342 175.549 28.3399C176.308 27.5456 177.342 27.1484 178.65 27.1484C179.856 27.1484 180.826 27.534 181.561 28.3052C182.301 29.0763 182.67 30.0846 182.67 31.3301C182.67 32.6835 182.292 33.7534 181.537 34.54C180.782 35.3266 179.771 35.7199 178.503 35.7199ZM178.577 28.0276C177.659 28.0276 176.913 28.3418 176.341 28.9703C175.768 29.5988 175.482 30.4239 175.482 31.4457C175.482 32.4675 175.76 33.2907 176.316 33.9154C176.877 34.5362 177.606 34.8466 178.503 34.8466C179.462 34.8466 180.217 34.5497 180.77 33.9559C181.322 33.3621 181.598 32.5311 181.598 31.4631C181.598 30.368 181.33 29.5217 180.794 28.924C180.258 28.3264 179.519 28.0276 178.577 28.0276Z" fill="#0B5959"/>
<path d="M193.294 35.5811H192.277V30.0172C192.277 29.5776 192.305 29.0397 192.362 28.4035H192.338C192.24 28.7775 192.153 29.0455 192.076 29.2074L189.091 35.5811H188.591L185.613 29.2537C185.527 29.0686 185.44 28.7852 185.351 28.4035H185.326C185.359 28.7351 185.375 29.2768 185.375 30.0287V35.5811H184.388V27.2872H185.74L188.421 33.071C188.628 33.5144 188.762 33.846 188.823 34.0658H188.859C189.034 33.6108 189.174 33.2715 189.28 33.0478L192.015 27.2872H193.294V35.5811Z" fill="#0B5959"/>
<path d="M200.227 35.5811H195.597V27.2872H200.032V28.1664H196.62V30.9252H199.776V31.7985H196.62V34.702H200.227V35.5811Z" fill="#0B5959"/>
<path d="M89.2295 12.1544C89.2295 13.7926 89.5826 15.0667 90.2886 15.9768C90.9947 16.8802 91.9819 17.3318 93.2503 17.3318C94.5317 17.3318 95.5287 16.8802 96.2414 15.9768C96.954 15.0667 97.3103 13.7926 97.3103 12.1544C97.3103 10.5162 96.954 9.24545 96.2414 8.3421C95.5287 7.432 94.5317 6.97695 93.2503 6.97695C91.9819 6.97695 90.9947 7.42863 90.2886 8.33199C89.5826 9.23534 89.2295 10.5095 89.2295 12.1544ZM86.1992 12.1544C86.1992 9.74769 86.8334 7.83986 88.1017 6.43089C89.3766 5.01519 91.0928 4.30733 93.2503 4.30733C95.4078 4.30733 97.124 5.01519 98.3988 6.43089C99.6803 7.8466 100.321 9.75443 100.321 12.1544C100.321 14.5544 99.6803 16.4622 98.3988 17.8779C97.124 19.2936 95.4078 20.0015 93.2503 20.0015C91.0928 20.0015 89.3766 19.2936 88.1017 17.8779C86.8334 16.4622 86.1992 14.5544 86.1992 12.1544Z" fill="#0B2239"/>
<path d="M102.675 19.5869V4.6916H105.646V16.8363H112.697V19.5869H102.675Z" fill="#0B2239"/>
<path d="M114.325 19.5869V4.6916H124.808V7.28032H117.257V10.4555H124.161V13.0038H117.257V16.8363H125.162V19.5869H114.325Z" fill="#0B2239"/>
<path d="M136.126 11.2038H139.617C140.375 11.2038 140.931 11.0454 141.284 10.7286C141.643 10.4117 141.823 9.91286 141.823 9.23197C141.823 8.58479 141.65 8.09604 141.303 7.7657C140.957 7.42863 140.44 7.26009 139.754 7.26009H136.126V11.2038ZM133.154 19.5869V4.6916H140.156C141.732 4.6916 142.899 5.03878 143.657 5.73315C144.416 6.42752 144.795 7.4893 144.795 8.91849C144.795 9.82859 144.608 10.587 144.236 11.1937C143.87 11.8005 143.34 12.2151 142.647 12.4375C143.275 12.6667 143.719 13.0173 143.981 13.4892C144.249 13.9611 144.402 14.6959 144.442 15.6937L144.5 17.4532C144.5 17.4667 144.5 17.4869 144.5 17.5139C144.52 18.4037 144.706 18.943 145.059 19.1318V19.5869H141.804C141.699 19.3779 141.617 19.1217 141.558 18.8183C141.506 18.5082 141.473 18.1408 141.46 17.7161L141.421 16.1487C141.388 15.2251 141.218 14.6015 140.911 14.278C140.61 13.9544 140.065 13.7926 139.273 13.7926H136.126V19.5869H133.154Z" fill="#0B2239"/>
<path d="M149.894 12.1544C149.894 13.7926 150.247 15.0667 150.953 15.9768C151.659 16.8802 152.647 17.3318 153.915 17.3318C155.196 17.3318 156.193 16.8802 156.906 15.9768C157.619 15.0667 157.975 13.7926 157.975 12.1544C157.975 10.5162 157.619 9.24545 156.906 8.3421C156.193 7.432 155.196 6.97695 153.915 6.97695C152.647 6.97695 151.659 7.42863 150.953 8.33199C150.247 9.23534 149.894 10.5095 149.894 12.1544ZM146.864 12.1544C146.864 9.74769 147.498 7.83986 148.766 6.43089C150.041 5.01519 151.758 4.30733 153.915 4.30733C156.072 4.30733 157.789 5.01519 159.064 6.43089C160.345 7.8466 160.986 9.75443 160.986 12.1544C160.986 14.5544 160.345 16.4622 159.064 17.8779C157.789 19.2936 156.072 20.0015 153.915 20.0015C151.758 20.0015 150.041 19.2936 148.766 17.8779C147.498 16.4622 146.864 14.5544 146.864 12.1544Z" fill="#0B2239"/>
<path d="M165.742 12.1544C165.742 13.7926 166.095 15.0667 166.801 15.9768C167.507 16.8802 168.494 17.3318 169.763 17.3318C171.044 17.3318 172.041 16.8802 172.754 15.9768C173.466 15.0667 173.823 13.7926 173.823 12.1544C173.823 10.5162 173.466 9.24545 172.754 8.3421C172.041 7.432 171.044 6.97695 169.763 6.97695C168.494 6.97695 167.507 7.42863 166.801 8.33199C166.095 9.23534 165.742 10.5095 165.742 12.1544ZM162.712 12.1544C162.712 9.74769 163.346 7.83986 164.614 6.43089C165.889 5.01519 167.605 4.30733 169.763 4.30733C171.92 4.30733 173.636 5.01519 174.911 6.43089C176.193 7.8466 176.833 9.75443 176.833 12.1544C176.833 14.5544 176.193 16.4622 174.911 17.8779C173.636 19.2936 171.92 20.0015 169.763 20.0015C167.605 20.0015 165.889 19.2936 164.614 17.8779C163.346 16.4622 162.712 14.5544 162.712 12.1544Z" fill="#0B2239"/>
<path d="M179.187 19.5869V4.6916H183.58L186.454 16.0274L189.288 4.6916H193.701V19.5869H190.916V7.57357L187.984 19.5869H184.944L181.972 7.57357V19.5869H179.187Z" fill="#0B2239"/>
<path d="M196.035 14.9858H198.967C199.078 15.8015 199.402 16.4083 199.938 16.806C200.474 17.197 201.249 17.3925 202.262 17.3925C203.125 17.3925 203.776 17.2341 204.214 16.9172C204.652 16.6004 204.871 16.1319 204.871 15.5116C204.871 14.6083 203.612 13.86 201.095 13.2667L201.007 13.2465C200.942 13.233 200.84 13.2094 200.703 13.1757C199.356 12.8724 198.395 12.5319 197.82 12.1544C197.31 11.8173 196.921 11.3656 196.653 10.7994C196.385 10.2263 196.251 9.55219 196.251 8.77692C196.251 7.32751 196.728 6.21854 197.683 5.45001C198.637 4.67474 200.017 4.28711 201.821 4.28711C203.508 4.28711 204.825 4.69834 205.773 5.5208C206.728 6.34326 207.231 7.50279 207.283 8.99939H204.43C204.377 8.27805 204.109 7.72863 203.626 7.3511C203.142 6.97358 202.452 6.78482 201.556 6.78482C200.778 6.78482 200.177 6.94325 199.752 7.26009C199.333 7.5702 199.124 8.01514 199.124 8.5949C199.124 9.38365 199.945 9.97353 201.586 10.3645C202.03 10.4724 202.377 10.5567 202.625 10.6173C203.678 10.8937 204.423 11.1095 204.861 11.2645C205.306 11.4196 205.691 11.5915 206.018 11.7802C206.607 12.1173 207.048 12.5656 207.342 13.1252C207.637 13.678 207.784 14.342 207.784 15.1173C207.784 16.6678 207.277 17.8712 206.264 18.7273C205.25 19.5767 203.822 20.0015 201.978 20.0015C200.16 20.0015 198.735 19.5666 197.702 18.697C196.669 17.8273 196.114 16.5903 196.035 14.9858Z" fill="#0B2239"/>
<path d="M26.8768 23.2559H34.2936C34.2936 31.933 27.0779 39.0347 17.1217 39.0347C7.16546 39.0347 0 32.0271 0 23.3499V23.2559H7.44202C7.44202 28.4998 11.4899 32.8501 17.1971 32.8501C22.9295 32.8501 26.8768 28.5703 26.8768 23.3499V23.2559Z" fill="#0B2239"/>
<path d="M10.3832 16.5313H0.351562L17.8252 0L22.8285 4.75011L17.8252 0.0235133L12.7968 4.75011L17.8252 9.50022L10.3832 16.5313Z" fill="#BC1C24"/>
<path d="M17.8253 0.0253906L22.8285 4.75199L35.2738 16.5332H25.2421L17.8253 9.5021L12.7969 4.75199L17.8253 0.0253906Z" fill="#CB281A"/>
<path d="M47.5907 16.7417H40.1738C40.1738 8.06454 47.3896 0.962891 57.3458 0.962891C67.302 0.962891 74.4675 7.97048 74.4675 16.6477V16.7417H67.0254C67.0254 11.4978 62.9776 7.14744 57.2704 7.14744C51.538 7.14744 47.5907 11.4272 47.5907 16.6477V16.7417Z" fill="#0B2239"/>
<path d="M64.0879 23.4688H74.1195L56.6458 40.0001L51.6426 35.25L56.6458 39.9766L61.6742 35.2265L56.6458 30.4999L64.0879 23.4688Z" fill="#0B2239"/>
<path d="M56.6458 39.9766L51.6425 35.25L39.1973 23.4688H49.2289L56.6458 30.4999L61.6742 35.2265L56.6458 39.9766Z" fill="#53D687"/>
<path d="M17.1197 19.7497H14.7051V17.4688H17.1197V19.7497Z" fill="#0B2239"/>
<path d="M20.2896 19.7497H17.875V17.4688H20.2896V19.7497Z" fill="#0B2239"/>
<path d="M17.1197 22.9743H14.7051V20.6934H17.1197V22.9743Z" fill="#0B2239"/>
<path d="M20.2896 22.9743H17.875V20.6934H20.2896V22.9743Z" fill="#0B2239"/>
<path d="M57.2725 21.1179C59.397 21.1179 61.1192 19.486 61.1192 17.473C61.1192 15.46 59.397 13.8281 57.2725 13.8281C55.148 13.8281 53.4258 15.46 53.4258 17.473C53.4258 19.486 55.148 21.1179 57.2725 21.1179Z" fill="#0B2239"/>
</svg>
