<svg width="18" height="18" viewBox="0 0 18 18" fill="none" xmlns="http://www.w3.org/2000/svg">
<path d="M9 0.5625C7.33122 0.5625 5.69992 1.05735 4.31238 1.98448C2.92484 2.9116 1.84338 4.22936 1.20477 5.77111C0.566156 7.31286 0.399065 9.00936 0.724628 10.6461C1.05019 12.2828 1.85378 13.7862 3.03379 14.9662C4.2138 16.1462 5.71721 16.9498 7.35393 17.2754C8.99064 17.6009 10.6871 17.4338 12.2289 16.7952C13.7706 16.1566 15.0884 15.0752 16.0155 13.6876C16.9427 12.3001 17.4375 10.6688 17.4375 9C17.4375 7.89197 17.2193 6.79479 16.7952 5.77111C16.3712 4.74742 15.7497 3.81728 14.9662 3.03379C14.1827 2.25029 13.2526 1.62879 12.2289 1.20477C11.2052 0.780742 10.108 0.5625 9 0.5625V0.5625ZM10.6875 6.52688H11.0918C11.2409 6.52688 11.384 6.58614 11.4895 6.69163C11.595 6.79712 11.6543 6.94019 11.6543 7.08938C11.6543 7.23856 11.595 7.38163 11.4895 7.48712C11.384 7.59261 11.2409 7.65188 11.0918 7.65188H10.824C10.7602 8.31158 10.4532 8.92394 9.96283 9.36978C9.47242 9.81563 8.83366 10.063 8.17088 10.0639H7.992L10.1325 12.3206C10.1854 12.3738 10.2271 12.437 10.2551 12.5065C10.2832 12.576 10.2971 12.6505 10.296 12.7254C10.2949 12.8004 10.2788 12.8744 10.2487 12.9431C10.2186 13.0117 10.1751 13.0737 10.1207 13.1253C10.0663 13.1769 10.0021 13.2171 9.93195 13.2435C9.86179 13.27 9.78705 13.2821 9.71213 13.2793C9.63721 13.2764 9.56361 13.2586 9.49567 13.2269C9.42773 13.1952 9.36681 13.1502 9.3165 13.0946L6.27525 9.88837C6.1996 9.80858 6.149 9.70836 6.1297 9.60011C6.1104 9.49186 6.12325 9.38033 6.16666 9.2793C6.21007 9.17828 6.28214 9.09219 6.37395 9.03169C6.46576 8.97118 6.5733 8.93892 6.68325 8.93887H8.17088C8.53478 8.93804 8.88663 8.80831 9.16397 8.5727C9.44131 8.3371 9.62622 8.01086 9.68588 7.65188H6.70838C6.55919 7.65188 6.41612 7.59261 6.31063 7.48712C6.20514 7.38163 6.14588 7.23856 6.14588 7.08938C6.14588 6.94019 6.20514 6.79712 6.31063 6.69163C6.41612 6.58614 6.55919 6.52688 6.70838 6.52688H9.44138C9.30021 6.32066 9.1109 6.15196 8.88985 6.03539C8.6688 5.91882 8.42266 5.85789 8.17275 5.85788H6.68513C6.53594 5.85788 6.39287 5.79861 6.28738 5.69312C6.18189 5.58763 6.12263 5.44456 6.12263 5.29538C6.12263 5.14619 6.18189 5.00312 6.28738 4.89763C6.39287 4.79214 6.53594 4.73288 6.68513 4.73288H8.17275C8.19375 4.73288 8.21363 4.7355 8.23425 4.73587H11.0936C11.2428 4.73587 11.3859 4.79514 11.4914 4.90063C11.5969 5.00612 11.6561 5.14919 11.6561 5.29837C11.6561 5.44756 11.5969 5.59063 11.4914 5.69612C11.3859 5.80161 11.2428 5.86087 11.0936 5.86087H10.3466C10.4917 6.0656 10.6071 6.28982 10.6894 6.52688H10.6875Z" fill="#FF5656"/>
</svg>
