<svg width="20" height="20" viewBox="0 0 20 20" fill="none" xmlns="http://www.w3.org/2000/svg">
<g clip-path="url(#clip0_1894_187)">
<path d="M13.7483 0C12.6821 0.0737495 11.4359 0.756245 10.7096 1.64499C10.0471 2.45123 9.50212 3.64873 9.71462 4.81247C10.8796 4.84872 12.0834 4.14997 12.7809 3.24623C13.4334 2.40498 13.9271 1.21499 13.7483 0Z" fill="#0B2239"/>
<path d="M17.9634 6.70989C16.9397 5.42615 15.5009 4.68115 14.1422 4.68115C12.3485 4.68115 11.5897 5.5399 10.3435 5.5399C9.05847 5.5399 8.08223 4.68365 6.53099 4.68365C5.00725 4.68365 3.38476 5.6149 2.35601 7.20739C0.909769 9.44987 1.15727 13.6661 3.501 17.2573C4.33975 18.5423 5.45974 19.9873 6.92474 19.9998C8.22848 20.0123 8.59598 19.1636 10.3622 19.1548C12.1285 19.1448 12.4635 20.0111 13.7647 19.9973C15.2309 19.9861 16.4122 18.3848 17.2509 17.0998C17.8522 16.1786 18.0759 15.7148 18.5422 14.6748C15.1509 13.3836 14.6072 8.56113 17.9634 6.70989Z" fill="#0B2239"/>
</g>
<defs>
<clipPath id="clip0_1894_187">
<rect width="20" height="20" fill="white"/>
</clipPath>
</defs>
</svg>
