<svg width="24" height="24" viewBox="0 0 24 24" fill="none" xmlns="http://www.w3.org/2000/svg">
<path d="M21.1406 10.8883V0.703125C21.1406 0.314812 20.8258 0 20.4375 0C20.0492 0 19.7344 0.314812 19.7344 0.703125V1.5038C17.2992 0.517734 14.6474 0 12 0C9.35255 0 6.70078 0.517734 4.26562 1.5038V0.703125C4.26562 0.314812 3.95081 0 3.5625 0C3.17419 0 2.85938 0.314812 2.85938 0.703125V10.8883C1.80619 11.0054 0.984375 11.9005 0.984375 12.9844V20.4844C0.984375 20.8727 1.29919 21.1875 1.6875 21.1875H2.39062V23.2969C2.39062 23.6852 2.70544 24 3.09375 24H5.4375C5.74017 24 6.00881 23.8063 6.10453 23.5192L6.88181 21.1875H17.1182L17.8955 23.5192C17.9912 23.8063 18.2599 24 18.5625 24H20.9062C21.2946 24 21.6094 23.6852 21.6094 23.2969V21.1875H22.3125C22.7008 21.1875 23.0156 20.8727 23.0156 20.4844V12.9844C23.0156 11.9005 22.1938 11.0054 21.1406 10.8883ZM4.26562 3.03028C6.67542 1.96678 9.3397 1.40625 12 1.40625C14.6603 1.40625 17.3246 1.96678 19.7344 3.03028V10.875H17.8594V9.70312C17.8594 8.28155 16.7028 7.125 15.2812 7.125H8.71875C7.29717 7.125 6.14062 8.28155 6.14062 9.70312V10.875H4.26562V3.03028ZM16.4531 9.70312V10.875H7.54688V9.70312C7.54688 9.05695 8.07258 8.53125 8.71875 8.53125H15.2812C15.9274 8.53125 16.4531 9.05695 16.4531 9.70312ZM4.93069 22.5938H3.79688V21.1875H5.39944L4.93069 22.5938ZM20.2031 22.5938H19.0693L18.6006 21.1875H20.2031V22.5938ZM21.6094 19.7812H2.39062V18.375H21.6094V19.7812ZM21.6094 16.9688H2.39062V12.9844C2.39062 12.5967 2.70605 12.2812 3.09375 12.2812H20.9062C21.294 12.2812 21.6094 12.5967 21.6094 12.9844V16.9688Z" fill="#67788A"/>
</svg>
