<svg width="22" height="22" viewBox="0 0 22 22" fill="none" xmlns="http://www.w3.org/2000/svg">
<path d="M12.1969 0.703125C8.88301 0.703125 5.95 2.35747 4.17465 4.88205C4.54207 5.12175 4.90022 5.45045 5.24661 5.87302C6.57107 3.89262 8.71258 2.50317 11.1903 2.20448L12.1968 3.90758L13.2032 2.20445C17.0119 2.66346 20.0394 5.69076 20.4986 9.49946L18.7952 10.506L20.4986 11.5126C20.1917 14.059 18.7333 16.2513 16.6644 17.5652C16.7962 17.8656 16.8704 18.1728 16.8836 18.4895C16.8932 18.7209 16.8694 18.9396 16.8214 19.1472C19.901 17.4925 22 14.2403 22 10.5062C22 5.10064 17.6025 0.703125 12.1969 0.703125ZM14.6986 16.8479C12.4387 15.0317 11.8068 15.9244 10.7814 16.9497C10.0655 17.6658 8.25399 16.1704 6.6898 14.6061C5.1255 13.0416 3.6304 11.2304 4.34619 10.5144C5.37164 9.48914 6.26415 8.85686 4.44746 6.59761C2.63138 4.33755 1.42073 6.07267 0.427459 7.06601C-0.719273 8.21235 0.367032 12.4843 4.58909 16.707C8.81172 20.9291 13.0836 22.0147 14.2297 20.8688C15.2228 19.8754 16.9584 18.6649 14.6986 16.8479ZM7.81597 12.0403C7.81597 10.0316 10.1677 9.67373 10.1677 8.88986C10.1677 8.50949 9.86319 8.34981 9.58158 8.34981C9.06404 8.34981 8.77513 8.92796 8.77513 8.92796L7.78581 8.26598C7.78581 8.26598 8.28811 7.09409 9.70348 7.09409C10.5938 7.09409 11.5602 7.60401 11.5602 8.76062C11.5602 10.4576 9.36852 10.785 9.33041 11.4851H11.644V12.6264H7.87698C7.83883 12.4134 7.81597 12.2233 7.81597 12.0403ZM12.2003 10.5034L14.3009 7.18525H15.9294V10.2065H16.5761V11.3098H15.9294V12.6265H14.6127V11.3098H12.2004V10.5034H12.2003ZM14.6126 10.2065V8.98893C14.6126 8.69207 14.6584 8.37997 14.6584 8.37997H14.6431C14.6431 8.37997 14.5291 8.71494 14.3768 8.94324L13.5551 10.1913V10.2066L14.6126 10.2065Z" fill="url(#paint0_linear_1938_16804)"/>
<defs>
<linearGradient id="paint0_linear_1938_16804" x1="0" y1="10.9995" x2="22" y2="10.9995" gradientUnits="userSpaceOnUse">
<stop stop-color="#EB3349"/>
<stop offset="1" stop-color="#F45C43"/>
</linearGradient>
</defs>
</svg>
