<svg width="100" height="100" viewBox="0 0 100 100" fill="none" xmlns="http://www.w3.org/2000/svg">
<path d="M81.25 100H18.75C8.39386 100 0 91.6061 0 81.25V18.75C0 8.39386 8.39386 0 18.75 0H81.25C91.6061 0 100 8.39386 100 18.75V81.25C100 91.6061 91.6061 100 81.25 100Z" fill="#FFE6E2"/>
<path d="M66.9404 61.0512L38.9504 33.0612C37.7282 31.839 35.7499 31.839 34.5314 33.0612L33.0597 34.5329C31.8375 35.7544 31.8375 37.7327 33.0597 38.9519L61.0497 66.9418C62.2719 68.164 64.2502 68.164 65.4686 66.9418L66.9404 65.4701C68.1626 64.2486 68.1626 62.2703 66.9404 61.0512Z" fill="#FF5043"/>
<path d="M61.0497 33.0612L33.0597 61.0512C31.8375 62.2734 31.8375 64.2517 33.0597 65.4701L34.5314 66.9418C35.7529 68.164 37.7312 68.164 38.9504 66.9418L66.9404 38.9519C68.1626 37.7296 68.1626 35.7513 66.9404 34.5329L65.4686 33.0612C64.2472 31.839 62.2689 31.839 61.0497 33.0612Z" fill="#FF5043"/>
</svg>
