<svg width="70" height="70" viewBox="0 0 70 70" fill="none" xmlns="http://www.w3.org/2000/svg">
<path d="M50.4716 23.8943C51.5398 24.9624 51.5398 26.6938 50.4716 27.7614L32.1278 46.1057C31.0597 47.1733 29.3288 47.1733 28.2607 46.1057L19.5284 37.3728C18.4602 36.3052 18.4602 34.5738 19.5284 33.5062C20.5959 32.4381 22.3273 32.4381 23.3949 33.5062L30.194 40.3053L46.6045 23.8943C47.6727 22.8267 49.4041 22.8267 50.4716 23.8943ZM70 35C70 54.3462 54.3436 70 35 70C15.6538 70 0 54.3436 0 35C0 15.6538 15.6564 0 35 0C54.3462 0 70 15.6564 70 35ZM64.5312 35C64.5312 18.6765 51.3213 5.46875 35 5.46875C18.6765 5.46875 5.46875 18.6787 5.46875 35C5.46875 51.3235 18.6787 64.5312 35 64.5312C51.3235 64.5312 64.5312 51.3213 64.5312 35Z" fill="#53D687"/>
</svg>
