<svg width="34" height="30" viewBox="0 0 34 30" fill="none" xmlns="http://www.w3.org/2000/svg">
<path d="M3.66683 0H30.3335L33.6668 6.66667V28.3333C33.6668 28.7754 33.4912 29.1993 33.1787 29.5118C32.8661 29.8244 32.4422 30 32.0002 30H2.00016C1.55814 30 1.13421 29.8244 0.821651 29.5118C0.509091 29.1993 0.333496 28.7754 0.333496 28.3333V6.67333L3.66683 0ZM30.3335 10H3.66683V26.6667H30.3335V10ZM29.9402 6.66667L28.2735 3.33333H5.7285L4.06183 6.66667H29.9402ZM18.6668 18.3333H23.6668L17.0002 25L10.3335 18.3333H15.3335V11.6667H18.6668V18.3333Z" fill="#67788A"/>
</svg>
