<svg width="112" height="24" viewBox="0 0 112 24" fill="none" xmlns="http://www.w3.org/2000/svg">
<g clip-path="url(#clip0_1766_12435)">
<path d="M36.4523 19.4837C35.8891 19.515 35.332 19.3508 34.8709 19.0174C34.6783 18.8709 34.5233 18.6784 34.4193 18.4568C34.3153 18.235 34.2656 17.9907 34.2743 17.7448V8.73966C34.2698 8.70158 34.2736 8.66282 34.2859 8.62649C34.298 8.59015 34.3181 8.55722 34.3446 8.53002C34.3711 8.50282 34.4032 8.48223 34.4386 8.46979C34.474 8.45726 34.5118 8.45328 34.5489 8.45794H36.1398C36.3198 8.45794 36.405 8.55509 36.405 8.73966V17.0454C36.405 17.4145 36.566 17.5991 36.8974 17.5991C37.0379 17.605 37.1785 17.5887 37.3141 17.5505C37.5035 17.5505 37.6076 17.6088 37.6171 17.7837L37.7592 18.9979C37.766 19.0334 37.7653 19.0698 37.7573 19.105C37.7492 19.1401 37.7339 19.1731 37.7123 19.2016C37.6908 19.2301 37.6635 19.2536 37.6324 19.2704C37.6013 19.2872 37.567 19.297 37.5319 19.2991C37.1834 19.4172 36.8193 19.4795 36.4523 19.4837Z" fill="#0B2239"/>
<path d="M45.4016 18.4457C44.6023 19.1232 43.5977 19.4938 42.5607 19.4938C41.5238 19.4938 40.5193 19.1232 39.7198 18.4457C39.0173 17.7181 38.623 16.7353 38.623 15.7111C38.623 14.6869 39.0173 13.7041 39.7198 12.9765C40.5208 12.3024 41.5248 11.9341 42.5607 11.9341C43.5967 11.9341 44.6007 12.3024 45.4016 12.9765C46.0881 13.7108 46.4713 14.6889 46.4713 15.7062C46.4713 16.7236 46.0881 17.7016 45.4016 18.436V18.4457ZM41.216 17.1634C41.5871 17.5081 42.0696 17.699 42.5702 17.699C43.0708 17.699 43.5534 17.5081 43.9244 17.1634C44.2602 16.7674 44.445 16.2602 44.445 15.7354C44.445 15.2106 44.2602 14.7034 43.9244 14.3074C43.5534 13.9627 43.0708 13.7717 42.5702 13.7717C42.0696 13.7717 41.5871 13.9627 41.216 14.3074C40.8803 14.7034 40.6954 15.2106 40.6954 15.7354C40.6954 16.2602 40.8803 16.7674 41.216 17.1634Z" fill="#0B2239"/>
<path d="M55.2319 12.1799C55.4118 12.1799 55.497 12.2771 55.497 12.4617V19.4268C55.5136 19.897 55.4278 20.3649 55.246 20.7967C55.0642 21.2286 54.7909 21.6135 54.4459 21.9234C53.6802 22.5932 52.6955 22.9403 51.6902 22.8948C50.7823 22.9275 49.8863 22.6732 49.1239 22.1662C48.7984 21.947 48.5202 21.6613 48.3069 21.3271C48.0934 20.9928 47.9493 20.6172 47.8834 20.2234C47.8834 20.0291 47.8834 19.9417 48.1391 19.9417H49.73C49.7975 19.944 49.863 19.9664 49.9184 20.0061C49.9739 20.0457 50.017 20.1009 50.0425 20.1651C50.1457 20.4601 50.3514 20.7058 50.6201 20.8548C50.9477 21.0282 51.3123 21.115 51.6807 21.1074C51.9031 21.1199 52.1256 21.0868 52.3354 21.01C52.5451 20.9334 52.7379 20.8145 52.9023 20.6605C53.0526 20.4995 53.1695 20.3088 53.246 20.1001C53.3225 19.8914 53.357 19.669 53.3474 19.4462V18.8342C52.7778 19.264 52.0845 19.4863 51.3777 19.4657C50.883 19.4841 50.3898 19.3999 49.9276 19.2179C49.4655 19.0359 49.044 18.7601 48.6883 18.4068C48.0057 17.6823 47.624 16.714 47.624 15.7062C47.624 14.6986 48.0057 13.7302 48.6883 13.0057C49.0457 12.6556 49.4678 12.3824 49.9296 12.2022C50.3915 12.022 50.8839 11.9384 51.3777 11.9565C52.105 11.9368 52.8169 12.1734 53.3948 12.6268V12.4714C53.3904 12.4342 53.3942 12.3964 53.4058 12.3608C53.4175 12.3254 53.4367 12.2929 53.4621 12.2659C53.4875 12.2389 53.5184 12.2181 53.5526 12.2049C53.5869 12.1917 53.6236 12.1865 53.6599 12.1897L55.2319 12.1799ZM51.5576 17.7365C51.8016 17.7443 52.0443 17.697 52.2684 17.5979C52.4926 17.4989 52.6929 17.3506 52.855 17.1634C53.1699 16.7463 53.3407 16.2337 53.3407 15.7062C53.3407 15.1787 53.1699 14.6662 52.855 14.2491C52.6934 14.0645 52.4944 13.9183 52.2719 13.821C52.0494 13.7236 51.8089 13.6775 51.5671 13.6857C51.3203 13.6777 51.0749 13.7248 50.8476 13.8238C50.6203 13.9228 50.4167 14.0712 50.2508 14.2588C49.9021 14.6578 49.7186 15.1805 49.7395 15.7159C49.7224 16.2461 49.9018 16.7633 50.2414 17.1634C50.4076 17.3505 50.6113 17.4986 50.8385 17.5975C51.0657 17.6964 51.311 17.7438 51.5576 17.7365Z" fill="#0B2239"/>
<path d="M63.6684 18.4428C62.8674 19.1169 61.8635 19.4853 60.8275 19.4853C59.7915 19.4853 58.7875 19.1169 57.9866 18.4428C57.2995 17.7069 56.916 16.7273 56.916 15.7083C56.916 14.6893 57.2995 13.7097 57.9866 12.9737C58.7883 12.3014 59.792 11.9341 60.8275 11.9341C61.863 11.9341 62.8667 12.3014 63.6684 12.9737C64.3548 13.708 64.7381 14.686 64.7381 15.7034C64.7381 16.7208 64.3548 17.6988 63.6684 18.4331V18.4428ZM59.4733 17.1606C59.6548 17.3377 59.8689 17.4762 60.1029 17.5679C60.337 17.6596 60.5865 17.7028 60.8369 17.6948C61.0858 17.7015 61.3335 17.6577 61.5659 17.566C61.7983 17.4743 62.0107 17.3366 62.1911 17.1606C62.5214 16.7619 62.7028 16.2558 62.7028 15.7326C62.7028 15.2094 62.5214 14.7032 62.1911 14.3046C62.0107 14.1286 61.7983 13.9908 61.5659 13.8992C61.3335 13.8075 61.0858 13.7637 60.8369 13.7703C60.5865 13.7624 60.337 13.8055 60.1029 13.8972C59.8689 13.9889 59.6548 14.1275 59.4733 14.3046C59.1431 14.7032 58.9618 15.2094 58.9618 15.7326C58.9618 16.2558 59.1431 16.7619 59.4733 17.1606Z" fill="#0B2239"/>
<path d="M68.1554 10.5271C67.9051 10.7519 67.5837 10.8757 67.251 10.8757C66.9184 10.8757 66.5971 10.7519 66.3467 10.5271C66.2332 10.4172 66.1428 10.2847 66.081 10.1377C66.0192 9.99074 65.9873 9.8323 65.9873 9.6722C65.9873 9.51211 66.0192 9.35377 66.081 9.2067C66.1428 9.05972 66.2332 8.92722 66.3467 8.81735C66.5996 8.59819 66.92 8.47803 67.251 8.47803C67.5821 8.47803 67.9025 8.59819 68.1554 8.81735C68.2689 8.92722 68.3594 9.05972 68.4211 9.2067C68.4829 9.35377 68.5148 9.51211 68.5148 9.6722C68.5148 9.8323 68.4829 9.99074 68.4211 10.1377C68.3594 10.2847 68.2689 10.4172 68.1554 10.5271ZM68.3543 19.4836C67.7914 19.512 67.2352 19.348 66.7728 19.0173C66.5831 18.8687 66.4308 18.6756 66.3287 18.4542C66.2265 18.2328 66.1775 17.9896 66.1857 17.7448V12.4602C66.1812 12.4221 66.185 12.3834 66.1973 12.347C66.2094 12.3107 66.2294 12.2778 66.256 12.2506C66.2825 12.2234 66.3146 12.2028 66.35 12.1903C66.3854 12.1778 66.4232 12.1738 66.4603 12.1785H68.0512C68.2311 12.1785 68.3164 12.2756 68.3164 12.4602V17.0453C68.3164 17.4145 68.4774 17.5991 68.7993 17.5991C68.943 17.6044 69.0865 17.588 69.2255 17.5505C69.4149 17.5505 69.519 17.6088 69.5285 17.7836L69.6705 18.9979C69.6774 19.0334 69.6767 19.0698 69.6686 19.105C69.6606 19.14 69.6453 19.1731 69.6237 19.2015C69.6022 19.2301 69.5749 19.2536 69.5438 19.2704C69.5127 19.2872 69.4784 19.297 69.4433 19.2991C69.0918 19.4179 68.7244 19.4801 68.3543 19.4836Z" fill="#0B2239"/>
<path d="M75.5258 11.9474C76.0227 11.9273 76.5185 12.0098 76.9837 12.19C77.449 12.3703 77.8743 12.6445 78.2341 12.9966C78.9038 13.7339 79.2761 14.7041 79.2761 15.7117C79.2761 16.7194 78.9038 17.6896 78.2341 18.4269C77.876 18.7821 77.4512 19.0591 76.9857 19.241C76.5202 19.4231 76.0236 19.5063 75.5258 19.4857C74.8167 19.5019 74.1217 19.2803 73.5466 18.8543V22.3611C73.5466 22.5457 73.4519 22.6331 73.272 22.6331H71.6811C71.6448 22.6401 71.6074 22.6379 71.5721 22.6267C71.5369 22.6155 71.5047 22.5956 71.4786 22.5688C71.4526 22.542 71.4332 22.5092 71.4223 22.473C71.4113 22.4368 71.4092 22.3984 71.4159 22.3611V14.3954C71.4271 14.3175 71.4203 14.2381 71.3962 14.1633C71.3721 14.0886 71.3312 14.0206 71.2769 13.9649C71.2226 13.9092 71.1565 13.8674 71.0835 13.8426C71.0107 13.8178 70.9332 13.8109 70.8572 13.8223H70.5447C70.3364 13.8223 70.2322 13.7446 70.2322 13.5891V12.4429C70.2273 12.3719 70.2462 12.3014 70.2859 12.2431C70.3255 12.1848 70.3834 12.1421 70.45 12.1223C70.7776 12.0002 71.1243 11.9409 71.4727 11.9474C71.8203 11.9159 72.169 11.9915 72.4744 12.1645C72.7797 12.3377 73.0279 12.6003 73.1868 12.9189C73.4918 12.6024 73.8565 12.353 74.2587 12.1859C74.6609 12.0189 75.0921 11.9377 75.5258 11.9474ZM74.0485 17.164C74.2173 17.3451 74.4202 17.4891 74.6448 17.5875C74.8694 17.686 75.1111 17.7367 75.3553 17.7367C75.5995 17.7367 75.8413 17.686 76.0658 17.5875C76.2905 17.4891 76.4933 17.3451 76.6621 17.164C77.0178 16.7571 77.2046 16.2239 77.183 15.6777C77.2078 15.1312 77.0205 14.5967 76.6621 14.1914C76.4933 14.0105 76.2905 13.8664 76.0658 13.768C75.8413 13.6695 75.5995 13.6188 75.3553 13.6188C75.1111 13.6188 74.8694 13.6695 74.6448 13.768C74.4202 13.8664 74.2173 14.0105 74.0485 14.1914C73.704 14.6039 73.5246 15.135 73.5466 15.6777C73.5274 16.2201 73.7065 16.7502 74.0485 17.164Z" fill="#0B2239"/>
<path d="M83.7431 19.4845C82.893 19.5204 82.0501 19.3118 81.3094 18.8822C81.0123 18.6986 80.7592 18.4487 80.569 18.151C80.3788 17.8534 80.2565 17.5156 80.2109 17.1628C80.2109 16.9685 80.2772 16.8714 80.4856 16.8714H81.8776C81.9438 16.8741 82.0081 16.8954 82.0632 16.9332C82.1183 16.9708 82.1623 17.0234 82.1901 17.0851C82.389 17.6097 82.9098 17.8719 83.7431 17.8719C84.0339 17.8856 84.3233 17.8255 84.5859 17.6971C84.6767 17.6551 84.7544 17.5887 84.8111 17.5048C84.8678 17.421 84.9013 17.3229 84.9079 17.2211C84.9079 16.9685 84.7564 16.7937 84.4534 16.6771C84.094 16.5544 83.7224 16.4729 83.3454 16.4342C82.8989 16.3823 82.4561 16.3012 82.0196 16.1914C81.5952 16.0929 81.2093 15.8661 80.9117 15.5405C80.7364 15.3192 80.6074 15.0632 80.5326 14.7886C80.4579 14.514 80.4391 14.2265 80.4772 13.9441C80.5155 13.6616 80.6099 13.3902 80.7547 13.1468C80.8995 12.9034 81.0915 12.6932 81.3189 12.5291C82.0015 12.0831 82.8023 11.8658 83.6106 11.9074C84.3931 11.8803 85.1674 12.0788 85.8454 12.4805C86.1187 12.6393 86.3539 12.8586 86.5341 13.1224C86.7143 13.3863 86.8349 13.688 86.8871 14.0057C86.8871 14.1999 86.8018 14.2971 86.6314 14.2971H85.2299C85.1709 14.3007 85.1122 14.2859 85.0615 14.2547C85.0108 14.2235 84.9705 14.1773 84.9458 14.1222C84.8521 13.8922 84.6758 13.7078 84.4534 13.6074C84.2024 13.4727 83.9221 13.4058 83.639 13.4131C83.3614 13.3976 83.0845 13.4545 82.834 13.5782C82.7458 13.6132 82.6698 13.6744 82.6158 13.7541C82.5618 13.8337 82.5322 13.9281 82.531 14.0251C82.5371 14.158 82.5845 14.2853 82.6663 14.3885C82.7481 14.4917 82.86 14.5651 82.9856 14.5982C83.3492 14.7389 83.7273 14.8366 84.1125 14.8897C84.5554 14.9495 84.9947 15.0338 85.4287 15.1422C85.8532 15.2408 86.2391 15.4675 86.5367 15.7931C86.696 15.9725 86.8189 16.1824 86.8985 16.4109C86.9782 16.6393 87.0129 16.8817 87.0007 17.1239C87.0089 17.4598 86.9321 17.792 86.7777 18.0883C86.6233 18.3845 86.3967 18.6346 86.12 18.8142C85.4125 19.2802 84.5835 19.5139 83.7431 19.4845Z" fill="#0B2239"/>
<path d="M97.0115 19.0001C97.0172 19.0346 97.0153 19.0698 97.0077 19.1037C96.9992 19.1377 96.985 19.1696 96.9642 19.1977C96.9443 19.2258 96.9187 19.2494 96.8893 19.2671C96.86 19.2849 96.8278 19.2965 96.7937 19.3012C96.4481 19.417 96.0873 19.4793 95.7236 19.4858C95.3638 19.5241 95.0001 19.4664 94.6687 19.3183C94.3363 19.1703 94.0475 18.9369 93.8297 18.6407C93.1611 19.2306 92.2956 19.5333 91.4149 19.4858C91.0058 19.5051 90.5977 19.4365 90.216 19.2842C89.8344 19.132 89.4878 18.8995 89.199 18.6018C88.9121 18.2899 88.6897 17.9217 88.5448 17.5194C88.4 17.1172 88.3359 16.6891 88.3562 16.2607V12.4624C88.3562 12.2778 88.4414 12.1807 88.6213 12.1807H90.2123C90.3922 12.1807 90.4774 12.2778 90.4774 12.4624V15.9692C90.4604 16.4062 90.6052 16.8334 90.8846 17.1641C91.0238 17.3156 91.1933 17.4347 91.3808 17.5135C91.5683 17.5923 91.771 17.6288 91.9736 17.6207C92.181 17.63 92.3884 17.5971 92.5835 17.5236C92.7785 17.4503 92.9575 17.338 93.11 17.1932C93.2539 17.0407 93.3666 16.8595 93.4395 16.6606C93.5134 16.4617 93.5456 16.2496 93.5361 16.0372V12.4624C93.5361 12.2778 93.6213 12.1807 93.8013 12.1807H95.4111C95.591 12.1807 95.6763 12.2778 95.6763 12.4624V17.0378C95.6763 17.4167 95.8373 17.6012 96.1498 17.6012C96.2965 17.6071 96.4433 17.5907 96.5854 17.5527C96.6214 17.5424 96.6592 17.5405 96.6952 17.5473C96.7321 17.554 96.7662 17.5692 96.7965 17.5916C96.8268 17.6141 96.8515 17.6432 96.8695 17.6768C96.8865 17.7104 96.896 17.7477 96.8979 17.7858L97.0115 19.0001Z" fill="#0B2239"/>
<path d="M112.059 18.9996C112.068 19.0344 112.069 19.0707 112.062 19.1059C112.054 19.141 112.04 19.1742 112.019 19.2029C111.999 19.2317 111.972 19.2554 111.941 19.2723C111.911 19.2893 111.876 19.299 111.841 19.3008C111.489 19.4182 111.123 19.4805 110.752 19.4853C110.189 19.5152 109.633 19.3511 109.171 19.0191C108.971 18.8768 108.809 18.6863 108.698 18.4644C108.588 18.2424 108.532 17.9958 108.536 17.7465V15.4636C108.556 15.028 108.414 14.6009 108.139 14.2688C108.006 14.1169 107.841 13.9973 107.659 13.9183C107.475 13.8394 107.277 13.8032 107.078 13.8122C106.899 13.8053 106.721 13.8402 106.556 13.9142C106.393 13.9882 106.248 14.0995 106.131 14.2396C105.881 14.5652 105.753 14.972 105.771 15.3859V18.9705C105.771 19.1551 105.686 19.2522 105.506 19.2522H103.906C103.869 19.257 103.831 19.2529 103.796 19.2404C103.76 19.2279 103.728 19.2073 103.701 19.1801C103.675 19.153 103.655 19.12 103.643 19.0837C103.63 19.0473 103.626 19.0087 103.631 18.9705V15.4636C103.652 15.0328 103.52 14.6087 103.262 14.2688C103.146 14.126 103.001 14.011 102.838 13.9322C102.675 13.8533 102.496 13.8123 102.315 13.8122C102.122 13.8042 101.929 13.8381 101.75 13.9119C101.57 13.9855 101.408 14.0972 101.273 14.2396C101.002 14.5548 100.863 14.9664 100.885 15.3859V18.9705C100.89 19.0087 100.886 19.0473 100.874 19.0837C100.861 19.12 100.841 19.153 100.815 19.1801C100.788 19.2073 100.756 19.2279 100.721 19.2404C100.685 19.2529 100.647 19.257 100.61 19.2522H99.0668C98.8868 19.2522 98.8016 19.1551 98.8016 18.9705V14.3951C98.813 14.3171 98.8064 14.2377 98.7817 14.1629C98.7581 14.0882 98.7173 14.0202 98.6624 13.9645C98.6084 13.9089 98.5421 13.867 98.4692 13.8422C98.3963 13.8174 98.3187 13.8105 98.2429 13.8219H97.9304C97.7221 13.8219 97.6179 13.7442 97.6179 13.5888V12.4425C97.6132 12.3716 97.6321 12.301 97.6719 12.2428C97.7116 12.1844 97.7694 12.1417 97.8357 12.1219C98.1634 11.9998 98.51 11.9405 98.8584 11.9471C99.1927 11.9178 99.5289 11.9862 99.8272 12.1444C100.125 12.3025 100.374 12.5439 100.544 12.8408C100.863 12.5302 101.242 12.2905 101.656 12.1367C102.07 11.9829 102.51 11.9184 102.949 11.9471C103.376 11.9257 103.802 12.0078 104.192 12.1867C104.582 12.3656 104.925 12.6363 105.194 12.9768C105.507 12.6273 105.893 12.3538 106.322 12.1756C106.75 11.9976 107.213 11.9196 107.675 11.9471C108.088 11.9272 108.5 11.9955 108.887 12.1478C109.273 12.2999 109.625 12.5325 109.919 12.8311C110.207 13.1424 110.429 13.5105 110.574 13.9129C110.719 14.3153 110.784 14.7438 110.762 15.1722V17.0471C110.762 17.4162 110.923 17.6008 111.226 17.6008C111.373 17.6078 111.519 17.5914 111.661 17.5522C111.857 17.5522 111.962 17.6299 111.974 17.7853L112.059 18.9996Z" fill="#0B2239"/>
<path d="M1.01668 10.9161C1.71532 8.03554 3.33337 5.47748 5.61317 3.64939C7.893 1.82125 10.7035 0.828125 13.5972 0.828125C16.4908 0.828125 19.3013 1.82125 21.5812 3.64939C23.861 5.47748 25.479 8.03554 26.1777 10.9161H25.0413C23.1243 10.8872 21.2467 11.4749 19.672 12.5967C19.5811 12.6642 19.4862 12.7259 19.3879 12.7813H19.2553C19.157 12.7259 19.0621 12.6642 18.9712 12.5967C17.3826 11.5008 15.5116 10.9155 13.5972 10.9155C11.6828 10.9155 9.81175 11.5008 8.22311 12.5967C8.13221 12.6642 8.03732 12.7259 7.93902 12.7813H7.80645C7.70815 12.7259 7.61327 12.6642 7.52236 12.5967C5.94764 11.4749 4.06999 10.8872 2.15304 10.9161H1.01668ZM22.9958 17.007C23.5792 16.541 24.3022 16.2972 25.0413 16.3173H26.5659V13.199H25.0413C23.7394 13.1828 22.4673 13.5985 21.4144 14.3841C20.8219 14.8322 20.1051 15.074 19.3689 15.074C18.6328 15.074 17.916 14.8322 17.3235 14.3841C16.2439 13.6132 14.96 13.1999 13.6445 13.1999C12.3291 13.1999 11.0452 13.6132 9.96554 14.3841C9.37302 14.8322 8.65626 15.074 7.92008 15.074C7.18391 15.074 6.46715 14.8322 5.87463 14.3841C4.80872 13.5884 3.51838 13.1723 2.20039 13.199H0.628418V16.3173H2.15304C2.89216 16.2972 3.61516 16.541 4.19849 17.007C5.27615 17.7785 6.55863 18.1921 7.87274 18.1921C9.18684 18.1921 10.4693 17.7785 11.547 17.007C12.1311 16.5424 12.8535 16.2988 13.5924 16.3173C14.3318 16.2955 15.0553 16.5395 15.6379 17.007C16.7175 17.778 18.0014 18.1912 19.3169 18.1912C20.6323 18.1912 21.9162 17.778 22.9958 17.007ZM22.9958 22.583C23.5792 22.117 24.3022 21.8732 25.0413 21.8933H26.5659V18.775H25.0413C23.7394 18.7589 22.4673 19.1745 21.4144 19.9601C20.8219 20.4082 20.1051 20.65 19.3689 20.65C18.6328 20.65 17.916 20.4082 17.3235 19.9601C16.2439 19.1892 14.96 18.7759 13.6445 18.7759C12.3291 18.7759 11.0452 19.1892 9.96554 19.9601C9.37302 20.4082 8.65626 20.65 7.92008 20.65C7.18391 20.65 6.46715 20.4082 5.87463 19.9601C4.80872 19.1645 3.51838 18.7483 2.20039 18.775H0.628418V21.8933H2.15304C2.89216 21.8732 3.61516 22.117 4.19849 22.583C5.27615 23.3545 6.55863 23.7681 7.87274 23.7681C9.18684 23.7681 10.4693 23.3545 11.547 22.583C12.1311 22.1184 12.8535 21.8748 13.5924 21.8933C14.3318 21.8715 15.0553 22.1155 15.6379 22.583C16.7175 23.354 18.0014 23.7672 19.3169 23.7672C20.6323 23.7672 21.9162 23.354 22.9958 22.583Z" fill="#0B2239"/>
</g>
<defs>
<clipPath id="clip0_1766_12435">
<rect width="112" height="24" fill="white"/>
</clipPath>
</defs>
</svg>
