<svg width="20" height="20" viewBox="0 0 20 20" fill="none" xmlns="http://www.w3.org/2000/svg">
<g clip-path="url(#clip0_1957_46920)">
<path d="M6.75765 9.64846C5.46524 9.64846 4.41378 8.597 4.41378 7.30459C4.41378 6.01218 5.46524 4.96072 6.75765 4.96072C8.05006 4.96072 9.10152 6.01218 9.10152 7.30459C9.10152 8.597 8.05006 9.64846 6.75765 9.64846ZM6.75765 6.5233C6.32684 6.5233 5.97636 6.87378 5.97636 7.30459C5.97636 7.73539 6.32684 8.08588 6.75765 8.08588C7.18845 8.08588 7.53894 7.73539 7.53894 7.30459C7.53894 6.87378 7.18849 6.5233 6.75765 6.5233ZM13.2033 15.1175C11.9109 15.1175 10.8594 14.066 10.8594 12.7736C10.8594 11.4812 11.9109 10.4297 13.2033 10.4297C14.4957 10.4297 15.5472 11.4812 15.5472 12.7736C15.5472 14.066 14.4957 15.1175 13.2033 15.1175ZM13.2033 11.9923C12.7725 11.9923 12.422 12.3428 12.422 12.7736C12.422 13.2044 12.7725 13.5549 13.2033 13.5549C13.6341 13.5549 13.9846 13.2044 13.9846 12.7736C13.9846 12.3428 13.6341 11.9923 13.2033 11.9923ZM8.35421 14.7268L13.422 5.35136H11.6458L6.57799 14.7268H8.35421ZM7.83118 20C7.66594 20 7.50007 19.9787 7.33787 19.9352C6.8198 19.7964 6.38146 19.4435 6.13515 18.9671L5.61771 17.9661C5.55544 17.8457 5.42809 17.772 5.29238 17.7782L4.16681 17.8306C3.63073 17.8557 3.10625 17.6523 2.72701 17.2731C2.34777 16.8938 2.14456 16.369 2.16948 15.8333L2.22187 14.7077C2.22816 14.5723 2.1544 14.4446 2.03401 14.3823L1.03302 13.8649C0.556589 13.6185 0.20372 13.1802 0.0649234 12.6621C-0.0739117 12.144 0.0124989 11.588 0.301967 11.1365L0.910084 10.1879C0.983212 10.0738 0.983212 9.92628 0.910084 9.81218L0.301889 8.86361C0.0124208 8.4121 -0.0739899 7.85606 0.0648453 7.33799C0.203641 6.81991 0.556511 6.38153 1.03294 6.13519L2.03393 5.6177C2.15433 5.55548 2.22808 5.42773 2.22179 5.29234L2.16941 4.16677C2.14448 3.631 2.3477 3.10621 2.72693 2.72697C3.10617 2.34773 3.63108 2.14444 4.16669 2.16944L5.2923 2.22179C5.42723 2.22824 5.55536 2.15437 5.61763 2.03397L6.13508 1.03298C6.38138 0.55655 6.81972 0.20368 7.33779 0.0648453C7.85594 -0.0739899 8.41199 0.0124208 8.8635 0.301889L9.8121 0.910005C9.92624 0.983173 10.0736 0.983212 10.1878 0.910005L11.1364 0.301889C11.5879 0.0124208 12.1439 -0.0739899 12.6621 0.0648453C13.1802 0.20368 13.6185 0.55655 13.8648 1.03298L14.3823 2.03393C14.4445 2.15437 14.5715 2.22812 14.7076 2.22179L15.8331 2.16944C16.3697 2.1446 16.8937 2.34773 17.2729 2.72697C17.6522 3.10621 17.8554 3.631 17.8305 4.16677L17.7781 5.29238C17.7718 5.42773 17.8456 5.55548 17.966 5.6177L18.9669 6.13515C19.4434 6.38149 19.7962 6.81988 19.935 7.33795C20.0739 7.85602 19.9875 8.41207 19.698 8.86357L19.0899 9.81218C19.0167 9.92628 19.0167 10.0738 19.0899 10.1879L19.698 11.1365C19.9875 11.588 20.0739 12.144 19.935 12.6621C19.7962 13.1802 19.4434 13.6185 18.9669 13.8649L17.966 14.3824C17.8456 14.4446 17.7718 14.5723 17.7781 14.7077L17.8305 15.8333C17.8554 16.3691 17.6522 16.8939 17.2729 17.2731C16.8937 17.6523 16.3688 17.8557 15.8332 17.8306L14.7076 17.7783C14.5727 17.7721 14.4445 17.8457 14.3823 17.9661L13.8648 18.9671C13.6185 19.4435 13.1802 19.7964 12.6621 19.9352C12.1439 20.0741 11.5879 19.9876 11.1364 19.6982L10.1878 19.0901C10.0736 19.0169 9.92624 19.0169 9.8121 19.0901L8.8635 19.6982C8.5534 19.897 8.19381 20 7.83118 20ZM5.308 16.2154C6.01812 16.2154 6.67768 16.6138 7.00578 17.2486L7.52323 18.2495C7.58464 18.3684 7.68683 18.411 7.74231 18.4259C7.79782 18.4407 7.90763 18.4549 8.02021 18.3827L8.96881 17.7746C9.59521 17.373 10.4047 17.373 11.0311 17.7746L11.9797 18.3827C12.0923 18.4548 12.2021 18.4407 12.2577 18.4259C12.3131 18.411 12.4153 18.3683 12.4767 18.2495L12.9942 17.2485C13.3358 16.5876 14.0372 16.1829 14.7802 16.2174L15.9058 16.2697C16.0387 16.276 16.1275 16.2087 16.1681 16.1682C16.2087 16.1276 16.2759 16.0395 16.2697 15.9059L16.2173 14.7803C16.1827 14.037 16.5875 13.3359 17.2484 12.9943L18.2494 12.4768C18.3682 12.4154 18.4109 12.3132 18.4258 12.2577C18.4406 12.2023 18.4548 12.0924 18.3826 11.9798L17.7745 11.0312C17.3729 10.4048 17.3729 9.59525 17.7745 8.96889L18.3826 8.02029C18.4548 7.90767 18.4406 7.79782 18.4258 7.74238C18.4109 7.68691 18.3682 7.58468 18.2494 7.52327L17.2484 7.00582C16.5875 6.66413 16.1827 5.96311 16.2173 5.21979L16.2697 4.09419C16.2759 3.96059 16.2087 3.87254 16.1681 3.83195C16.1275 3.79132 16.0401 3.72441 15.9058 3.73038L14.7802 3.78273C14.037 3.8173 13.3358 3.41255 12.9941 2.75154L12.4768 1.75059C12.4154 1.63176 12.3132 1.5891 12.2577 1.57422C12.2022 1.55934 12.0924 1.54519 11.9798 1.61738L11.0312 2.22554C10.4048 2.62712 9.59525 2.62712 8.96885 2.22554L8.02025 1.61742C7.90767 1.54523 7.79786 1.55937 7.74234 1.57426C7.68687 1.5891 7.58468 1.6318 7.52327 1.75059L7.00582 2.75158C6.66413 3.41255 5.96304 3.81703 5.21976 3.78273L4.09419 3.73038C3.96129 3.72405 3.87254 3.79136 3.83191 3.83195C3.79132 3.87254 3.72413 3.96059 3.73034 4.09423L3.78273 5.21979C3.81726 5.96311 3.41248 6.66416 2.75158 7.00586L1.75059 7.52331C1.63176 7.58472 1.5891 7.68695 1.57422 7.74242C1.55937 7.79786 1.54523 7.9077 1.61739 8.02033L2.2255 8.96893C2.62708 9.59533 2.62708 10.4049 2.2255 11.0312L1.61739 11.9798C1.54519 12.0924 1.55937 12.2023 1.57422 12.2577C1.5891 12.3132 1.63176 12.4154 1.75059 12.4768L2.75158 12.9943C3.41252 13.336 3.81726 14.037 3.78273 14.7803L3.73034 15.9059C3.72413 16.0395 3.79132 16.1276 3.83191 16.1682C3.8725 16.2088 3.96008 16.2757 4.09423 16.2697L5.21979 16.2174C5.24921 16.216 5.27867 16.2154 5.308 16.2154Z" fill="#67788A"/>
</g>
<defs>
<clipPath id="clip0_1957_46920">
<rect width="20" height="20" fill="white"/>
</clipPath>
</defs>
</svg>
