<svg width="15" height="15" viewBox="0 0 15 15" fill="none" xmlns="http://www.w3.org/2000/svg">
<path d="M7.3094 0.46875C7.13702 0.468791 6.97171 0.537287 6.84982 0.659176C6.72793 0.781066 6.65944 0.946372 6.6594 1.11875V8.53406L4.17361 6.04828C4.11325 5.98792 4.04158 5.94005 3.96271 5.90739C3.88385 5.87473 3.79932 5.85792 3.71395 5.85793C3.54155 5.85794 3.37621 5.92644 3.25432 6.04836C3.13242 6.17028 3.06395 6.33562 3.06396 6.50802C3.06398 6.68043 3.13248 6.84576 3.2544 6.96766L6.84971 10.5625C6.97165 10.6844 7.137 10.7528 7.3094 10.7528C7.48179 10.7528 7.64714 10.6844 7.76908 10.5625L11.3644 6.96703C11.4863 6.84514 11.5548 6.6798 11.5548 6.5074C11.5548 6.335 11.4864 6.16965 11.3645 6.04773C11.2426 5.92582 11.0772 5.85732 10.9048 5.8573C10.7324 5.85729 10.5671 5.92576 10.4452 6.04766L7.9594 8.53406V1.11875C7.95936 0.946372 7.89086 0.781066 7.76897 0.659176C7.64708 0.537287 7.48177 0.468791 7.3094 0.46875Z" fill="#00233C"/>
<path d="M0.92832 9.0625C0.75593 9.0625 0.590599 9.13098 0.468701 9.25288C0.346802 9.37478 0.27832 9.54011 0.27832 9.7125V11.8544C0.279106 12.5639 0.561303 13.2441 1.063 13.7458C1.56469 14.2475 2.24491 14.5297 2.95441 14.5305H11.6647C12.3742 14.5297 13.0544 14.2475 13.5561 13.7458C14.0578 13.2441 14.34 12.5639 14.3408 11.8544V9.7125C14.3408 9.62714 14.324 9.54262 14.2913 9.46376C14.2587 9.38489 14.2108 9.31324 14.1504 9.25288C14.0901 9.19252 14.0184 9.14464 13.9396 9.11198C13.8607 9.07931 13.7762 9.0625 13.6908 9.0625C13.6055 9.0625 13.5209 9.07931 13.4421 9.11198C13.3632 9.14464 13.2916 9.19252 13.2312 9.25288C13.1708 9.31324 13.123 9.38489 13.0903 9.46376C13.0576 9.54262 13.0408 9.62714 13.0408 9.7125V11.8544C13.0404 12.2192 12.8953 12.569 12.6373 12.827C12.3793 13.0849 12.0296 13.2301 11.6647 13.2305H2.95441C2.58958 13.2301 2.2398 13.0849 1.98183 12.827C1.72385 12.569 1.57873 12.2192 1.57832 11.8544V9.7125C1.57834 9.62714 1.56154 9.5426 1.52888 9.46373C1.49623 9.38486 1.44835 9.3132 1.38799 9.25284C1.32762 9.19247 1.25596 9.1446 1.17709 9.11194C1.09822 9.07928 1.01369 9.06248 0.92832 9.0625Z" fill="#00233C"/>
</svg>
