<svg width="34" height="11" viewBox="0 0 34 11" fill="none" xmlns="http://www.w3.org/2000/svg">
<path d="M33.2305 8.41237C33.1799 9.32279 31.5108 9.87916 29.3865 10.1826C27.8017 10.385 26.1663 10.4355 24.4803 10.3344H23.0135V10.4861C22.9798 10.5198 22.9461 10.5536 22.9124 10.5873C22.8449 10.621 22.7606 10.6547 22.6595 10.6884C22.4066 10.7896 21.9514 10.8402 21.1927 10.7896C20.0799 10.7896 18.5625 10.5873 17.5004 10.385C17.4667 10.3512 17.4161 10.3344 17.3487 10.3344C17.3149 10.3344 17.2981 10.3344 17.2981 10.3344V10.2332C17.1632 10.2332 17.0452 10.2332 16.944 10.2332C16.5394 10.2332 16.0842 10.1826 15.629 10.1321L12.6448 10.0815C10.3687 9.82859 8.4973 9.47453 6.97993 9.01932C7.01365 9.05304 7.03051 9.08675 7.03051 9.12047C7.03051 9.22163 6.92934 9.3228 6.82818 9.3228H6.32239C6.28867 9.3228 6.27183 9.3228 6.27183 9.3228C6.17067 9.27222 6.12008 9.22163 6.12008 9.12047C6.12008 9.01932 6.17065 8.91816 6.32239 8.91816H6.57529C4.75444 8.31121 3.48997 7.70426 2.6807 7.19847C2.44467 7.16475 2.22548 7.13103 2.02317 7.09731C1.78713 7.06359 1.58482 7.02987 1.41623 6.99615C1.38251 6.99615 1.36564 6.96243 1.36564 6.895C1.36564 6.86128 1.39937 6.84441 1.46681 6.84441C1.50053 6.84441 1.53424 6.82756 1.56796 6.79384C1.70283 6.79384 1.85457 6.77698 2.02317 6.74326C1.92201 6.69268 1.92202 6.59152 1.92202 6.49036C1.9726 6.3892 2.02317 6.33862 2.12433 6.33862C2.15805 6.3049 2.20862 6.28805 2.27606 6.28805L2.12433 5.88341L2.07375 5.78226L0.303478 1.12897L0.252896 1.02781L0 0.370282C0 0.336563 0.0168628 0.302845 0.0505822 0.269125C0.0505822 0.201687 0.0843078 0.167969 0.151747 0.167969L1.01158 0.218551C1.26448 0.218551 1.51739 0.319709 1.7197 0.471447L4.45097 2.64634L5.91777 3.80966L6.27183 4.06256L7.03051 4.66951L7.5363 5.07414C7.94094 5.4282 8.44672 5.63052 8.95251 5.78226C12.7459 5.63052 18.3097 5.63052 26.2506 6.03515C27.0093 6.08573 29.3865 6.3892 31.1568 6.99615C31.2916 7.02987 31.4097 7.06359 31.5108 7.09731C31.8143 7.24905 31.966 7.40079 32.1683 7.55253C32.2021 7.58625 32.2526 7.61996 32.3201 7.65368C32.3538 7.6874 32.3875 7.72112 32.4212 7.75484C32.573 7.856 32.8259 8.00774 32.9776 8.15947C33.1293 8.26063 33.2305 8.31121 33.2305 8.41237Z" fill="#4F86B8"/>
</svg>
