<svg width="362" height="162" viewBox="0 0 362 162" fill="none" xmlns="http://www.w3.org/2000/svg">
<path d="M0.198564 161.311C0.490497 160.938 0.295875 160.441 0.295875 159.945C0.00394287 156.219 -0.0933679 152.494 0.101254 148.768C0.295875 144.919 0.782429 141.069 1.4636 137.344C2.04747 133.743 2.92327 130.39 3.99368 126.913C6.03721 119.958 8.85922 113.625 12.2651 107.665C18.5903 96.7367 26.2778 87.7957 35.3277 80.5932C43.1126 74.3842 51.4813 69.9137 60.4339 67.3059C66.7591 65.4432 73.1816 64.6981 79.7015 65.1948C80.188 65.1948 80.6746 65.319 81.1611 65.1948C81.2584 64.8223 81.3557 64.3256 81.453 63.953C82.9127 57.2473 85.5401 51.4108 89.3352 46.4436C92.0599 42.9665 95.1739 40.1103 98.5798 37.7509C102.764 34.8948 107.24 33.032 111.911 31.7902C118.139 30.1759 124.367 29.555 130.692 29.6792C135.85 29.8034 140.91 30.4243 145.97 31.2935C149.473 31.9144 152.879 32.6595 156.285 33.5288C159.302 34.398 162.318 35.2673 165.335 36.2607C169.714 37.6267 173.996 39.1169 178.18 40.8554C182.462 42.594 186.743 44.4567 191.122 46.3194C194.528 47.8095 198.031 49.2997 201.437 50.9141C204.454 52.28 207.568 53.646 210.584 55.012C212.239 55.7571 213.893 56.5022 215.45 57.1231C222.359 60.1034 229.268 62.8354 236.274 65.1948C240.751 66.685 245.324 68.051 249.995 69.1686C258.753 71.2797 267.511 72.3973 276.367 72.2731C287.363 72.0248 298.067 69.417 308.479 64.6981C314.318 62.0903 319.962 58.8616 325.411 55.012C334.461 48.5546 342.051 39.862 348.376 29.3066C351.49 24.091 354.507 18.6271 357.134 13.039C358.983 8.941 360.54 4.84304 361.805 0.372542C361.805 0.248361 361.903 0.124181 362 0C361.708 1.24181 361.416 2.48361 361.027 3.72542C359.665 8.56846 357.718 12.9148 355.577 17.2611C352.853 22.8492 349.836 28.189 346.625 33.2804C340.786 42.4698 333.78 50.0448 325.703 55.7571C313.053 64.8223 299.429 70.5346 285.027 72.5215C278.41 73.3908 271.793 73.3908 265.176 72.7699C261.283 72.3973 257.488 71.7764 253.596 71.0313C250.093 70.2862 246.492 69.417 242.989 68.2993C236.177 66.3125 229.365 63.8288 222.748 61.0969C218.467 59.3583 214.185 57.4956 210.001 55.6329C206.887 54.2669 203.773 52.9009 200.659 51.535C197.253 50.0448 193.944 48.5546 190.538 47.0645C188.884 46.3194 187.23 45.5743 185.576 44.8292C179.64 42.2214 173.606 39.862 167.476 37.7509C163.291 36.3849 159.01 35.0189 154.728 34.0255C148.5 32.5353 142.272 31.2935 135.947 30.7968C128.357 30.1759 120.669 30.4243 113.176 32.287C108.214 33.5288 103.445 35.3915 99.0663 38.3718C94.4927 41.4763 90.6003 45.3259 87.389 50.6657C85.0536 54.5153 83.3993 58.8616 82.3288 63.5805C82.2315 64.0772 82.0369 64.5739 82.2315 65.0706C82.5235 65.1948 82.7181 65.319 83.01 65.319C87.8756 65.9399 92.5465 67.3059 97.1201 69.2928C105.878 73.1424 113.663 79.1031 119.988 87.9199C122.616 91.5211 124.756 95.3707 126.216 99.8412C127.384 103.318 128.162 106.92 128.162 110.769C128.162 112.88 127.968 114.991 127.384 116.978C126.508 120.083 124.854 122.318 122.518 123.684C120.669 124.802 118.723 125.298 116.777 125.298C114.831 125.422 112.787 125.05 110.938 124.553C101.888 121.945 94.4927 115.861 88.5567 106.92C83.01 98.4752 80.3826 88.665 80.188 77.7371C80.0907 74.1358 80.3826 70.6588 80.8692 67.1817C80.8692 66.9334 80.9665 66.685 80.9665 66.4366C80.6746 65.9399 80.2853 66.0641 79.8961 66.0641C77.0741 65.9399 74.2521 65.9399 71.5274 66.1883C63.8398 66.8092 56.4442 69.0444 49.2432 72.7699C34.8412 80.2207 22.872 91.6453 13.4328 107.292C10.6108 112.011 8.17805 117.102 6.23183 122.442C4.28562 128.03 2.72864 133.743 1.85285 139.703C0.782429 146.906 0.490497 154.232 1.36629 161.435C0.97705 161.559 0.587807 161.435 0.198564 161.311ZM81.745 66.4366C81.6477 67.0575 81.5504 67.5543 81.453 68.051C80.9665 71.9006 80.7719 75.8744 80.9665 79.8481C81.453 89.7826 84.0804 98.7236 89.0433 106.299C94.9792 115.364 102.375 121.324 111.425 123.932C113.274 124.429 115.123 124.677 116.971 124.553C118.82 124.429 120.669 124.056 122.421 122.939C124.951 121.2 126.508 118.592 127.189 114.991C127.578 113.004 127.578 111.017 127.384 109.031C127.092 105.181 126.119 101.58 124.659 98.2269C122.518 93.1355 119.696 88.7891 116.388 84.9395C110.549 78.358 103.932 73.5149 96.5362 70.4104C92.6438 68.7961 88.7514 67.5543 84.6643 66.9334C83.6912 66.685 82.8154 66.5608 81.745 66.4366Z" fill="#4F86B8"/>
</svg>
