<svg width="50" height="50" viewBox="0 0 50 50" fill="none" xmlns="http://www.w3.org/2000/svg">
<path opacity="0.5" d="M0.833984 42.5H49.1673V47.5H0.833984V42.5Z" fill="#53D687"/>
<path opacity="0.5" d="M16.666 11.667H33.3327V18.3337H16.666V11.667Z" fill="#53D687"/>
<path opacity="0.5" d="M16.666 8.33301H33.3327V11.6663H16.666V8.33301Z" fill="#53D687"/>
<path opacity="0.5" d="M29.168 42.4997V31.6663C29.168 29.9997 25.0013 27.4997 25.0013 27.4997C25.0013 27.4997 20.8346 29.9997 20.8346 31.6663V42.4997H16.668V23.333H33.3346V42.4997H29.168Z" fill="#53D687"/>
<path opacity="0.5" d="M3.33398 27.5H13.334V42.5H3.33398V27.5Z" fill="#53D687"/>
<path opacity="0.5" d="M3.33398 17.5H13.334V24.1667H3.33398V17.5Z" fill="#53D687"/>
<path opacity="0.5" d="M46.668 42.5H36.668V27.5H46.668V42.5Z" fill="#53D687"/>
<path opacity="0.5" d="M46.668 24.1667H36.668V17.5H46.668V24.1667Z" fill="#53D687"/>
<path opacity="0.5" d="M0.833984 24.167H13.334V27.5003H0.833984V24.167Z" fill="#53D687"/>
<path opacity="0.5" d="M1.66602 14.167H13.3327V17.5003H1.66602V14.167Z" fill="#53D687"/>
<path opacity="0.5" d="M8.33268 35.833C9.25309 35.833 9.99935 36.5793 9.99935 37.4997V42.4997H6.66602V37.4997C6.66602 36.5793 7.41227 35.833 8.33268 35.833Z" fill="#53D687"/>
<path opacity="0.5" d="M5.83398 30H7.50065V31.6667H5.83398V30Z" fill="#53D687"/>
<path opacity="0.5" d="M9.16602 30H10.8327V31.6667H9.16602V30Z" fill="#53D687"/>
<path opacity="0.5" d="M49.166 27.5003H36.666V24.167H49.166V27.5003Z" fill="#53D687"/>
<path opacity="0.5" d="M43.3333 42.4997H40V37.4997C40 36.5793 40.7463 35.833 41.6667 35.833C42.5871 35.833 43.3333 36.5793 43.3333 37.4997V42.4997Z" fill="#53D687"/>
<path opacity="0.5" d="M42.5 30H44.1667V31.6667H42.5V30Z" fill="#53D687"/>
<path opacity="0.5" d="M39.166 30H40.8327V31.6667H39.166V30Z" fill="#53D687"/>
<path opacity="0.5" d="M9.16602 20H10.8327V21.6667H9.16602V20Z" fill="#53D687"/>
<path opacity="0.5" d="M5.83398 20H7.50065V21.6667H5.83398V20Z" fill="#53D687"/>
<path opacity="0.5" d="M48.3327 17.5003H36.666V14.167H48.3327V17.5003Z" fill="#53D687"/>
<path opacity="0.5" d="M39.166 20H40.8327V21.6667H39.166V20Z" fill="#53D687"/>
<path opacity="0.5" d="M42.5 20H44.1667V21.6667H42.5V20Z" fill="#53D687"/>
<path opacity="0.5" d="M19.166 25.833H20.8327V27.4997H19.166V25.833Z" fill="#53D687"/>
<path opacity="0.5" d="M29.166 25.833H30.8327V27.4997H29.166V25.833Z" fill="#53D687"/>
<path opacity="0.5" d="M30 18.333H33.3333V23.333H30V18.333Z" fill="#53D687"/>
<path opacity="0.5" d="M16.666 18.333H19.9993V23.333H16.666V18.333Z" fill="#53D687"/>
<path opacity="0.5" d="M20 18.333H23.3333V23.333H20V18.333Z" fill="#53D687"/>
<path opacity="0.5" d="M23.334 18.333H26.6673V23.333H23.334V18.333Z" fill="#53D687"/>
<path opacity="0.5" d="M26.666 18.333H29.9993V23.333H26.666V18.333Z" fill="#53D687"/>
<path opacity="0.5" d="M22.5 14.167H24.1667V15.8337H22.5V14.167Z" fill="#53D687"/>
<path opacity="0.5" d="M25.834 14.167H27.5007V15.8337H25.834V14.167Z" fill="#53D687"/>
<path opacity="0.5" d="M29.166 14.167H30.8327V15.8337H29.166V14.167Z" fill="#53D687"/>
<path opacity="0.5" d="M19.166 14.167H20.8327V15.8337H19.166V14.167Z" fill="#53D687"/>
<path opacity="0.5" d="M24.166 4.16699H25.8327V8.33366H24.166V4.16699Z" fill="#53D687"/>
<path opacity="0.5" d="M20.834 42.5H29.1673V47.5H20.834V42.5Z" fill="#53D687"/>
<path opacity="0.5" d="M13.334 13.333H16.6673V42.4997H13.334V13.333Z" fill="#53D687"/>
<path opacity="0.5" d="M13.334 9.16699H16.6673V13.3337H13.334V9.16699Z" fill="#53D687"/>
<path opacity="0.5" d="M16.6673 9.16699H13.334V5.83366C13.334 5.00033 15.0007 4.16699 15.0007 4.16699C15.0007 4.16699 16.6673 5.00033 16.6673 5.83366V9.16699Z" fill="#53D687"/>
<path opacity="0.5" d="M14.166 1.66699H15.8327V4.16699H14.166V1.66699Z" fill="#53D687"/>
<path opacity="0.5" d="M13.334 16.667H16.6673V20.8337H13.334V16.667Z" fill="#53D687"/>
<path opacity="0.5" d="M34.166 1.66699H35.8327V4.16699H34.166V1.66699Z" fill="#53D687"/>
<path opacity="0.5" d="M33.334 13.333H36.6673V42.4997H33.334V13.333Z" fill="#53D687"/>
<path opacity="0.5" d="M36.6673 13.3337H33.334V9.16699H36.6673V13.3337Z" fill="#53D687"/>
<path opacity="0.5" d="M33.334 9.16699H36.6673V5.83366C36.6673 5.00033 35.0007 4.16699 35.0007 4.16699C35.0007 4.16699 33.334 5.00033 33.334 5.83366V9.16699Z" fill="#53D687"/>
<path opacity="0.5" d="M36.6673 20.8337H33.334V16.667H36.6673V20.8337Z" fill="#53D687"/>
<path d="M19.166 25.833H20.8327V27.4997H19.166V25.833Z" fill="#0B5959"/>
<path d="M29.166 25.833H30.8327V27.4997H29.166V25.833Z" fill="#0B5959"/>
<path d="M5.83398 30H7.50065V31.6667H5.83398V30Z" fill="#0B5959"/>
<path d="M9.16602 30H10.8327V31.6667H9.16602V30Z" fill="#0B5959"/>
<path d="M42.5 30H44.1667V31.6667H42.5V30Z" fill="#0B5959"/>
<path d="M39.166 30H40.8327V31.6667H39.166V30Z" fill="#0B5959"/>
<path d="M22.5 14.167H24.1667V15.8337H22.5V14.167Z" fill="#0B5959"/>
<path d="M25.834 14.167H27.5007V15.8337H25.834V14.167Z" fill="#0B5959"/>
<path d="M29.166 14.167H30.8327V15.8337H29.166V14.167Z" fill="#0B5959"/>
<path d="M19.166 14.167H20.8327V15.8337H19.166V14.167Z" fill="#0B5959"/>
<path d="M9.16602 20H10.8327V21.6667H9.16602V20Z" fill="#0B5959"/>
<path d="M5.83398 20H7.50065V21.6667H5.83398V20Z" fill="#0B5959"/>
<path d="M47.5 18.3337H49.1667V13.3337H37.5V5.83366C37.5 4.85384 36.5059 4.08358 35.8333 3.67871V1.66699H34.1667V3.67871C33.4941 4.08683 32.5 4.85384 32.5 5.83366V7.50033H25.8333V4.16699H24.1667V7.50033H17.5V5.83366C17.5 4.85384 16.5059 4.08358 15.8333 3.67871V1.66699H14.1667V3.67871C13.4941 4.08683 12.5 4.85384 12.5 5.83366V13.3337H0.833333V18.3337H2.5V23.3337H0V28.3337H2.5V41.667H0V48.3337H50V41.667H47.5V28.3337H50V23.3337H47.5V18.3337ZM37.5 15.0003H47.5V16.667H37.5V15.0003ZM37.5 18.3337H45.8333V23.3337H37.5V18.3337ZM37.5 28.3337H45.8333V41.667H44.1667V37.5003C44.1667 36.1197 43.0473 35.0003 41.6667 35.0003C40.286 35.0003 39.1667 36.1197 39.1667 37.5003V41.667H37.5V28.3337ZM42.5 37.5003V41.667H40.8333V37.5003C40.8333 37.0401 41.2065 36.667 41.6667 36.667C42.1269 36.667 42.5 37.0401 42.5 37.5003ZM35 5.12443C35.3235 5.30103 35.6075 5.54232 35.8333 5.83366V8.33366H34.1667V5.87028C34.3823 5.55981 34.6676 5.30469 35 5.12443ZM34.1667 20.0003V17.5003H35.8333V20.0003H34.1667ZM35.8333 21.667V41.667H34.1667V21.667H35.8333ZM34.1667 15.8337V14.167H35.8333V15.8337H34.1667ZM34.1667 12.5003V10.0003H35.8333V12.5003H34.1667ZM17.5 9.16699H32.5V10.8337H17.5V9.16699ZM17.5 12.5003H32.5V17.5003H17.5V12.5003ZM32.5 19.167V22.5003H30.8333V19.167H32.5ZM29.1667 19.167V22.5003H27.5V19.167H29.1667ZM25.8333 19.167V22.5003H24.1667V19.167H25.8333ZM22.5 19.167V22.5003H20.8333V19.167H22.5ZM17.5 19.167H19.1667V22.5003H17.5V19.167ZM15 5.12443C15.3235 5.30103 15.6075 5.54232 15.8333 5.83366V8.33366H14.1667V5.87028C14.3823 5.55981 14.6676 5.30469 15 5.12443ZM14.1667 20.0003V17.5003H15.8333V20.0003H14.1667ZM15.8333 21.667V41.667H14.1667V21.667H15.8333ZM14.1667 15.8337V14.167H15.8333V15.8337H14.1667ZM14.1667 12.5003V10.0003H15.8333V12.5003H14.1667ZM2.5 15.0003H12.5V16.667H2.5V15.0003ZM12.5 18.3337V23.3337H4.16667V18.3337H12.5ZM1.66667 26.667V25.0003H12.5V26.667H1.66667ZM8.33333 35.0003C6.95272 35.0003 5.83333 36.1197 5.83333 37.5003V41.667H4.16667V28.3337H12.5V41.667H10.8333V37.5003C10.8333 36.1197 9.71395 35.0003 8.33333 35.0003ZM9.16667 37.5003V41.667H7.5V37.5003C7.5 37.0401 7.87313 36.667 8.33333 36.667C8.79354 36.667 9.16667 37.0401 9.16667 37.5003ZM20 46.667H1.66667V43.3337H20V46.667ZM28.3333 46.667H21.6667V43.3337H28.3333V46.667ZM28.3333 41.667H21.6667V31.667C21.6667 31.0212 23.3459 29.5462 25 28.4822C26.6541 29.5462 28.3333 31.0212 28.3333 31.667V41.667ZM25.4293 26.7862L25 26.5286L24.5707 26.7862C23.5002 27.4295 20 29.6829 20 31.667V41.667H17.5V24.167H32.5V41.667H30V31.667C30 29.6829 26.4998 27.4295 25.4293 26.7862ZM48.3333 43.3337V46.667H30V43.3337H48.3333ZM48.3333 25.0003V26.667H37.5V25.0003H48.3333Z" fill="#0B5959"/>
<path d="M39.166 20H40.8327V21.6667H39.166V20Z" fill="#0B5959"/>
<path d="M42.5 20H44.1667V21.6667H42.5V20Z" fill="#0B5959"/>
</svg>
