<svg width="70" height="70" viewBox="0 0 70 70" fill="none" xmlns="http://www.w3.org/2000/svg">
<path d="M70 47.373C70 37.1699 63.1251 28.2554 53.4303 25.5691C52.821 11.3669 41.0781 0 26.7285 0C11.9901 0 0 11.9901 0 26.7285C0 31.5318 1.27853 36.2086 3.70636 40.3144L0.0982666 53.3582L13.1426 49.7507C16.9168 51.9825 21.1743 53.2397 25.5685 53.4293C28.2543 63.1245 37.1693 70 47.373 70C51.4458 70 55.4063 68.9153 58.8863 66.8544L69.9012 69.9012L66.8544 58.8863C68.9153 55.4063 70 51.4458 70 47.373ZM13.7899 45.3159L5.98091 47.4761L8.14117 39.6671L7.64877 38.897C5.32829 35.2665 4.10156 31.0587 4.10156 26.7285C4.10156 14.2519 14.2519 4.10156 26.7285 4.10156C39.2052 4.10156 49.3555 14.2519 49.3555 26.7285C49.3555 39.2052 39.2052 49.3555 26.7285 49.3555C22.3984 49.3555 18.1911 48.1287 14.56 45.8083L13.7899 45.3159ZM64.0191 64.0191L58.2246 62.4158L57.4507 62.9195C54.4509 64.8682 50.9657 65.8984 47.373 65.8984C39.3536 65.8984 32.3067 60.7133 29.81 53.2781C42.0901 51.8623 51.8623 42.0901 53.2787 29.8095C60.7133 32.3067 65.8984 39.3536 65.8984 47.373C65.8984 50.9657 64.8682 54.4509 62.9195 57.4507L62.4158 58.2246L64.0191 64.0191Z" fill="#53D687"/>
<path d="M24.6777 37.0508H28.7793V41.1523H24.6777V37.0508Z" fill="#53D687"/>
<path d="M30.8301 20.5078C30.8301 21.6726 30.3558 22.7477 29.4949 23.5354L24.6777 27.9446V32.9492H28.7793V29.7507L32.264 26.5614C33.9591 25.0099 34.9316 22.8037 34.9316 20.5078C34.9316 15.9843 31.252 12.3047 26.7285 12.3047C22.205 12.3047 18.5254 15.9843 18.5254 20.5078H22.627C22.627 18.2461 24.4668 16.4062 26.7285 16.4062C28.9902 16.4062 30.8301 18.2461 30.8301 20.5078Z" fill="#53D687"/>
</svg>
