<svg width="508" height="430" viewBox="0 0 508 430" fill="none" xmlns="http://www.w3.org/2000/svg">
<path d="M253.89 429.427C394.11 429.427 507.78 422.791 507.78 414.604C507.78 406.418 394.11 399.781 253.89 399.781C113.67 399.781 0 406.418 0 414.604C0 422.791 113.67 429.427 253.89 429.427Z" fill="#F5F5F5"/>
<path d="M439.165 84.7148H330.14C325.902 84.7148 321.836 86.3949 318.835 89.3869C315.833 92.3789 314.139 96.4388 314.125 100.677V159.681C314.139 163.913 315.827 167.967 318.821 170.957C321.814 173.948 325.869 175.633 330.101 175.643H341.14L336.884 193.02C343.116 192.451 349.168 190.62 354.67 187.637C360.172 184.654 365.009 180.582 368.887 175.67H439.165C443.397 175.659 447.452 173.975 450.445 170.984C453.439 167.993 455.127 163.939 455.141 159.707V100.677C455.127 96.4456 453.439 92.3916 450.445 89.4007C447.452 86.4098 443.397 84.7252 439.165 84.7148Z" fill="#F6F7F8"/>
<path d="M439.165 84.7148H330.14C325.902 84.7148 321.836 86.3949 318.835 89.3869C315.833 92.3789 314.139 96.4388 314.125 100.677V159.681C314.139 163.913 315.827 167.967 318.821 170.957C321.814 173.948 325.869 175.633 330.101 175.643H341.14L336.884 193.02C343.116 192.451 349.168 190.62 354.67 187.637C360.172 184.654 365.009 180.582 368.887 175.67H439.165C443.397 175.659 447.452 173.975 450.445 170.984C453.439 167.993 455.127 163.939 455.141 159.707V100.677C455.127 96.4456 453.439 92.3916 450.445 89.4007C447.452 86.4098 443.397 84.7252 439.165 84.7148Z" fill="#F6F7F8"/>
<path d="M426.319 143.658C433.768 143.658 439.806 137.62 439.806 130.171C439.806 122.722 433.768 116.684 426.319 116.684C418.87 116.684 412.832 122.722 412.832 130.171C412.832 137.62 418.87 143.658 426.319 143.658Z" fill="#FFD600"/>
<path d="M384.652 143.658C392.101 143.658 398.14 137.62 398.14 130.171C398.14 122.722 392.101 116.684 384.652 116.684C377.203 116.684 371.165 122.722 371.165 130.171C371.165 137.62 377.203 143.658 384.652 143.658Z" fill="#FFD600"/>
<path d="M342.999 143.658C350.447 143.658 356.486 137.62 356.486 130.171C356.486 122.722 350.447 116.684 342.999 116.684C335.55 116.684 329.511 122.722 329.511 130.171C329.511 137.62 335.55 143.658 342.999 143.658Z" fill="#FFD600"/>
<path d="M426.319 143.701C433.768 143.701 439.807 137.663 439.807 130.214C439.807 122.765 433.768 116.727 426.319 116.727C418.87 116.727 412.832 122.765 412.832 130.214C412.832 137.663 418.87 143.701 426.319 143.701Z" fill="#919191"/>
<path d="M384.652 143.701C392.101 143.701 398.14 137.663 398.14 130.214C398.14 122.765 392.101 116.727 384.652 116.727C377.204 116.727 371.165 122.765 371.165 130.214C371.165 137.663 377.204 143.701 384.652 143.701Z" fill="#919191"/>
<path d="M342.999 143.701C350.447 143.701 356.486 137.663 356.486 130.214C356.486 122.765 350.447 116.727 342.999 116.727C335.55 116.727 329.511 122.765 329.511 130.214C329.511 137.663 335.55 143.701 342.999 143.701Z" fill="#919191"/>
<path d="M171.827 0H280.865C285.098 0.0138098 289.154 1.70136 292.146 4.69433C295.139 7.6873 296.827 11.7427 296.841 15.9753V74.9662C296.813 79.1898 295.12 83.2318 292.128 86.2134C289.137 89.1951 285.089 90.8755 280.865 90.8892H269.827L274.122 108.226C267.888 107.66 261.835 105.83 256.331 102.85C250.827 99.8693 245.987 95.7999 242.106 90.8892H171.827C167.596 90.8754 163.542 89.1874 160.551 86.194C157.56 83.2007 155.875 79.1453 155.865 74.9138V15.9884C155.872 11.7547 157.555 7.69594 160.546 4.69977C163.538 1.70361 167.594 0.0138415 171.827 0Z" fill="#F6F7F8"/>
<path opacity="0.1" d="M171.827 0H280.865C285.098 0.0138098 289.154 1.70136 292.146 4.69433C295.139 7.6873 296.827 11.7427 296.841 15.9753V74.9662C296.813 79.1898 295.12 83.2318 292.128 86.2134C289.137 89.1951 285.089 90.8755 280.865 90.8892H269.827L274.122 108.226C267.888 107.66 261.835 105.83 256.331 102.85C250.827 99.8693 245.987 95.7999 242.106 90.8892H171.827C167.596 90.8754 163.542 89.1874 160.551 86.194C157.56 83.2007 155.875 79.1453 155.865 74.9138V15.9884C155.872 11.7547 157.555 7.69594 160.546 4.69977C163.538 1.70361 167.594 0.0138415 171.827 0Z" fill="#FAFAFA"/>
<path d="M277.526 20.5625H175.167V30.2525H277.526V20.5625Z" fill="#FFD600"/>
<path d="M254.113 40.6289H175.167V50.3189H254.113V40.6289Z" fill="#FFD600"/>
<path d="M264.419 60.7031H175.167V70.3931H264.419V60.7031Z" fill="#FFD600"/>
<path d="M277.524 20.5273H175.164V30.2173H277.524V20.5273Z" fill="#919191"/>
<path d="M254.111 40.5938H175.164V50.2837H254.111V40.5938Z" fill="#919191"/>
<path d="M264.416 60.6641H175.164V70.354H264.416V60.6641Z" fill="#919191"/>
<path d="M316.808 277.25C316.088 277.25 315.354 277.25 314.608 277.315C299.052 278.428 286.468 291.602 285.473 307.813C285.252 311.392 285.592 314.984 286.481 318.459C289.914 332.401 291.569 346.723 291.405 361.081V402.984C291.376 404.406 291.911 405.781 292.892 406.811C293.873 407.841 295.221 408.442 296.642 408.483H400.547V277.25H316.808Z" fill="#2A4A5F"/>
<path opacity="0.3" d="M316.808 277.25C316.088 277.25 315.354 277.25 314.608 277.315C299.052 278.428 286.468 291.602 285.473 307.813C285.252 311.392 285.592 314.984 286.481 318.459C289.914 332.401 291.569 346.723 291.405 361.081V402.984C291.376 404.406 291.911 405.781 292.892 406.811C293.873 407.841 295.221 408.442 296.642 408.483H400.547V277.25H316.808Z" fill="#2A4A5F"/>
<path d="M431.974 309.961C431.974 291.144 416.719 276.02 398.374 277.329C382.817 278.442 370.233 291.615 369.238 307.826C369.018 311.406 369.358 314.998 370.247 318.472C373.68 332.415 375.334 346.736 375.17 361.095V402.997C375.142 404.419 375.676 405.795 376.657 406.825C377.638 407.855 378.986 408.456 380.408 408.497H420.674C422.097 408.459 423.446 407.859 424.428 406.829C425.41 405.798 425.943 404.42 425.911 402.997V358.633C425.824 345.179 427.488 331.771 430.861 318.747C431.61 315.879 431.985 312.925 431.974 309.961Z" fill="#4C6575"/>
<path d="M357.31 328.789H224.846V408.43H357.31V328.789Z" fill="#345266"/>
<path opacity="0.3" d="M357.31 328.789H224.846V408.43H357.31V328.789Z" fill="black"/>
<path d="M154.529 233.391H300.795C307.227 233.391 313.395 235.946 317.943 240.494C322.491 245.042 325.046 251.21 325.046 257.642V346.789H130.265V257.642C130.265 254.456 130.893 251.301 132.112 248.358C133.332 245.415 135.119 242.741 137.373 240.489C139.626 238.237 142.301 236.451 145.245 235.233C148.189 234.015 151.344 233.389 154.529 233.391Z" fill="#4C6575"/>
<path d="M154.529 233.391H300.795C307.227 233.391 313.395 235.946 317.943 240.494C322.491 245.042 325.046 251.21 325.046 257.642V346.789H130.265V257.642C130.265 254.456 130.893 251.301 132.112 248.358C133.332 245.415 135.119 242.741 137.373 240.489C139.626 238.237 142.301 236.451 145.245 235.233C148.189 234.015 151.344 233.389 154.529 233.391Z" fill="#4C6575"/>
<path d="M183.283 233.391H308.31C314.432 233.391 320.304 235.823 324.634 240.152C328.963 244.482 331.395 250.354 331.395 256.476V346.829H160.197V256.476C160.197 253.445 160.794 250.443 161.955 247.642C163.115 244.841 164.815 242.296 166.959 240.152C169.103 238.009 171.648 236.308 174.448 235.148C177.249 233.988 180.251 233.391 183.283 233.391Z" fill="#647E8E"/>
<path d="M232.413 320.488H355.594C357.49 320.488 359.308 321.242 360.649 322.582C361.99 323.923 362.743 325.742 362.743 327.638V346.795C362.743 348.691 361.99 350.51 360.649 351.851C359.308 353.192 357.49 353.945 355.594 353.945H232.413C231.847 353.945 231.304 353.72 230.904 353.32C230.504 352.919 230.279 352.377 230.279 351.81V322.675C230.272 322.39 230.322 322.107 230.426 321.842C230.53 321.577 230.686 321.336 230.885 321.132C231.084 320.928 231.322 320.766 231.584 320.656C231.847 320.545 232.129 320.488 232.413 320.488Z" fill="#458FBE"/>
<path opacity="0.4" d="M232.413 320.488H355.594C357.49 320.488 359.308 321.242 360.649 322.582C361.99 323.923 362.743 325.742 362.743 327.638V346.795C362.743 348.691 361.99 350.51 360.649 351.851C359.308 353.192 357.49 353.945 355.594 353.945H232.413C231.847 353.945 231.304 353.72 230.904 353.32C230.504 352.919 230.279 352.377 230.279 351.81V322.675C230.272 322.39 230.322 322.107 230.426 321.842C230.53 321.577 230.686 321.336 230.885 321.132C231.084 320.928 231.322 320.766 231.584 320.656C231.847 320.545 232.129 320.488 232.413 320.488Z" fill="black"/>
<path d="M287.568 220.227L288.092 222.361L288.694 224.679C289.113 226.224 289.558 227.782 290.004 229.327C290.933 232.444 291.942 235.56 292.989 238.664C294.037 241.767 295.124 244.884 296.302 247.961C296.891 249.506 297.467 251.051 298.07 252.583L298.79 254.429C298.934 254.748 299.123 255.044 299.353 255.307C301.098 257.076 303.226 258.42 305.573 259.235C308.453 260.377 311.417 261.297 314.438 261.985C317.554 262.705 320.763 263.294 324.01 263.805C327.257 264.316 330.557 264.722 333.779 265.115L333.896 271.727C326.885 272.429 319.819 272.399 312.814 271.636C309.143 271.265 305.514 270.56 301.972 269.528C300.055 268.956 298.189 268.224 296.394 267.341C294.328 266.338 292.437 265.012 290.789 263.412C289.835 262.467 289.008 261.401 288.327 260.243C288.144 259.942 287.987 259.615 287.817 259.288L287.503 258.633L286.926 257.467C286.167 255.909 285.407 254.338 284.7 252.753C283.273 249.585 281.898 246.403 280.654 243.142C279.41 239.881 278.218 236.595 277.158 233.229C276.647 231.54 276.163 229.851 275.704 228.123L275.036 225.504C274.827 224.587 274.657 223.801 274.447 222.701L287.568 220.227Z" fill="#FFBE9D"/>
<path d="M283.393 206.289C288.631 207.598 292.35 229.322 292.35 229.322L277.828 239.196C277.828 239.196 263.895 217.315 267.955 211.527C272.223 205.49 275.693 204.338 283.393 206.289Z" fill="#FFD600"/>
<path opacity="0.5" d="M283.393 206.289C288.631 207.598 292.35 229.322 292.35 229.322L277.828 239.196C277.828 239.196 263.895 217.315 267.955 211.527C272.223 205.49 275.693 204.338 283.393 206.289Z" fill="#FAFAFA"/>
<path d="M283.864 214.164L272.59 216.783L271.503 227.809C273.416 231.707 275.527 235.505 277.828 239.188L286.627 233.204C286.26 228.136 285.318 217.595 283.864 214.164Z" fill="#FFD600"/>
<path opacity="0.3" d="M283.864 214.164L272.59 216.783L271.503 227.809C273.416 231.707 275.527 235.505 277.828 239.188L286.627 233.204C286.26 228.136 285.318 217.595 283.864 214.164Z" fill="#FAFAFA"/>
<path d="M331.92 264.975L340.995 255.809L342.186 268.759C342.186 268.759 335.377 273.355 330.676 270.88L331.92 264.975Z" fill="#FFBE9D"/>
<path d="M351.653 254.41L352.059 265.305L342.186 268.736L340.994 255.785L351.653 254.41Z" fill="#FFBE9D"/>
<path d="M283.392 206.297C283.392 206.297 289.481 208.445 277.277 283.477H225.344C226.221 262.342 226.247 249.3 216.178 205.931C223.431 204.43 230.783 203.459 238.177 203.024C246.023 202.461 253.9 202.461 261.747 203.024C271.908 203.954 283.392 206.297 283.392 206.297Z" fill="#FFD600"/>
<path opacity="0.5" d="M283.392 206.297C283.392 206.297 289.481 208.445 277.277 283.477H225.344C226.221 262.342 226.247 249.3 216.178 205.931C223.431 204.43 230.783 203.459 238.177 203.024C246.023 202.461 253.9 202.461 261.747 203.024C271.908 203.954 283.392 206.297 283.392 206.297Z" fill="#FAFAFA"/>
<path d="M267.795 203.705C265.804 203.443 263.762 203.207 261.771 203.024C253.925 202.461 246.048 202.461 238.201 203.024C236.381 203.116 234.574 203.246 232.832 203.417L233.212 204.608C233.422 205.276 238.62 221.094 257.358 229.488L260.946 231.099L263.487 228.087C266.376 224.811 268.307 220.802 269.067 216.501C269.826 212.2 269.386 207.772 267.795 203.705Z" fill="#FFD600"/>
<path opacity="0.3" d="M267.795 203.705C265.804 203.443 263.762 203.207 261.771 203.024C253.925 202.461 246.048 202.461 238.201 203.024C236.381 203.116 234.574 203.246 232.832 203.417L233.212 204.608C233.422 205.276 238.62 221.094 257.358 229.488L260.946 231.099L263.487 228.087C266.376 224.811 268.307 220.802 269.067 216.501C269.826 212.2 269.386 207.772 267.795 203.705Z" fill="black"/>
<path d="M228.354 226.059L221.65 231.755C223.09 239.35 224.046 245.674 224.662 251.292C225.919 245.648 229.101 230.367 228.354 226.059Z" fill="#FFD600"/>
<path opacity="0.3" d="M228.354 226.059L221.65 231.755C223.09 239.35 224.046 245.674 224.662 251.292C225.919 245.648 229.101 230.367 228.354 226.059Z" fill="#FAFAFA"/>
<path d="M247.604 138.062C233.854 133.754 226.194 148.538 227.517 167.027C228.473 180.279 225.801 186.054 217.879 185.661C221.585 194.369 268.293 207.463 281.807 191.894C278.009 189.838 276.111 180.685 278.887 172.488C285.172 153.998 279.345 126.081 247.604 138.062Z" fill="#263238"/>
<path d="M240.535 176.457C242.014 184.052 243.507 197.945 238.191 203.013C238.191 203.013 242.682 217.168 259.482 224.697C262.016 221.74 263.59 218.082 263.995 214.208C264.4 210.335 263.616 206.43 261.748 203.013C253.289 200.996 253.511 194.711 254.978 188.818L240.535 176.457Z" fill="#FFBE9D"/>
<path d="M246.425 181.527L255.002 188.847C254.638 190.216 254.393 191.614 254.269 193.024C251.034 192.566 246.595 189.017 246.255 185.626C246.064 184.261 246.121 182.872 246.425 181.527Z" fill="#9E4541"/>
<path d="M241.242 155.223C238.269 167.558 236.75 172.717 240.954 180.809C247.278 192.974 263.083 193.904 269.683 182.734C275.628 172.651 279.491 154.175 269.12 145.716C266.841 143.84 264.121 142.578 261.218 142.049C258.314 141.521 255.323 141.743 252.53 142.696C249.737 143.649 247.233 145.299 245.257 147.492C243.282 149.684 241.899 152.345 241.242 155.223Z" fill="#FFBE9D"/>
<path d="M239.053 162.484C239.053 162.484 264.587 154.535 252.907 141.113C239.158 144.505 239.053 148.538 239.053 148.538V162.484Z" fill="#263238"/>
<path d="M254.531 148.754C264.143 149.749 273.702 155.406 276.792 160.539C278.573 151.805 272.314 140.897 265.347 139.365C258.381 137.833 249.961 141.107 249.961 141.107L254.531 148.754Z" fill="#263238"/>
<path d="M234.889 163.428C234.847 165.873 235.736 168.241 237.377 170.054C239.577 172.437 242.248 170.879 242.955 167.933C243.584 165.314 243.204 160.822 240.336 159.539C237.469 158.256 234.967 160.443 234.889 163.428Z" fill="#FFBE9D"/>
<path d="M342.816 293.656C313.825 293.25 294.825 313.154 294.825 313.154C297.601 321.207 299.355 327.257 299.355 327.257C315.239 324.441 333.283 323.197 348.159 319.623C361.594 316.388 363.139 300.177 361.764 293.434C360.389 286.69 352.768 285.132 345.304 282.958C336.78 280.509 320.503 280.444 308.836 280.522C296.527 280.588 280.355 281.753 271.975 283.521C271.975 283.521 254.179 282.958 241.006 283.285C233.307 282.185 237.837 293.368 249.989 302.835C256.288 307.64 263.498 311.114 271.18 313.048C278.863 314.981 286.858 315.334 294.681 314.084H294.772" fill="#263238"/>
<path d="M297.548 325.328L293.855 311.447C293.799 311.206 293.656 310.994 293.453 310.851C293.25 310.709 293.002 310.646 292.756 310.675L281.35 311.984C281.057 312.025 280.777 312.128 280.528 312.287C280.279 312.447 280.067 312.658 279.908 312.907C279.748 313.156 279.645 313.437 279.605 313.729C279.564 314.022 279.588 314.32 279.674 314.603C281.049 319.422 281.953 321.674 283.602 327.776C284.598 331.534 286.221 339.404 287.649 344.59C289.076 349.775 294.196 348.688 294.13 346.41C293.633 336.17 295.44 331.6 297.365 327.606C297.693 326.892 297.758 326.085 297.548 325.328Z" fill="#263238"/>
<path d="M299.078 333.476C298.775 333.474 298.479 333.383 298.227 333.214C296.695 332.218 296.25 328.565 296.119 326.483C296.114 326.439 296.124 326.395 296.147 326.356C296.17 326.318 296.204 326.288 296.245 326.271C296.285 326.253 296.331 326.249 296.374 326.259C296.417 326.269 296.456 326.292 296.485 326.326C296.917 326.797 300.715 331.014 300.309 332.716C300.272 332.864 300.197 333 300.091 333.11C299.985 333.221 299.853 333.301 299.706 333.345C299.508 333.432 299.294 333.476 299.078 333.476ZM296.59 327.085C296.852 330.11 297.533 332.245 298.463 332.847C298.623 332.954 298.807 333.02 298.999 333.038C299.191 333.056 299.385 333.027 299.562 332.952C299.642 332.929 299.714 332.885 299.772 332.825C299.829 332.766 299.87 332.692 299.89 332.611C300.165 331.498 297.886 328.578 296.59 327.085Z" fill="#FFD600"/>
<path d="M297.586 327.764L292.793 309.785L299.105 307.18L307.996 326.481L297.586 327.764Z" fill="#FFD600"/>
<path opacity="0.6" d="M297.586 327.764L292.793 309.785L299.105 307.18L307.996 326.481L297.586 327.764Z" fill="#FAFAFA"/>
<path d="M301.372 329.614C299.839 329.614 297.09 327.767 296.134 326.641C296.118 326.609 296.109 326.573 296.109 326.537C296.109 326.5 296.118 326.464 296.134 326.432C296.148 326.398 296.169 326.367 296.196 326.342C296.223 326.317 296.256 326.299 296.291 326.288C296.435 326.288 299.8 325.672 301.529 326.864C301.771 327.025 301.977 327.235 302.133 327.481C302.288 327.727 302.39 328.003 302.432 328.291C302.563 329.064 302.236 329.391 301.948 329.509C301.769 329.595 301.57 329.632 301.372 329.614ZM296.762 326.641C298.072 327.951 300.848 329.496 301.725 329.116C301.804 329.116 302.052 328.959 301.961 328.344C301.927 328.112 301.844 327.891 301.718 327.695C301.591 327.498 301.424 327.331 301.227 327.204C300.01 326.353 297.679 326.537 296.762 326.641Z" fill="#FFD600"/>
<path d="M235.283 284.183C219.163 282.114 195.318 281.315 193.957 298.116C192.595 314.916 204.183 332.161 235.702 333.091C267.22 334.021 274.03 326.099 275.156 319.342C276.596 310.804 279.084 308.631 271.555 304.768C264.025 300.905 262.637 287.679 235.283 284.183Z" fill="#263238"/>
<path d="M269.38 328.2L265.674 314.32C265.603 314.082 265.623 313.826 265.729 313.601C265.836 313.376 266.021 313.199 266.251 313.102L276.818 308.598C277.087 308.494 277.375 308.449 277.663 308.464C277.95 308.479 278.232 308.554 278.489 308.685C278.746 308.816 278.972 308.999 279.153 309.224C279.335 309.448 279.467 309.707 279.541 309.986C280.746 314.857 281.087 317.266 282.71 323.368C283.706 327.127 286.167 334.787 287.555 339.972C288.943 345.158 283.876 346.808 282.841 344.765C278.18 335.599 274.291 332.587 270.676 330.06C270.041 329.61 269.582 328.952 269.38 328.2Z" fill="#263238"/>
<path d="M271.331 336.268C271.21 336.27 271.091 336.247 270.98 336.199C270.87 336.152 270.77 336.081 270.689 335.993C269.484 334.683 270.689 329.184 270.82 328.555C270.828 328.511 270.85 328.47 270.883 328.44C270.916 328.409 270.958 328.39 271.003 328.385C271.046 328.379 271.09 328.387 271.128 328.408C271.166 328.429 271.196 328.463 271.213 328.503C272.142 330.375 273.57 333.741 272.732 335.39C272.615 335.624 272.443 335.824 272.231 335.975C272.019 336.126 271.772 336.222 271.514 336.255L271.331 336.268ZM271.108 329.262C270.728 331.213 270.204 334.867 270.99 335.692C271.047 335.755 271.119 335.801 271.2 335.826C271.28 335.852 271.366 335.855 271.448 335.836C271.64 335.811 271.823 335.74 271.98 335.628C272.138 335.516 272.265 335.367 272.352 335.194C273.046 333.845 271.802 330.781 271.108 329.236V329.262Z" fill="#FFD600"/>
<path d="M267.614 333.98C267.3 333.98 266.92 333.822 266.671 333.155C266.568 332.883 266.521 332.594 266.532 332.303C266.543 332.013 266.613 331.728 266.737 331.466C267.601 329.606 270.822 328.441 270.953 328.401C270.985 328.382 271.021 328.371 271.058 328.371C271.095 328.371 271.132 328.382 271.163 328.401C271.195 328.422 271.219 328.452 271.233 328.487C271.247 328.522 271.25 328.561 271.241 328.598C270.966 330.222 269.12 333.836 267.693 333.94L267.614 333.98ZM270.731 328.951C269.88 329.305 267.758 330.261 267.13 331.649C267.04 331.856 266.994 332.078 266.994 332.304C266.994 332.529 267.04 332.752 267.13 332.958C267.339 333.534 267.627 333.508 267.706 333.495C268.609 333.456 270.272 330.745 270.731 328.951Z" fill="#FFD600"/>
<path d="M269.971 328.013L266.96 311.173L259.601 310.898L260.164 332.334L269.971 328.013Z" fill="#FFD600"/>
<path opacity="0.6" d="M269.971 328.013L266.96 311.173L259.601 310.898L260.164 332.334L269.971 328.013Z" fill="#FAFAFA"/>
<path d="M258.566 164.24C258.265 165.222 258.566 166.178 259.194 166.387C259.823 166.597 260.609 165.942 260.91 164.96C261.211 163.978 260.91 163.009 260.281 162.812C259.653 162.616 258.88 163.271 258.566 164.24Z" fill="#263238"/>
<path d="M269.707 167.701C269.405 168.696 269.707 169.652 270.335 169.848C270.964 170.045 271.749 169.403 272.05 168.421C272.352 167.439 272.05 166.47 271.422 166.274C270.793 166.077 270.021 166.719 269.707 167.701Z" fill="#263238"/>
<path d="M271.122 166.246H273.741C273.741 166.246 271.921 167.765 271.122 166.246Z" fill="#263238"/>
<path d="M266.251 168.484C266.437 171.003 266.971 173.484 267.836 175.857C267.222 176.06 266.571 176.126 265.929 176.052C265.286 175.977 264.668 175.763 264.117 175.424L266.251 168.484Z" fill="#A02724"/>
<path d="M258.603 177.566C258.591 177.571 258.577 177.574 258.564 177.574C258.55 177.574 258.537 177.571 258.525 177.566C256.536 176.496 255.039 174.699 254.347 172.55C254.339 172.526 254.337 172.501 254.339 172.476C254.341 172.45 254.349 172.426 254.361 172.404C254.374 172.382 254.39 172.362 254.41 172.347C254.431 172.332 254.454 172.321 254.478 172.315C254.527 172.302 254.578 172.309 254.622 172.333C254.666 172.358 254.699 172.398 254.714 172.446C255.383 174.472 256.784 176.176 258.642 177.225C258.679 177.246 258.709 177.279 258.725 177.319C258.742 177.358 258.746 177.402 258.735 177.443C258.725 177.485 258.701 177.522 258.668 177.548C258.635 177.575 258.593 177.59 258.551 177.592L258.603 177.566Z" fill="#263238"/>
<path d="M258.016 157.712C257.932 157.711 257.851 157.682 257.784 157.632C257.718 157.581 257.669 157.51 257.646 157.429C257.623 157.349 257.626 157.263 257.654 157.184C257.683 157.106 257.736 157.038 257.806 156.992C258.561 156.468 259.43 156.132 260.341 156.011C261.252 155.89 262.179 155.989 263.044 156.298C263.137 156.341 263.21 156.418 263.249 156.512C263.288 156.607 263.289 156.713 263.253 156.809C263.234 156.856 263.205 156.898 263.168 156.934C263.131 156.97 263.088 156.997 263.04 157.016C262.992 157.034 262.941 157.043 262.89 157.041C262.839 157.039 262.789 157.027 262.743 157.005C261.988 156.747 261.184 156.671 260.394 156.782C259.605 156.894 258.852 157.19 258.199 157.647C258.144 157.684 258.081 157.706 258.016 157.712Z" fill="#263238"/>
<path d="M276.765 164.311C276.694 164.311 276.625 164.292 276.565 164.255C276.505 164.218 276.456 164.165 276.425 164.101C276.065 163.39 275.544 162.773 274.902 162.3C274.261 161.827 273.518 161.511 272.732 161.378C272.681 161.375 272.631 161.361 272.585 161.338C272.539 161.315 272.499 161.283 272.466 161.244C272.433 161.205 272.408 161.159 272.393 161.11C272.378 161.061 272.373 161.01 272.378 160.959C272.391 160.859 272.442 160.768 272.52 160.705C272.598 160.642 272.697 160.611 272.797 160.618C273.715 160.753 274.586 161.108 275.337 161.653C276.087 162.198 276.694 162.917 277.105 163.748C277.152 163.839 277.162 163.944 277.133 164.042C277.104 164.139 277.037 164.222 276.948 164.272C276.891 164.297 276.828 164.311 276.765 164.311Z" fill="#263238"/>
<path d="M259.978 162.781H262.597C262.597 162.781 260.777 164.313 259.978 162.781Z" fill="#263238"/>
<path d="M224.572 280.412L224.153 285.06C223.97 285.427 224.402 285.793 225.004 285.793H277.539C277.998 285.793 278.391 285.558 278.417 285.27L278.888 280.621C278.888 280.294 278.521 280.019 277.998 280.019H225.41C225.248 280.005 225.086 280.035 224.939 280.104C224.792 280.172 224.665 280.279 224.572 280.412Z" fill="#FFD600"/>
<path opacity="0.3" d="M224.572 280.412L224.153 285.06C223.97 285.427 224.402 285.793 225.004 285.793H277.539C277.998 285.793 278.391 285.558 278.417 285.27L278.888 280.621C278.888 280.294 278.521 280.019 277.998 280.019H225.41C225.248 280.005 225.086 280.035 224.939 280.104C224.792 280.172 224.665 280.279 224.572 280.412Z" fill="black"/>
<path d="M231.629 286.292H230.228C229.939 286.292 229.73 286.147 229.743 285.977L230.411 279.928C230.411 279.757 230.673 279.613 230.948 279.613H232.362C232.637 279.613 232.86 279.757 232.833 279.928L232.179 285.977C232.152 286.147 231.917 286.292 231.629 286.292Z" fill="#263238"/>
<path d="M273.533 286.292H272.224C271.936 286.292 271.726 286.147 271.752 285.977L272.407 279.928C272.407 279.757 272.669 279.613 272.957 279.613H274.358C274.646 279.613 274.856 279.757 274.829 279.928L274.175 285.977C274.109 286.147 273.86 286.292 273.533 286.292Z" fill="#263238"/>
<path d="M252.58 286.292H251.166C250.891 286.292 250.669 286.147 250.695 285.977L251.349 279.928C251.349 279.757 251.624 279.613 251.899 279.613H253.314C253.589 279.613 253.798 279.757 253.785 279.928L253.117 285.977C253.13 286.147 252.882 286.292 252.58 286.292Z" fill="#263238"/>
<path d="M370.327 247.594H279.189L265.976 301.412H357.114L370.327 247.594Z" fill="#FAFAFA"/>
<path d="M324.156 291.395L268.413 304.397L232.638 294.367L233.005 291.395H324.156Z" fill="#FAFAFA"/>
<path d="M223.904 224.502C222.804 228.064 221.625 231.77 220.578 235.436C219.53 239.102 218.417 242.756 217.461 246.422C216.505 250.089 215.589 253.742 214.842 257.33C214.502 259.111 214.188 260.892 213.978 262.568C213.814 263.748 213.735 264.938 213.742 266.13C214.047 267.091 214.577 267.967 215.287 268.683C216.348 269.84 217.529 270.88 218.81 271.786C221.707 273.879 224.773 275.728 227.976 277.312C234.787 280.653 241.782 283.604 248.927 286.151L247.343 292.567C239.39 291.262 231.58 289.196 224.022 286.4C220.061 284.953 216.243 283.143 212.616 280.992C210.624 279.777 208.759 278.365 207.051 276.775C204.892 274.818 203.258 272.351 202.298 269.6C202.022 268.748 201.834 267.87 201.735 266.981V266.3V265.802V264.899C201.735 263.72 201.735 262.594 201.735 261.494C201.852 259.294 202.088 257.212 202.389 255.169C202.979 251.058 203.699 247.103 204.681 243.201C205.663 239.299 206.567 235.436 207.653 231.612C208.74 227.789 209.893 224.031 211.228 220.207L223.904 224.502Z" fill="#FFBE9D"/>
<path d="M216.137 205.916C210.899 207.5 203.042 227.915 203.042 227.915L223.221 242.319C223.221 242.319 232.295 224.864 230.109 218.133C227.765 211.154 222.082 204.109 216.137 205.916Z" fill="#FFD600"/>
<path opacity="0.5" d="M216.137 205.916C210.899 207.5 203.042 227.915 203.042 227.915L223.221 242.319C223.221 242.319 232.295 224.864 230.109 218.133C227.765 211.154 222.082 204.109 216.137 205.916Z" fill="#FAFAFA"/>
<path d="M246.386 286.556L258.512 283.492L252.737 295.133C252.737 295.133 244.54 295.487 241.829 290.917L246.386 286.556Z" fill="#FFBE9D"/>
<path d="M268.32 287.918L262.951 297.412L252.738 295.133L258.512 283.492L268.32 287.918Z" fill="#FFBE9D"/>
<path d="M373.129 247.594H281.991L268.778 301.412H359.916L373.129 247.594Z" fill="#2A4A5F"/>
<path d="M359.915 301.398L359.548 304.371H268.41L268.777 301.398H359.915Z" fill="#FFD600"/>
<path d="M430.156 366.652H428.846V382.353H430.156V366.652Z" fill="#FFD600"/>
<path opacity="0.3" d="M430.156 366.652H428.846V382.353H430.156V366.652Z" fill="black"/>
<path d="M430.156 388.406H428.846V393.984H430.156V388.406Z" fill="#FFD600"/>
<path opacity="0.3" d="M430.156 388.406H428.846V393.984H430.156V388.406Z" fill="black"/>
<path d="M119.016 277.25C118.283 277.25 117.549 277.25 116.803 277.315C101.247 278.428 88.6629 291.602 87.6808 307.813C87.4471 311.392 87.7875 314.986 88.6891 318.459C92.116 332.403 93.7702 346.723 93.6126 361.081V402.984C93.581 404.407 94.1143 405.784 95.096 406.815C96.0776 407.846 97.4276 408.446 98.8505 408.483H226.391V277.25H119.016Z" fill="#2A4A5F"/>
<path opacity="0.3" d="M119.016 277.25C118.283 277.25 117.549 277.25 116.803 277.315C101.247 278.428 88.6629 291.602 87.6808 307.813C87.4471 311.392 87.7875 314.986 88.6891 318.459C92.116 332.403 93.7702 346.723 93.6126 361.081V402.984C93.581 404.407 94.1143 405.784 95.096 406.815C96.0776 407.846 97.4276 408.446 98.8505 408.483H226.391V277.25H119.016Z" fill="#4C6575"/>
<path d="M257.82 309.961C257.82 291.144 242.551 276.02 224.206 277.329C208.65 278.442 196.066 291.615 195.084 307.826C194.85 311.406 195.19 315 196.092 318.472C199.519 332.416 201.173 346.737 201.015 361.095V402.997C200.984 404.42 201.517 405.798 202.499 406.829C203.48 407.859 204.83 408.459 206.253 408.497H246.519C247.941 408.456 249.289 407.855 250.27 406.825C251.251 405.795 251.785 404.419 251.757 402.997V358.633C251.64 345.183 253.273 331.775 256.615 318.747C257.402 315.884 257.807 312.93 257.82 309.961Z" fill="#4C6575"/>
</svg>
