<svg width="501" height="507" viewBox="0 0 501 507" fill="none" xmlns="http://www.w3.org/2000/svg">
<path d="M126.433 3.35547H29.437V104.464H126.433V3.35547Z" fill="#E0E0E0"/>
<path d="M119.864 3.35547H22.8687V104.464H119.864V3.35547Z" fill="#EBEBEB"/>
<path d="M106.83 16.9492H35.9141V90.8697H106.83V16.9492Z" fill="#FAFAFA"/>
<path d="M35.9141 91.3594C35.3924 92.1044 34.7994 92.7968 34.1435 93.427C33.0012 94.5693 31.4019 96.2257 29.5742 97.9963C27.7464 99.767 26.1472 101.332 25.0048 102.44C24.387 103.081 23.71 103.662 22.9829 104.176C23.4842 103.429 24.0624 102.736 24.7078 102.109C25.8502 100.966 27.4494 99.2986 29.2772 97.5394C31.1049 95.7802 32.7042 94.2038 33.9036 93.0843C34.5087 92.4375 35.1829 91.8591 35.9141 91.3594Z" fill="#E0E0E0"/>
<path d="M106.83 91.1406C107.555 91.6653 108.229 92.2583 108.841 92.9112C109.983 94.0536 111.64 95.6529 113.41 97.4806C115.181 99.3083 116.734 100.908 117.854 102.05C118.498 102.665 119.08 103.342 119.59 104.072C118.859 103.559 118.185 102.969 117.58 102.313C116.437 101.17 114.781 99.5711 113.01 97.7433C111.24 95.9156 109.686 94.3163 108.567 93.174C107.918 92.5593 107.336 91.8777 106.83 91.1406Z" fill="#E0E0E0"/>
<path d="M106.636 17.1427C107.156 16.4141 107.75 15.7404 108.407 15.1322C109.549 13.9898 111.137 12.3335 112.919 10.5628C114.701 8.79223 116.346 7.22723 117.545 6.11916C118.165 5.47592 118.846 4.89441 119.579 4.38281C119.056 5.10609 118.463 5.77573 117.808 6.3819C116.666 7.52423 115.078 9.19204 113.239 10.9512C111.4 12.7104 109.812 14.2869 108.601 15.4063C108.006 16.05 107.348 16.6317 106.636 17.1427Z" fill="#E0E0E0"/>
<path d="M35.7198 17.3258C34.9947 16.801 34.3215 16.2081 33.7093 15.5551C32.567 14.4128 30.8992 12.8135 29.14 10.9858C27.3808 9.15807 25.8044 7.5588 24.6849 6.41646C24.0416 5.80386 23.4636 5.12626 22.96 4.39453C23.6823 4.91403 24.3519 5.50326 24.959 6.15372C26.1014 7.29606 27.7692 8.89533 29.5284 10.7231C31.2876 12.5508 32.864 14.1501 33.9835 15.2924C34.6323 15.9071 35.2143 16.5887 35.7198 17.3258Z" fill="#E0E0E0"/>
<path d="M106.636 90.8693C106.636 90.8693 106.636 90.7437 106.636 90.5152C106.636 90.2867 106.636 89.9212 106.636 89.4871C106.636 88.5618 106.636 87.2024 106.636 85.5003C106.636 82.0048 106.636 76.91 106.636 70.433C106.636 57.4903 106.567 39.0416 106.51 16.9488L106.75 17.1773H36.0283L36.291 16.9146C36.291 44.045 36.291 69.462 36.291 90.8351L36.0625 90.6066L87.2848 90.7208L101.655 90.7894H105.459H101.713H87.3762L35.9711 90.9036H35.7427V90.6751C35.7427 69.2678 35.7427 43.8394 35.7427 16.7546V16.4805H36.0168H106.739H106.967V16.7204C106.967 38.8702 106.876 57.3761 106.853 70.4101C106.853 76.8643 106.853 81.9363 106.784 85.4204C106.784 87.1339 106.784 88.459 106.784 89.3614C106.784 89.7955 106.784 90.1268 106.784 90.3667C106.784 90.6066 106.636 90.8693 106.636 90.8693Z" fill="#E0E0E0"/>
<path d="M54.6255 47.8242C54.6255 47.8242 53.1062 66.1016 72.9029 66.1016C72.9257 56.3575 64.8723 48.6467 54.6255 47.8242Z" fill="#EBEBEB"/>
<path d="M90.8945 47.8355C90.8945 47.8355 72.6172 46.3162 72.6172 66.1129C82.3613 66.1471 90.0721 58.0822 90.8945 47.8355Z" fill="#EBEBEB"/>
<path d="M72.0461 37.8203C72.0461 37.8203 57.093 51.2427 72.8686 66.1274C80.2024 58.3595 79.5399 46.1708 72.0461 37.8203Z" fill="#E0E0E0"/>
<path d="M376.158 373.595C370.123 369.822 363.305 367.478 356.225 366.741C352.969 366.41 349.371 366.501 346.789 368.477C346.49 368.654 346.242 368.906 346.072 369.209C345.901 369.512 345.814 369.855 345.818 370.202C345.981 370.681 346.309 371.086 346.743 371.344C354.854 377.525 367.123 378.313 376.158 373.572" fill="#E0E0E0"/>
<path d="M375.645 373.024C371.028 369.637 366.72 365.849 362.77 361.704C358.805 357.529 356.019 352.377 354.694 346.773C354.351 345.071 354.249 343.129 355.334 341.781C365.615 349.778 373.611 360.161 375.645 373.024Z" fill="#E0E0E0"/>
<path d="M376.056 373.515C375.103 367.912 375.18 362.183 376.284 356.608C377.575 351.091 380.579 345.813 385.297 342.66C387.068 346.807 386.302 351.582 385.057 355.911C383.122 362.623 380.104 368.974 376.124 374.714" fill="#E0E0E0"/>
<path d="M386.108 391.578C380.008 392.321 374.685 395.542 370.115 399.666C365.538 403.842 362.349 409.319 360.977 415.362C366.974 414.996 372.057 410.792 375.736 406.04C379.414 401.288 381.984 396.102 386.017 391.669" fill="#E0E0E0"/>
<path d="M388.302 394.419C385.899 388.315 385.059 381.707 385.857 375.196C386.654 368.685 389.066 362.476 392.871 357.133C396.355 369.504 395.076 383.486 388.302 394.419Z" fill="#E0E0E0"/>
<path d="M401.587 410.254C396.005 409.906 390.443 411.209 385.597 414C380.75 416.791 376.832 420.947 374.331 425.95C373.988 426.624 373.691 427.481 374.148 428.086C374.383 428.314 374.671 428.481 374.985 428.573C375.3 428.665 375.632 428.678 375.953 428.612C381.322 428.269 386.085 425.036 390.015 421.358C393.945 417.68 397.372 413.419 401.713 410.243" fill="#E0E0E0"/>
<path d="M401.164 409.396C398.304 400.182 398.13 390.343 400.662 381.032C401.655 377.377 403.335 373.539 406.716 371.825C406.85 371.734 407.002 371.673 407.161 371.646C407.321 371.618 407.484 371.625 407.641 371.665C407.913 371.808 408.121 372.049 408.224 372.339C409.356 374.893 409.846 377.685 409.652 380.473C409.449 383.248 409.021 386.002 408.372 388.709C407.31 393.746 406.75 399.161 403.986 403.502C403.33 404.544 402.743 405.628 402.227 406.746C401.701 407.889 401.701 408.243 401.221 409.122" fill="#E0E0E0"/>
<path d="M436.348 414.639C433.744 404.712 436.508 392.695 442.757 384.561C443.225 383.967 443.83 383.328 444.584 383.419C445.727 383.522 446.035 385.064 445.978 386.218C445.51 396.417 442.172 406.276 436.348 414.662" fill="#E0E0E0"/>
<path d="M439.524 416.798C451.576 419.94 465.398 416.89 475.416 409.499C469.411 406.489 462.55 405.649 455.996 407.123C449.508 408.608 443.579 411.509 439.535 416.798" fill="#E0E0E0"/>
<path d="M442.197 410.197C448.948 399.196 461.879 392.022 474.776 391.371C473.291 396.614 468.973 400.681 464.118 403.149C459.263 405.616 453.837 406.678 448.48 407.718C446.401 408.118 443.545 408.563 442.197 410.197Z" fill="#E0E0E0"/>
<path d="M437.022 378.163C438.85 371.903 440.689 365.598 441.192 359.086C441.694 352.575 440.757 345.801 437.388 340.215C431.082 352.415 430.454 366.66 436.828 378.814" fill="#E0E0E0"/>
<path d="M458.247 367.44C465.615 354.04 480.648 343.348 495.864 341.84C489.992 356.462 473.988 367.748 458.247 367.44Z" fill="#E0E0E0"/>
<path d="M453.609 370.066C464.598 371.734 473.965 378.76 484.235 383.009C486.385 384.053 488.773 384.51 491.157 384.334C492.269 384.329 493.352 383.981 494.259 383.338C495.167 382.696 495.854 381.789 496.229 380.743C496.603 379.696 496.646 378.559 496.352 377.487C496.058 376.415 495.441 375.459 494.584 374.75C493.129 373.408 491.42 372.371 489.558 371.7C478.363 367.039 466.369 366.925 454.58 369.747" fill="#E0E0E0"/>
<path d="M447.246 377.777C449.736 378.485 450.582 379.776 452.558 381.455C459.277 387.166 467.225 391.247 475.782 393.381C476.673 393.598 477.826 393.69 478.272 392.89C478.717 392.09 478.169 391.336 477.666 390.72C473.936 386.341 469.094 383.05 463.65 381.192C458.281 379.205 453.643 376.794 447.246 377.309" fill="#E0E0E0"/>
<path d="M440.061 331.202C444.572 335.353 449.902 338.513 455.707 340.481C461.513 342.448 467.666 343.179 473.771 342.626C474.331 342.637 474.876 342.442 475.302 342.078C476.147 341.152 475.13 339.724 474.159 338.959C464.244 331.237 452.249 328.027 440.072 331.157" fill="#E0E0E0"/>
<path d="M448.571 328.096C454.537 323.703 461.458 320.784 468.768 319.577C476.078 318.37 483.57 318.909 490.632 321.15C485.331 326.371 477.986 329.147 470.584 329.946C463.195 330.623 455.744 329.997 448.571 328.096Z" fill="#E0E0E0"/>
<path d="M445.19 306.699C444.219 296.806 444.847 289.004 444.162 279.066C444.162 278.266 443.945 277.318 443.202 277.033C442.163 276.633 441.306 277.901 440.917 278.952C439.477 283.558 439.108 288.434 439.838 293.205C440.569 297.976 442.38 302.517 445.133 306.482" fill="#E0E0E0"/>
<path d="M444.482 307.785C451.187 303.638 456.213 298.235 460.863 291.872C464.096 287.44 466.826 282.139 466.095 276.702C461.525 276.61 457.23 279.112 454.272 282.573C451.452 286.156 449.403 290.282 448.251 294.693C446.938 299.046 446.024 303.512 444.482 307.785Z" fill="#E0E0E0"/>
<path d="M460.577 303.318C475.323 297.857 488.975 289.807 500.89 279.546C496.081 277.604 490.609 278.769 485.754 280.688C474.754 285.132 465.763 292.626 460.372 303.181" fill="#E0E0E0"/>
<path d="M449.005 313.201C456.453 314.012 464.015 314.549 471.395 313.315C478.774 312.082 485.514 309.226 492.288 306.37C492.892 306.185 493.403 305.776 493.716 305.228C493.821 304.913 493.828 304.575 493.737 304.256C493.645 303.938 493.458 303.655 493.202 303.445C492.682 303.03 492.072 302.745 491.42 302.612C484.052 300.544 476.09 301.469 468.836 303.96C461.925 306.304 455.278 309.367 449.005 313.098" fill="#E0E0E0"/>
<path d="M406.51 331.547C401.438 321.266 401.77 309.34 406.145 298.773C409.241 303.48 409.572 309.466 409.046 315.075C408.521 320.683 406.762 326.429 406.67 332.061" fill="#E0E0E0"/>
<path d="M386.222 321.312C379.866 321.23 373.563 322.475 367.715 324.967C361.867 327.459 356.603 331.144 352.261 335.786C358.589 336.78 365.101 335.146 370.858 332.359C376.615 329.572 381.733 325.608 386.851 321.689" fill="#E0E0E0"/>
<path d="M372.594 316.752C366.392 316.249 360.417 315.484 354.454 317.312C348.491 319.139 343.031 323.286 340.643 329.032C346.494 329.502 352.364 328.393 357.641 325.822C362.886 323.25 367.89 320.215 372.594 316.752Z" fill="#E0E0E0"/>
<path d="M392.779 316.96C387.205 313.304 381.47 309.592 374.982 308.072C368.493 306.553 360.954 307.673 356.419 312.573C361.685 315.658 368.059 316 374.159 316C380.259 316 387.73 315.92 393.476 317.954" fill="#E0E0E0"/>
<path d="M392.814 317.257C383.275 307.89 379.665 291.064 383.504 278.27C391.031 289.794 394.321 303.575 392.814 317.257Z" fill="#E0E0E0"/>
<path d="M419.042 290.72C420.847 286.539 422.103 282.152 423.725 277.891C425.194 273.572 427.452 269.563 430.385 266.068C433.372 262.557 437.617 260.358 442.208 259.945C440.738 266.397 437.941 272.471 433.993 277.782C430.046 283.092 425.036 287.522 419.282 290.788" fill="#E0E0E0"/>
<path d="M414.301 296.249C411.32 292.159 407.881 286.596 403.849 283.535C399.816 280.473 394.55 278.622 389.627 279.799C392.179 284.269 395.737 288.084 400.021 290.939C404.304 293.794 409.193 295.612 414.301 296.249Z" fill="#E0E0E0"/>
<path d="M415.249 291.049C413.296 286.091 411.331 281.077 410.543 275.81C409.755 270.544 410.234 264.912 412.93 260.32C418.162 270.213 419.853 280.882 415.512 291.163" fill="#E0E0E0"/>
<path d="M419.087 260.333C422.057 250.521 431.036 243.29 440.735 239.977C441.94 239.489 443.243 239.293 444.539 239.406C445.183 239.481 445.791 239.742 446.288 240.158C446.785 240.575 447.15 241.127 447.337 241.748C447.691 243.416 446.309 244.912 445.053 246.02C437.468 252.493 428.651 257.362 419.133 260.333" fill="#E0E0E0"/>
<path d="M419.202 252.304C419.579 245.987 419.967 239.567 422.023 233.569C424.079 227.572 428.055 221.952 433.824 219.336C434.806 225.722 431.984 232.073 428.58 237.613C425.176 243.154 421.087 248.294 419.042 254.428" fill="#E0E0E0"/>
<path d="M419.042 256.665C416.597 249.514 416.334 240.433 412.062 234.196C409.069 229.843 404.271 226.873 401.69 222.27C400.133 226.69 400.35 231.542 402.295 235.806C404.24 240.027 406.921 243.868 410.211 247.15C413.387 250.577 416.095 253.078 419.042 256.665Z" fill="#E0E0E0"/>
<path d="M419.087 467.232C418.905 467.232 418.733 419.528 418.722 360.71C418.71 301.891 418.848 254.164 419.042 254.164C419.236 254.164 419.396 301.857 419.407 360.71C419.419 419.563 419.282 467.232 419.087 467.232Z" fill="#E0E0E0"/>
<path d="M460.771 324.348C460.196 324.628 459.595 324.854 458.978 325.022L454.043 326.689C449.885 328.106 444.162 330.116 437.959 332.698C431.756 335.28 426.021 337.473 422.72 340.329C421.406 341.432 420.359 342.818 419.659 344.384C419.19 345.527 419.11 346.189 419.042 346.178C419.014 346.011 419.014 345.841 419.042 345.675C419.116 345.2 419.235 344.734 419.396 344.281C420.018 342.618 421.042 341.135 422.377 339.963C424.37 338.281 426.598 336.899 428.991 335.862C431.63 334.629 434.566 333.338 437.673 332.058C443.899 329.511 449.668 327.489 453.872 326.221C455.973 325.57 457.687 325.079 458.886 324.759C459.5 324.562 460.131 324.424 460.771 324.348Z" fill="#E0E0E0"/>
<path d="M474.434 290.789C474.434 290.789 474.285 290.995 473.931 291.326L472.4 292.765L466.689 297.952L447.669 314.892C440.244 321.495 433.835 327.812 429.391 332.564C427.164 334.94 425.405 336.905 424.205 338.276C423.657 338.916 423.2 339.418 422.823 339.852C422.446 340.286 422.332 340.401 422.309 340.378C422.427 340.164 422.565 339.961 422.72 339.772C423.006 339.384 423.428 338.813 424 338.105C425.142 336.677 426.844 334.678 429.026 332.233C434.766 325.962 440.836 320.002 447.212 314.378C454.66 307.776 461.445 301.813 466.369 297.586L472.229 292.56L473.84 291.223C474.02 291.056 474.22 290.911 474.434 290.789Z" fill="#E0E0E0"/>
<path d="M439.661 321.608C439.467 321.517 441.009 317.941 442.562 313.406C444.116 308.871 444.847 305.056 445.053 305.09C445.258 305.124 444.79 309.043 443.214 313.635C442.555 315.578 441.792 317.485 440.929 319.346C440.617 320.157 440.19 320.919 439.661 321.608Z" fill="#E0E0E0"/>
<path d="M419.133 350.451C418.707 350.051 418.324 349.607 417.991 349.126L415.055 345.368C412.599 342.181 409.195 337.794 405.379 332.985C401.564 328.176 398.057 323.846 395.521 320.751L392.54 317.061C392.148 316.626 391.803 316.152 391.511 315.645C391.964 316.017 392.377 316.434 392.745 316.89C393.511 317.712 394.596 318.934 395.909 320.454C398.548 323.504 402.124 327.765 405.939 332.585C409.755 337.406 413.113 341.838 415.478 345.094C416.62 346.727 417.591 348.053 418.231 348.989C418.573 349.45 418.875 349.939 419.133 350.451Z" fill="#E0E0E0"/>
<path d="M409.994 338.744C409.88 338.869 407.447 335.968 406.168 331.581C405.447 329.243 405.153 326.793 405.299 324.35H405.596C405.471 324.899 405.368 325.196 405.311 325.184C405.254 325.173 405.254 324.864 405.311 324.305H405.619C405.762 326.685 406.172 329.042 406.842 331.33C408.064 335.602 410.177 338.63 409.994 338.744Z" fill="#E0E0E0"/>
<path d="M398.251 323.905C397.43 323.275 396.532 322.753 395.578 322.351C393.173 321.632 390.642 321.429 388.153 321.757C385.633 321.952 383.134 322.357 380.682 322.968C379.678 323.29 378.651 323.534 377.609 323.699C378.527 323.155 379.52 322.751 380.557 322.5C383.011 321.737 385.544 321.258 388.107 321.072C390.688 320.728 393.313 321.01 395.761 321.894C396.802 322.25 397.684 322.962 398.251 323.905Z" fill="#E0E0E0"/>
<path d="M395.396 320.307C395.396 320.409 393.842 319.678 391.306 318.81C384.671 316.537 377.566 315.998 370.664 317.245C368.025 317.713 366.426 318.205 366.392 318.09C366.726 317.88 367.093 317.725 367.477 317.633C368.489 317.279 369.523 316.989 370.573 316.765C377.542 315.234 384.808 315.786 391.466 318.353C392.466 318.736 393.443 319.179 394.39 319.678C395.064 320.044 395.418 320.261 395.396 320.307Z" fill="#E0E0E0"/>
<path d="M419.042 305.088C418.859 305.088 417.522 300.519 416.06 294.716C414.598 288.913 413.547 284.218 413.776 284.172C414.004 284.127 415.295 288.742 416.757 294.545C418.219 300.348 419.225 305.043 419.042 305.088Z" fill="#E0E0E0"/>
<path d="M419.236 305.088C419.03 305.157 418.162 302.05 415.923 298.874C414.519 296.997 412.88 295.308 411.045 293.848C411.74 294.021 412.386 294.353 412.93 294.819C414.313 295.832 415.514 297.071 416.483 298.486C417.961 300.409 418.91 302.685 419.236 305.088Z" fill="#E0E0E0"/>
<path d="M419.087 441.839C419.019 441.839 418.87 440.696 418.333 438.663C417.547 435.811 416.479 433.045 415.146 430.404C411.856 423.676 405.859 415.131 398.24 406.586C394.459 402.268 390.803 398.202 387.696 394.306C384.906 390.875 382.381 387.236 380.145 383.42C378.65 380.845 377.377 378.147 376.341 375.355C375.987 374.35 375.736 373.584 375.587 373.07C375.489 372.774 375.428 372.467 375.405 372.156C375.473 372.156 375.816 373.299 376.604 375.195C377.733 377.932 379.061 380.581 380.579 383.123C382.857 386.878 385.403 390.462 388.199 393.849C391.317 397.699 394.984 401.754 398.765 406.072C406.408 414.651 412.393 423.287 415.603 430.141C416.906 432.827 417.913 435.646 418.608 438.549C418.798 439.335 418.939 440.132 419.03 440.936C419.084 441.234 419.103 441.537 419.087 441.839Z" fill="#E0E0E0"/>
<path d="M456.762 399.266C456.126 399.685 455.466 400.067 454.785 400.408C452.999 401.425 451.288 402.57 449.668 403.835C447.268 405.7 445.018 407.751 442.939 409.969C440.575 412.46 438.142 415.361 435.663 418.457C430.705 424.683 426.067 430.189 423.291 434.587C421.875 436.768 420.847 438.608 420.173 439.898C419.862 440.587 419.499 441.252 419.087 441.886C419.12 441.691 419.181 441.503 419.27 441.326C419.419 440.972 419.624 440.435 419.933 439.784C420.804 437.909 421.784 436.085 422.869 434.324C425.576 429.823 430.179 424.237 435.126 418.023C437.616 414.916 440.072 412.014 442.482 409.524C444.596 407.312 446.888 405.28 449.336 403.447C451.001 402.216 452.771 401.134 454.625 400.214C455.277 399.882 455.768 399.677 456.168 399.528C456.345 399.401 456.548 399.311 456.762 399.266Z" fill="#E0E0E0"/>
<path d="M457.493 413.063C456.12 413.371 454.727 413.573 453.323 413.668C449.974 414.016 446.663 414.666 443.431 415.61C440.236 416.653 437.24 418.224 434.566 420.26C432.521 421.847 431.562 423.15 431.47 423.07C431.614 422.714 431.823 422.388 432.087 422.11C432.736 421.281 433.462 420.515 434.258 419.825C436.9 417.625 439.94 415.954 443.214 414.902C446.491 413.931 449.867 413.333 453.278 413.12C454.678 412.971 456.089 412.952 457.493 413.063Z" fill="#E0E0E0"/>
<path d="M432.681 421.561C432.464 421.435 434.349 418.556 435.8 414.707C437.251 410.857 437.49 407.396 437.742 407.43C437.849 408.19 437.826 408.963 437.673 409.715C437.465 411.514 437.055 413.284 436.451 414.992C435.82 416.685 435.008 418.305 434.029 419.824C433.678 420.473 433.222 421.059 432.681 421.561Z" fill="#E0E0E0"/>
<path d="M468.962 362.207C468.748 362.345 468.523 362.464 468.288 362.561L466.323 363.452C465.466 363.818 464.427 364.286 463.25 364.903C462.074 365.52 460.703 366.137 459.263 367.005L456.979 368.296C456.19 368.753 455.402 369.29 454.58 369.804C452.901 370.832 451.221 372.088 449.428 373.356C441.744 379.094 435.039 386.038 429.574 393.918C428.363 395.757 427.164 397.482 426.204 399.196C425.713 400.041 425.199 400.841 424.776 401.64L423.554 403.925C422.743 405.387 422.172 406.781 421.601 407.98C421.029 409.18 420.584 410.265 420.253 411.11L419.43 413.098C419.346 413.338 419.235 413.568 419.099 413.783C419.133 413.533 419.198 413.287 419.293 413.052C419.487 412.515 419.716 411.841 420.001 411.008C420.363 409.929 420.779 408.869 421.246 407.832C421.783 406.61 422.332 405.193 423.12 403.708L424.262 401.355C424.673 400.544 425.176 399.733 425.667 398.865C426.604 397.128 427.792 395.438 429.003 393.53C434.445 385.55 441.205 378.554 448.994 372.842C450.822 371.563 452.524 370.318 454.226 369.312C455.071 368.798 455.859 368.273 456.659 367.827L458.944 366.559C460.394 365.725 461.799 365.12 462.999 364.549C464.018 364.041 465.063 363.588 466.129 363.189L468.151 362.424C468.409 362.313 468.682 362.24 468.962 362.207Z" fill="#E0E0E0"/>
<path d="M439.147 382.173C439.426 381.212 439.997 380.362 440.781 379.74C442.615 378.137 444.959 377.239 447.395 377.204C449.777 377.187 452.139 377.65 454.34 378.563C455.272 378.857 456.157 379.285 456.967 379.831C456.029 379.645 455.111 379.369 454.226 379.008C452.045 378.263 449.757 377.877 447.452 377.866C445.167 377.914 442.958 378.691 441.146 380.082C440.431 380.731 439.763 381.43 439.147 382.173Z" fill="#E0E0E0"/>
<path d="M434.692 386.778C434.498 386.676 436.177 384.208 436.565 380.678C436.954 377.149 435.937 374.361 436.143 374.304C436.348 374.247 436.6 374.921 436.919 376.086C437.733 379.157 437.354 382.422 435.857 385.225C435.274 386.276 434.806 386.824 434.692 386.778Z" fill="#E0E0E0"/>
<path d="M386.143 448.691C387.171 466.969 392.665 485.463 401.119 504.209H437.856C445.921 485.589 451.027 467.083 451.941 448.691H386.143Z" fill="#E0E0E0"/>
<path d="M445.989 478.132C445.989 478.326 433.892 478.486 418.962 478.486C404.031 478.486 391.946 478.326 391.946 478.132C391.946 477.938 404.043 477.789 418.962 477.789C433.881 477.789 445.989 477.949 445.989 478.132Z" fill="#FAFAFA"/>
<path d="M445.167 484.733C445.167 484.928 433.824 485.087 419.841 485.087C405.859 485.087 394.504 484.928 394.504 484.733C394.504 484.539 405.848 484.391 419.841 484.391C433.835 484.391 445.167 484.551 445.167 484.733Z" fill="#FAFAFA"/>
<path d="M401.678 460.609C402.135 466.243 402.135 471.905 401.678 477.539C401.484 477.539 401.336 473.746 401.336 469.074C401.336 464.402 401.518 460.609 401.678 460.609Z" fill="#FAFAFA"/>
<path d="M421.395 460.609C421.589 460.609 421.738 464.528 421.738 469.371C421.738 474.215 421.589 478.133 421.395 478.133C421.201 478.133 421.052 474.215 421.052 469.371C421.052 464.528 421.201 460.609 421.395 460.609Z" fill="#FAFAFA"/>
<path d="M439.878 460.457C440.072 460.457 440.221 464.455 440.221 469.39C440.221 474.325 440.072 478.335 439.878 478.335C439.684 478.335 439.535 474.336 439.535 469.39C439.535 464.444 439.684 460.457 439.878 460.457Z" fill="#FAFAFA"/>
<path d="M450.799 460.608C450.799 460.803 436.611 460.951 419.11 460.951C401.61 460.951 387.422 460.803 387.422 460.608C387.422 460.414 401.598 460.266 419.11 460.266C436.622 460.266 450.799 460.414 450.799 460.608Z" fill="#FAFAFA"/>
<path d="M431.059 278.746H14.7009V291.574H431.059V278.746Z" fill="#EBEBEB"/>
<path d="M50.7186 290L19.5215 504.154H26.2156L64.6894 291.576L50.7186 290Z" fill="#EBEBEB"/>
<path d="M401.656 288.641L434.566 504.153H427.884L387.673 290.605L401.656 288.641Z" fill="#EBEBEB"/>
<path d="M30.5108 227.078V255.956H25.6902V259.064H30.5108V278.392H120.664V260.8H113.993V256.962H120.664V251.25H123.634V248.645H120.093V227.078H30.5108Z" fill="#F5F5F5"/>
<path d="M96.7092 227.127V278.064H120.641V260.483H113.97V256.976L120.641 257.09V251.344H123.668L123.611 248.374L120.093 248.294V227.047L96.7092 227.127Z" fill="#E0E0E0"/>
<path d="M98.4111 258.644C98.4111 258.827 82.11 258.964 61.9935 258.964C41.877 258.964 25.5645 258.827 25.5645 258.644C25.5645 258.461 41.877 258.324 61.9935 258.324C82.11 258.324 98.4111 258.473 98.4111 258.644Z" fill="#E0E0E0"/>
<path d="M98.4111 255.707C98.4111 255.889 82.11 256.026 61.9935 256.026C41.877 256.026 25.5645 255.889 25.5645 255.707C25.5645 255.524 41.877 255.387 61.9935 255.387C82.11 255.387 98.4111 255.535 98.4111 255.707Z" fill="#E0E0E0"/>
<path d="M103.095 247.812C103.095 247.995 86.7822 248.132 66.6771 248.132C46.572 248.132 30.248 247.995 30.248 247.812C30.248 247.629 46.5492 247.492 66.6771 247.492C86.805 247.492 103.095 247.641 103.095 247.812Z" fill="#E0E0E0"/>
<path d="M103.529 269.347C103.529 269.53 87.2277 269.678 67.1112 269.678C46.9947 269.678 30.6821 269.53 30.6821 269.347C30.6821 269.164 46.9832 269.027 67.1112 269.027C87.2391 269.027 103.529 269.153 103.529 269.347Z" fill="#E0E0E0"/>
<path d="M127.324 207.707H111.605V226.396H127.324V207.707Z" fill="#F5F5F5"/>
<path d="M112.142 206.484H41.1118V227.56H112.142V206.484Z" fill="#E0E0E0"/>
<path d="M127.792 208.263H110.234V206.516H127.792C128.028 206.516 128.255 206.609 128.422 206.777C128.589 206.944 128.683 207.17 128.683 207.407C128.674 207.637 128.576 207.855 128.41 208.015C128.244 208.174 128.023 208.264 127.792 208.263Z" fill="#E0E0E0"/>
<path d="M127.792 227.571H110.234V225.789H127.792C128.028 225.789 128.255 225.883 128.422 226.05C128.589 226.217 128.683 226.444 128.683 226.68C128.683 226.916 128.589 227.143 128.422 227.31C128.255 227.477 128.028 227.571 127.792 227.571Z" fill="#E0E0E0"/>
<path d="M106.568 206.484H98.1714V227.56H106.568V206.484Z" fill="#EBEBEB"/>
<path d="M56.2704 206.723H47.8743V227.799H56.2704V206.723Z" fill="#EBEBEB"/>
<path d="M127.324 210.802C127.324 210.802 123.897 210.893 119.727 210.893C115.558 210.893 112.119 210.893 112.119 210.802C112.119 210.711 115.546 210.699 119.727 210.699C123.908 210.699 127.324 210.745 127.324 210.802Z" fill="#E0E0E0"/>
<path d="M127.324 213.599C127.324 213.599 123.897 213.691 119.727 213.691C115.558 213.691 112.119 213.691 112.119 213.599C112.119 213.508 115.546 213.508 119.727 213.508C123.908 213.508 127.324 213.542 127.324 213.599Z" fill="#E0E0E0"/>
<path d="M127.324 217.048C127.324 217.048 123.897 217.14 119.727 217.14C115.558 217.14 112.119 217.14 112.119 217.048C112.119 216.957 115.546 216.957 119.727 216.957C123.908 216.957 127.324 216.991 127.324 217.048Z" fill="#E0E0E0"/>
<path d="M127.324 220.502C127.324 220.502 123.897 220.593 119.727 220.593C115.558 220.593 112.119 220.593 112.119 220.502C112.119 220.41 115.546 220.41 119.727 220.41C123.908 220.41 127.324 220.444 127.324 220.502Z" fill="#E0E0E0"/>
<path d="M127.324 223.951C127.324 223.951 123.897 224.042 119.727 224.042C115.558 224.042 112.119 224.042 112.119 223.951C112.119 223.859 115.546 223.859 119.727 223.859C123.908 223.859 127.324 223.894 127.324 223.951Z" fill="#E0E0E0"/>
<path d="M93.6476 215.152H61.6965V218.945H93.6476V215.152Z" fill="#EBEBEB"/>
<path d="M97.2231 186.023L106.065 206.791H100.376L96.4463 195.699L97.2231 186.023Z" fill="#E0E0E0"/>
<path d="M70.0814 167.246L66.6658 206.794H95.5554L98.7311 167.246H70.0814Z" fill="#EBEBEB"/>
<path d="M72.9028 170.374L69.9099 203.502L91.6028 203.787L94.5272 170.18L72.9028 170.374Z" fill="#FAFAFA"/>
<path d="M77.5065 174.965L75.8044 197.754H87.3763L89.4096 174.965H77.5065Z" fill="#E0E0E0"/>
<path d="M409.494 20.243L398.813 20.3008L399.101 73.4528L409.781 73.3951L409.494 20.243Z" fill="#E0E0E0"/>
<path d="M333.93 20.3776L306.263 20.5273L306.422 49.8735L334.089 49.7238L333.93 20.3776Z" fill="#EBEBEB"/>
<path d="M361.459 20.2409L333.792 20.3906L333.951 49.7368L361.618 49.5871L361.459 20.2409Z" fill="#F5F5F5"/>
<path d="M306.305 28.6583C324.685 28.8183 343.122 28.6583 361.502 28.407C361.57 28.3936 361.631 28.3573 361.674 28.3041C361.718 28.251 361.741 28.1844 361.741 28.1157C361.741 28.047 361.718 27.9804 361.674 27.9273C361.631 27.8742 361.57 27.8378 361.502 27.8244C343.126 27.7178 324.731 27.8282 306.316 28.1557C306.25 28.1557 306.186 28.1822 306.139 28.2293C306.091 28.2765 306.065 28.3404 306.065 28.407C306.065 28.4737 306.091 28.5376 306.139 28.5847C306.186 28.6319 306.25 28.6583 306.316 28.6583H306.305Z" fill="#E0E0E0"/>
<path d="M339.284 49.2515L289.022 49.5234L289.152 73.4322L339.414 73.1602L339.284 49.2515Z" fill="#EBEBEB"/>
<path d="M389.305 48.9702L339.043 49.2422L339.172 73.1509L389.434 72.879L389.305 48.9702Z" fill="#F5F5F5"/>
<path d="M289.044 56.1873C322.434 56.5643 355.939 56.1873 389.33 55.6961C389.408 55.6961 389.484 55.6648 389.54 55.6091C389.595 55.5534 389.627 55.4779 389.627 55.3991C389.627 55.3203 389.595 55.2448 389.54 55.1891C389.484 55.1334 389.408 55.1021 389.33 55.1021C355.939 54.9308 322.423 54.9422 289.044 55.6847C288.977 55.6847 288.913 55.7112 288.866 55.7583C288.819 55.8054 288.793 55.8694 288.793 55.936C288.793 56.0027 288.819 56.0666 288.866 56.1137C288.913 56.1608 288.977 56.1873 289.044 56.1873Z" fill="#E0E0E0"/>
<path d="M464.975 73.4492H270.253V82.0167H464.975V73.4492Z" fill="#E0E0E0"/>
<path d="M310.04 77.5703H302.135V106.803H310.04V77.5703Z" fill="#E0E0E0"/>
<path d="M428.043 77.5703H420.138V106.803H428.043V77.5703Z" fill="#E0E0E0"/>
<path d="M419.907 0.426586L409.227 0.484375L409.622 73.5927L420.303 73.535L419.907 0.426586Z" fill="#EBEBEB"/>
<path d="M436.602 14.043L420.004 14.1328L420.324 73.3734L436.922 73.2836L436.602 14.043Z" fill="#F5F5F5"/>
<path d="M436.497 25.4692C433.738 25.7553 430.963 25.8507 428.192 25.7547C425.424 25.8509 422.653 25.7555 419.898 25.4692C425.425 25.0884 430.97 25.0884 436.497 25.4692Z" fill="#E0E0E0"/>
<path d="M436.497 22.9809C433.738 23.267 430.963 23.3624 428.192 23.2665C425.424 23.3627 422.653 23.2672 419.898 22.9809C425.425 22.6001 430.97 22.6001 436.497 22.9809Z" fill="#E0E0E0"/>
<path d="M436.497 64.391C430.97 64.7718 425.425 64.7718 419.898 64.391C425.425 64.0103 430.97 64.0103 436.497 64.391Z" fill="#E0E0E0"/>
<path d="M436.497 61.8989C430.97 62.2796 425.425 62.2796 419.898 61.8989C425.425 61.5181 430.97 61.5181 436.497 61.8989Z" fill="#E0E0E0"/>
<path d="M428.466 56.4737C428.306 56.4737 428.169 50.4993 428.169 43.1198C428.169 35.7403 428.306 29.7773 428.466 29.7773C428.626 29.7773 428.752 35.7518 428.752 43.1198C428.752 50.4879 428.614 56.4737 428.466 56.4737Z" fill="#E0E0E0"/>
<path d="M454.74 28.6094H436.668V73.3318H454.74V28.6094Z" fill="#EBEBEB"/>
<path d="M417.488 12.9286C417.491 13.5369 417.312 14.1321 416.976 14.6389C416.64 15.1458 416.161 15.5414 415.599 15.7758C415.038 16.0101 414.42 16.0726 413.823 15.9553C413.226 15.838 412.677 15.5463 412.247 15.117C411.816 14.6877 411.522 14.1402 411.402 13.5438C411.283 12.9474 411.343 12.3289 411.575 11.7668C411.808 11.2046 412.201 10.724 412.707 10.3859C413.213 10.0477 413.807 9.86719 414.415 9.86719C415.228 9.86718 416.008 10.1894 416.584 10.7632C417.16 11.337 417.485 12.1156 417.488 12.9286Z" fill="#E0E0E0"/>
<path d="M415.364 21.3789H413.467V64.8676H415.364V21.3789Z" fill="#E0E0E0"/>
<path d="M480.328 504.156C480.328 504.316 372.949 504.453 240.621 504.453C108.292 504.453 0.890137 504.316 0.890137 504.156C0.890137 503.996 108.201 503.859 240.621 503.859C373.04 503.859 480.328 503.985 480.328 504.156Z" fill="#263238"/>
<path d="M238.656 359.441L285.754 504.152H277.175L222 359.441H238.656Z" fill="#E0E0E0"/>
<path d="M238.656 359.444H237.513H234.315L221.955 359.512L222.069 359.341C231.528 383.981 251.918 437.271 275.542 498.957C276.181 500.648 276.821 502.384 277.461 503.995L277.187 503.812H285.754L285.469 504.201C272.32 463.636 260.589 427.481 252.147 401.459C247.943 388.425 244.562 377.938 242.231 370.684C241.089 367.063 240.175 364.253 239.558 362.334L238.873 360.152C238.724 359.661 238.656 359.398 238.656 359.398C238.656 359.398 238.747 359.627 238.907 360.106L239.627 362.243C240.255 364.15 241.18 366.926 242.368 370.513C244.744 377.744 248.171 388.196 252.444 401.173C260.954 427.23 272.777 463.419 286.028 503.984L286.154 504.372H277.015L276.935 504.178C276.307 502.51 275.656 500.831 275.016 499.14C251.541 437.363 231.265 384.016 221.909 359.41V359.238H222.092L234.521 359.307H237.685C238.325 359.421 238.656 359.444 238.656 359.444Z" fill="#263238"/>
<path d="M145.967 359.441L98.8682 504.152H107.436L162.622 359.441H145.967Z" fill="#E0E0E0"/>
<path d="M145.967 359.444C145.967 359.444 146.321 359.444 147.029 359.444H150.193L162.622 359.375H162.805L162.736 359.546C153.392 384.152 133.115 437.499 109.64 499.277L107.71 504.314L107.641 504.509H98.5027L98.6283 504.12L132.224 401.31L142.3 370.65C143.442 367.063 144.413 364.287 145.041 362.379L145.761 360.243C145.921 359.763 146.012 359.535 146.012 359.535C146.012 359.535 145.944 359.798 145.795 360.289L145.11 362.471C144.493 364.39 143.591 367.2 142.437 370.821C140.095 378.075 136.725 388.562 132.521 401.596C124.068 427.618 112.348 463.773 99.1995 504.337L98.9139 503.949H107.481L107.207 504.132L109.126 499.094C132.75 437.408 153.141 384.072 162.542 359.489L162.668 359.661L150.296 359.592H147.109L145.967 359.444Z" fill="#263238"/>
<path d="M223.211 362.617C222.953 362.837 222.678 363.035 222.389 363.211L219.967 364.81L211.046 370.659C203.518 375.617 193.134 382.494 181.722 390.147L152.501 409.853L143.636 415.804L141.226 417.335C140.954 417.537 140.663 417.713 140.358 417.861C140.609 417.636 140.877 417.43 141.158 417.244L143.511 415.564L152.272 409.464C159.686 404.347 169.979 397.321 181.402 389.668C192.825 382.014 203.232 375.183 210.829 370.317C214.621 367.895 217.683 365.941 219.853 364.605L222.332 363.097C222.612 362.915 222.907 362.755 223.211 362.617Z" fill="#263238"/>
<path d="M132.853 205.17C132.853 205.17 118.094 206.689 115.946 215.577C113.798 224.464 106.807 334.38 115.946 349.95C125.085 365.52 242.745 363.349 250.913 361.213C259.081 359.077 262.93 353.776 262.096 347.299C261.262 340.822 181.139 332.792 181.139 332.792L186.028 218.078C186.028 218.078 157.219 203.571 132.853 205.17Z" fill="#263238"/>
<path d="M262.165 350.074H261.811H260.76L256.728 350.176C253.221 350.268 248.149 350.313 241.877 350.302C229.312 350.302 212.005 349.868 192.917 348.497C183.378 347.8 174.297 346.921 166.06 345.984C157.824 345.047 150.422 344.019 144.23 343.048C141.123 342.591 138.336 342.1 135.88 341.689C133.424 341.278 131.311 340.901 129.586 340.547L125.622 339.781L124.594 339.576L124.251 339.484C124.369 339.469 124.488 339.469 124.605 339.484L125.645 339.633L129.631 340.284C131.356 340.581 133.47 340.935 135.937 341.3C138.405 341.666 141.192 342.146 144.288 342.568C150.49 343.494 157.893 344.442 166.118 345.379C174.342 346.315 183.424 347.149 192.962 347.846C212.039 349.217 229.346 349.685 241.877 349.822C248.137 349.891 253.209 349.902 256.728 349.891H261.822L262.165 350.074Z" fill="#455A64"/>
<path d="M244.893 419.484C244.801 419.621 226.159 406.519 203.266 390.24C180.374 373.962 161.879 360.631 161.971 360.54C162.062 360.448 180.705 373.505 203.609 389.795C226.513 406.084 244.984 419.347 244.893 419.484Z" fill="#263238"/>
<path d="M143.282 106.487L133.858 89.8885C139.679 80.4378 141.754 69.1518 139.676 58.2487C137.597 47.3457 131.516 37.6143 122.627 30.9673C113.738 24.3204 102.685 21.2387 91.6388 22.328C80.5931 23.4173 70.3543 28.5988 62.9349 36.854C55.5156 45.1092 51.4524 55.841 51.544 66.94C51.6356 78.0389 55.8754 88.7022 63.43 96.8338C70.9846 104.965 81.3075 109.977 92.3697 110.884C103.432 111.791 114.433 108.527 123.211 101.734L143.282 106.487Z" fill="#FFD600"/>
<path d="M88.4159 60.6781H91.226L97.3489 52.1335V46.5246C97.3489 46.5246 101.69 46.2619 101.187 53.5957C100.685 60.9295 101.187 59.0674 101.187 59.0674C101.187 59.0674 110.406 59.0675 111.171 59.9128C111.731 60.4839 111.982 69.6455 112.074 74.6032C112.137 75.8013 111.797 76.9862 111.108 77.968C110.418 78.9498 109.418 79.6716 108.27 80.0179C107.946 80.1082 107.612 80.1543 107.276 80.1549C104.991 80.1549 93.2365 78.2815 93.2365 78.2815H88.3816L88.4159 60.6781Z" fill="white"/>
<path d="M80.3738 59.1367L82.1101 78.3394H86.9194V59.5251L80.3738 59.1367Z" fill="white"/>
<path d="M320.995 302.473C320.995 302.473 347.429 302.473 348.514 327.101C349.599 351.73 271.566 481.659 271.566 481.659L246.858 469.928L299.839 343.848L184.875 332.539L188.13 303.615L320.995 302.473Z" fill="#FFBE9D"/>
<path d="M276.787 474.165L276.022 475.912C276.022 475.912 300.239 500.815 298.069 506.55L239.684 480.276L249.222 461.199C256.088 469.138 264.975 473.685 276.787 474.165Z" fill="#455A64"/>
<g opacity="0.6">
<path d="M252.341 470.085C251.702 470.005 251.056 470.162 250.526 470.526C249.995 470.89 249.617 471.437 249.462 472.062C249.357 472.697 249.499 473.349 249.861 473.883C250.222 474.417 250.775 474.791 251.404 474.929C252.081 475.012 252.764 474.842 253.322 474.452C253.881 474.062 254.276 473.479 254.431 472.816C254.476 472.142 254.256 471.478 253.819 470.964C253.382 470.45 252.761 470.126 252.09 470.062" fill="white"/>
</g>
<g opacity="0.6">
<path d="M239.684 480.288L241.969 475.719L297.086 502.575C297.086 502.575 299.177 504.86 298.057 506.573L239.684 480.288Z" fill="white"/>
</g>
<path d="M276.147 476.164C276.01 476.439 274.525 475.936 272.72 476.222C270.915 476.507 269.613 477.364 269.396 477.135C269.179 476.907 270.355 475.445 272.56 475.136C274.765 474.828 276.33 475.924 276.147 476.164Z" fill="#263238"/>
<path d="M281.139 481.452C281.082 481.749 279.62 481.681 278.112 482.458C276.604 483.234 275.747 484.377 275.473 484.24C275.199 484.103 275.736 482.4 277.632 481.475C279.528 480.55 281.253 481.178 281.139 481.452Z" fill="#263238"/>
<path d="M281.322 490.342C281.036 490.342 281.322 488.686 282.704 487.452C284.086 486.218 285.754 486.207 285.766 486.492C285.777 486.778 284.623 487.246 283.481 488.274C282.339 489.303 281.619 490.445 281.322 490.342Z" fill="#263238"/>
<path d="M270.984 209.613L275.679 223.972L250.079 225.972L247.098 218.284L270.984 209.613Z" fill="#FFBE9D"/>
<path d="M343.671 228.449C344.162 229.432 345.441 229.592 346.424 230.106C347.339 230.63 348.088 231.4 348.587 232.329C349.086 233.258 349.314 234.308 349.245 235.36C349.081 237.465 348.385 239.493 347.223 241.255C346.866 241.971 346.346 242.593 345.704 243.071C345.379 243.297 344.992 243.418 344.596 243.418C344.2 243.418 343.813 243.297 343.488 243.071C342.734 242.443 342.825 241.278 342.985 240.307C343.591 236.663 342.803 232.059 343.659 228.461" fill="#FFBE9D"/>
<path d="M173.417 48.4071C173.2 46.8051 173.591 45.1801 174.513 43.8522C175.435 42.5243 176.821 41.5899 178.397 41.2332L206.659 23.2529C217.431 20.8311 231.002 38.8229 232.933 49.6751C234.883 61.6028 235.649 73.6943 235.217 85.7729C234.44 104.347 222.263 106.335 222.263 106.335L231.402 168.101L187.365 140.948L173.417 48.4071Z" fill="#FFBE9D"/>
<path d="M227.061 65.0846C227.137 65.6921 226.972 66.305 226.604 66.7934C226.235 67.2818 225.69 67.6072 225.085 67.7006C224.49 67.8107 223.875 67.6801 223.376 67.3374C222.877 66.9947 222.534 66.468 222.423 65.8728C222.348 65.2654 222.512 64.6525 222.881 64.1641C223.25 63.6757 223.795 63.3503 224.399 63.2569C224.995 63.1467 225.609 63.2774 226.108 63.6201C226.608 63.9628 226.95 64.4895 227.061 65.0846Z" fill="#263238"/>
<path d="M230.694 58.4124C230.465 58.6637 228.592 58.6295 226.227 59.5548C223.862 60.4801 222.297 61.7138 222 61.6452C221.703 61.5767 222 61.2454 222.72 60.6743C223.712 59.8636 224.837 59.2299 226.044 58.8008C227.196 58.3574 228.42 58.129 229.654 58.1268C230.477 58.104 230.808 58.2982 230.694 58.4124Z" fill="#263238"/>
<path d="M203.666 66.2135C203.738 66.8222 203.571 67.4351 203.201 67.9231C202.83 68.4111 202.284 68.7361 201.678 68.8295C201.085 68.9363 200.473 68.8041 199.977 68.4617C199.48 68.1193 199.139 67.5945 199.028 67.0017C198.95 66.3938 199.113 65.7793 199.482 65.2903C199.852 64.8012 200.398 64.4764 201.004 64.3858C201.6 64.2757 202.214 64.4063 202.713 64.749C203.212 65.0917 203.555 65.6184 203.666 66.2135Z" fill="#263238"/>
<path d="M206.122 63.1997C205.779 63.3368 204.02 62.2859 201.29 61.886C198.56 61.4862 196.424 61.886 196.161 61.7033C195.898 61.5205 196.424 61.3263 197.303 61.1092C198.674 60.8371 200.081 60.81 201.461 61.0293C202.799 61.2124 204.089 61.6465 205.265 62.3087C206.076 62.7771 206.339 63.1426 206.122 63.1997Z" fill="#263238"/>
<path d="M217.271 78.7333C218.546 78.1563 219.89 77.7455 221.269 77.511C221.898 77.3739 222.492 77.1797 222.549 76.7228C222.529 76.0534 222.301 75.4068 221.898 74.8722C221.136 73.3491 220.314 71.7917 219.43 70.2001C216.003 63.5403 213.399 58.0342 213.718 57.8971C214.038 57.7601 217.008 63.0491 220.458 69.7089L222.846 74.4153C223.342 75.1455 223.565 76.0274 223.474 76.9056C223.406 77.1428 223.286 77.3615 223.122 77.5455C222.958 77.7295 222.754 77.8739 222.526 77.968C222.181 78.1032 221.82 78.1953 221.452 78.2421C220.084 78.5796 218.68 78.7447 217.271 78.7333Z" fill="#263238"/>
<path d="M222.252 106.38C213.719 107.642 205.004 106.453 197.12 102.953C197.12 102.953 204.626 115.793 222.674 111.955L222.252 106.38Z" fill="#EB996E"/>
<path d="M217.557 84.8927C216.943 84.0925 216.157 83.4401 215.257 82.9834C214.358 82.5268 213.368 82.2775 212.359 82.2539C211.776 82.2661 211.211 82.455 210.737 82.7956C210.264 83.1363 209.906 83.6126 209.709 84.1616C209.512 84.8708 209.489 85.6171 209.642 86.3371C209.795 87.0571 210.12 87.7294 210.589 88.2969C211.049 88.8973 211.675 89.3502 212.389 89.5998C213.104 89.8494 213.875 89.8849 214.61 89.7019C215.801 89.2103 216.817 88.3702 217.523 87.2916C217.779 87.017 217.963 86.6835 218.059 86.3206C218.101 86.0917 218.092 85.8564 218.033 85.6314C217.974 85.4063 217.866 85.197 217.717 85.0184" fill="#EB996E"/>
<path d="M210.063 81.3377C210.474 81.2577 210.794 83.9879 213.353 85.6557C215.912 87.3235 218.791 86.6838 218.859 87.0608C218.859 87.2321 218.276 87.6662 217.043 87.849C215.448 88.0568 213.83 87.6969 212.473 86.8323C211.171 85.9952 210.245 84.6843 209.892 83.1768C209.652 82.0002 209.88 81.3377 210.063 81.3377Z" fill="#263238"/>
<path d="M206.922 51.9674C206.682 52.6528 204.146 52.3672 201.21 52.7784C198.274 53.1897 195.852 54.0236 195.441 53.4182C195.258 53.1211 195.67 52.47 196.584 51.7846C197.861 50.941 199.314 50.3997 200.832 50.2017C202.351 50.0038 203.894 50.1545 205.345 50.6423C206.465 51.1563 207.024 51.6361 206.922 51.9674Z" fill="#263238"/>
<path d="M230.831 52.7794C230.34 53.4077 228.124 53.065 225.53 53.3277C222.937 53.5905 220.79 54.253 220.219 53.7047C219.956 53.442 220.219 52.8251 221.144 52.1854C222.401 51.3794 223.836 50.8898 225.324 50.7585C226.812 50.6272 228.309 50.8581 229.689 51.4315C230.671 51.9227 231.036 52.471 230.831 52.7794Z" fill="#263238"/>
<path d="M161.023 95.8814C161.48 87.5995 162.805 61.0859 168.151 46.6239C173.497 32.162 181.025 25.6849 188.77 22.6349C191.695 21.385 194.893 20.9113 198.055 21.2595C201.217 21.6077 204.236 22.7661 206.819 24.6226C210.794 27.4327 213.102 36.6856 213.102 36.6856C213.102 36.6856 194.31 43.1741 189.113 54.963C183.093 68.4425 182.019 74.9995 182.019 74.9995L180.397 82.1848C180.397 82.1848 183.927 113.416 185.514 119.882L160.04 144.511C160.874 136.377 160.566 104.152 161.023 95.8814Z" fill="#263238"/>
<path d="M213.662 36.7311C213.662 36.7311 224.548 34.2751 230.043 46.2582C232.533 51.6843 235 68.111 235 68.111C235 68.111 235.926 54.6886 234.486 47.3891C233.047 40.0896 228.306 31.1793 222.069 26.6671C215.832 22.1549 211.103 20.4528 201.347 22.1663C204.285 22.9008 206.952 24.4583 209.035 26.6557C210.509 28.3806 211.24 29.9114 213.662 36.7311Z" fill="#263238"/>
<path d="M182.224 75.8889C181.562 71.8679 176.855 69.6746 173.588 72.1077C171.795 73.4329 170.584 75.8318 171.247 80.1041C173.029 91.5274 184.075 87.3465 184.041 87.0267C184.006 86.7068 183.001 80.5839 182.224 75.8889Z" fill="#FFBE9D"/>
<path d="M179.894 83.2457C179.894 83.2457 179.723 83.417 179.414 83.6227C178.97 83.893 178.44 83.9868 177.929 83.8854C176.661 83.6341 175.359 81.8749 174.982 79.8415C174.799 78.8706 174.838 77.8709 175.096 76.9172C175.143 76.5441 175.281 76.1884 175.498 75.8815C175.716 75.5746 176.005 75.3261 176.341 75.158C176.561 75.0657 176.806 75.0516 177.034 75.1182C177.263 75.1847 177.462 75.3278 177.598 75.5235C177.804 75.8205 177.758 76.049 177.826 76.0604C177.895 76.0718 178.043 75.8319 177.826 75.375C177.72 75.1032 177.522 74.877 177.267 74.7353C176.916 74.5493 176.505 74.5083 176.124 74.6211C175.671 74.7875 175.267 75.0668 174.951 75.4325C174.635 75.7983 174.418 76.2385 174.319 76.7115C173.992 77.7691 173.929 78.8911 174.137 79.9786C174.559 82.2633 176.067 84.2281 177.792 84.4451C178.11 84.4855 178.433 84.4542 178.738 84.3534C179.042 84.2526 179.32 84.0848 179.551 83.8626C179.917 83.5199 179.94 83.2571 179.894 83.2457Z" fill="#EB996E"/>
<path d="M193.259 21.3778C193.259 21.4692 194.836 21.2407 197.349 21.2864C198.819 21.3153 200.276 21.5735 201.667 22.0518C203.356 22.6764 204.908 23.623 206.236 24.8391C208.695 27.0362 210.611 29.7733 211.834 32.8354C212.77 35.1201 212.976 36.7422 213.113 36.7193C213.097 36.3531 213.043 35.9895 212.953 35.6341C212.043 31.3544 209.785 27.479 206.51 24.5763C205.14 23.3071 203.528 22.3279 201.77 21.6976C200.341 21.2198 198.843 20.9843 197.337 21.0008C196.329 21.0004 195.322 21.0653 194.322 21.195C193.963 21.2264 193.608 21.2876 193.259 21.3778Z" fill="#455A64"/>
<path d="M172.594 85.3599C172.599 85.2953 172.599 85.2304 172.594 85.1657L172.435 84.6517C172.355 84.4118 172.275 84.1262 172.172 83.8064L171.863 82.664C171.241 80.1668 170.979 77.5932 171.087 75.0218C171.232 71.2074 172.169 67.4649 173.84 64.0325C175.974 59.8769 179.02 56.257 182.75 53.4431C184.664 51.966 186.667 50.6078 188.747 49.3764C190.758 48.1655 192.779 47.1603 194.653 46.0408C197.929 44.042 201.046 41.7925 203.974 39.3124C206.476 37.1991 208.407 35.3828 209.686 34.1034C210.337 33.4637 210.828 32.961 211.16 32.6069L211.537 32.2071C211.617 32.1157 211.662 32.07 211.651 32.0586L211.514 32.1728L211.103 32.5498L209.595 34.0234C208.258 35.2686 206.305 37.0506 203.78 39.1182C200.841 41.5573 197.725 43.7757 194.459 45.7552C192.608 46.8975 190.563 47.8457 188.541 49.068C186.441 50.2989 184.422 51.665 182.498 53.1575C178.706 55.9984 175.612 59.667 173.451 63.884C171.775 67.3643 170.857 71.1604 170.755 75.0218C170.677 77.6149 170.981 80.2054 171.658 82.7097L172 83.8521C172.126 84.1719 172.229 84.4461 172.309 84.686L172.514 85.2C172.56 85.3028 172.583 85.3599 172.594 85.3599Z" fill="#455A64"/>
<path d="M169.453 81.3389C169.453 81.3389 169.453 81.2703 169.453 81.1561L169.385 80.6078C169.385 80.128 169.202 79.4654 169.111 78.5173C168.841 75.9443 168.799 73.3526 168.985 70.7723C169.264 66.9508 170.032 63.1808 171.27 59.5545C172.816 55.1256 175.073 50.978 177.952 47.2744C180.917 43.6143 184.378 40.3848 188.233 37.6788C191.66 35.12 195.087 33.1095 197.817 31.3046C200.548 29.4997 202.821 28.1175 204.34 27.0665C205.105 26.5639 205.677 26.1412 206.065 25.8557L206.511 25.5358L206.659 25.4102C206.659 25.4102 206.591 25.4102 206.488 25.5015L206.019 25.7871L204.249 26.9295C202.718 27.9233 200.456 29.3284 197.657 31.0419C194.859 32.7554 191.523 34.8116 188.005 37.3704C184.141 40.0795 180.679 43.3216 177.724 47.0003C174.787 50.7392 172.49 54.939 170.927 59.4289C169.674 63.0904 168.906 66.9001 168.642 70.7609C168.483 73.3526 168.571 75.9536 168.905 78.5287C169.019 79.4426 169.179 80.1394 169.259 80.6192C169.259 80.8363 169.339 81.019 169.373 81.1561C169.408 81.2932 169.442 81.3389 169.453 81.3389Z" fill="#455A64"/>
<path d="M230.442 125.332C230.442 125.332 245.167 131.318 247.989 138.983C250.81 146.648 272.218 209.945 272.218 209.945L247.372 219.472L236.04 167.381L230.442 125.332Z" fill="#455A64"/>
<path d="M154.317 305.075C154.317 305.075 306.248 298.095 315.786 300.608C325.325 303.122 331.025 307.931 332.921 319.366C334.817 330.8 364.107 482.297 364.107 482.297L337.468 490.133C337.468 490.133 300.09 404.801 298.503 390.522C296.915 376.242 291.649 346.976 291.649 346.976C291.649 346.976 233.892 347.924 191.363 346.976C148.834 346.028 154.546 306.663 154.546 306.663L154.317 305.075Z" fill="#FFBE9D"/>
<path d="M337.136 490.82L336.942 490.363C335.411 486.868 299.519 404.791 297.943 390.58C296.481 377.478 291.877 351.398 291.192 347.549C285.48 347.64 231.368 348.44 191.374 347.549C178.158 347.252 168.208 343.242 161.777 335.646C152.044 324.142 153.78 308.035 153.997 306.676L153.643 304.54H154.283C160.497 304.254 306.43 297.583 315.935 300.096C326.604 302.918 331.687 308.481 333.492 319.299C335.366 330.585 364.335 480.711 364.678 482.23L364.769 482.733L337.136 490.82ZM292.14 346.395L292.231 346.875C292.288 347.16 297.509 376.324 299.085 390.455C300.582 403.946 334.829 482.653 337.799 489.438L363.467 481.899C361.594 472.2 334.201 330.425 332.373 319.459C330.659 309.178 325.816 303.854 315.649 301.181C306.647 298.794 165.763 305.145 154.991 305.636L155.162 306.676V306.756C155.162 306.927 152.878 323.365 162.679 334.926C168.893 342.26 178.557 346.121 191.42 346.418C233.447 347.354 291.1 346.418 291.683 346.418L292.14 346.395Z" fill="#EB996E"/>
<path d="M164.575 223.137L168.402 246.806C168.402 246.806 151.781 278.3 149.908 305.373C149.017 318.236 156.396 344.578 156.396 344.578C156.396 344.578 214.929 351.01 246.503 350.187L280.191 348.714L286.131 296.086L248.32 290.626L248.891 218.91C248.891 218.91 255.745 200.027 256.27 194.441C257.481 182.652 256.979 170.726 245.201 155.442L230.442 125.33L225.519 123.045L227.861 159.52L185.434 119.207L163.947 126.918L157.858 155.648L164.575 223.137Z" fill="#455A64"/>
<g opacity="0.3">
<path d="M238.119 299.338C235.366 299.818 215.501 300.104 212.748 300.583C212.279 300.727 211.786 300.773 211.299 300.72C210.812 300.667 210.341 300.516 209.915 300.275C209.571 299.949 209.332 299.528 209.231 299.066C209.129 298.604 209.168 298.121 209.343 297.682C209.708 296.797 210.28 296.014 211.011 295.397C215.82 290.828 222.069 288.189 228.146 285.607C230.088 284.796 232.19 283.962 234.223 284.465C235.22 284.795 236.122 285.362 236.851 286.118C237.579 286.875 238.112 287.797 238.404 288.806C238.984 290.82 239.223 292.916 239.113 295.009" fill="black"/>
</g>
<g opacity="0.3">
<path d="M166.14 239.642C173.234 237.986 177.689 230.995 180.568 224.301C183.447 217.607 185.823 210.216 191.466 205.601C195.601 202.174 201.141 200.666 204.717 196.691C206.416 194.743 207.543 192.363 207.973 189.815C208.402 187.266 208.118 184.648 207.15 182.252C206.122 179.807 204.054 177.499 201.438 177.362C198.354 177.202 195.955 179.875 194.07 182.331C185.45 193.625 177.32 205.277 169.682 217.287C165.581 223.741 161.491 231.578 164.347 238.671" fill="black"/>
</g>
<path d="M166.186 130.688C166.186 130.688 154.18 134.503 149.839 142.031C145.498 149.559 138.302 186.114 136.565 195.961C134.829 205.807 126.433 246.326 136.565 252.7C146.698 259.075 160.017 249.273 163.49 243.436C166.963 237.599 181.139 207.247 181.139 207.247L168.402 196.543C168.402 196.543 170.687 167.596 169.853 161.508C169.019 155.419 166.186 130.688 166.186 130.688Z" fill="#FFBE9D"/>
<path d="M128.535 205.841L156.396 207.657L169.122 192.716L172.64 169.183L171.703 124.164C171.703 124.164 146.835 130.23 141.454 149.136C137.468 163.106 128.535 205.841 128.535 205.841Z" fill="#455A64"/>
<path d="M177.838 152.599C176.239 152.382 174.194 154.267 175.553 158.813C176.696 162.606 178.843 166.295 178.683 168.409C178.523 170.522 177.701 174.92 177.701 177.205C177.601 179.438 177.384 181.665 177.05 183.876L158.087 206.723L174.502 221.207L187.491 200.805C187.491 200.805 191.409 201.456 193.682 198.852L197.109 194.934C197.109 194.934 205.905 191.678 204.112 186.937C204.112 186.937 206.716 184.458 204.351 180.483C204.351 180.483 205.585 176.348 203.792 173.915C203.792 173.915 203.632 168.374 202.158 167.392C200.685 166.41 185.446 166.25 185.446 166.25C184.616 163.717 183.659 161.227 182.579 158.79C180.911 156.037 180.065 152.896 177.838 152.599Z" fill="#FFBE9D"/>
<path d="M184.326 175.066C184.326 175.123 183.926 174.906 183.572 174.369C183.111 173.646 182.909 172.787 183.001 171.934C183.092 171.081 183.471 170.284 184.075 169.674C184.532 169.229 184.92 169.092 184.955 169.149C184.275 169.971 183.809 170.948 183.595 171.993C183.596 173.061 183.847 174.113 184.326 175.066Z" fill="#EB996E"/>
<path d="M203.152 173.504C200.855 174.174 198.491 174.591 196.104 174.749C193.736 175.093 191.338 175.174 188.953 174.989C191.3 174.58 193.668 174.302 196.047 174.155C198.401 173.802 200.773 173.585 203.152 173.504Z" fill="#EB996E"/>
<path d="M204.5 180.037C202.607 180.806 200.608 181.284 198.571 181.454C196.563 181.825 194.511 181.895 192.483 181.659C192.483 181.488 195.179 181.317 198.491 180.86C201.804 180.403 204.466 179.877 204.5 180.037Z" fill="#EB996E"/>
<path d="M204.169 186.742C201.213 187.649 198.106 187.955 195.03 187.645C196.533 187.316 198.062 187.121 199.599 187.062C201.11 186.823 202.639 186.716 204.169 186.742Z" fill="#EB996E"/>
<path d="M189.775 188.799C189.775 188.868 189.455 188.799 189.067 188.582C188.555 188.233 188.196 187.702 188.062 187.097C187.915 186.499 187.997 185.868 188.29 185.326C188.519 184.926 188.77 184.767 188.827 184.812C188.884 184.858 188.359 185.806 188.633 186.96C188.907 188.114 189.855 188.651 189.775 188.799Z" fill="#EB996E"/>
<path d="M186.028 183.363C186.028 183.42 185.651 183.226 185.297 182.735C184.843 182.086 184.581 181.321 184.543 180.53C184.496 179.736 184.67 178.946 185.046 178.245C185.354 177.72 185.651 177.491 185.709 177.537C185.359 178.482 185.166 179.477 185.137 180.484C185.283 181.484 185.584 182.455 186.028 183.363Z" fill="#EB996E"/>
<path d="M199.485 193.95C198.657 194.389 197.747 194.653 196.812 194.727C195.907 194.987 194.957 195.053 194.025 194.921C194.851 194.477 195.762 194.212 196.698 194.144C197.602 193.877 198.553 193.811 199.485 193.95Z" fill="#EB996E"/>
<path d="M192.14 166.352C192.14 166.523 189.855 166.523 186.965 166.808C184.075 167.094 181.847 167.54 181.802 167.38C183.421 166.694 185.151 166.307 186.908 166.237C188.645 165.965 190.416 166.004 192.14 166.352Z" fill="#EB996E"/>
<path d="M242.3 221.262H336.725C338.392 221.262 339.99 221.924 341.168 223.102C342.346 224.28 343.008 225.878 343.008 227.545V294.474H236.04V227.533C236.043 225.873 236.703 224.281 237.876 223.106C239.049 221.931 240.639 221.268 242.3 221.262Z" fill="#E0E0E0"/>
<path d="M343.008 299.34H217.351C217.351 298.062 217.859 296.835 218.763 295.931C219.667 295.027 220.893 294.52 222.172 294.52H343.008V299.34Z" fill="#E0E0E0"/>
<path d="M339.055 225.969H239.284V294.52H339.055V225.969Z" fill="white"/>
<path d="M339.044 294.478C339.044 294.478 339.044 294.044 339.044 293.221C339.044 292.399 339.044 291.165 339.044 289.589C339.044 286.401 339.044 281.741 338.975 275.778C338.975 263.852 338.907 246.751 338.85 225.926L339.09 226.166H239.33L239.627 225.869C239.627 250.349 239.627 273.596 239.627 294.409L239.364 294.135L311.228 294.272L331.79 294.352H337.262H338.667H339.158H338.701H337.319H331.904L311.445 294.421L239.398 294.558H239.124V294.478C239.124 273.653 239.124 250.406 239.124 225.938V225.641H239.421H339.181H339.421V225.938C339.421 246.82 339.33 263.977 339.295 275.938C339.295 281.878 339.295 286.516 339.295 289.646C339.295 291.211 339.295 292.41 339.295 293.233C339.295 294.055 339.044 294.478 339.044 294.478Z" fill="#263238"/>
<path d="M342.483 294.477C342.483 294.648 315.512 294.774 282.247 294.774C248.982 294.774 222 294.648 222 294.477C222 294.305 248.971 294.18 282.247 294.18C315.523 294.18 342.483 294.362 342.483 294.477Z" fill="#263238"/>
<path d="M177.072 183.876C177.198 183.979 169.327 193.483 159.492 205.089C149.656 216.695 141.58 226.017 141.454 225.937C141.329 225.857 149.199 216.341 159.035 204.723C168.87 193.106 176.947 183.773 177.072 183.876Z" fill="#EB996E"/>
<path d="M175.713 169.148C175.456 172.462 175.002 175.758 174.354 179.018C173.904 182.314 173.256 185.579 172.412 188.797C172.668 185.479 173.122 182.179 173.771 178.915C174.228 175.625 174.877 172.364 175.713 169.148Z" fill="#263238"/>
<path d="M248.891 218.911C248.932 218.678 248.993 218.449 249.074 218.226L249.691 216.307C250.239 214.65 251.05 212.251 251.975 209.27C253.08 205.787 254.003 202.248 254.74 198.669C255.66 194.299 256.07 189.837 255.962 185.372C255.549 177.243 253.266 169.32 249.291 162.217C248.11 160.054 246.814 157.957 245.407 155.934C244.927 155.215 244.516 154.678 244.265 154.301C244.118 154.113 243.991 153.91 243.888 153.695C244.062 153.853 244.219 154.029 244.356 154.221C244.653 154.586 245.099 155.1 245.613 155.809C247.097 157.789 248.456 159.86 249.679 162.012C251.498 165.214 252.994 168.589 254.146 172.087C255.579 176.372 256.406 180.836 256.602 185.349C256.717 189.863 256.287 194.373 255.322 198.783C254.554 202.372 253.585 205.915 252.421 209.396C251.439 212.366 250.57 214.753 249.953 216.387C249.656 217.148 249.417 217.776 249.234 218.272C249.146 218.498 249.031 218.713 248.891 218.911Z" fill="#263238"/>
<path d="M224.617 183.34C224.663 183.872 224.663 184.407 224.617 184.939C224.615 185.566 224.569 186.192 224.479 186.813C224.397 187.641 224.271 188.465 224.103 189.28C223.92 190.269 223.675 191.246 223.371 192.204C223.05 193.317 222.668 194.411 222.229 195.483C221.175 197.9 219.865 200.198 218.322 202.337C216.741 204.472 214.929 206.425 212.919 208.163C212.038 208.915 211.115 209.617 210.155 210.265C209.333 210.848 208.474 211.379 207.584 211.853C206.847 212.279 206.084 212.661 205.3 212.995C204.738 213.268 204.158 213.501 203.563 213.692C203.069 213.895 202.556 214.052 202.033 214.16C201.975 214.034 204.169 213.36 207.322 211.521C208.184 211.026 209.019 210.484 209.823 209.899C210.714 209.305 211.571 208.551 212.508 207.786C216.444 204.323 219.565 200.032 221.646 195.22C222.082 194.174 222.463 193.107 222.789 192.022C223.104 191.077 223.368 190.116 223.577 189.143C224.525 185.624 224.502 183.34 224.617 183.34Z" fill="#263238"/>
<path d="M256.019 193.721C255.954 193.658 255.9 193.584 255.859 193.504L255.459 192.807C255.082 192.179 254.568 191.322 253.917 190.259C253.266 189.197 252.249 187.895 251.187 186.41C250.125 184.925 248.777 183.303 247.349 181.486C241.477 174.312 232.807 164.888 222.869 154.824C212.93 144.76 203.597 135.987 196.755 129.693L192.094 125.523C190.723 124.312 189.535 123.239 188.541 122.416L186.257 120.486L185.674 119.972C185.599 119.918 185.533 119.853 185.48 119.777C185.562 119.818 185.638 119.867 185.708 119.926C185.88 120.051 186.085 120.2 186.325 120.394L188.679 122.233L192.3 125.272C193.705 126.483 195.281 127.865 197.018 129.384C203.952 135.553 213.307 144.315 223.291 154.367C233.275 164.42 241.877 173.924 247.669 181.178C249.085 183.017 250.365 184.673 251.461 186.158L254.111 190.088C254.717 191.23 255.254 192.053 255.562 192.704L255.928 193.389C256.004 193.61 256.034 193.721 256.019 193.721Z" fill="#263238"/>
<path d="M233.835 246.566C233.625 246.64 233.406 246.682 233.184 246.692L231.322 246.955C229.7 247.172 227.335 247.423 224.468 247.686C218.63 248.211 210.531 248.634 201.621 248.531C192.711 248.428 184.577 247.777 178.774 247.115C175.861 246.783 173.508 246.463 171.92 246.201L170.058 245.904C169.84 245.88 169.625 245.83 169.419 245.755C169.639 245.727 169.861 245.727 170.081 245.755L171.955 245.949C173.577 246.144 175.941 246.395 178.809 246.669C184.623 247.229 192.699 247.811 201.655 247.914C210.611 248.017 218.665 247.651 224.502 247.24C227.415 247.035 229.78 246.852 231.356 246.703L233.23 246.555C233.431 246.538 233.634 246.541 233.835 246.566Z" fill="#263238"/>
<path d="M283.31 221.182C283.31 221.182 302.021 213.882 303.792 213.3C305.562 212.717 321.92 211.438 321.92 211.438L343.008 219.011C343.008 219.011 343.202 223.341 338.279 222.758C333.938 222.025 329.658 220.971 325.473 219.605L322.515 221.364L283.31 221.182Z" fill="#FFBE9D"/>
<path d="M341.991 223.961C342.483 224.954 343.762 225.103 344.744 225.628C345.653 226.159 346.398 226.931 346.896 227.858C347.393 228.786 347.626 229.832 347.566 230.883C347.402 232.984 346.706 235.008 345.544 236.766C345.187 237.476 344.671 238.094 344.036 238.571C343.711 238.797 343.324 238.918 342.928 238.918C342.532 238.918 342.145 238.797 341.82 238.571C341.508 238.191 341.298 237.738 341.21 237.254C341.122 236.77 341.159 236.272 341.317 235.807C341.923 232.163 341.135 227.548 341.991 223.949" fill="#FFBE9D"/>
<path d="M363.193 476.645L363.833 478.427C363.833 478.427 398.56 479.786 400.936 485.429L340.529 506.654L334.281 486.263C344.733 487.268 354.294 484.435 363.193 476.645Z" fill="#455A64"/>
<g opacity="0.6">
<path d="M342.665 490.533C342.145 490.916 341.784 491.477 341.651 492.109C341.519 492.741 341.623 493.4 341.946 493.96C342.309 494.504 342.87 494.885 343.509 495.023C344.148 495.162 344.816 495.047 345.373 494.703C345.924 494.299 346.305 493.704 346.442 493.035C346.579 492.366 346.463 491.669 346.115 491.081C345.679 490.567 345.062 490.241 344.392 490.17C343.721 490.1 343.05 490.292 342.517 490.704" fill="white"/>
</g>
<g opacity="0.6">
<path d="M340.529 506.651L339.033 501.751L397.475 483.199C397.475 483.199 400.57 483.428 400.902 485.484L340.529 506.651Z" fill="white"/>
</g>
<path d="M364.107 478.53C364.198 478.827 362.77 479.479 361.651 480.941C360.531 482.403 360.2 483.911 359.892 483.888C359.583 483.865 359.412 482.003 360.794 480.267C362.176 478.531 364.073 478.233 364.107 478.53Z" fill="#263238"/>
<path d="M371.361 478.919C371.532 479.182 370.424 480.13 369.864 481.729C369.305 483.328 369.476 484.756 369.179 484.847C368.882 484.939 368.105 483.328 368.848 481.352C369.59 479.376 371.258 478.645 371.361 478.919Z" fill="#263238"/>
<path d="M377.621 485.246C377.381 485.406 376.479 484.103 376.638 482.196C376.798 480.288 377.986 479.191 378.192 479.385C378.398 479.58 377.861 480.756 377.724 482.298C377.587 483.841 377.907 485.109 377.621 485.246Z" fill="#263238"/>
</svg>
