<svg width="194" height="74" viewBox="0 0 194 74" fill="none" xmlns="http://www.w3.org/2000/svg">
<path d="M30.7255 69.9576C26.6906 69.9576 22.6951 69.1636 18.9673 67.6208C15.2396 66.0781 11.8524 63.8169 8.99928 60.9662C6.14616 58.1156 3.88294 54.7314 2.33884 51.0069C0.794736 47.2824 -1.07425e-06 43.2905 0 39.2591C1.07425e-06 35.2277 0.79474 31.2358 2.33884 27.5113C3.88294 23.7867 6.14617 20.4026 8.99929 17.5519C11.8524 14.7013 15.2396 12.4401 18.9674 10.8973C22.6952 9.35458 26.6906 8.56054 30.7255 8.56055L30.7255 39.2591L30.7255 69.9576Z" fill="#FFD600"/>
<path d="M73.795 27.256C72.2804 27.256 70.9364 26.9573 69.763 26.36C68.611 25.7627 67.715 24.9093 67.075 23.8C66.4564 22.6907 66.147 21.4107 66.147 19.96V11.576C66.147 10.1253 66.4564 8.856 67.075 7.768C67.715 6.68 68.611 5.83733 69.763 5.24C70.9364 4.64267 72.2804 4.344 73.795 4.344C75.3097 4.344 76.643 4.632 77.795 5.208C78.9684 5.784 79.8644 6.60533 80.483 7.672C81.123 8.73867 81.443 9.976 81.443 11.384V11.512C81.443 11.6187 81.4004 11.7147 81.315 11.8C81.251 11.8853 81.1657 11.928 81.059 11.928L76.515 12.12C76.259 12.12 76.131 12.0027 76.131 11.768V11.32C76.131 10.5947 75.9177 10.008 75.491 9.56C75.0644 9.112 74.499 8.888 73.795 8.888C73.091 8.888 72.5257 9.112 72.099 9.56C71.6724 10.008 71.459 10.5947 71.459 11.32V20.28C71.459 21.0053 71.6724 21.592 72.099 22.04C72.5257 22.488 73.091 22.712 73.795 22.712C74.499 22.712 75.0644 22.488 75.491 22.04C75.9177 21.592 76.131 21.0053 76.131 20.28V19.832C76.131 19.5973 76.259 19.48 76.515 19.48L81.059 19.672C81.1657 19.672 81.251 19.7147 81.315 19.8C81.4004 19.8853 81.443 19.9813 81.443 20.088V20.152C81.443 21.56 81.123 22.808 80.483 23.896C79.8644 24.9627 78.9684 25.7947 77.795 26.392C76.643 26.968 75.3097 27.256 73.795 27.256ZM91.6865 27.256C89.7025 27.256 88.0919 26.7653 86.8545 25.784C85.6172 24.7813 84.8812 23.4053 84.6465 21.656C84.5185 20.824 84.4545 19.8427 84.4545 18.712C84.4545 17.4533 84.5292 16.44 84.6785 15.672C84.9132 13.9867 85.6492 12.6533 86.8865 11.672C88.1239 10.6907 89.7239 10.2 91.6865 10.2C93.6492 10.2 95.2385 10.6907 96.4545 11.672C97.6919 12.6533 98.4279 13.976 98.6625 15.64C98.8119 16.4507 98.8865 17.464 98.8865 18.68C98.8865 19.704 98.8332 20.6747 98.7265 21.592C98.4919 23.3627 97.7559 24.7493 96.5185 25.752C95.2812 26.7547 93.6705 27.256 91.6865 27.256ZM91.6865 22.712C92.1559 22.712 92.5399 22.552 92.8385 22.232C93.1585 21.8907 93.3719 21.4427 93.4785 20.888C93.5425 20.2053 93.5745 19.48 93.5745 18.712C93.5745 18.1573 93.5319 17.4107 93.4465 16.472C93.3612 15.9387 93.1585 15.5227 92.8385 15.224C92.5399 14.904 92.1559 14.744 91.6865 14.744C91.1959 14.744 90.7905 14.904 90.4705 15.224C90.1719 15.5227 89.9799 15.9387 89.8945 16.472C89.8092 17.0907 89.7665 17.8373 89.7665 18.712C89.7665 19.48 89.7985 20.2053 89.8625 20.888C89.9692 21.4427 90.1719 21.8907 90.4705 22.232C90.7905 22.552 91.1959 22.712 91.6865 22.712ZM110.979 10.2C112.579 10.2 113.827 10.712 114.723 11.736C115.619 12.7387 116.067 14.1467 116.067 15.96V26.616C116.067 26.7227 116.024 26.8187 115.939 26.904C115.875 26.968 115.789 27 115.683 27H111.139C111.032 27 110.936 26.968 110.851 26.904C110.787 26.8187 110.755 26.7227 110.755 26.616V16.728C110.755 16.1307 110.605 15.6507 110.307 15.288C110.008 14.9253 109.613 14.744 109.123 14.744C108.632 14.744 108.237 14.9253 107.939 15.288C107.64 15.6507 107.491 16.1307 107.491 16.728V26.616C107.491 26.7227 107.448 26.8187 107.363 26.904C107.299 26.968 107.213 27 107.107 27H102.563C102.456 27 102.36 26.968 102.275 26.904C102.211 26.8187 102.179 26.7227 102.179 26.616V10.84C102.179 10.7333 102.211 10.648 102.275 10.584C102.36 10.4987 102.456 10.456 102.563 10.456H107.107C107.213 10.456 107.299 10.4987 107.363 10.584C107.448 10.648 107.491 10.7333 107.491 10.84V11.736C107.491 11.8 107.512 11.8427 107.555 11.864C107.619 11.864 107.672 11.8213 107.715 11.736C108.483 10.712 109.571 10.2 110.979 10.2ZM128.321 10.2C129.921 10.2 131.169 10.712 132.065 11.736C132.961 12.7387 133.409 14.1467 133.409 15.96V26.616C133.409 26.7227 133.367 26.8187 133.281 26.904C133.217 26.968 133.132 27 133.025 27H128.481C128.375 27 128.279 26.968 128.193 26.904C128.129 26.8187 128.097 26.7227 128.097 26.616V16.728C128.097 16.1307 127.948 15.6507 127.649 15.288C127.351 14.9253 126.956 14.744 126.465 14.744C125.975 14.744 125.58 14.9253 125.281 15.288C124.983 15.6507 124.833 16.1307 124.833 16.728V26.616C124.833 26.7227 124.791 26.8187 124.705 26.904C124.641 26.968 124.556 27 124.449 27H119.905C119.799 27 119.703 26.968 119.617 26.904C119.553 26.8187 119.521 26.7227 119.521 26.616V10.84C119.521 10.7333 119.553 10.648 119.617 10.584C119.703 10.4987 119.799 10.456 119.905 10.456H124.449C124.556 10.456 124.641 10.4987 124.705 10.584C124.791 10.648 124.833 10.7333 124.833 10.84V11.736C124.833 11.8 124.855 11.8427 124.897 11.864C124.961 11.864 125.015 11.8213 125.057 11.736C125.825 10.712 126.913 10.2 128.321 10.2ZM150.849 16.472C150.891 17.368 150.913 18.0613 150.913 18.552L150.881 19.832C150.881 20.088 150.753 20.216 150.497 20.216H142.113C142.027 20.216 141.985 20.2587 141.985 20.344C141.985 20.5787 142.027 20.888 142.113 21.272C142.219 21.72 142.422 22.072 142.721 22.328C143.041 22.584 143.446 22.712 143.937 22.712C144.833 22.712 145.441 22.3493 145.761 21.624C145.846 21.4107 146.006 21.3253 146.241 21.368L150.337 22.168C150.635 22.2107 150.731 22.36 150.625 22.616C150.113 24.1307 149.291 25.2827 148.161 26.072C147.051 26.8613 145.675 27.256 144.033 27.256C140.043 27.256 137.665 25.5173 136.897 22.04C136.705 21.208 136.609 19.9387 136.609 18.232C136.609 17.2293 136.673 16.3973 136.801 15.736C137.035 14.0507 137.771 12.7067 139.009 11.704C140.246 10.7013 141.803 10.2 143.681 10.2C145.729 10.2 147.393 10.776 148.673 11.928C149.974 13.08 150.699 14.5947 150.849 16.472ZM143.745 14.744C143.297 14.744 142.923 14.8827 142.625 15.16C142.347 15.416 142.155 15.7787 142.049 16.248L141.953 17.144C141.953 17.2507 142.006 17.304 142.113 17.304H145.377C145.483 17.304 145.537 17.2507 145.537 17.144C145.494 16.76 145.451 16.4613 145.409 16.248C145.345 15.8 145.163 15.4373 144.865 15.16C144.566 14.8827 144.193 14.744 143.745 14.744ZM161.025 27.256C159.127 27.256 157.569 26.7973 156.353 25.88C155.137 24.9413 154.38 23.6507 154.081 22.008C153.889 21.048 153.793 19.9387 153.793 18.68C153.793 17.464 153.889 16.3547 154.081 15.352C154.38 13.7733 155.137 12.5253 156.353 11.608C157.591 10.6693 159.148 10.2 161.025 10.2C162.839 10.2 164.364 10.648 165.601 11.544C166.839 12.44 167.607 13.6453 167.905 15.16C167.948 15.3733 167.991 15.7147 168.033 16.184V16.248C168.033 16.44 167.916 16.5573 167.681 16.6L163.169 17.048H163.073C162.924 17.048 162.828 16.9627 162.785 16.792V16.6L162.689 16.088C162.583 15.6827 162.38 15.3627 162.081 15.128C161.804 14.872 161.441 14.744 160.993 14.744C160.097 14.744 159.532 15.2453 159.297 16.248C159.191 16.7813 159.137 17.592 159.137 18.68C159.137 19.8747 159.201 20.7387 159.329 21.272C159.436 21.72 159.628 22.072 159.905 22.328C160.183 22.584 160.545 22.712 160.993 22.712C161.484 22.712 161.868 22.584 162.145 22.328C162.423 22.0507 162.593 21.6987 162.657 21.272C162.7 21.0587 162.721 20.8987 162.721 20.792C162.764 20.5147 162.903 20.3973 163.137 20.44L167.649 20.824C167.905 20.8667 168.023 21.0053 168.001 21.24C168.001 21.432 167.98 21.6773 167.937 21.976C167.703 23.64 166.967 24.9413 165.729 25.88C164.492 26.7973 162.924 27.256 161.025 27.256ZM180.233 14.04C180.233 14.1467 180.19 14.2427 180.105 14.328C180.041 14.392 179.955 14.424 179.849 14.424H177.577C177.47 14.424 177.417 14.4773 177.417 14.584V20.92C177.417 21.4747 177.523 21.88 177.737 22.136C177.95 22.3707 178.281 22.4773 178.729 22.456H179.433C179.539 22.456 179.625 22.4987 179.689 22.584C179.774 22.648 179.817 22.7333 179.817 22.84V26.616C179.817 26.872 179.689 27 179.433 27C178.579 27.0427 177.961 27.064 177.577 27.064C175.806 27.064 174.483 26.7867 173.609 26.232C172.755 25.6773 172.329 24.6213 172.329 23.064V14.584C172.329 14.4773 172.275 14.424 172.169 14.424H170.729C170.622 14.424 170.526 14.392 170.441 14.328C170.377 14.2427 170.345 14.1467 170.345 14.04V10.84C170.345 10.7333 170.377 10.648 170.441 10.584C170.526 10.4987 170.622 10.456 170.729 10.456H172.169C172.275 10.456 172.329 10.4027 172.329 10.296V6.584C172.329 6.47733 172.361 6.392 172.425 6.328C172.51 6.24267 172.606 6.2 172.713 6.2H177.033C177.139 6.2 177.225 6.24267 177.289 6.328C177.374 6.392 177.417 6.47733 177.417 6.584V10.296C177.417 10.4027 177.47 10.456 177.577 10.456H179.849C179.955 10.456 180.041 10.4987 180.105 10.584C180.19 10.648 180.233 10.7333 180.233 10.84V14.04ZM81.667 50.696C81.667 52.7653 80.9844 54.3333 79.619 55.4C78.2537 56.4667 76.4937 57 74.339 57H66.851C66.7444 57 66.6484 56.968 66.563 56.904C66.499 56.8187 66.467 56.7227 66.467 56.616V34.984C66.467 34.8773 66.499 34.792 66.563 34.728C66.6484 34.6427 66.7444 34.6 66.851 34.6H73.795C76.2057 34.6 78.0617 35.112 79.363 36.136C80.6644 37.1387 81.315 38.7067 81.315 40.84C81.315 42.888 80.5684 44.3813 79.075 45.32C78.947 45.384 78.9364 45.448 79.043 45.512C80.7924 46.6213 81.667 48.3493 81.667 50.696ZM71.939 39.144C71.8324 39.144 71.779 39.1973 71.779 39.304V43.368C71.779 43.4747 71.8324 43.528 71.939 43.528H73.827C74.5737 43.528 75.139 43.3467 75.523 42.984C75.9284 42.6 76.131 42.056 76.131 41.352C76.131 40.648 75.9284 40.104 75.523 39.72C75.1177 39.336 74.5524 39.144 73.827 39.144H71.939ZM74.115 52.424C74.819 52.424 75.363 52.2213 75.747 51.816C76.1524 51.3893 76.355 50.792 76.355 50.024C76.355 49.2773 76.163 48.6907 75.779 48.264C75.395 47.8373 74.851 47.624 74.147 47.624H71.939C71.8324 47.624 71.779 47.6773 71.779 47.784V52.264C71.779 52.3707 71.8324 52.424 71.939 52.424H74.115ZM93.4718 40.84C93.4718 40.7333 93.5038 40.648 93.5678 40.584C93.6531 40.4987 93.7491 40.456 93.8558 40.456H98.3998C98.5065 40.456 98.5918 40.4987 98.6558 40.584C98.7411 40.648 98.7838 40.7333 98.7838 40.84V56.616C98.7838 56.7227 98.7411 56.8187 98.6558 56.904C98.5918 56.968 98.5065 57 98.3998 57H93.8558C93.7491 57 93.6531 56.968 93.5678 56.904C93.5038 56.8187 93.4718 56.7227 93.4718 56.616V55.848C93.4718 55.784 93.4505 55.752 93.4078 55.752C93.3651 55.7307 93.3225 55.752 93.2798 55.816C92.5545 56.776 91.4238 57.256 89.8878 57.256C88.4371 57.256 87.2425 56.808 86.3038 55.912C85.3865 54.9947 84.9278 53.6613 84.9278 51.912V40.84C84.9278 40.7333 84.9598 40.648 85.0238 40.584C85.1091 40.4987 85.2051 40.456 85.3118 40.456H89.8558C89.9625 40.456 90.0478 40.4987 90.1118 40.584C90.1971 40.648 90.2398 40.7333 90.2398 40.84V50.728C90.2398 51.3467 90.3785 51.8267 90.6558 52.168C90.9331 52.5093 91.3278 52.68 91.8398 52.68C92.2878 52.68 92.6505 52.552 92.9278 52.296C93.2265 52.0187 93.4078 51.6347 93.4718 51.144V40.84ZM105.022 38.984C104.212 38.984 103.54 38.728 103.006 38.216C102.494 37.6827 102.238 37.0107 102.238 36.2C102.238 35.368 102.494 34.696 103.006 34.184C103.54 33.672 104.212 33.416 105.022 33.416C105.833 33.416 106.494 33.672 107.006 34.184C107.54 34.696 107.806 35.368 107.806 36.2C107.806 36.9893 107.54 37.6507 107.006 38.184C106.494 38.7173 105.833 38.984 105.022 38.984ZM102.75 57C102.644 57 102.548 56.968 102.462 56.904C102.398 56.8187 102.366 56.7227 102.366 56.616V40.84C102.366 40.7333 102.398 40.648 102.462 40.584C102.548 40.4987 102.644 40.456 102.75 40.456H107.294C107.401 40.456 107.486 40.4987 107.55 40.584C107.636 40.648 107.678 40.7333 107.678 40.84V56.616C107.678 56.7227 107.636 56.8187 107.55 56.904C107.486 56.968 107.401 57 107.294 57H102.75ZM111.591 57C111.485 57 111.389 56.968 111.303 56.904C111.239 56.8187 111.207 56.7227 111.207 56.616V34.984C111.207 34.8773 111.239 34.792 111.303 34.728C111.389 34.6427 111.485 34.6 111.591 34.6H116.135C116.242 34.6 116.327 34.6427 116.391 34.728C116.477 34.792 116.519 34.8773 116.519 34.984V56.616C116.519 56.7227 116.477 56.8187 116.391 56.904C116.327 56.968 116.242 57 116.135 57H111.591ZM128.819 34.984C128.819 34.8773 128.851 34.792 128.915 34.728C129.001 34.6427 129.097 34.6 129.203 34.6H133.747C133.854 34.6 133.939 34.6427 134.003 34.728C134.089 34.792 134.131 34.8773 134.131 34.984V56.616C134.131 56.7227 134.089 56.8187 134.003 56.904C133.939 56.968 133.854 57 133.747 57H129.203C129.097 57 129.001 56.968 128.915 56.904C128.851 56.8187 128.819 56.7227 128.819 56.616V56.072C128.819 56.008 128.798 55.976 128.755 55.976C128.713 55.9547 128.67 55.9653 128.627 56.008C127.859 56.84 126.761 57.256 125.331 57.256C124.009 57.256 122.931 56.7973 122.099 55.88C121.267 54.9413 120.681 53.64 120.339 51.976C120.147 51.08 120.051 49.9067 120.051 48.456C120.051 47.2613 120.137 46.2053 120.307 45.288C120.627 43.6667 121.203 42.4187 122.035 41.544C122.889 40.648 123.998 40.2 125.363 40.2C126.814 40.2 127.902 40.5947 128.627 41.384C128.67 41.4267 128.713 41.448 128.755 41.448C128.798 41.4267 128.819 41.384 128.819 41.32V34.984ZM128.659 51.016C128.766 50.5253 128.819 49.7467 128.819 48.68C128.819 47.6987 128.766 46.92 128.659 46.344C128.574 45.8533 128.393 45.4693 128.115 45.192C127.859 44.8933 127.518 44.744 127.091 44.744C126.707 44.744 126.377 44.8827 126.099 45.16C125.822 45.4373 125.63 45.8213 125.523 46.312C125.417 46.76 125.363 47.3467 125.363 48.072C125.363 49.416 125.406 50.3973 125.491 51.016C125.598 51.528 125.779 51.944 126.035 52.264C126.313 52.5627 126.665 52.712 127.091 52.712C127.497 52.712 127.827 52.5627 128.083 52.264C128.361 51.944 128.553 51.528 128.659 51.016ZM151.754 46.472C151.796 47.368 151.818 48.0613 151.818 48.552L151.786 49.832C151.786 50.088 151.658 50.216 151.402 50.216H143.018C142.932 50.216 142.89 50.2587 142.89 50.344C142.89 50.5787 142.932 50.888 143.018 51.272C143.124 51.72 143.327 52.072 143.626 52.328C143.946 52.584 144.351 52.712 144.842 52.712C145.738 52.712 146.346 52.3493 146.666 51.624C146.751 51.4107 146.911 51.3253 147.146 51.368L151.242 52.168C151.54 52.2107 151.636 52.36 151.53 52.616C151.018 54.1307 150.196 55.2827 149.066 56.072C147.956 56.8613 146.58 57.256 144.938 57.256C140.948 57.256 138.57 55.5173 137.802 52.04C137.61 51.208 137.514 49.9387 137.514 48.232C137.514 47.2293 137.578 46.3973 137.706 45.736C137.94 44.0507 138.676 42.7067 139.914 41.704C141.151 40.7013 142.708 40.2 144.586 40.2C146.634 40.2 148.298 40.776 149.578 41.928C150.879 43.08 151.604 44.5947 151.754 46.472ZM144.65 44.744C144.202 44.744 143.828 44.8827 143.53 45.16C143.252 45.416 143.06 45.7787 142.954 46.248L142.858 47.144C142.858 47.2507 142.911 47.304 143.018 47.304H146.282C146.388 47.304 146.442 47.2507 146.442 47.144C146.399 46.76 146.356 46.4613 146.314 46.248C146.25 45.8 146.068 45.4373 145.77 45.16C145.471 44.8827 145.098 44.744 144.65 44.744ZM163.402 40.232C164.021 40.232 164.544 40.36 164.97 40.616C165.141 40.7227 165.205 40.8827 165.162 41.096L164.426 45.576C164.405 45.8107 164.256 45.896 163.978 45.832C163.637 45.7467 163.317 45.704 163.018 45.704C162.677 45.704 162.378 45.7467 162.122 45.832C161.61 45.9387 161.173 46.2053 160.81 46.632C160.448 47.0373 160.266 47.5387 160.266 48.136V56.616C160.266 56.7227 160.224 56.8187 160.138 56.904C160.074 56.968 159.989 57 159.882 57H155.338C155.232 57 155.136 56.968 155.05 56.904C154.986 56.8187 154.954 56.7227 154.954 56.616V40.84C154.954 40.7333 154.986 40.648 155.05 40.584C155.136 40.4987 155.232 40.456 155.338 40.456H159.882C159.989 40.456 160.074 40.4987 160.138 40.584C160.224 40.648 160.266 40.7333 160.266 40.84V41.896C160.266 41.9813 160.277 42.0347 160.298 42.056C160.341 42.056 160.384 42.024 160.426 41.96C161.109 40.808 162.101 40.232 163.402 40.232ZM174.231 57.256C172.844 57.256 171.628 57.0427 170.583 56.616C169.538 56.1893 168.727 55.6027 168.151 54.856C167.596 54.088 167.319 53.2133 167.319 52.232V51.976C167.319 51.8693 167.351 51.784 167.415 51.72C167.5 51.6347 167.596 51.592 167.703 51.592H172.023C172.13 51.592 172.215 51.6347 172.279 51.72C172.364 51.784 172.407 51.8693 172.407 51.976V52.008C172.407 52.392 172.578 52.712 172.919 52.968C173.26 53.2027 173.687 53.32 174.199 53.32C174.647 53.32 174.999 53.224 175.255 53.032C175.532 52.84 175.671 52.5947 175.671 52.296C175.671 51.9547 175.49 51.6987 175.127 51.528C174.786 51.336 174.22 51.144 173.431 50.952C172.599 50.76 171.906 50.5467 171.351 50.312C170.242 49.8853 169.324 49.3093 168.599 48.584C167.874 47.8587 167.511 46.8453 167.511 45.544C167.511 43.9013 168.108 42.6 169.303 41.64C170.498 40.68 172.076 40.2 174.039 40.2C176.044 40.2 177.644 40.712 178.839 41.736C180.055 42.7387 180.663 44.072 180.663 45.736C180.663 45.9707 180.535 46.088 180.279 46.088H176.119C176.012 46.088 175.916 46.056 175.831 45.992C175.767 45.9067 175.735 45.8107 175.735 45.704V45.576C175.735 45.2133 175.586 44.9147 175.287 44.68C174.988 44.4453 174.604 44.328 174.135 44.328C173.687 44.328 173.314 44.4347 173.015 44.648C172.738 44.8613 172.599 45.128 172.599 45.448C172.599 45.8533 172.791 46.152 173.175 46.344C173.58 46.536 174.22 46.7493 175.095 46.984C175.607 47.0907 176.066 47.2187 176.471 47.368C177.858 47.816 178.956 48.4027 179.767 49.128C180.599 49.832 181.015 50.8453 181.015 52.168C181.015 53.768 180.396 55.016 179.159 55.912C177.943 56.808 176.3 57.256 174.231 57.256Z" fill="#1B2527"/>
<rect width="128" height="10.9569" transform="translate(65.0566 63)" fill="#FFD600"/>
<path d="M67.9806 67.4325H69.0846V70.9785H69.7986V67.4325H70.9086V66.7785H67.9806V67.4325ZM71.7061 69.0525H74.7001V68.3985H71.7061V69.0525ZM74.2441 66.7785V70.9785H74.9521V66.7785H74.2441ZM71.4241 66.7785V70.9785H72.1321V66.7785H71.4241ZM76.3269 70.9785H78.4449V70.3545H76.3269V70.9785ZM76.3269 67.4025H78.4449V66.7785H76.3269V67.4025ZM76.3269 69.0345H78.3249V68.4225H76.3269V69.0345ZM75.8889 66.7785V70.9785H76.5849V66.7785H75.8889ZM81.8955 68.4225L83.1735 70.5885L84.4515 68.4225L84.7455 70.9785H85.4775L84.9015 66.5685L83.1735 69.4185L81.4515 66.5685L80.8755 70.9785H81.6075L81.8955 68.4225ZM86.6702 69.8985H88.8902L88.7522 69.2985H86.8022L86.6702 69.8985ZM87.7682 67.9665L88.4342 69.5265L88.4522 69.7005L89.0222 70.9785H89.8202L87.7682 66.5445L85.7162 70.9785H86.5142L87.0962 69.6645L87.1082 69.5085L87.7682 67.9665ZM91.1728 68.9745L92.5108 70.9785H93.3628L91.9408 68.9745H91.1728ZM90.3088 66.7785V70.9785H91.0168V66.7785H90.3088ZM90.7288 67.3905H91.5748C91.7348 67.3905 91.8748 67.4185 91.9948 67.4745C92.1188 67.5305 92.2148 67.6105 92.2828 67.7145C92.3508 67.8185 92.3848 67.9465 92.3848 68.0985C92.3848 68.2465 92.3508 68.3745 92.2828 68.4825C92.2148 68.5865 92.1188 68.6665 91.9948 68.7225C91.8748 68.7785 91.7348 68.8065 91.5748 68.8065H90.7288V69.3885H91.6048C91.9088 69.3885 92.1728 69.3345 92.3968 69.2265C92.6248 69.1185 92.8008 68.9665 92.9248 68.7705C93.0488 68.5745 93.1108 68.3445 93.1108 68.0805C93.1108 67.8165 93.0488 67.5885 92.9248 67.3965C92.8008 67.2005 92.6248 67.0485 92.3968 66.9405C92.1728 66.8325 91.9088 66.7785 91.6048 66.7785H90.7288V67.3905ZM93.8772 66.7785V70.9785H94.6032V66.7785H93.8772ZM96.1632 66.7785L94.3872 68.7645L96.2352 70.9785H97.1052L95.2452 68.7465L97.0152 66.7785H96.1632ZM98.03 70.9785H100.148V70.3545H98.03V70.9785ZM98.03 67.4025H100.148V66.7785H98.03V67.4025ZM98.03 69.0345H100.028V68.4225H98.03V69.0345ZM97.592 66.7785V70.9785H98.288V66.7785H97.592ZM100.6 67.4325H101.704V70.9785H102.418V67.4325H103.528V66.7785H100.6V67.4325ZM104.043 66.7785V70.9785H104.751V66.7785H104.043ZM104.463 67.4025H105.309C105.553 67.4025 105.749 67.4605 105.897 67.5765C106.045 67.6885 106.119 67.8565 106.119 68.0805C106.119 68.3045 106.045 68.4745 105.897 68.5905C105.749 68.7065 105.553 68.7645 105.309 68.7645H104.463V69.3885H105.309C105.613 69.3885 105.877 69.3365 106.101 69.2325C106.329 69.1245 106.505 68.9725 106.629 68.7765C106.753 68.5805 106.815 68.3485 106.815 68.0805C106.815 67.8125 106.753 67.5825 106.629 67.3905C106.505 67.1945 106.329 67.0445 106.101 66.9405C105.877 66.8325 105.613 66.7785 105.309 66.7785H104.463V67.4025ZM107.512 66.7785V70.9785H109.888V70.3425H108.22V66.7785H107.512ZM111.086 69.8985H113.306L113.168 69.2985H111.218L111.086 69.8985ZM112.184 67.9665L112.85 69.5265L112.868 69.7005L113.438 70.9785H114.236L112.184 66.5445L110.132 70.9785H110.93L111.512 69.6645L111.524 69.5085L112.184 67.9665ZM115.065 68.8785C115.065 68.5785 115.131 68.3185 115.263 68.0985C115.399 67.8745 115.575 67.7025 115.791 67.5825C116.011 67.4585 116.249 67.3965 116.505 67.3965C116.705 67.3965 116.885 67.4225 117.045 67.4745C117.205 67.5265 117.349 67.5985 117.477 67.6905C117.609 67.7785 117.723 67.8785 117.819 67.9905V67.1505C117.643 67.0065 117.453 66.8965 117.249 66.8205C117.045 66.7445 116.789 66.7065 116.481 66.7065C116.173 66.7065 115.885 66.7585 115.617 66.8625C115.353 66.9665 115.123 67.1165 114.927 67.3125C114.731 67.5085 114.577 67.7405 114.465 68.0085C114.357 68.2725 114.303 68.5625 114.303 68.8785C114.303 69.1945 114.357 69.4865 114.465 69.7545C114.577 70.0185 114.731 70.2485 114.927 70.4445C115.123 70.6405 115.353 70.7905 115.617 70.8945C115.885 70.9985 116.173 71.0505 116.481 71.0505C116.789 71.0505 117.045 71.0125 117.249 70.9365C117.453 70.8605 117.643 70.7505 117.819 70.6065V69.7665C117.723 69.8785 117.609 69.9805 117.477 70.0725C117.349 70.1605 117.205 70.2305 117.045 70.2825C116.885 70.3345 116.705 70.3605 116.505 70.3605C116.249 70.3605 116.011 70.3005 115.791 70.1805C115.575 70.0565 115.399 69.8825 115.263 69.6585C115.131 69.4345 115.065 69.1745 115.065 68.8785ZM119.13 70.9785H121.248V70.3545H119.13V70.9785ZM119.13 67.4025H121.248V66.7785H119.13V67.4025ZM119.13 69.0345H121.128V68.4225H119.13V69.0345ZM118.692 66.7785V70.9785H119.388V66.7785H118.692ZM124.356 67.4145H126.234V66.7785H124.356V67.4145ZM124.356 69.0825H126.174V68.4645H124.356V69.0825ZM123.918 66.7785V70.9785H124.614V66.7785H123.918ZM127.557 68.8785C127.557 68.5905 127.617 68.3345 127.737 68.1105C127.861 67.8825 128.031 67.7045 128.247 67.5765C128.463 67.4485 128.709 67.3845 128.985 67.3845C129.269 67.3845 129.517 67.4485 129.729 67.5765C129.945 67.7045 130.113 67.8825 130.233 68.1105C130.353 68.3345 130.413 68.5905 130.413 68.8785C130.413 69.1665 130.351 69.4245 130.227 69.6525C130.107 69.8765 129.939 70.0525 129.723 70.1805C129.511 70.3085 129.265 70.3725 128.985 70.3725C128.709 70.3725 128.463 70.3085 128.247 70.1805C128.031 70.0525 127.861 69.8765 127.737 69.6525C127.617 69.4245 127.557 69.1665 127.557 68.8785ZM126.807 68.8785C126.807 69.1905 126.861 69.4805 126.969 69.7485C127.077 70.0165 127.227 70.2485 127.419 70.4445C127.615 70.6405 127.847 70.7945 128.115 70.9065C128.383 71.0145 128.673 71.0685 128.985 71.0685C129.301 71.0685 129.591 71.0145 129.855 70.9065C130.123 70.7945 130.355 70.6405 130.551 70.4445C130.747 70.2485 130.899 70.0165 131.007 69.7485C131.115 69.4805 131.169 69.1905 131.169 68.8785C131.169 68.5625 131.115 68.2725 131.007 68.0085C130.899 67.7445 130.745 67.5165 130.545 67.3245C130.349 67.1285 130.119 66.9765 129.855 66.8685C129.591 66.7605 129.301 66.7065 128.985 66.7065C128.677 66.7065 128.389 66.7605 128.121 66.8685C127.857 66.9765 127.625 67.1285 127.425 67.3245C127.229 67.5165 127.077 67.7445 126.969 68.0085C126.861 68.2725 126.807 68.5625 126.807 68.8785ZM132.722 68.9745L134.06 70.9785H134.912L133.49 68.9745H132.722ZM131.858 66.7785V70.9785H132.566V66.7785H131.858ZM132.278 67.3905H133.124C133.284 67.3905 133.424 67.4185 133.544 67.4745C133.668 67.5305 133.764 67.6105 133.832 67.7145C133.9 67.8185 133.934 67.9465 133.934 68.0985C133.934 68.2465 133.9 68.3745 133.832 68.4825C133.764 68.5865 133.668 68.6665 133.544 68.7225C133.424 68.7785 133.284 68.8065 133.124 68.8065H132.278V69.3885H133.154C133.458 69.3885 133.722 69.3345 133.946 69.2265C134.174 69.1185 134.35 68.9665 134.474 68.7705C134.598 68.5745 134.66 68.3445 134.66 68.0805C134.66 67.8165 134.598 67.5885 134.474 67.3965C134.35 67.2005 134.174 67.0485 133.946 66.9405C133.722 66.8325 133.458 66.7785 133.154 66.7785H132.278V67.3905ZM139.535 66.7785L138.557 68.5785L137.579 66.7785H136.775L138.197 69.2145V70.9785H138.917V69.2085L140.345 66.7785H139.535ZM141.04 68.8785C141.04 68.5905 141.1 68.3345 141.22 68.1105C141.344 67.8825 141.514 67.7045 141.73 67.5765C141.946 67.4485 142.192 67.3845 142.468 67.3845C142.752 67.3845 143 67.4485 143.212 67.5765C143.428 67.7045 143.596 67.8825 143.716 68.1105C143.836 68.3345 143.896 68.5905 143.896 68.8785C143.896 69.1665 143.834 69.4245 143.71 69.6525C143.59 69.8765 143.422 70.0525 143.206 70.1805C142.994 70.3085 142.748 70.3725 142.468 70.3725C142.192 70.3725 141.946 70.3085 141.73 70.1805C141.514 70.0525 141.344 69.8765 141.22 69.6525C141.1 69.4245 141.04 69.1665 141.04 68.8785ZM140.29 68.8785C140.29 69.1905 140.344 69.4805 140.452 69.7485C140.56 70.0165 140.71 70.2485 140.902 70.4445C141.098 70.6405 141.33 70.7945 141.598 70.9065C141.866 71.0145 142.156 71.0685 142.468 71.0685C142.784 71.0685 143.074 71.0145 143.338 70.9065C143.606 70.7945 143.838 70.6405 144.034 70.4445C144.23 70.2485 144.382 70.0165 144.49 69.7485C144.598 69.4805 144.652 69.1905 144.652 68.8785C144.652 68.5625 144.598 68.2725 144.49 68.0085C144.382 67.7445 144.228 67.5165 144.028 67.3245C143.832 67.1285 143.602 66.9765 143.338 66.8685C143.074 66.7605 142.784 66.7065 142.468 66.7065C142.16 66.7065 141.872 66.7605 141.604 66.8685C141.34 66.9765 141.108 67.1285 140.908 67.3245C140.712 67.5165 140.56 67.7445 140.452 68.0085C140.344 68.2725 140.29 68.5625 140.29 68.8785ZM145.31 66.7785V69.5985C145.31 69.8305 145.346 70.0385 145.418 70.2225C145.49 70.4025 145.594 70.5565 145.73 70.6845C145.87 70.8125 146.034 70.9105 146.222 70.9785C146.41 71.0465 146.616 71.0805 146.84 71.0805C147.064 71.0805 147.27 71.0465 147.458 70.9785C147.646 70.9105 147.808 70.8125 147.944 70.6845C148.08 70.5565 148.184 70.4025 148.256 70.2225C148.332 70.0385 148.37 69.8305 148.37 69.5985V66.7785H147.662V69.5685C147.662 69.8285 147.592 70.0385 147.452 70.1985C147.312 70.3545 147.108 70.4325 146.84 70.4325C146.568 70.4325 146.362 70.3545 146.222 70.1985C146.086 70.0385 146.018 69.8285 146.018 69.5685V66.7785H145.31ZM150.142 68.9745L151.48 70.9785H152.332L150.91 68.9745H150.142ZM149.278 66.7785V70.9785H149.986V66.7785H149.278ZM149.698 67.3905H150.544C150.704 67.3905 150.844 67.4185 150.964 67.4745C151.088 67.5305 151.184 67.6105 151.252 67.7145C151.32 67.8185 151.354 67.9465 151.354 68.0985C151.354 68.2465 151.32 68.3745 151.252 68.4825C151.184 68.5865 151.088 68.6665 150.964 68.7225C150.844 68.7785 150.704 68.8065 150.544 68.8065H149.698V69.3885H150.574C150.878 69.3885 151.142 69.3345 151.366 69.2265C151.594 69.1185 151.77 68.9665 151.894 68.7705C152.018 68.5745 152.08 68.3445 152.08 68.0805C152.08 67.8165 152.018 67.5885 151.894 67.3965C151.77 67.2005 151.594 67.0485 151.366 66.9405C151.142 66.8325 150.878 66.7785 150.574 66.7785H149.698V67.3905ZM154.645 66.7785V70.9785H155.365V66.7785H154.645ZM156.001 70.9785C156.429 70.9785 156.805 70.8925 157.129 70.7205C157.453 70.5445 157.705 70.3005 157.885 69.9885C158.069 69.6725 158.161 69.3025 158.161 68.8785C158.161 68.4545 158.069 68.0865 157.885 67.7745C157.705 67.4585 157.453 67.2145 157.129 67.0425C156.805 66.8665 156.429 66.7785 156.001 66.7785H155.083V67.4445H155.983C156.191 67.4445 156.383 67.4745 156.559 67.5345C156.735 67.5945 156.887 67.6845 157.015 67.8045C157.147 67.9245 157.249 68.0745 157.321 68.2545C157.397 68.4345 157.435 68.6425 157.435 68.8785C157.435 69.1145 157.397 69.3225 157.321 69.5025C157.249 69.6825 157.147 69.8325 157.015 69.9525C156.887 70.0725 156.735 70.1625 156.559 70.2225C156.383 70.2825 156.191 70.3125 155.983 70.3125H155.083V70.9785H156.001ZM158.852 66.7785V70.9785H159.566V66.7785H158.852ZM161.368 68.9745L162.706 70.9785H163.558L162.136 68.9745H161.368ZM160.504 66.7785V70.9785H161.212V66.7785H160.504ZM160.924 67.3905H161.77C161.93 67.3905 162.07 67.4185 162.19 67.4745C162.314 67.5305 162.41 67.6105 162.478 67.7145C162.546 67.8185 162.58 67.9465 162.58 68.0985C162.58 68.2465 162.546 68.3745 162.478 68.4825C162.41 68.5865 162.314 68.6665 162.19 68.7225C162.07 68.7785 161.93 68.8065 161.77 68.8065H160.924V69.3885H161.8C162.104 69.3885 162.368 69.3345 162.592 69.2265C162.82 69.1185 162.996 68.9665 163.12 68.7705C163.244 68.5745 163.306 68.3445 163.306 68.0805C163.306 67.8165 163.244 67.5885 163.12 67.3965C162.996 67.2005 162.82 67.0485 162.592 66.9405C162.368 66.8325 162.104 66.7785 161.8 66.7785H160.924V67.3905ZM163.652 67.4325H164.756V70.9785H165.47V67.4325H166.58V66.7785H163.652V67.4325ZM171.961 66.7785V69.5985L168.895 66.5685V70.9785H169.591V68.1585L172.657 71.1885V66.7785H171.961ZM174.026 70.9785H176.144V70.3545H174.026V70.9785ZM174.026 67.4025H176.144V66.7785H174.026V67.4025ZM174.026 69.0345H176.024V68.4225H174.026V69.0345ZM173.588 66.7785V70.9785H174.284V66.7785H173.588ZM177.454 70.9785H179.572V70.3545H177.454V70.9785ZM177.454 67.4025H179.572V66.7785H177.454V67.4025ZM177.454 69.0345H179.452V68.4225H177.454V69.0345ZM177.016 66.7785V70.9785H177.712V66.7785H177.016ZM180.444 66.7785V70.9785H181.164V66.7785H180.444ZM181.8 70.9785C182.228 70.9785 182.604 70.8925 182.928 70.7205C183.252 70.5445 183.504 70.3005 183.684 69.9885C183.868 69.6725 183.96 69.3025 183.96 68.8785C183.96 68.4545 183.868 68.0865 183.684 67.7745C183.504 67.4585 183.252 67.2145 182.928 67.0425C182.604 66.8665 182.228 66.7785 181.8 66.7785H180.882V67.4445H181.782C181.99 67.4445 182.182 67.4745 182.358 67.5345C182.534 67.5945 182.686 67.6845 182.814 67.8045C182.946 67.9245 183.048 68.0745 183.12 68.2545C183.196 68.4345 183.234 68.6425 183.234 68.8785C183.234 69.1145 183.196 69.3225 183.12 69.5025C183.048 69.6825 182.946 69.8325 182.814 69.9525C182.686 70.0725 182.534 70.1625 182.358 70.2225C182.182 70.2825 181.99 70.3125 181.782 70.3125H180.882V70.9785H181.8ZM184.927 69.6285L184.399 69.9945C184.491 70.1865 184.615 70.3645 184.771 70.5285C184.927 70.6925 185.109 70.8245 185.317 70.9245C185.529 71.0205 185.759 71.0685 186.007 71.0685C186.187 71.0685 186.359 71.0385 186.523 70.9785C186.691 70.9225 186.841 70.8425 186.973 70.7385C187.105 70.6305 187.209 70.4985 187.285 70.3425C187.361 70.1865 187.399 70.0105 187.399 69.8145C187.399 69.6305 187.367 69.4705 187.303 69.3345C187.243 69.1985 187.161 69.0805 187.057 68.9805C186.953 68.8765 186.837 68.7905 186.709 68.7225C186.585 68.6545 186.461 68.5985 186.337 68.5545C186.113 68.4745 185.931 68.3965 185.791 68.3205C185.651 68.2445 185.547 68.1645 185.479 68.0805C185.415 67.9925 185.383 67.8945 185.383 67.7865C185.383 67.6665 185.429 67.5625 185.521 67.4745C185.613 67.3825 185.757 67.3365 185.953 67.3365C186.093 67.3365 186.215 67.3645 186.319 67.4205C186.427 67.4725 186.521 67.5445 186.601 67.6365C186.681 67.7245 186.747 67.8205 186.799 67.9245L187.375 67.6005C187.303 67.4525 187.203 67.3105 187.075 67.1745C186.951 67.0385 186.797 66.9265 186.613 66.8385C186.429 66.7505 186.213 66.7065 185.965 66.7065C185.713 66.7065 185.487 66.7545 185.287 66.8505C185.091 66.9425 184.935 67.0745 184.819 67.2465C184.703 67.4145 184.645 67.6105 184.645 67.8345C184.645 68.0305 184.683 68.1985 184.759 68.3385C184.835 68.4745 184.931 68.5905 185.047 68.6865C185.163 68.7785 185.285 68.8565 185.413 68.9205C185.541 68.9805 185.657 69.0285 185.761 69.0645C185.937 69.1285 186.091 69.1945 186.223 69.2625C186.359 69.3265 186.465 69.4065 186.541 69.5025C186.617 69.5945 186.655 69.7185 186.655 69.8745C186.655 70.0385 186.595 70.1725 186.475 70.2765C186.355 70.3805 186.199 70.4325 186.007 70.4325C185.847 70.4325 185.703 70.4005 185.575 70.3365C185.447 70.2685 185.329 70.1745 185.221 70.0545C185.117 69.9305 185.019 69.7885 184.927 69.6285ZM188.203 66.7785L188.353 69.7065H188.863L189.013 66.7785H188.203ZM188.185 70.6845C188.185 70.8005 188.225 70.8985 188.305 70.9785C188.389 71.0545 188.491 71.0925 188.611 71.0925C188.731 71.0925 188.831 71.0545 188.911 70.9785C188.991 70.8985 189.031 70.8005 189.031 70.6845C189.031 70.5685 188.991 70.4725 188.911 70.3965C188.831 70.3205 188.731 70.2825 188.611 70.2825C188.491 70.2825 188.389 70.3205 188.305 70.3965C188.225 70.4725 188.185 70.5685 188.185 70.6845Z" fill="#1B2527"/>
<path d="M55.33 40.4824C55.33 53.9919 45.1033 64.9434 31.582 64.9434" stroke="#1B2527" stroke-width="1.71227" stroke-linecap="square"/>
<path d="M29.8684 65.7812H30.7245V64.069H29.8684V65.7812ZM7.22137 40.3418C7.22137 39.869 6.83806 39.4857 6.36523 39.4857C5.8924 39.4857 5.5091 39.869 5.5091 40.3418H7.22137ZM29.8684 64.069C16.8023 64.069 7.22137 53.4975 7.22137 40.3418H5.5091C5.5091 54.34 15.7567 65.7812 29.8684 65.7812V64.069Z" fill="#1B2527"/>
<path d="M30.7256 59.9296C20.1114 59.9296 11.5068 51.2779 11.5068 40.6055" stroke="#1B2527" stroke-width="1.71227"/>
<path d="M49.9251 40.6055C49.9251 51.2052 41.3248 59.9296 30.7158 59.9296" stroke="#1B2527" stroke-width="1.71227"/>
<path d="M7.34473 41.0585H13.4495V30.187L20.8735 24.8078L28.0143 29.5641V41.6814H25.124V16.8806L38.6687 10.0293V29.3376V48.6459H34.8716V30.187H48.5863V41.0585H55.3303" stroke="#1B2527" stroke-width="1.71227" stroke-linejoin="round"/>
<path d="M7.09961 41.0587H10.3969H13.4492V30.1872L20.8733 24.808L28.014 29.5643V41.6816H25.1237V16.8809L30.8476 13.9434" stroke="#1B2527" stroke-width="1.71227" stroke-linejoin="round"/>
<rect x="17.416" y="30.8672" width="1.70017" height="1.69868" fill="#1B2527"/>
<rect x="41.5586" y="33.1309" width="1.36014" height="1.35894" fill="#1B2527"/>
<rect x="43.8252" y="33.1309" width="1.36014" height="1.35894" fill="#1B2527"/>
<rect x="43.8252" y="35.1699" width="1.36014" height="1.35894" fill="#1B2527"/>
<rect x="41.5586" y="35.1699" width="1.36014" height="1.35894" fill="#1B2527"/>
<rect x="20.4766" y="30.8672" width="1.70017" height="1.69868" fill="#1B2527"/>
<rect x="20.4766" y="33.6973" width="1.70017" height="1.69868" fill="#1B2527"/>
<rect x="17.416" y="33.6973" width="1.70017" height="1.69868" fill="#1B2527"/>
</svg>
