<svg width="75" height="40" viewBox="0 0 75 40" fill="none" xmlns="http://www.w3.org/2000/svg">
<path d="M26.8768 23.2559H34.2936C34.2936 31.933 27.0779 39.0347 17.1217 39.0347C7.16546 39.0347 0 32.0271 0 23.3499V23.2559H7.44202C7.44202 28.4998 11.4899 32.8501 17.1971 32.8501C22.9295 32.8501 26.8768 28.5703 26.8768 23.3499V23.2559Z" fill="#0B2239"/>
<path d="M10.3832 16.5313H0.351562L17.8252 0L22.8285 4.75011L17.8252 0.0235133L12.7968 4.75011L17.8252 9.50022L10.3832 16.5313Z" fill="#BC1C24"/>
<path d="M17.8253 0.0253906L22.8285 4.75199L35.2738 16.5332H25.2421L17.8253 9.5021L12.7969 4.75199L17.8253 0.0253906Z" fill="#CB281A"/>
<path d="M47.5907 16.7417H40.1738C40.1738 8.06454 47.3896 0.962891 57.3458 0.962891C67.302 0.962891 74.4675 7.97048 74.4675 16.6477V16.7417H67.0254C67.0254 11.4978 62.9776 7.14744 57.2704 7.14744C51.538 7.14744 47.5907 11.4272 47.5907 16.6477V16.7417Z" fill="#0B2239"/>
<path d="M64.0879 23.4688H74.1195L56.6458 40.0001L51.6426 35.25L56.6458 39.9766L61.6742 35.2265L56.6458 30.4999L64.0879 23.4688Z" fill="#0B2239"/>
<path d="M56.6458 39.9766L51.6425 35.25L39.1973 23.4688H49.2289L56.6458 30.4999L61.6742 35.2265L56.6458 39.9766Z" fill="#53D687"/>
<path d="M17.1197 19.7497H14.7051V17.4688H17.1197V19.7497Z" fill="#0B2239"/>
<path d="M20.2896 19.7497H17.875V17.4688H20.2896V19.7497Z" fill="#0B2239"/>
<path d="M17.1197 22.9743H14.7051V20.6934H17.1197V22.9743Z" fill="#0B2239"/>
<path d="M20.2896 22.9743H17.875V20.6934H20.2896V22.9743Z" fill="#0B2239"/>
<path d="M57.2725 21.1179C59.397 21.1179 61.1192 19.486 61.1192 17.473C61.1192 15.46 59.397 13.8281 57.2725 13.8281C55.148 13.8281 53.4258 15.46 53.4258 17.473C53.4258 19.486 55.148 21.1179 57.2725 21.1179Z" fill="#0B2239"/>
</svg>
