<svg width="21" height="20" viewBox="0 0 21 20" fill="none" xmlns="http://www.w3.org/2000/svg">
<path d="M10.6193 18.9342C10.5372 18.9346 10.4558 18.9186 10.38 18.8871C10.3041 18.8556 10.2353 18.8093 10.1776 18.7509L5.37764 13.9509C4.33963 12.9139 3.6325 11.5924 3.34571 10.1535C3.05892 8.71461 3.20534 7.22298 3.76647 5.86731C4.32759 4.51165 5.2782 3.35287 6.49803 2.53758C7.71786 1.72228 9.1521 1.28711 10.6193 1.28711C12.0865 1.28711 13.5208 1.72228 14.7406 2.53758C15.9604 3.35287 16.911 4.51165 17.4721 5.86731C18.0333 7.22298 18.1797 8.71461 17.8929 10.1535C17.6061 11.5924 16.899 12.9139 15.861 13.9509L11.061 18.7509C11.0033 18.8093 10.9345 18.8556 10.8586 18.8871C10.7828 18.9186 10.7014 18.9346 10.6193 18.9342ZM10.6193 2.54253C9.40028 2.54338 8.20886 2.90551 7.19555 3.58317C6.18224 4.26083 5.39251 5.22361 4.92612 6.34989C4.45974 7.47617 4.33762 8.71542 4.57521 9.91106C4.81279 11.1067 5.39942 12.2051 6.26097 13.0675L10.6193 17.4259L14.9776 13.0675C15.8392 12.2051 16.4258 11.1067 16.6634 9.91106C16.901 8.71542 16.7789 7.47617 16.3125 6.34989C15.8461 5.22361 15.0564 4.26083 14.0431 3.58317C13.0298 2.90551 11.8383 2.54338 10.6193 2.54253Z" fill="#1B2527"/>
<path d="M10.6191 11.459C10.0011 11.459 9.39689 11.2757 8.88299 10.9323C8.36908 10.5889 7.96854 10.1009 7.73202 9.52987C7.49549 8.95885 7.43361 8.33052 7.55419 7.72433C7.67477 7.11814 7.97239 6.56132 8.40943 6.12428C8.84647 5.68724 9.40329 5.38961 10.0095 5.26903C10.6157 5.14845 11.244 5.21034 11.815 5.44686C12.386 5.68339 12.8741 6.08393 13.2175 6.59783C13.5609 7.11173 13.7441 7.71592 13.7441 8.33399C13.7441 9.16279 13.4149 9.95764 12.8289 10.5437C12.2428 11.1297 11.4479 11.459 10.6191 11.459ZM10.6191 6.45899C10.2483 6.45899 9.88579 6.56895 9.57745 6.77498C9.26911 6.98101 9.02878 7.27384 8.88687 7.61645C8.74495 7.95907 8.70782 8.33607 8.78017 8.69978C8.85252 9.06349 9.03109 9.39759 9.29332 9.65981C9.55554 9.92203 9.88963 10.1006 10.2533 10.173C10.6171 10.2453 10.9941 10.2082 11.3367 10.0663C11.6793 9.92435 11.9721 9.68402 12.1781 9.37568C12.3842 9.06734 12.4941 8.70483 12.4941 8.33399C12.4941 7.8367 12.2966 7.35979 11.945 7.00816C11.5933 6.65653 11.1164 6.45899 10.6191 6.45899Z" fill="#1B2527"/>
</svg>
