<svg width="32" height="32" viewBox="0 0 32 32" fill="none" xmlns="http://www.w3.org/2000/svg">
<path d="M7.98382 13.0625H6.00001C5.75088 13.0625 5.51194 13.1617 5.336 13.3381C5.16007 13.5146 5.06169 13.7538 5.0625 14.003L5.07632 21.1246C5.07632 21.6423 5.49607 22.0621 6.01382 22.0621C6.53157 22.0621 6.95132 21.6423 6.95132 21.1246V18.9622C7.33463 18.9603 7.74413 18.9586 7.98382 18.9586C9.63107 18.9586 10.9713 17.6361 10.9713 16.0106C10.9713 14.385 9.63107 13.0625 7.98382 13.0625ZM7.98382 17.0836C7.742 17.0836 7.33101 17.0853 6.94619 17.0873C6.94419 16.6882 6.94244 16.2584 6.94244 16.0106C6.94244 15.7985 6.94138 15.3547 6.94025 14.9375H7.98375C8.58675 14.9375 9.09619 15.4289 9.09619 16.0106C9.09619 16.5923 8.58682 17.0836 7.98382 17.0836Z" fill="#FF5656"/>
<path d="M15.9581 13.0625H14C13.7511 13.0625 13.5123 13.1615 13.3364 13.3377C13.1606 13.5139 13.062 13.7528 13.0625 14.0017C13.0625 14.0018 13.0764 20.8921 13.0765 20.9171C13.0774 21.1658 13.1771 21.4039 13.3536 21.5791C13.5293 21.7535 13.7666 21.8512 14.014 21.8512H14.0176C14.0768 21.851 15.4734 21.8457 16.0318 21.8359C18.1502 21.7989 19.6877 19.9572 19.6877 17.4569C19.6876 14.8285 18.1889 13.0625 15.9581 13.0625ZM15.9991 19.9613C15.7563 19.9655 15.3385 19.9689 14.9484 19.9714C14.9458 19.1571 14.9406 15.7838 14.9392 14.9375H15.9581C17.6789 14.9375 17.8126 16.8659 17.8126 17.4569C17.8126 18.6877 17.2519 19.9394 15.9991 19.9613Z" fill="#FF5656"/>
<path d="M25.8664 14.8652C26.3842 14.8652 26.8039 14.4455 26.8039 13.9277C26.8039 13.41 26.3842 12.9902 25.8664 12.9902H23C22.4822 12.9902 22.0625 13.41 22.0625 13.9277V21.0001C22.0625 21.5179 22.4822 21.9376 23 21.9376C23.5178 21.9376 23.9375 21.5179 23.9375 21.0001V18.3345H25.6388C26.1565 18.3345 26.5763 17.9147 26.5763 17.397C26.5763 16.8792 26.1565 16.4595 25.6388 16.4595H23.9375V14.8652H25.8664Z" fill="#FF5656"/>
<path d="M28.625 9.0625H27.9375V8.79506C27.9375 7.58994 27.4809 6.44463 26.6518 5.57L22.7577 1.46244C21.8766 0.533063 20.6367 0 19.3559 0H6.875C5.32419 0 4.0625 1.26169 4.0625 2.8125V9.0625H3.375C1.82419 9.0625 0.5625 10.3242 0.5625 11.875V23.125C0.5625 24.6758 1.82419 25.9375 3.375 25.9375H4.0625V29.1875C4.0625 30.7383 5.32419 32 6.875 32H25.125C26.6758 32 27.9375 30.7383 27.9375 29.1875V25.9375H28.625C30.1758 25.9375 31.4375 24.6758 31.4375 23.125V11.875C31.4375 10.3242 30.1758 9.0625 28.625 9.0625ZM5.9375 2.8125C5.9375 2.29556 6.35806 1.875 6.875 1.875H19.3559C20.1244 1.875 20.8683 2.19481 21.397 2.7525L25.2911 6.86006C25.7886 7.38481 26.0625 8.072 26.0625 8.79506V9.0625H5.9375V2.8125ZM26.0625 29.1875C26.0625 29.7044 25.6419 30.125 25.125 30.125H6.875C6.35806 30.125 5.9375 29.7044 5.9375 29.1875V25.9375H26.0625V29.1875ZM29.5625 23.125C29.5625 23.6419 29.1419 24.0625 28.625 24.0625H3.375C2.85806 24.0625 2.4375 23.6419 2.4375 23.125V11.875C2.4375 11.3581 2.85806 10.9375 3.375 10.9375H28.625C29.1419 10.9375 29.5625 11.3581 29.5625 11.875V23.125Z" fill="#FF5656"/>
</svg>
