<svg width="62" height="62" viewBox="0 0 62 62" fill="none" xmlns="http://www.w3.org/2000/svg">
<path d="M60.925 57.8411L49.9875 47.7129C54.8649 42.2049 57.4178 35.0209 57.1099 27.6702C56.802 20.3195 53.6572 13.3742 48.3362 8.29333C43.0153 3.21247 35.9323 0.391527 28.5752 0.423114C21.2181 0.454701 14.1596 3.33636 8.88244 8.46272C3.6053 13.5891 0.520303 20.5611 0.275525 27.9142C0.0307472 35.2673 2.64524 42.4291 7.56977 47.895C12.4943 53.361 19.3456 56.7057 26.6842 57.2265C34.0229 57.7473 41.2779 55.4037 46.925 50.6879V50.7973L57.8625 60.991C58.0674 61.21 58.3151 61.3845 58.5903 61.5037C58.8655 61.6229 59.1623 61.6842 59.4622 61.6839C59.7621 61.6835 60.0587 61.6215 60.3336 61.5017C60.6086 61.3819 60.8559 61.2068 61.0603 60.9874C61.2648 60.768 61.4219 60.5088 61.5219 60.2261C61.6219 59.9434 61.6628 59.6431 61.6419 59.3439C61.621 59.0448 61.5388 58.7531 61.4004 58.487C61.262 58.221 61.0704 57.9862 60.8375 57.7973L60.925 57.8411ZM28.8125 52.8754C24.0533 52.8754 19.4011 51.4642 15.4441 48.8202C11.487 46.1761 8.40284 42.4181 6.58161 38.0212C4.76038 33.6244 4.28386 28.7862 5.21232 24.1186C6.14077 19.4509 8.43251 15.1634 11.7977 11.7982C15.1629 8.43297 19.4504 6.14124 24.1181 5.21278C28.7858 4.28432 33.6239 4.76084 38.0208 6.58208C42.4176 8.40331 46.1757 11.4875 48.8197 15.4445C51.4637 19.4016 52.875 24.0538 52.875 28.8129C52.875 35.1947 50.3398 41.3151 45.8272 45.8277C41.3146 50.3403 35.1942 52.8754 28.8125 52.8754ZM45.2187 28.8129C45.2187 29.3931 44.9882 29.9495 44.578 30.3597C44.1678 30.77 43.6114 31.0004 43.0312 31.0004H31V43.0317C31 43.6118 30.7695 44.1682 30.3593 44.5785C29.949 44.9887 29.3926 45.2192 28.8125 45.2192C28.2323 45.2192 27.6759 44.9887 27.2657 44.5785C26.8554 44.1682 26.625 43.6118 26.625 43.0317V31.0004H14.5937C14.0136 31.0004 13.4572 30.77 13.0469 30.3597C12.6367 29.9495 12.4062 29.3931 12.4062 28.8129C12.4062 28.2328 12.6367 27.6764 13.0469 27.2661C13.4572 26.8559 14.0136 26.6254 14.5937 26.6254H26.625V14.5942C26.625 14.014 26.8554 13.4576 27.2657 13.0474C27.6759 12.6371 28.2323 12.4067 28.8125 12.4067C29.3926 12.4067 29.949 12.6371 30.3593 13.0474C30.7695 13.4576 31 14.014 31 14.5942V26.6254H43.0312C43.6114 26.6254 44.1678 26.8559 44.578 27.2661C44.9882 27.6764 45.2187 28.2328 45.2187 28.8129Z" fill="#53D687"/>
</svg>
