<svg width="13" height="14" viewBox="0 0 13 14" fill="none" xmlns="http://www.w3.org/2000/svg">
<path d="M3.56746 11.6671C3.46885 11.9459 3.30123 12.1951 3.08025 12.3916C2.85927 12.5881 2.59212 12.7254 2.30373 12.7907C2.01534 12.856 1.7151 12.8472 1.43103 12.7651C1.14697 12.683 0.888325 12.5303 0.679238 12.3212C0.470151 12.1121 0.317434 11.8534 0.235334 11.5694C0.153234 11.2853 0.144427 10.9851 0.209735 10.6967C0.275043 10.4083 0.412337 10.1411 0.608808 9.92016C0.805279 9.69917 1.05453 9.53156 1.33329 9.43295V4.56795C1.05453 4.46934 0.805279 4.30172 0.608808 4.08074C0.412337 3.85976 0.275043 3.59261 0.209735 3.30421C0.144427 3.01582 0.153234 2.71559 0.235334 2.43152C0.317434 2.14746 0.470151 1.88881 0.679238 1.67973C0.888325 1.47064 1.14697 1.31792 1.43103 1.23582C1.7151 1.15372 2.01534 1.14492 2.30373 1.21022C2.59212 1.27553 2.85927 1.41283 3.08025 1.6093C3.30123 1.80577 3.46885 2.05501 3.56746 2.33378H8.43246C8.53107 2.05501 8.69868 1.80577 8.91967 1.6093C9.14065 1.41283 9.4078 1.27553 9.69619 1.21022C9.98458 1.14492 10.2848 1.15372 10.5689 1.23582C10.8529 1.31792 11.1116 1.47064 11.3207 1.67973C11.5298 1.88881 11.6825 2.14746 11.7646 2.43152C11.8467 2.71559 11.8555 3.01582 11.7902 3.30421C11.7249 3.59261 11.5876 3.85976 11.3911 4.08074C11.1946 4.30172 10.9454 4.46934 10.6666 4.56795V9.43295C10.9454 9.53156 11.1946 9.69917 11.3911 9.92016C11.5876 10.1411 11.7249 10.4083 11.7902 10.6967C11.8555 10.9851 11.8467 11.2853 11.7646 11.5694C11.6825 11.8534 11.5298 12.1121 11.3207 12.3212C11.1116 12.5303 10.8529 12.683 10.5689 12.7651C10.2848 12.8472 9.98458 12.856 9.69619 12.7907C9.4078 12.7254 9.14065 12.5881 8.91967 12.3916C8.69868 12.1951 8.53107 11.9459 8.43246 11.6671H3.56746ZM3.56746 10.5004H8.43246C8.51973 10.2543 8.66085 10.0307 8.84553 9.84602C9.03021 9.66134 9.25379 9.52022 9.49996 9.43295V4.56795C9.25379 4.48068 9.03021 4.33955 8.84553 4.15487C8.66085 3.97019 8.51973 3.74661 8.43246 3.50045H3.56746C3.48019 3.74661 3.33906 3.97019 3.15438 4.15487C2.9697 4.33955 2.74612 4.48068 2.49996 4.56795V9.43295C2.74612 9.52022 2.9697 9.66134 3.15438 9.84602C3.33906 10.0307 3.48019 10.2543 3.56746 10.5004ZM1.91663 3.50045C2.07133 3.50045 2.21971 3.43899 2.3291 3.32959C2.4385 3.2202 2.49996 3.07182 2.49996 2.91711C2.49996 2.7624 2.4385 2.61403 2.3291 2.50463C2.21971 2.39524 2.07133 2.33378 1.91663 2.33378C1.76192 2.33378 1.61354 2.39524 1.50415 2.50463C1.39475 2.61403 1.33329 2.7624 1.33329 2.91711C1.33329 3.07182 1.39475 3.2202 1.50415 3.32959C1.61354 3.43899 1.76192 3.50045 1.91663 3.50045ZM10.0833 3.50045C10.238 3.50045 10.3864 3.43899 10.4958 3.32959C10.6052 3.2202 10.6666 3.07182 10.6666 2.91711C10.6666 2.7624 10.6052 2.61403 10.4958 2.50463C10.3864 2.39524 10.238 2.33378 10.0833 2.33378C9.92858 2.33378 9.78021 2.39524 9.67081 2.50463C9.56142 2.61403 9.49996 2.7624 9.49996 2.91711C9.49996 3.07182 9.56142 3.2202 9.67081 3.32959C9.78021 3.43899 9.92858 3.50045 10.0833 3.50045ZM10.0833 11.6671C10.238 11.6671 10.3864 11.6057 10.4958 11.4963C10.6052 11.3869 10.6666 11.2385 10.6666 11.0838C10.6666 10.9291 10.6052 10.7807 10.4958 10.6713C10.3864 10.5619 10.238 10.5004 10.0833 10.5004C9.92858 10.5004 9.78021 10.5619 9.67081 10.6713C9.56142 10.7807 9.49996 10.9291 9.49996 11.0838C9.49996 11.2385 9.56142 11.3869 9.67081 11.4963C9.78021 11.6057 9.92858 11.6671 10.0833 11.6671ZM1.91663 11.6671C2.07133 11.6671 2.21971 11.6057 2.3291 11.4963C2.4385 11.3869 2.49996 11.2385 2.49996 11.0838C2.49996 10.9291 2.4385 10.7807 2.3291 10.6713C2.21971 10.5619 2.07133 10.5004 1.91663 10.5004C1.76192 10.5004 1.61354 10.5619 1.50415 10.6713C1.39475 10.7807 1.33329 10.9291 1.33329 11.0838C1.33329 11.2385 1.39475 11.3869 1.50415 11.4963C1.61354 11.6057 1.76192 11.6671 1.91663 11.6671Z" fill="#0B5959"/>
</svg>
