<svg width="26" height="30" viewBox="0 0 26 30" fill="none" xmlns="http://www.w3.org/2000/svg">
<path d="M25.5718 7.72445C25.5564 6.91449 25.5417 6.14934 25.5417 5.4091C25.5417 4.82918 25.0717 4.35903 24.4916 4.35903C20.0008 4.35903 16.5816 3.06841 13.7316 0.297329C13.3239 -0.0991798 12.6751 -0.0990398 12.2675 0.297329C9.41772 3.06841 5.99909 4.35903 1.50854 4.35903C0.92862 4.35903 0.458465 4.82918 0.458465 5.4091C0.458465 6.14948 0.443904 6.91491 0.428363 7.72501C0.284432 15.2626 0.0872988 25.5857 12.6556 29.9421C12.767 29.9808 12.8833 30.0001 12.9995 30.0001C13.1157 30.0001 13.232 29.9808 13.3433 29.9421C25.9126 25.5856 25.7158 15.2622 25.5718 7.72445ZM12.9996 27.8357C2.22063 23.92 2.38361 15.3423 2.52824 7.76506C2.53692 7.3103 2.54532 6.86955 2.5512 6.43748C6.75711 6.25995 10.1204 4.98543 12.9996 2.47729C15.8791 4.98543 19.2429 6.26009 23.4491 6.43748C23.455 6.86941 23.4634 7.30988 23.4721 7.76436C23.6166 15.3419 23.7794 23.9199 12.9996 27.8357Z" fill="url(#paint0_linear_1773_56034)"/>
<path d="M16.6158 11.3524L11.5475 16.4204L9.3848 14.2576C8.97471 13.8477 8.3098 13.8477 7.89985 14.2576C7.48976 14.6679 7.48976 15.3326 7.89985 15.7427L10.8051 18.6479C11.01 18.8529 11.2789 18.9554 11.5475 18.9554C11.8162 18.9554 12.085 18.8529 12.29 18.6479L18.1006 12.8375C18.5108 12.4274 18.5108 11.7625 18.1007 11.3526C17.6908 10.9425 17.0259 10.9423 16.6158 11.3524Z" fill="url(#paint1_linear_1773_56034)"/>
<defs>
<linearGradient id="paint0_linear_1773_56034" x1="0.395996" y1="15" x2="25.6042" y2="15" gradientUnits="userSpaceOnUse">
<stop stop-color="#EB3349"/>
<stop offset="1" stop-color="#F45C43"/>
</linearGradient>
<linearGradient id="paint1_linear_1773_56034" x1="7.59229" y1="15.0002" x2="18.4083" y2="15.0002" gradientUnits="userSpaceOnUse">
<stop stop-color="#EB3349"/>
<stop offset="1" stop-color="#F45C43"/>
</linearGradient>
</defs>
</svg>
