<svg width="100" height="96" viewBox="0 0 100 96" fill="none" xmlns="http://www.w3.org/2000/svg">
<path d="M99.9999 47.9997L88.6795 35.431L90.4519 18.6046L73.8983 15.1003L65.4544 0.431641L50 7.33871L47.9141 47.9997L50 88.6604L65.4546 95.5675L73.8983 80.899L90.4519 77.3945L88.6795 60.5681L99.9999 47.9997Z" fill="#1BC540"/>
<path d="M34.5453 0.431641L26.1016 15.1003L9.54798 18.6048L11.3205 35.431L0 47.9997L11.3205 60.5681L9.54798 77.3945L26.1016 80.899L34.5455 95.5675L50.0001 88.6604V7.33871L34.5453 0.431641Z" fill="#1BC540"/>
<path d="M70.9611 37.0511L66.5845 33.1445L50 51.725L47.9141 56.3426L50 60.535L70.9611 37.0511Z" fill="#F7F0EB"/>
<path d="M32.5709 43.582L28.4229 47.7303L45.8631 65.1707L50 60.5359V51.726L45.621 56.6319L32.5709 43.582Z" fill="#FFFBF5"/>
</svg>
