<svg width="50" height="50" viewBox="0 0 50 50" fill="none" xmlns="http://www.w3.org/2000/svg">
<path opacity="0.5" d="M0.5 27.5H13V23.5L11.5 22.5L18.5 19.5V9.5L20 7.5L23 6.5V3H26.5L27 6L31 8.5L31.5 19.5L37 21.5L37.5 23.5V27.5H49.5V49.5H0.5V27.5Z" fill="#53D687"/>
<path fill-rule="evenodd" clip-rule="evenodd" d="M24.2188 1.2207V2.44141H23.391H22.5633L22.5365 4.07285L22.5098 5.7043L21.875 5.83047C20.4893 6.10596 19.035 7.11426 18.2955 8.3124C18.1005 8.62832 17.9033 8.88672 17.8572 8.88672C17.8111 8.88672 17.7734 9.61182 17.7734 10.498V12.1094H16.9434H16.1133V12.8867V13.664L16.9189 13.6924L17.7246 13.7207V16.3917V19.0628L16.2174 19.6876C15.3884 20.0313 14.6767 20.3125 14.6358 20.3125C14.5949 20.3125 14.548 20.1038 14.5317 19.8486L14.502 19.3848L13.6963 19.3564L12.8906 19.328V20.1945V21.061L11.6943 21.5488L10.498 22.0365V23.1032V24.1699L11.3037 24.1982L12.1094 24.2267V25.4434V26.6602H7.66602H3.22266V25.8301V25H2.44531H1.66807L1.63965 25.8057L1.61133 26.6113L0.805664 26.6396L0 26.6681V38.334V50H25H50V38.334V26.6681L49.1943 26.6396L48.3887 26.6113L48.3604 25.8057L48.3319 25H47.5547H46.7773V25.8301V26.6602H42.334H37.8906V25.4434V24.2267L38.6963 24.1982L39.502 24.1699V23.1032V22.0365L38.3057 21.5488L37.1094 21.061V20.1945V19.328L36.3037 19.3564L35.498 19.3848L35.4683 19.8486C35.452 20.1038 35.4051 20.3125 35.3642 20.3125C35.3233 20.3125 34.6116 20.0313 33.7826 19.6876L32.2754 19.0628V16.3917V13.7207L33.0811 13.6924L33.8867 13.664V12.8867V12.1094H33.0566H32.2266V10.498C32.2266 9.61182 32.1889 8.88672 32.1428 8.88672C32.0967 8.88672 31.8995 8.62832 31.7045 8.3124C30.965 7.11426 29.5107 6.10596 28.125 5.83047L27.4902 5.7043L27.4635 4.07285L27.4367 2.44141H26.609H25.7812V1.2207V0H25H24.2188V1.2207ZM25.7812 4.83398V5.66406H25H24.2188V4.83398V4.00391H25H25.7812V4.83398ZM26.17 7.39766C26.5315 7.5792 26.9937 8.18584 27.1034 8.62285L27.1696 8.88672H25.0105C23.335 8.88672 22.8516 8.85908 22.8516 8.76318C22.8516 8.57012 23.2363 7.88887 23.5098 7.59775C23.804 7.28467 23.9185 7.25713 25 7.24004C25.616 7.23027 25.9178 7.2709 26.17 7.39766ZM21.2842 8.29268L21.0676 8.88672H20.4947C20.1797 8.88672 19.9219 8.85137 19.9219 8.8082C19.9219 8.59307 21.3412 7.53916 21.4647 7.6626C21.4846 7.68242 21.4033 7.96602 21.2842 8.29268ZM29.6919 8.36523C29.9043 8.55713 30.0781 8.75293 30.0781 8.80039C30.0781 8.84785 29.8203 8.88672 29.5053 8.88672H28.9324L28.724 8.31514C28.6094 8.00078 28.5156 7.71426 28.5156 7.67842C28.5156 7.55518 29.3062 8.0167 29.6919 8.36523ZM30.6641 11.2793V12.1094H25H19.3359V11.2793V10.4492H25H30.6641V11.2793ZM20.1172 15.8741V18.0764L19.7785 18.2179C19.5923 18.2957 19.4165 18.3594 19.3879 18.3594C19.3593 18.3594 19.3359 17.3047 19.3359 16.0156V13.6719H19.7266H20.1172V15.8741ZM28.2227 15.5378C28.2227 16.9928 28.1958 17.3924 28.1006 17.3525C28.0335 17.3243 27.3083 17.0253 26.4893 16.6881L25 16.0748L23.5107 16.6881C22.6917 17.0253 21.9666 17.3243 21.8994 17.3525C21.8042 17.3924 21.7773 16.9928 21.7773 15.5378V13.6719H25H28.2227V15.5378ZM30.6641 16.0156C30.6641 17.3047 30.6407 18.3594 30.6121 18.3594C30.5835 18.3594 30.4077 18.2957 30.2215 18.2179L29.8828 18.0764V15.8741V13.6719H30.2734H30.6641V16.0156ZM30.7804 20.1903L36.4143 22.5098L34.8059 22.5365L33.1976 22.5634L29.0988 20.9334L25 19.3035L20.9012 20.9334L16.8024 22.5634L15.1941 22.5365L13.5858 22.5098L19.1708 20.1996C22.2426 18.929 24.8438 17.8853 24.9512 17.8802C25.0586 17.8751 27.6817 18.9146 30.7804 20.1903ZM26.9464 21.7912L28.7464 22.5098L26.8731 22.5363C25.843 22.5509 24.1576 22.5509 23.128 22.5363L21.256 22.5098L23.1036 21.7623C24.1197 21.3512 24.9951 21.0278 25.0488 21.0438C25.1025 21.0598 25.9564 21.3961 26.9464 21.7912ZM36.3281 25V25.7812H25H13.6719V25V24.2188H25H36.3281V25ZM16.8945 32.666V37.8906H15.2832H13.6719V32.666V27.4414H15.2832H16.8945V32.666ZM21.7773 32.666V37.8906H20.166H18.5547V32.666V27.4414H20.166H21.7773V32.666ZM26.6602 32.666V37.8906H25H23.3398V32.666V27.4414H25H26.6602V32.666ZM31.4453 32.666V37.8906H29.834H28.2227V32.666V27.4414H29.834H31.4453V32.666ZM36.3281 32.666V37.8906H34.7168H33.1055V32.666V27.4414H34.7168H36.3281V32.666ZM12.1094 29.0536V29.8845L6.86035 29.8593L1.61133 29.834L1.58301 29.0283L1.55459 28.2227H6.83203H12.1094V29.0536ZM48.417 29.0283L48.3887 29.834L43.1396 29.8593L37.8906 29.8845V29.0536V28.2227H43.168H48.4454L48.417 29.0283ZM19.3359 32.2754V34.668H20.166H20.9961V32.2754V29.8828H20.166H19.3359V32.2754ZM24.2188 32.2754V34.668H25H25.7812V32.2754V29.8828H25H24.2188V32.2754ZM29.0039 32.2754V34.668H29.834H30.6641V32.2754V29.8828H29.834H29.0039V32.2754ZM14.5508 32.666V34.668H15.332H16.1133V32.666V30.6641H15.332H14.5508V32.666ZM33.8867 32.666V34.668H34.668H35.4492V32.666V30.6641H34.668H33.8867V32.666ZM12.1094 35.0586V38.6719H10.8887H9.66797V37.5V36.3281H8.88672H8.10547V37.5V38.6719H6.88477H5.66406V37.5V36.3281H4.83398H4.00391V37.5V38.6719H2.7832H1.5625V35.0586V31.4453H6.83594H12.1094V35.0586ZM48.4375 35.0586V38.6719H47.2168H45.9961V37.5V36.3281H45.166H44.3359V37.5V38.6719H43.1152H41.8945V37.5V36.3281H41.1133H40.332V37.5V38.6719H39.1113H37.8906V35.0586V31.4453H43.1641H48.4375V35.0586ZM4.00391 33.8867V34.668H4.83398H5.66406V33.8867V33.1055H4.83398H4.00391V33.8867ZM8.10547 33.8867V34.668H8.88672H9.66797V33.8867V33.1055H8.88672H8.10547V33.8867ZM40.332 33.8867V34.668H41.1133H41.8945V33.8867V33.1055H41.1133H40.332V33.8867ZM44.3359 33.8867V34.668H45.166H45.9961V33.8867V33.1055H45.166H44.3359V33.8867ZM16.8945 40.332V41.1133H17.7246H18.5547V40.332V39.5508H20.166H21.7773V40.332V41.1133H22.6074H23.4375V40.332V39.5508H25H26.5625V40.332V41.1133H27.3926H28.2227V40.332V39.5508H29.834H31.4453V40.332V41.1133H32.2754H33.1055V40.332V39.5508H34.7168H36.3281V42.334V45.1172H35.498H34.668V43.9453V42.7734H33.8867H33.1055V43.9453V45.1172H31.8872H30.6689L30.6421 43.5303L30.6152 41.9434H29.834H29.0527L29.0259 43.5303L28.999 45.1172H27.3901H25.7812V43.5059V41.8945H25H24.2188V43.5059V45.1172H22.6099H21.001L20.9741 43.5303L20.9473 41.9434H20.166H19.3848L19.3579 43.5303L19.3311 45.1172H18.1128H16.8945V43.9453V42.7734H16.1133H15.332V43.9453V45.1172H14.502H13.6719V42.334V39.5508H15.2832H16.8945V40.332ZM12.1094 42.7246V45.1172H6.83594H1.5625V42.7246V40.332H6.83594H12.1094V42.7246ZM48.4375 42.7246V45.1172H43.1641H37.8906V42.7246V40.332H43.1641H48.4375V42.7246ZM4.07275 41.9559C4.03486 41.9937 4.00391 42.3689 4.00391 42.7897V43.5547H4.83789H5.67197L5.64355 42.749L5.61523 41.9434L4.87842 41.9152C4.47314 41.8997 4.11064 41.9181 4.07275 41.9559ZM8.10547 42.7246V43.5547H8.88672H9.66797V42.7246V41.8945H8.88672H8.10547V42.7246ZM40.332 42.7246V43.5547H41.1133H41.8945V42.7246V41.8945H41.1133H40.332V42.7246ZM44.4048 41.9559C44.3669 41.9937 44.3359 42.3689 44.3359 42.7897V43.5547H45.1699H46.004L45.9756 42.749L45.9473 41.9434L45.2104 41.9152C44.8052 41.8997 44.4427 41.9181 44.4048 41.9559ZM12.0889 47.583L12.0605 48.3887H6.83594H1.61133L1.58301 47.583L1.55459 46.7773H6.83594H12.1173L12.0889 47.583ZM15.3115 47.583L15.2832 48.3887H14.502H13.7207L13.6924 47.583L13.664 46.7773H14.502H15.3399L15.3115 47.583ZM19.3359 47.6105V48.4436L18.1396 48.4161L16.9434 48.3887L16.915 47.583L16.8866 46.7773H18.1113H19.3359V47.6105ZM24.1982 47.583L24.1699 48.3887L22.583 48.4155L20.9961 48.4424V47.6099V46.7773H22.6113H24.2267L24.1982 47.583ZM29.0039 47.6099V48.4424L27.417 48.4155L25.8301 48.3887L25.8018 47.583L25.7733 46.7773H27.3887H29.0039V47.6099ZM33.085 47.583L33.0566 48.3887L31.8604 48.4161L30.6641 48.4436V47.6105V46.7773H31.8887H33.1134L33.085 47.583ZM36.3076 47.583L36.2793 48.3887H35.498H34.7168L34.6885 47.583L34.6601 46.7773H35.498H36.336L36.3076 47.583ZM48.417 47.583L48.3887 48.3887H43.1641H37.9395L37.9111 47.583L37.8827 46.7773H43.1641H48.4454L48.417 47.583Z" fill="#0B5959"/>
</svg>
