<svg width="50" height="50" viewBox="0 0 50 50" fill="none" xmlns="http://www.w3.org/2000/svg">
<g clip-path="url(#clip0_1773_55996)">
<path d="M25.0017 49.9939C38.8065 49.9956 49.9984 38.807 50 25.0022C50.0026 11.1983 38.8131 0.00644566 25.0092 0.0039066C15.0062 0.00224644 5.96557 5.96523 2.02797 15.1609L1.71635 15.2643L1.83715 15.6267C-3.34683 28.4124 2.81528 42.9795 15.601 48.1635C18.5872 49.374 21.779 49.9956 25.0017 49.9939Z" fill="url(#paint0_linear_1773_55996)"/>
<path d="M42.498 8.33691L39.9985 10.0032L35.8327 9.17002L33.3332 8.33682L30.0005 9.17002L27.501 8.33682L29.1673 5.0041H32.4999L35.7659 3.37109C38.2848 4.61768 40.5635 6.29902 42.498 8.33691Z" fill="white"/>
<path d="M23.3353 5.0041L22.5021 7.50361L20.0025 8.33682L17.503 12.5026L13.3372 15.0021L7.50508 15.8354V18.3349L9.17139 20.0012V23.3339L6.67188 21.6676L4.17236 20.0011L2.72266 15.6437C5.21807 9.69736 9.98789 4.99658 15.97 2.58789L18.3362 4.1709L23.3353 5.0041Z" fill="white"/>
<path d="M25.0014 28.3325L24.1683 32.4983L20.8355 35.831V38.3305L17.5029 40.83V44.9958L15.0034 44.1626L13.337 39.9968V31.6651L9.17119 30.8319L7.50488 27.4993V24.9998L9.17119 23.3335L11.6707 20.834L13.337 24.1666H19.1692L21.6688 28.3325H25.0014Z" fill="white"/>
<path d="M46.0807 13.1945C50.6289 21.3088 50.1106 31.3143 44.7476 38.9144L42.498 36.6648V33.3322L40.8317 29.9995L39.1654 26.6669V23.3342L36.6659 21.6679L33.3333 22.5011L27.5012 20.0016L26.668 14.1694L29.1675 11.6699H34.1665L35.8328 14.1694L40.8318 15.0026L45.8309 13.3363L46.0807 13.1945Z" fill="white"/>
<path d="M25.0017 49.9959C38.8065 49.9976 49.9984 38.809 50 25.0042C50.0026 11.2003 38.8131 0.00839878 25.0092 0.00585972C15.0062 0.00419957 5.96557 5.96719 2.02797 15.1629L1.71635 15.2662L1.83715 15.6286C-3.34683 28.4144 2.81528 42.9814 15.601 48.1654C18.5872 49.376 21.779 49.9976 25.0017 49.9959ZM44.6169 37.605L43.3314 36.3202V33.3325C43.3331 33.2034 43.3039 33.0759 43.2481 32.9601L39.9988 26.4705V23.3345C39.9988 23.0562 39.8596 22.7963 39.628 22.6413L37.1285 20.975C36.9327 20.8442 36.6902 20.8025 36.462 20.8601L33.4009 21.6249L28.2594 19.4187L27.5521 14.463L29.5125 12.5034H33.7208L35.1373 14.6321C35.2656 14.8237 35.4664 14.9537 35.6938 14.9912L40.6928 15.8244C40.827 15.8469 40.9644 15.836 41.0927 15.7928L45.6968 14.2581C49.5585 21.6691 49.1453 30.5832 44.6137 37.6051H44.6169V37.605ZM41.1785 8.21592L39.8238 9.11904L36.047 8.36338L33.5966 7.54775C33.4466 7.49697 33.285 7.49024 33.1317 7.5294L30.0339 8.30342L28.6758 7.85098L29.6823 5.83809H32.5C32.6291 5.83809 32.7567 5.80811 32.8725 5.75059L35.7552 4.30918C37.7409 5.34561 39.5671 6.66123 41.1785 8.21592ZM15.876 3.53272L17.8756 4.86582C17.974 4.93076 18.0847 4.975 18.2014 4.99414L22.2389 5.66738L21.8449 6.84629L19.7412 7.54863C19.5529 7.61113 19.3929 7.73945 19.2904 7.90938L16.8975 11.8969L13.0541 14.2031L7.38862 15.0121C6.97788 15.0704 6.6729 15.4212 6.67211 15.8361V18.3356C6.67211 18.5564 6.75961 18.7688 6.91626 18.9247L8.33842 20.3469V21.7782L4.87241 19.467L3.61518 15.6952C6.00717 10.2297 10.3914 5.88057 15.876 3.53272ZM13.504 30.8497L9.73813 30.0957L8.33842 27.3037V25.3458L11.4428 22.2414L12.5917 24.5401C12.7326 24.8226 13.0216 25.0009 13.3374 25.0009H18.698L20.955 28.7626C21.1058 29.0134 21.3766 29.1667 21.6691 29.1667H23.9853L23.4021 32.0886L20.2477 35.243C20.0911 35.3987 20.0028 35.6112 20.0028 35.832V37.9149L17.0034 40.1645C16.7934 40.3219 16.6701 40.5686 16.6701 40.831V43.8403L15.6336 43.4971L14.1706 39.8378V31.6661C14.1706 31.2705 13.8922 30.9289 13.504 30.8497ZM2.69038 18.1889L3.38276 20.2651C3.44106 20.4409 3.5561 20.5917 3.7102 20.695L7.86352 23.4637L6.91626 24.4118C6.75961 24.5676 6.67211 24.7801 6.67211 25.0009V27.5004C6.67211 27.6295 6.7021 27.757 6.75962 27.8729L8.42592 31.2056C8.54086 31.4355 8.75669 31.5996 9.00913 31.6496L12.5084 32.3486V39.998C12.5084 40.1037 12.5285 40.2087 12.5676 40.307L14.2339 44.4729C14.3248 44.7003 14.5123 44.8761 14.7447 44.9536L17.2442 45.7868C17.3275 45.8151 17.415 45.8302 17.5033 45.8302C17.9631 45.8302 18.3365 45.4569 18.3365 44.997V41.2478L21.3359 38.9982C21.5458 38.8408 21.6692 38.5941 21.6692 38.3317V36.1772L24.7578 33.0886C24.8736 32.972 24.9527 32.8244 24.9852 32.6628L25.8184 28.497C25.9083 28.0454 25.616 27.6071 25.1644 27.5163C25.1111 27.5055 25.0561 27.5005 25.0019 27.5005H22.1407L19.8836 23.7388C19.7329 23.488 19.4621 23.3347 19.1696 23.3347H13.8523L12.4209 20.4627C12.3009 20.2228 12.0735 20.0553 11.8085 20.0128C11.5444 19.967 11.2737 20.0545 11.0862 20.2461L10.0047 21.3233V20.0019C10.0047 19.7811 9.91723 19.5687 9.76059 19.4128L8.33842 17.9906V16.5584L13.4557 15.8277C13.5657 15.8119 13.6715 15.7744 13.7665 15.7169L17.9323 13.2174C18.0489 13.1474 18.1472 13.0491 18.2172 12.9324L20.5584 9.03066L22.7655 8.29414C23.0146 8.2125 23.2104 8.0167 23.292 7.76758L24.1252 5.26807C24.2694 4.83145 24.0328 4.35996 23.5954 4.21582C23.5553 4.20244 23.5137 4.19248 23.472 4.18496L18.6497 3.38096L17.8023 2.81611C23.0455 1.10977 28.7243 1.32061 33.8257 3.41182L32.3036 4.17168H29.1675C28.85 4.17002 28.5593 4.34834 28.4177 4.63242L26.7514 7.96514C26.5464 8.37676 26.7131 8.87744 27.1255 9.08242C27.1605 9.0999 27.1972 9.11494 27.2338 9.12744L29.7333 9.96064C29.8833 10.0114 30.045 10.0182 30.1983 9.979L33.296 9.20498L35.5656 9.96064C35.5981 9.97227 35.6314 9.98145 35.6656 9.98731L39.8314 10.8205C40.048 10.8646 40.2738 10.8205 40.4571 10.6972L42.3534 9.43242C43.2865 10.4722 44.1255 11.5929 44.8595 12.781L40.7603 14.1474L36.322 13.4075L34.8556 11.208C34.7015 10.9772 34.444 10.8389 34.1665 10.8372H29.1675C28.9467 10.8372 28.7343 10.9247 28.5785 11.0813L26.079 13.5809C25.8931 13.7667 25.8057 14.0282 25.8432 14.2882L26.6764 20.1203C26.7181 20.4086 26.9081 20.6544 27.1763 20.7677L33.0084 23.2672C33.1759 23.3396 33.3617 23.3547 33.5383 23.3097L36.5135 22.5656L38.3324 23.7804V26.6673C38.3307 26.7964 38.3599 26.9239 38.4157 27.0397L41.665 33.5293V36.6653C41.665 36.8861 41.7525 37.0985 41.9091 37.2544L43.6521 38.9982C35.922 49.3021 21.3033 51.3883 10.9995 43.6581C3.1436 37.7642 -0.178276 27.5812 2.69038 18.1889Z" fill="#CB281A"/>
</g>
<defs>
<linearGradient id="paint0_linear_1773_55996" x1="0" y1="24.9989" x2="50" y2="24.9989" gradientUnits="userSpaceOnUse">
<stop stop-color="#EB3349"/>
<stop offset="1" stop-color="#F45C43"/>
</linearGradient>
<clipPath id="clip0_1773_55996">
<rect width="50" height="50" fill="white"/>
</clipPath>
</defs>
</svg>
